<?xml version="1.0" encoding="utf-8"?>
<!-- Generator: Adobe Illustrator 17.0.0, SVG Export Plug-In . SVG Version: 6.00 Build 0)  -->
<!DOCTYPE svg PUBLIC "-//W3C//DTD SVG 1.1//EN" "http://www.w3.org/Graphics/SVG/1.1/DTD/svg11.dtd">
<svg version="1.1" id="Layer_1" xmlns="http://www.w3.org/2000/svg" xmlns:xlink="http://www.w3.org/1999/xlink" x="0px" y="0px" width="300px" height="800px" viewBox="0 0 300 800" enable-background="new 0 0 300 800" xml:space="preserve">

<!-- <rect x="1" fill="#7A7A6C" width="299" height="800"/> -->

<g id="kzEr95_1_">
	<g>
		<path d="M281.787,745.438c4.015,0,8.029,0,12.268,0c0.868,1.728-0.133,3.346-1.069,4.854c-0.277,0.446-1.287,0.601-1.964,0.607
			c-5.513,0.049-11.026,0.032-16.54,0.034c-1.089,0.001-2.179,0-3.378,0c-0.154,0.703-0.364,1.215-0.364,1.726
			c-0.011,7.994-0.061,15.989,0.038,23.982c0.069,5.651,0.357,11.3,0.526,16.95c0.043,1.453,0.007,2.909,0.007,4.467
			c0.587,0.211,1.152,0.413,1.729,0.62c-0.587,0.453-1.151,0.887-1.715,1.321c-1.287,0-2.574,0-3.86,0c-0.184,0-0.368,0-0.551,0
			c-0.919,0-1.838,0-2.757,0c-0.184,0-0.368,0-0.551,0c-0.551,0-1.103,0-1.654,0c-0.53-0.303-1.059-0.606-1.533-0.876
			c1.632-0.781,1.718-0.969,1.572-2.771c-0.198-2.449-0.474-4.9-0.49-7.352c-0.017-2.647,0.341-5.296,0.329-7.942
			c-0.016-3.545-0.213-7.091-0.366-10.635c-0.102-2.366-0.371-4.73-0.372-7.094c-0.001-3.471,0.188-6.942,0.254-10.414
			c0.012-0.601-0.18-1.205-0.298-1.94c-0.968,0-1.784-0.003-2.601,0c-14.92,0.059-29.839,0.118-44.759,0.177
			c-1.296,0.005-1.992,0.546-1.848,1.812c0.193,1.704,0.441,3.462,1.072,5.034c0.432,1.077,0.383,1.906-0.004,2.859
			c-0.047,0.043-0.094,0.085-0.14,0.128c0.028-0.061,0.057-0.121,0.085-0.182c0.185,0.671,0.481,1.333,0.534,2.014
			c0.2,2.603,0.337,5.211,0.459,7.819c0.03,0.647-0.082,1.301-0.136,2.054c-0.626-0.355-1.014-0.574-1.401-0.794
			c-0.19-0.186-0.38-0.373-0.571-0.559c-0.178-0.36-0.357-0.72-0.535-1.08c-0.184-0.184-0.367-0.367-0.551-0.551l-0.128-0.198
			l0.184,0.141c0.184,0.184,0.367,0.369,0.551,0.553c0.176,0.362,0.352,0.723,0.528,1.085c0.189,0.187,0.379,0.374,0.568,0.561
			c0.418,0.76,0.765,1.571,1.271,2.266c0.737,1.013,1.644,1.904,2.36,2.929c0.254,0.363,0.163,0.967,0.23,1.461
			c-0.048,0.045-0.096,0.09-0.144,0.134c0.03-0.063,0.06-0.125,0.09-0.188c0.811,0.141,1.317,0.579,1.414,1.569
			c-0.798,0.75-1.656,1.555-2.513,2.361c-0.049-0.046-0.098-0.092-0.147-0.138c0.065,0.03,0.13,0.059,0.195,0.089
			c-0.383,0.384-0.767,0.767-1.15,1.151c-0.049-0.046-0.097-0.093-0.146-0.139c0.064,0.031,0.128,0.062,0.192,0.092
			c-0.172,0.309-0.344,0.618-0.445,0.8c0.756,1.219,1.418,2.357,2.16,3.44c0.228,0.332,0.677,0.512,1.025,0.762l-0.037-0.037
			c-0.131,0.339-0.442,0.731-0.361,1.008c0.414,1.424,0.282,2.606-0.9,3.678c-0.251,0.228,0.086,1.105,0.145,1.612
			c-1.263,0.659-2.501,1.306-4.173,2.179c0.805,0.335,1.177,0.639,1.383,0.552c2.154-0.915,4.087-0.198,6.079,0.601
			c1.079,0.433,2.31,0.471,3.433,0.816c0.926,0.285,1.794,0.76,2.688,1.15c-1.103,0-2.206,0-3.309,0c-0.184,0-0.368,0-0.551,0
			c-2.574,0-5.147,0-7.721,0c-0.184,0-0.368,0-0.551,0c-1.654,0-3.309,0-4.963,0c-0.012-0.185-0.024-0.371-0.036-0.556
			c0.047-0.04,0.094-0.081,0.142-0.121c-0.028,0.059-0.056,0.118-0.084,0.177c-0.191,0.167-0.383,0.334-0.574,0.5
			c-0.919,0-1.838,0-2.757,0c-0.699-2.066-1.558-4.093-2.058-6.206c-0.759-3.202-0.653-3.227-3.48-1.907
			c-1.119,0.523-1.67,0.315-2.107-0.845c-0.257-0.682-0.395-1.414-0.693-2.075c-1.837-4.092-3.725-8.161-5.551-12.259
			c-0.727-1.631-1.08-3.485-2.049-4.942c-3.038-4.569-6.298-8.991-9.444-13.489c-0.413-0.591-0.681-1.286-0.987-1.947
			c-0.419-0.908-0.857-1.812-1.203-2.749c-0.648-1.756-1.891-2.135-3.68-2.117c-10.559,0.105-21.12,0.062-31.679,0.128
			c-3.21,0.02-6.418,0.297-9.628,0.335c-6.249,0.074-12.498,0.076-18.748,0.084c-23.068,0.031-46.135,0.051-69.203,0.085
			c-0.804,0.001-1.607,0.1-2.552,0.163c-0.802,16.014-0.67,31.879-0.725,47.741c-2.941,0-5.882,0-8.824,0
			c0.005-3.574-0.011-7.149,0.03-10.723c0.01-0.907,0.195-1.812,0.306-2.718c0.056-0.453,0.273-0.943,0.167-1.351
			c-0.946-3.65,0.02-7.29,0.006-10.933c-0.023-6.124,0.027-12.248,0.045-18.372c0.003-0.989,0-1.979,0-3.329
			c-1.533,0.34-2.724,0.604-4.055,0.9c0.111-0.392,0.199-0.7,0.377-1.327c-6.19,0.005-12.33,0.906-18.661-0.32
			c-0.241-1.198-0.501-2.492-0.823-4.091c4.023-0.234,7.722,0.142,11.422,0.151c3.624,0.009,7.249-0.321,11.285-0.523
			c-1.146-1.028-1.983-1.779-2.82-2.53c0,0-0.054,0.054-0.054,0.054c1.306-0.112,0.415-0.87,0.382-1.604
			c0.9-0.23,1.837-0.469,3.069-0.783c0.402-2.503-0.205-5.13-0.016-7.733c0.186-2.558,0.274-5.132,0.239-7.696
			c-0.037-2.633-0.275-5.262-0.437-8.112c-7.726-0.348-15.326,0.135-23.134-0.138c-0.836-2.869-0.225-5.718-0.377-8.503
			c-0.148-2.723-0.027-5.461-0.024-8.398c8.083-0.183,15.85-0.359,23.529-0.533c0.848-0.943,0.589-1.792,0.124-2.894
			c-7.516,0-15.1,0-22.819,0c-0.161-0.81-0.372-1.407-0.383-2.009c-0.043-2.297,0.021-4.596-0.04-6.892
			c-0.044-1.646-0.268-3.286-0.325-4.932c-0.034-0.971,0.101-1.947,0.162-2.944c0.787-0.149,1.317-0.329,1.85-0.339
			c6.515-0.119,13.03-0.247,19.545-0.291c1.916-0.013,3.835,0.361,5.75,0.338c8.255-0.097,16.508-0.387,24.762-0.403
			c28.308-0.056,56.615-0.008,84.923-0.036c24.446-0.024,48.892-0.048,73.337-0.168c15.986-0.079,31.972-0.356,47.958-0.492
			c8.454-0.072,16.909-0.036,25.364-0.042c0.455,0,0.909,0.071,1.34,0.107c0.736,1.99,0.845,13.402,0.117,16.904
			c-7.707,0-15.479,0-23.531,0c-0.053,1.214-0.094,2.154-0.145,3.324c2.778,0.424,5.335,0.176,7.87,0.226
			c2.664,0.052,5.33,0.018,7.996,0.019c2.566,0.001,5.131,0,7.65,0c0.586,1.92,0.803,13.098,0.324,16.803
			c-0.719,0.061-1.501,0.18-2.285,0.186c-4.503,0.031-9.007,0.037-13.51,0.047c-2.542,0.005-5.085,0.001-7.856,0.001
			c-0.115,1.079-0.267,1.867-0.273,2.656c-0.025,3.667,0.005,7.334-0.014,11.001c-0.013,2.558-0.17,5.12-0.077,7.673
			c0.066,1.815,0.379,3.63,0.721,5.418c0.079,0.412,0.703,0.986,1.12,1.026c3.252,0.309,6.526,0.833,9.739-0.29L281.787,745.438z
			 M208.996,767.503l-0.129-0.189c0,0,0.185,0.133,0.185,0.133C209.033,767.465,209.015,767.484,208.996,767.503z M36.96,716.694
			c0.045,0.047,0.089,0.094,0.134,0.141c-0.063-0.028-0.125-0.057-0.188-0.085c-0.074-0.95-0.509-1.615-1.531-1.502
			c-0.358,0.04-0.994,0.634-0.945,0.761c0.208,0.541,0.606,1.016,0.979,1.481c0.081,0.101,0.341,0.06,0.542,0.087
			C36.28,717.289,36.62,716.991,36.96,716.694z M36.921,696.845c0.903-2.354,0.89-2.382-1.583-3.047
			c-0.514,0.59-1.069,1.228-1.871,2.15c1.191,0,1.989-0.087,2.75,0.044c0.297,0.051,0.51,0.592,0.761,0.909
			c-0.987,0.179-2.081-0.291-3.187,0.501c1.022,0.85,2.028,0.581,3.035,0.697C36.868,697.546,36.895,697.196,36.921,696.845z
			 M150.615,717.863c-1.551,0.094-3.102,0.263-4.654,0.265c-2.546,0.005-5.092-0.115-7.638-0.15c-2-0.027-4.002-0.043-6.002,0.007
			c-1.281,0.032-2.558,0.276-3.838,0.279c-16.171,0.046-32.341,0.066-48.512,0.092c-12.587,0.02-25.175,0.029-37.762,0.073
			c-1.148,0.004-2.296,0.226-3.467,0.35c-0.084,0.736-0.176,1.185-0.18,1.634c-0.063,6.797-0.119,13.594-0.162,20.391
			c-0.003,0.452-0.063,1.091,0.193,1.323c0.916,0.828,0.539,1.829,0.582,2.785c0.035,0.793,0.113,1.583,0.186,2.565
			c1.574,0.048,2.935,0.132,4.294,0.124c10.918-0.066,21.836-0.139,32.753-0.236c2.19-0.019,4.378-0.204,6.567-0.219
			c4.961-0.035,9.924,0.061,14.884-0.032c4.938-0.092,9.867,0.362,14.812,0.048c3.386-0.215,6.797-0.028,10.196-0.07
			c23.787-0.296,47.575,0.25,71.364-0.413c14.762-0.411,29.542-0.124,44.313-0.236c7.337-0.056,14.673-0.303,22.01-0.471
			c0.55-0.013,1.103-0.054,1.646-0.135c0.358-0.053,0.737-0.142,1.041-0.324c0.295-0.177,0.674-0.464,0.727-0.755
			c0.338-1.872,0.815-3.756,0.84-5.641c0.077-5.877-0.028-11.755-0.061-17.633c-0.006-0.995-0.001-1.989-0.001-3.228
			c-1.116-0.142-1.994-0.349-2.873-0.351c-13.69-0.04-27.381-0.058-41.071-0.059c-0.595,0-1.19,0.215-1.817,0.336
			c0,0.638-0.034,1.092,0.006,1.539c0.268,3.011,0.717,6.018,0.779,9.032c0.05,2.43,0.225,4.729,1.652,6.467
			c-0.078,2.03-2.182,3.185-1.237,5.484c-1.848,0.125-3.565,0.333-5.283,0.341c-10.658,0.048-21.316,0.012-31.974,0.083
			c-7.527,0.05-15.055,0.173-22.579,0.384c-1.959,0.055-3.169-0.709-3.814-2.416c-0.838-2.22-1.553-4.487-2.326-6.731
			c-0.269-0.78-0.478-1.592-0.845-2.323c-1.934-3.852-2.807-7.939-2.829-12.228c4.775-0.004,9.555-0.133,14.325,0.023
			c4.757,0.155,9.476-0.529,14.256-0.187c5.103,0.366,10.252,0.104,15.381,0.104c3.674,0,7.347-0.015,11.021-0.04
			c0.993-0.007,2.051,0.068,2.633-1.39c-0.735,0.052-1.316,0.105-1.899,0.131c-1.274,0.057-2.551,0.174-3.822,0.129
			c-1.456-0.052-2.904-0.325-4.36-0.376c-2.11-0.074-4.225-0.012-6.336-0.058c-0.592-0.013-1.18-0.202-2.018-0.356
			c0.537-0.758,0.908-1.282,1.45-2.047c-2.031-0.413-3.723-0.399-5.519-0.153c-0.051,0.646-0.092,1.163-0.144,1.82
			c-0.743,0.23-1.521,0.679-2.296,0.674c-3.292-0.022-6.586-0.125-9.874-0.302c-3.012-0.162-6.016-0.469-9.026-0.682
			c-0.447-0.032-0.904,0.132-1.36,0.156c-1.975,0.104-3.974,0.36-5.89-0.317c-1.461-0.516-2.851-0.485-4.301,0.028
			c-0.759,0.269-1.695,0.649-2.373,0.429c-2.708-0.878-5.269,0.304-7.899,0.347c-0.698,0.011-1.3-5.548-1.451-4.564
			c1.257,0,2.35,5.932,3.432,6.015C146.521,717.349,148.657,716.811,150.615,717.863z M38.572,701.249
			c0.975,0.098,1.599,0.214,2.225,0.216c4.501,0.013,9.003,0.005,13.504-0.001c14.882-0.021,29.764-0.042,44.646-0.067
			c14.952-0.025,29.904-0.107,44.857-0.073c8.91,0.02,17.821-0.05,26.731-0.054c15.8-0.008,31.6,0.013,47.4-0.007
			c1.456-0.002,2.912-0.308,4.366-0.296c2.105,0.017,4.21,0.301,6.313,0.28c3.483-0.035,6.965-0.299,10.448-0.331
			c7.532-0.069,15.066-0.047,22.599-0.079c0.98-0.004,1.959-0.11,3.009-0.173c0-1.206,0-2.133,0-3.147
			c-0.772-0.073-1.309-0.169-1.846-0.168c-12.493,0.024-24.987,0.081-37.48,0.062c-1.596-0.002-2.615,0.491-2.883,2.109
			c-3.827,0.255-7.479,0.676-11.135,0.708c-12.217,0.105-24.436,0.062-36.654,0.098c-1.733,0.005-3.465,0.19-5.198,0.185
			c-3.486-0.01-6.978-0.259-10.454-0.105c-3.868,0.171-7.673-0.149-11.476-0.724c-0.43-0.065-1.13-0.23-1.2-0.487
			c-0.46-1.677-1.775-1.325-2.916-1.327c-5.236-0.013-10.472-0.023-15.708,0.009c-26.633,0.165-53.266,0.343-79.899,0.519
			c-2.755,0.018-5.51,0.043-8.265,0.094c-0.24,0.004-0.476,0.225-0.833,0.404C38.679,699.566,38.635,700.264,38.572,701.249z
			 M266.938,718.927c0.533-0.134,1.019-0.357,1.506-0.358c1.225-0.003,1.562-0.778,1.663-1.767c0.099-0.97-0.108-1.808-1.08-2.324
			c-0.792-0.42-1.465-0.175-2,0.356c-0.255,0.254-0.435,0.868-0.305,1.17c0.33,0.762,1.04,0.526,1.676,0.39
			c0.084-0.018,0.215,0.186,0.59,0.533c-0.902,0.378-1.662,0.696-2.469,1.034C266.653,718.269,266.796,718.598,266.938,718.927z
			 M269.046,693.91c-0.224-1.057-0.82-1.418-1.599-1.311c-0.337,0.046-0.823,0.435-0.888,0.742c-0.163,0.776,0.76,1.681,1.465,1.446
			C268.446,694.648,268.757,694.172,269.046,693.91z M37.985,685.524c-0.299-0.641-0.419-1.43-0.797-1.583
			c-0.592-0.241-1.362-0.081-2.049-0.014c-0.1,0.01-0.26,0.472-0.208,0.679c0.054,0.214,0.307,0.486,0.517,0.532
			C36.18,685.299,36.929,685.372,37.985,685.524z M176.45,702.573c0.992,0.28,1.984,0.649,3.273-0.19
			C177.952,701.889,177.952,701.889,176.45,702.573z M267.42,702.707c-0.457,0.496-0.809,0.703-0.859,0.967
			c-0.142,0.739,0.295,1.201,1,1.247c0.24,0.016,0.755-0.456,0.719-0.568C268.119,703.852,267.804,703.4,267.42,702.707z
			 M184.661,702.071c1.045,0.683,2.065,0.918,3.047,0C186.692,702.071,185.676,702.071,184.661,702.071z M36.853,705.091
			c-0.492-0.357-0.9-0.764-0.993-0.702c-0.328,0.22-0.586,0.582-0.772,0.941c-0.03,0.058,0.489,0.574,0.673,0.531
			C36.101,705.783,36.381,705.446,36.853,705.091z M36.435,687.177c-0.135-0.189-0.269-0.378-0.404-0.567
			c-0.319-0.052-0.722-0.246-0.937-0.12c-0.28,0.164-0.41,0.582-0.605,0.891c0.305,0.061,0.621,0.201,0.914,0.164
			C35.757,687.501,36.092,687.307,36.435,687.177z M267.237,682.728c-0.002,0.24-0.003,0.479-0.005,0.719
			c0.463-0.03,0.927-0.06,1.39-0.09c-0.032-0.159-0.037-0.443-0.1-0.457C268.1,682.811,267.667,682.779,267.237,682.728z
			 M158.882,710.282c0.003,0.066,0.006,0.132,0.009,0.198c0.679,0,1.358,0,2.037,0c-0.005-0.066-0.01-0.132-0.016-0.198
			C160.236,710.282,159.559,710.282,158.882,710.282z M206.143,710.689c-0.362-0.202-0.551-0.367-0.762-0.404
			c-0.133-0.023-0.3,0.144-0.452,0.226c0.136,0.181,0.247,0.475,0.416,0.513C205.525,711.065,205.759,710.863,206.143,710.689z
			 M265.623,798.699c-0.183-0.144-0.373-0.294-0.562-0.443c-0.069,0.151-0.233,0.349-0.186,0.443
			c0.096,0.192,0.304,0.329,0.465,0.488C265.422,799.046,265.504,798.906,265.623,798.699z M199.696,681.599
			c0.004,0.107,0.008,0.215,0.012,0.322c0.502-0.033,1.005-0.065,1.507-0.098c-0.006-0.075-0.013-0.149-0.019-0.224
			C200.696,681.599,200.196,681.599,199.696,681.599z M216.774,697.022c0,0.056,0,0.113,0,0.169c0.336,0,0.671,0,1.007,0
			c0-0.056,0-0.113,0-0.169C217.445,697.022,217.11,697.022,216.774,697.022z M195.735,711.042c0-0.075,0-0.151,0-0.226
			c-0.36,0-0.72,0-1.08,0c0,0.075,0,0.151,0,0.226C195.015,711.042,195.375,711.042,195.735,711.042z M31.647,743.672
			c0.121-0.069,0.242-0.138,0.363-0.206c-0.057-0.05-0.116-0.145-0.172-0.143c-0.148,0.005-0.296,0.05-0.443,0.08
			C31.479,743.493,31.563,743.582,31.647,743.672z M198.168,711.115c0.123-0.074,0.246-0.148,0.369-0.222
			c-0.073-0.044-0.163-0.14-0.216-0.123c-0.133,0.044-0.249,0.138-0.372,0.212C198.021,711.027,198.094,711.071,198.168,711.115z
			 M116.635,714.607c0.01-0.08,0.044-0.225,0.028-0.231c-0.135-0.047-0.278-0.069-0.419-0.098c-0.007,0.077-0.038,0.214-0.018,0.222
			C116.356,714.552,116.497,714.576,116.635,714.607z M268.185,696.066c-0.047-0.041-0.091-0.11-0.14-0.114
			c-0.056-0.005-0.118,0.048-0.177,0.075c0.048,0.041,0.092,0.11,0.144,0.116C268.066,696.149,268.127,696.094,268.185,696.066z
			 M152.263,702.014l-0.207,0.093l0.199,0.104L152.263,702.014z M177.073,704.419l0.015-0.198l-0.22,0.084L177.073,704.419z
			 M194.071,706.988l-0.015,0.188l0.212-0.079L194.071,706.988z M35.794,719.099l-0.014,0.198l0.233-0.084L35.794,719.099z
			 M200.13,710.836l-0.015,0.208l0.231-0.089L200.13,710.836z M137.446,715.929l-0.193-0.124l-0.033,0.199L137.446,715.929z"/>
		<path d="M185.321,634.021c-0.096-0.439-0.192-0.877-0.305-1.395c-0.473,0.083-0.856,0.15-1.294,0.227
			c-0.094-0.435-0.186-0.859-0.367-1.689c1.116,0.283,1.938,0.492,2.776,0.705c0.245-0.301,0.525-0.646,0.785-0.965
			c1.313-0.228,1.695,0.934,2.627,1.661c0.08-0.913,0.147-1.684,0.214-2.455c0,0-0.056,0.064-0.056,0.064
			c0.409,0.98,0.817,1.96,1.453,3.485c0.42-1.114,0.519-1.844,0.923-2.311c0.369-0.426,1.067-0.567,1.733-0.888
			c0.638,1.597-0.113,2.852-0.652,4.201c-0.842,0.118-1.824-0.578-2.378,0.487c-0.061-0.229-0.123-0.458-0.239-0.891
			c-0.121,0.425-0.185,0.648-0.249,0.872c-0.05,0.057-0.1,0.114-0.15,0.171c0.032-0.075,0.064-0.149,0.096-0.224
			c0.2,0.004,0.4,0.009,0.599,0.013c0.118,0.852,0.235,1.703,0.379,2.745c1.284-0.656,1.836-2.477,3.515-1.665
			c-0.037,0.296-0.074,0.592-0.11,0.888c0.076-0.006,0.152-0.011,0.228-0.017c-0.063-0.275-0.127-0.55-0.19-0.825
			c-0.061-0.361-0.122-0.721-0.217-1.29c1.089-0.305,2.101-0.876,3.36-0.46c0.506,1.261,0.118,2.615-0.656,3.328
			c-1.117,1.03-0.907,2.079-0.811,3.225c0.115,1.364,0.227,2.735,0.472,4.08c0.125,0.687,0.403,1.433,0.843,1.96
			c1.444,1.733,2.993,3.378,4.391,4.933c2.008-0.194,3.767-0.804,5.191,0.813c0.231,0.263,0.852,0.163,1.283,0.272
			c1.773,0.449,3.584,0.8,5.291,1.429c0.659,0.243,1.222,1.057,1.572,1.742c0.41,0.802,0.514,1.756,0.799,2.628
			c1.081,3.309,2.325,6.572,3.234,9.926c0.883,3.258,1.431,6.607,2.171,10.125c-2.673,0.282-5.198,0.653-7.736,0.8
			c-12.287,0.71-24.588,0.719-36.888,0.585c-8.626-0.094-17.252-0.31-25.876-0.529c-1.154-0.029-2.3-0.399-3.618-0.643
			c0.883-6.114,1.672-12.007,2.622-17.874c0.275-1.697,0.943-3.347,1.572-4.963c0.248-0.638,0.784-1.454,1.357-1.626
			c2.81-0.842,5.137-2.91,8.168-3.161c1.182-0.098,2.355-0.298,3.536-0.416c1.141-0.114,2.004-0.476,2.71-1.544
			c1.678-2.534,3.27-5.035,3.637-8.171c0.317-2.703,1.261-3.702,3.948-4.194c1.602-0.293,3.308-0.468,4.904-0.246
			c3.735,0.518,5.538-0.112,8.277-3.708c-1.184,0.541-2.155-0.191-2.918,0.744C185.277,633.978,185.321,634.021,185.321,634.021z"/>
		<path d="M181.469,635.13c-0.11-0.242-0.22-0.484-0.377-0.829c-0.763,0.692-1.462,1.327-2.162,1.962
			c-0.138-0.093-0.276-0.185-0.414-0.278c0.656-1.287,1.311-2.573,2.032-3.989c0.348,0.027,0.689,0.04,1.027,0.084
			c0.259,0.033,0.512,0.105,0.853,0.178c0.148,1.14,0.313,2.225-1.008,2.825L181.469,635.13z"/>
		<path d="M188.879,621.038c-0.406-0.616-0.812-1.232-1.458-2.21C188.895,619.17,189.399,619.728,188.879,621.038z"/>
		<path d="M134.1,678.789c0.85,0,1.701,0,2.551,0c0.002,0.054,0.004,0.109,0.006,0.163c-0.849,0-1.697,0-2.546,0
			C134.108,678.898,134.104,678.844,134.1,678.789z"/>
		<path d="M185.22,625.967c-0.161-0.613-0.323-1.226-0.484-1.84c0.136-0.038,0.272-0.077,0.408-0.115
			c0.193,0.607,0.386,1.213,0.579,1.82C185.555,625.878,185.387,625.922,185.22,625.967z"/>
		<path d="M281.235,743.785c0.544-0.056,1.088-0.113,1.908-0.197c-0.851,1.001-1.357,0.622-1.856,0.144
			C281.288,743.731,281.235,743.785,281.235,743.785z"/>
		<path d="M196.667,628.437c-0.063,0-0.115,0-0.167,0c0.003-0.16,0.005-0.319,0.008-0.479c0.053,0.003,0.152,0.003,0.152,0.008
			C196.669,628.125,196.667,628.285,196.667,628.437z"/>
		<path d="M180.347,614.514c-0.22,0-0.441,0-0.661,0c0.001-0.049,0.002-0.099,0.003-0.148c0.221,0.01,0.441,0.02,0.662,0.031
			C180.349,614.436,180.348,614.475,180.347,614.514z"/>
		<path d="M196.534,630.901c-0.123-0.007-0.245-0.014-0.368-0.021c0.032-0.069,0.052-0.149,0.1-0.204
			c0.047-0.054,0.124-0.083,0.187-0.123C196.48,630.669,196.507,630.784,196.534,630.901z"/>
		<path d="M189.756,630.109c-0.328-0.136-0.657-0.272-0.985-0.408c0.085-0.109,0.17-0.219,0.254-0.328
			c0.225,0.267,0.45,0.533,0.674,0.8C189.7,630.173,189.756,630.109,189.756,630.109z"/>
		<path d="M178.714,629.55c-0.171-0.37-0.342-0.74-0.514-1.11c0.151-0.025,0.302-0.05,0.453-0.074c0,0.411,0,0.823,0,1.234
			C178.654,629.6,178.714,629.55,178.714,629.55z"/>
		<path d="M185.239,622.197c-0.083-0.115-0.165-0.231-0.247-0.346c0.06-0.04,0.166-0.121,0.174-0.113
			c0.099,0.109,0.184,0.231,0.272,0.349C185.372,622.123,185.305,622.16,185.239,622.197z"/>
		<polygon points="180.629,620.079 180.704,620.316 180.505,620.281 		"/>
		<polygon points="176.11,627.34 176.296,627.348 176.197,627.543 		"/>
		<path d="M185.288,627.426c0.206,0.069,0.412,0.138,0.184,0.062c0.178,0.162,0.024,0.022-0.13-0.118
			C185.342,627.37,185.288,627.426,185.288,627.426z"/>
		<path d="M178.654,629.6c0.115,0.187,0.231,0.373,0.096,0.155c0.044,0.249,0.004,0.022-0.036-0.206
			C178.714,629.55,178.654,629.6,178.654,629.6z"/>
		<path d="M178.591,631.758c-0.027,0.071-0.053,0.141-0.08,0.212c-0.072-0.08-0.155-0.155-0.206-0.247
			c-0.01-0.018,0.1-0.104,0.155-0.159C178.504,631.63,178.547,631.694,178.591,631.758z"/>
		<path d="M281.288,743.731c-0.063-0.03-0.126-0.059-0.189-0.089c0.045,0.047,0.091,0.095,0.136,0.142L281.288,743.731z"/>
		<path d="M180.848,635.644c-0.034,0.073-0.068,0.146-0.102,0.219c0.051-0.056,0.102-0.112,0.152-0.168
			C180.899,635.695,180.848,635.644,180.848,635.644z"/>
		<path d="M181.42,635.082c-0.191,0.187-0.381,0.375-0.572,0.562c0,0,0.051,0.051,0.051,0.051c0.19-0.188,0.38-0.376,0.57-0.565
			C181.469,635.13,181.42,635.082,181.42,635.082z"/>
		<path d="M185.277,633.978c-0.027,0.066-0.053,0.131-0.08,0.197c0.041-0.051,0.083-0.102,0.124-0.154
			C185.321,634.021,185.277,633.978,185.277,633.978z"/>
		<polygon points="185.342,627.37 185.151,627.262 185.288,627.426 		"/>
		<polygon points="191.344,618.604 191.525,618.716 191.402,618.546 		"/>
		<path d="M191.402,618.546c-0.072-0.031-0.144-0.063-0.217-0.094c0.053,0.051,0.106,0.102,0.159,0.153
			C191.344,618.604,191.402,618.546,191.402,618.546z"/>
		<path d="M186.929,617.502c0.063,0.028,0.127,0.055,0.19,0.083c-0.045-0.046-0.09-0.092-0.135-0.138
			C186.984,617.447,186.929,617.502,186.929,617.502z"/>
		<path d="M186.984,617.447c-0.065-0.035-0.131-0.07-0.196-0.106c0.047,0.054,0.094,0.107,0.141,0.161
			C186.929,617.502,186.984,617.447,186.984,617.447z"/>
		<path d="M281.837,745.387c-0.061-0.03-0.121-0.06-0.182-0.089c0.044,0.047,0.088,0.093,0.132,0.14L281.837,745.387z"/>
		<path d="M29.267,744.834c-0.062-0.03-0.125-0.06-0.187-0.091c0.044,0.048,0.089,0.097,0.133,0.145
			C29.213,744.889,29.267,744.834,29.267,744.834z"/>
		<path d="M201.269,795.068c0.135,0.167,0.269,0.334,0.09,0.112c0.069,0.273,0.014,0.056-0.041-0.162L201.269,795.068z"/>
		<path d="M201.319,795.018c-0.08-0.035-0.16-0.07-0.24-0.104c0.064,0.051,0.127,0.103,0.191,0.154L201.319,795.018z"/>
		<path d="M222.212,784.543c0.004,1.586-0.522,2.818-2.194,3.284l0.054,0.053c-0.072-0.431-0.143-0.862-0.275-1.657
			c-0.988,0.63-1.762,1.123-2.536,1.617l0.044,0.044c-0.061-1.483,0.533-2.421,2.092-2.663c0.964-0.15,1.91-0.415,2.865-0.629
			L222.212,784.543z"/>
		<polygon points="212.648,752.521 212.55,752.723 212.479,752.504 		"/>
		<path d="M219.441,788.398c-0.027,0.078-0.053,0.157-0.08,0.235c0.044-0.061,0.087-0.122,0.131-0.183
			C219.492,788.45,219.441,788.398,219.441,788.398z"/>
		<path d="M220.019,787.827c-0.193,0.19-0.385,0.381-0.578,0.571c0,0,0.051,0.052,0.051,0.052c0.193-0.19,0.387-0.38,0.58-0.57
			C220.072,787.88,220.019,787.827,220.019,787.827z"/>
		<path d="M217.261,787.839c-0.185,0.188-0.37,0.376-0.556,0.564c0,0,0.037,0.037,0.037,0.037c0.187-0.186,0.375-0.372,0.562-0.558
			L217.261,787.839z"/>
		<path d="M222.261,784.591c0.031-0.076,0.061-0.151,0.092-0.227c-0.047,0.06-0.094,0.119-0.141,0.179L222.261,784.591z"/>
		<path d="M248.21,741.278c1.844,0,3.179,0,4.849,0c-1.27,0.438-2.215,0.775-3.171,1.082c-0.148,0.047-0.375,0.004-0.507-0.085
			C249.098,742.081,248.852,741.832,248.21,741.278z"/>
		<path d="M67.341,742.377c0.365,0.596,0.73,1.193,1.095,1.789c-0.167,0.111-0.333,0.223-0.5,0.334
			c-0.389-0.568-0.778-1.136-1.166-1.704C66.961,742.656,67.151,742.517,67.341,742.377z"/>
		<path d="M122.97,742.499c-0.377,0-0.754,0-1.131,0c0-0.057,0.001-0.114,0.001-0.17c0.377,0,0.754,0,1.131,0
			C122.971,742.386,122.971,742.443,122.97,742.499z"/>
		<path d="M64.722,742.56c-0.07-0.03-0.141-0.06-0.211-0.089c0.111-0.046,0.219-0.109,0.334-0.13
			c0.064-0.012,0.142,0.047,0.213,0.073C64.946,742.463,64.834,742.511,64.722,742.56z"/>
		<path d="M122.656,743.61c0.056,0.021,0.159,0.039,0.16,0.063c0.004,0.063-0.036,0.129-0.059,0.194
			c-0.056-0.02-0.16-0.039-0.161-0.059C122.596,743.742,122.634,743.676,122.656,743.61z"/>
		<polygon points="70.545,742.36 70.729,742.44 70.534,742.491 		"/>
	</g>
	<g id="_x34_celrk_1_">
		<g>
			<path d="M113.562,619.473c0.069-0.129,0.13-0.322,0.251-0.46c3.369-3.856,6.738-7.712,10.121-11.555
				c1.011-1.149,2.089-2.237,3.086-3.398c0.325-0.378,0.527-0.886,0.721-1.363c0.265-0.65,0.518-1.313,0.681-1.996
				c0.091-0.38,0.78-0.862-0.062-1.213c0.19-0.317,0.307-0.753,0.582-0.935c6.153-4.05,12.254-8.19,18.513-12.06
				c4.781-2.957,9.869-5.302,15.35-6.638c4.618-1.126,9.304-1.173,13.99-0.822c3.161,0.237,6.223-0.226,9.276-0.833
				c1.852-0.369,3.629-0.325,5.443,0.143c2.134,0.55,4.284,1.035,6.428,1.541c0.281,0.066,0.571,0.086,0.95,0.142
				c0.273-1.516,0.593-2.963,0.777-4.429c0.123-0.978,0.637-1.013,1.371-0.891c0.784,0.13,1.137,0.45,0.953,1.359
				c-0.292,1.445-0.463,2.916-0.708,4.527c2.352,0.308,4.583,0.721,6.83,0.865c2.959,0.189,5.655,1.014,8.135,2.71
				c3.003,2.053,6.247,3.542,9.738,4.538c8.695,2.48,15.806,7.643,22.025,14.228c1.695,1.795,3.094,3.939,4.97,5.483
				c1.822,1.5,2.497,3.759,4.098,5.328c0.641,0.629,1.309,1.235,2.009,1.792c0.831,0.661,1.178,1.405,0.722,2.458
				c-0.327,0.755-0.588,1.54-0.907,2.39c0.471,0.582,0.471,0.582,1.325-1.416c0.566,0.624,0.607,1.459,0.164,2.388
				c-0.1,0.21-0.07,0.486-0.1,0.731c0.221-0.185,0.524-0.327,0.642-0.566c0.158-0.32,0.166-0.718,0.249-1.079
				c0.074-0.321,0.164-0.639,0.275-1.069c0.62,0.507,1.21,0.774,0.993,1.764c-0.122,0.557,0.214,1.245,0.411,1.851
				c0.638,1.954,1.467,3.859,1.931,5.854c0.966,4.149,3.062,7.694,5.222,11.24c0.772,1.267,1.335,2.668,1.985,3.993
				c-9.231,0.382-17.79,3.272-26.346,6.151c-5.482,1.844-10.949,3.74-16.051,6.566c-0.545,0.302-1.119,0.621-1.536,1.073
				c-0.597,0.648-1.152,0.438-1.772,0.15c-0.923-0.428-1.822-0.937-2.779-1.259c-6.005-2.025-12.144-3.502-18.352-4.663
				c-8.43-1.577-16.852-3.22-25.314-4.591c-7.588-1.23-15.226-2.137-22.916-2.329c-1.694-0.042-3.391,0.095-5.189,0.153
				c-1.218-3.03-3.903-4.875-6.503-6.692c-6.494-4.539-13.032-9.017-19.675-13.319c-2.908-1.883-6.099-3.306-9.193-4.871
				C115.51,620.002,114.533,619.799,113.562,619.473z"/>
			<path d="M186.82,665.672c0.732,0.505,1.092,0.415,1.177-0.387c0.359-3.389,0.736-6.777,1.098-10.166
				c0.153-1.435,0.247-2.879,0.451-4.306c0.045-0.317,0.441-0.58,0.675-0.867c0.127,0.315,0.397,0.649,0.361,0.942
				c-0.52,4.192-1.137,8.371-1.603,12.569c-0.184,1.657,0.051,3.363-0.092,5.028c-0.217,2.521-0.603,5.025-0.906,7.538
				c-0.303,2.511-0.533,5.034-0.911,7.533c-0.205,1.359-1.488,1.759-2.499,0.853c-0.269-0.242-0.396-0.668-0.545-1.028
				c-0.059-0.141-0.014-0.335,0.007-0.502c0.519-4.151,1.031-8.303,1.581-12.449c0.053-0.401,0.342-0.767,0.524-1.149
				c0.081-0.171,0.285-0.406,0.234-0.498C185.752,667.646,186.692,666.808,186.82,665.672z"/>
		</g>
	</g>
</g>
<line opacity="0.3" fill="none" stroke="#FFFFFF" stroke-width="0.5" stroke-miterlimit="10" x1="132" y1="587" x2="178" y2="19"/>
<line opacity="0.3" fill="none" stroke="#FFFFFF" stroke-width="0.5" stroke-miterlimit="10" x1="46" y1="684" x2="92" y2="116"/>
<line opacity="0.3" fill="none" stroke="#FFFFFF" stroke-width="0.5" stroke-miterlimit="10" x1="77" y1="670" x2="123" y2="102"/>
<line opacity="0.3" fill="none" stroke="#FFFFFF" stroke-width="0.5" stroke-miterlimit="10" x1="155" y1="614" x2="201" y2="46"/>
<line opacity="0.3" fill="none" stroke="#FFFFFF" stroke-width="0.5" stroke-miterlimit="10" x1="204" y1="621.038" x2="250" y2="116"/>
<line opacity="0.3" fill="none" stroke="#FFFFFF" stroke-width="0.5" stroke-miterlimit="10" x1="186" y1="684" x2="232" y2="116"/>	
<line opacity="0.3" fill="none" stroke="#FFFFFF" stroke-width="0.5" stroke-miterlimit="10" x1="239" y1="652.562" x2="280" y2="187"/>
<line opacity="0.3" fill="none" stroke="#FFFFFF" stroke-width="0.5" stroke-miterlimit="10" x1="12" y1="643" x2="58" y2="75"/>
<line opacity="0.3" fill="none" stroke="#FFFFFF" stroke-width="0.5" stroke-miterlimit="10" x1="65" y1="674" x2="111" y2="106"/>
<line opacity="0.3" fill="none" stroke="#FFFFFF" stroke-width="0.5" stroke-miterlimit="10" x1="84" y1="684" x2="130" y2="116"/>
<line opacity="0.3" fill="none" stroke="#FFFFFF" stroke-width="0.5" stroke-miterlimit="10" x1="32" y1="724" x2="78" y2="156"/>	
<line opacity="0.3" fill="none" stroke="#FFFFFF" stroke-width="0.5" stroke-miterlimit="10" x1="210" y1="710" x2="256" y2="142"/>	
<line opacity="0.3" fill="none" stroke="#FFFFFF" stroke-width="0.5" stroke-miterlimit="10" x1="227" y1="647.5" x2="268" y2="151"/>	
<line opacity="0.3" fill="none" stroke="#FFFFFF" stroke-width="0.5" stroke-miterlimit="10" x1="145" y1="672" x2="191" y2="104"/>
<line opacity="0.3" fill="none" stroke="#FFFFFF" stroke-width="0.5" stroke-miterlimit="10" x1="96" y1="641" x2="142" y2="73"/>	
<line opacity="0.3" fill="none" stroke="#FFFFFF" stroke-width="0.5" stroke-miterlimit="10" x1="195" y1="672" x2="241" y2="104"/>	
<line opacity="0.3" fill="none" stroke="#FFFFFF" stroke-width="0.5" stroke-miterlimit="10" x1="102" y1="684" x2="148" y2="116"/>
<line opacity="0.3" fill="none" stroke="#FFFFFF" stroke-width="0.5" stroke-miterlimit="10" x1="112" y1="634" x2="158" y2="66"/>	
<line opacity="0.3" fill="none" stroke="#FFFFFF" stroke-width="0.5" stroke-miterlimit="10" x1="159" y1="714" x2="205" y2="146"/>
<line opacity="0.3" fill="none" stroke="#FFFFFF" stroke-width="0.5" stroke-miterlimit="10" x1="172" y1="644" x2="218" y2="76"/>
<line opacity="0.2" fill="none" stroke="#FFFFFF" stroke-width="0.6" stroke-miterlimit="10" x2="45" y2="760" x1="99.734" y1="127.607"/>
<line opacity="0.2" fill="none" stroke="#FFFFFF" stroke-width="0.6" stroke-miterlimit="10" x2="257" y2="762" x1="293.222" y1="98.512"/>
<line opacity="0.2" fill="none" stroke="#FFFFFF" stroke-width="0.6" stroke-miterlimit="10" x2="137" y2="756" x1="186" y1="91"/>
<line opacity="0.2" fill="none" stroke="#FFFFFF" stroke-width="0.6" stroke-miterlimit="10" x2="5.864" y2="764.979" x1="45" y1="72.5"/>
<line opacity="0.2" fill="none" stroke="#FFFFFF" stroke-width="0.6" stroke-miterlimit="10" x2="37" y2="782" x1="102" y1="31"/>
<line opacity="0.3" fill="none" stroke="#FFFFFF" stroke-width="0.6" stroke-miterlimit="10" x2="147" y2="762" x1="212" y1="11"/>
<line opacity="0.3" fill="none" stroke="#FFFFFF" stroke-width="0.6" stroke-miterlimit="10" x2="107" y2="762" x1="172" y1="11"/>
<line opacity="0.3" fill="none" stroke="#FFFFFF" stroke-width="0.6" stroke-miterlimit="10" x2="57" y2="762" x1="122" y1="11"/>
<line opacity="0.3" fill="none" stroke="#FFFFFF" stroke-width="0.6" stroke-miterlimit="10" x2="77" y2="787" x1="142" y1="36"/>
<line opacity="0.3" fill="none" stroke="#FFFFFF" stroke-width="0.6" stroke-miterlimit="10" x2="117" y2="784" x1="205.926" y1="31"/>
<line opacity="0.3" fill="none" stroke="#FFFFFF" stroke-width="0.6" stroke-miterlimit="10" style="stroke-dasharray:60,60;stroke-dashoffset:60" x2="97" y2="751" x1="162" y1="0"/>
<line opacity="0.3" fill="none" stroke="#FFFFFF" stroke-width="0.6" stroke-miterlimit="10" style="stroke-dasharray:60,60;stroke-dashoffset:60" x2="20" y2="762" x1="85" y1="11"/>
<line opacity="0.3" fill="none" stroke="#FFFFFF" stroke-width="0.6" stroke-miterlimit="10" style="stroke-dasharray:60,60;stroke-dashoffset:60" x2="220" y2="762" x1="285" y1="11"/>
<line opacity="0.3" fill="none" stroke="#FFFFFF" stroke-width="0.6" stroke-miterlimit="10" style="stroke-dasharray:60,60;stroke-dashoffset:60" x2="191" y2="762" x1="256" y1="11"/>
<line opacity="0.2" fill="none" stroke="#FFFFFF" stroke-width="0.6" stroke-miterlimit="10" style="stroke-dasharray:60,60;stroke-dashoffset:60" x2="112" y2="762" x1="177" y1="11"/>
<line opacity="0.2" fill="none" stroke="#FFFFFF" stroke-width="0.6" stroke-miterlimit="10" style="stroke-dasharray:60,60;stroke-dashoffset:60" x2="0" y2="380.5" x1="20" y1="82"/>
<line opacity="0.2" fill="none" stroke="#FFFFFF" stroke-miterlimit="10" style="stroke-dasharray:100,100;stroke-dashoffset:100" x2="179.852" y2="647.5" x1="234" y1="36"><animate begin="0" attributeName="stroke-dashoffset" from="50000" to="0" dur="300s"/></line>
<line opacity="0.3" fill="none" stroke="#FFFFFF" stroke-miterlimit="10" style="stroke-dasharray:60,60;stroke-dashoffset:60" x2="246" y2="780" x1="286" y1="102"><animate begin="0" attributeName="stroke-dashoffset" from="53000" to="0" dur="300s"/></line>
<line opacity="0.3" fill="none" stroke="#FFFFFF" stroke-miterlimit="10" style="stroke-dasharray:100,100;stroke-dashoffset:100" x2="81" y2="780" x1="144.5" y1="69"><animate begin="0" attributeName="stroke-dashoffset" from="52000" to="0" dur="300s"/></line>
<line opacity="0.2" fill="none" stroke="#FFFFFF" stroke-miterlimit="10" style="stroke-dasharray:160,160;stroke-dashoffset:160" x2="183" y2="780" x1="248" y1="29"><animate begin="0" attributeName="stroke-dashoffset" from="39000" to="0" dur="300s"/></line>
<line opacity="0.3" fill="none" stroke="#FFFFFF" stroke-miterlimit="10" style="stroke-dasharray:60,60;stroke-dashoffset:60" x2="141" y2="770" x1="206" y1="19"><animate begin="0" attributeName="stroke-dashoffset" from="50000" to="0" dur="300s"/></line>
<line opacity="0.1" fill="none" stroke="#FFFFFF" stroke-miterlimit="10" style="stroke-dasharray:160,160;stroke-dashoffset:160" x2="121" y2="770" x1="186" y1="19"><animate begin="0" attributeName="stroke-dashoffset" from="45000" to="0" dur="300s"/></line>
<line opacity="0.2" fill="none" stroke="#FFFFFF" stroke-miterlimit="10" style="stroke-dasharray:150,150;stroke-dashoffset:150" x2="1" y2="760" x1="61" y1="33"><animate begin="0" attributeName="stroke-dashoffset" from="55000" to="0" dur="300s"/></line>
<line opacity="0.3" fill="none" stroke="#FFFFFF" stroke-miterlimit="10" style="stroke-dasharray:200,200;stroke-dashoffset:200" x2="61" y2="780" x1="126" y1="29"><animate begin="0" attributeName="stroke-dashoffset" from="60000" to="0" dur="300s"/></line>
<line opacity="0.1" fill="none" stroke="#FFFFFF" stroke-miterlimit="10" style="stroke-dasharray:120,120;stroke-dashoffset:120" x2="212" y2="595" x1="266" y1="39"><animate begin="0" attributeName="stroke-dashoffset" from="55000" to="0" dur="300s"/></line>
<line opacity="0.3" fill="none" stroke="#FFFFFF" stroke-miterlimit="10" style="stroke-dasharray:80,80;stroke-dashoffset:80" x2="253.5" y2="795.307" x1="294.602" y1="362.592"><animate begin="0" attributeName="stroke-dashoffset" from="48000" to="0" dur="300s"/></line>
<line opacity="0.3" fill="none" stroke="#FFFFFF" stroke-miterlimit="10" style="stroke-dasharray:100,100;stroke-dashoffset:100" x2="107" y2="698.006" x1="176" y1="9"><animate begin="0" attributeName="stroke-dashoffset" from="40000" to="0" dur="300s"/></line>
<line opacity="0.3" fill="none" stroke="#FFFFFF" stroke-miterlimit="10" style="stroke-dasharray:160,160;stroke-dashoffset:160" x2="61" y2="800" x1="126" y1="49"><animate begin="0" attributeName="stroke-dashoffset" from="45000" to="0" dur="300s"/></line>
</svg>
