<svg version="1.1" id="Layer_1" xmlns="http://www.w3.org/2000/svg" xmlns:xlink="http://www.w3.org/1999/xlink" x="0px" y="0px"
	 width="400px" height="200px" viewBox="0 0 400 200" enable-background="new 0 0 400 200" xml:space="preserve">
<g>
	<g>
		<g>
			<defs>
				<circle id="SVGID_1_" cx="101.466" cy="99.582" r="84.205"/>
			</defs>
			<clipPath id="SVGID_2_">
				<use xlink:href="#SVGID_1_"  overflow="visible"/>
			</clipPath>
			<circle clip-path="url(#SVGID_2_)" fill="#C7B299" cx="101.466" cy="100.195" r="84.205"/>
			<path clip-path="url(#SVGID_2_)" fill="#FFE2B5" d="M86,110v14.829c0,0-32.361,8.306-34.32,16.797
				c-1.96,8.491-7.021,30.701-7.021,30.701L101,191.923V110H86z"/>
			<g clip-path="url(#SVGID_2_)">
				<defs>
					<path id="SVGID_3_" d="M86,113v11.829c0,0-32.361,8.306-34.32,16.797c-1.96,8.491-7.021,30.701-7.021,30.701L101,191.923V113
						H86z"/>
				</defs>
				<clipPath id="SVGID_4_">
					<use xlink:href="#SVGID_3_"  overflow="visible"/>
				</clipPath>
			</g>
			<path clip-path="url(#SVGID_2_)" fill="#FFE2B5" d="M116,110v14.829c0,0,32.223,8.306,34.184,16.797
				c1.959,8.491,7.09,30.701,7.09,30.701L101,191.923V110H116z"/>
			<polygon clip-path="url(#SVGID_2_)" fill="#FFC088" points="116.302,113.171 105.987,117.378 85.656,123.949 85.549,109.123 
				116.343,109.656 			"/>
			<g clip-path="url(#SVGID_2_)">
				<defs>
					<path id="SVGID_5_" d="M86,113v11.829c0,0-32.361,8.306-34.32,16.797c-1.96,8.491-7.021,30.701-7.021,30.701L101,191.923V113
						H86z"/>
				</defs>
				<clipPath id="SVGID_6_">
					<use xlink:href="#SVGID_5_"  overflow="visible"/>
				</clipPath>
			</g>
			<g clip-path="url(#SVGID_2_)">
				<defs>
					<path id="SVGID_7_" d="M116,113v11.216c0,0,32.174,8.307,34.133,16.799c1.961,8.49,7.115,30.699,7.115,30.699L101,191.311V113
						H116z"/>
				</defs>
				<clipPath id="SVGID_8_">
					<use xlink:href="#SVGID_7_"  overflow="visible"/>
				</clipPath>
			</g>
			<g clip-path="url(#SVGID_2_)">
				<defs>
					<path id="SVGID_9_" d="M86,113v11.829c0,0-32.451,8.306-34.41,16.797c-1.961,8.491-6.976,30.701-6.976,30.701L101,191.923V113
						H86z"/>
				</defs>
				<clipPath id="SVGID_10_">
					<use xlink:href="#SVGID_9_"  overflow="visible"/>
				</clipPath>
				<path clip-path="url(#SVGID_10_)" fill="#FFFFFF" d="M81.328,126.664l19.673,6.227l2.139,71.451l-61.897-22.155
					c0,0,0.054-30.976,4.609-45.427C45.852,136.759,64.543,126.415,81.328,126.664z"/>
			</g>
			<polygon clip-path="url(#SVGID_2_)" fill="#F2F2F2" points="80.957,120.224 72.51,127.886 92.394,146.244 99.201,131.441 			"/>
			<g clip-path="url(#SVGID_2_)">
				<defs>
					<path id="SVGID_11_" d="M116,110v14.829c0,0,32.57,8.306,34.529,16.797c1.961,8.491,6.918,30.701,6.918,30.701L101,191.923V110
						H116z"/>
				</defs>
				<clipPath id="SVGID_12_">
					<use xlink:href="#SVGID_11_"  overflow="visible"/>
				</clipPath>
				<path clip-path="url(#SVGID_12_)" fill="#FFFFFF" d="M120.913,126.664l-19.673,6.227l-2.14,71.451l61.898-22.155
					c0,0-0.054-30.976-4.609-45.427C156.39,136.759,137.698,126.415,120.913,126.664z"/>
			</g>
			<polygon clip-path="url(#SVGID_2_)" fill="#F2F2F2" points="119.483,120.224 127.931,127.886 108.048,146.244 101.001,131.441 
							"/>
			<g clip-path="url(#SVGID_2_)">
				<g>
					<path fill="#FFE2B5" d="M125.947,53.925L125.947,53.925 M125.929,50h-0.003H76.402c-1.219,0-2.379,0.203-3.195,1.107
						c-0.818,0.902-1.213,1.955-1.09,3.166l5.065,49.879c0.146,1.439,1.005,2.671,2.287,3.342l14.298,7.752
						c0.617,0.322,1.303,0.754,1.999,0.754h9.895c0.602,0,1.195-0.409,1.744-0.651l13.494-8.244
						c1.375-0.609,2.331-1.958,2.527-3.447l6.753-49.245c0.036-0.227,0.056-0.163,0.056-0.399C130.235,51.634,128.309,50,125.929,50
						L125.929,50z"/>
					<g>
						<g>
							<path fill="#FFE2B5" d="M95.767,113c-0.348,0-0.69,0.057-0.999-0.105l-14.299-7.418c-0.641-0.334-1.069-0.936-1.143-1.655
								L74.26,53.882c-0.062-0.606,0.136-1.465,0.545-1.917C75.213,51.514,75.793,51,76.402,51h49.523c0.62,0,1.21,0.531,1.62,0.998
								c0.408,0.466,0.596,1.218,0.516,1.833l-6.769,50.922c-0.1,0.744-0.577,1.416-1.264,1.72l-13.494,6.467
								c-0.275,0.121-0.572,0.061-0.873,0.061H95.767z"/>
						</g>
					</g>
					<g>
						<path fill="#FFC088" d="M84.603,79.646c0,0,6.635-1.399,9.182,0.879C93.786,80.526,87.685,84.763,84.603,79.646z"/>
						<path fill="#FFC088" d="M116.376,79.558c0,0-6.464-1.109-8.844,1.188C107.532,80.746,113.586,84.618,116.376,79.558z"/>
					</g>
					<g>
						
							<path fill="#FFC088" stroke="#FFC088" stroke-width="0.8143" stroke-linecap="round" stroke-linejoin="round" stroke-miterlimit="10" d="
							M100.569,100.605c-2.476,0-8.415,1.014-8.415,1.014c2.969,2.01,8.415,3.674,8.415,3.674s5.445-1.664,8.416-3.674
							C108.985,101.619,103.044,100.605,100.569,100.605z"/>
						<path fill="#FFFFFF" d="M94.352,102.121c0,0,4.952,0.062,12.435,0C106.786,102.121,101.69,104.464,94.352,102.121z"/>
					</g>
					<g>
						
							<polygon fill="#685441" stroke="#604F3E" stroke-width="0.72" stroke-linecap="round" stroke-linejoin="round" stroke-miterlimit="10" points="
							82.333,71.833 95.707,72.3 95.195,75.003 81.333,74.833 						"/>
						
							<polygon fill="#685441" stroke="#604F3E" stroke-width="0.72" stroke-linecap="round" stroke-linejoin="round" stroke-miterlimit="10" points="
							119.333,71.667 106.156,72.458 106.625,75.169 120.667,74.833 						"/>
					</g>
					
						<path fill="#846C52" stroke="#846C52" stroke-width="0.6969" stroke-linecap="round" stroke-linejoin="round" stroke-miterlimit="10" d="
						M126.167,43.833c0,0-13.019,24.94-25.779,25.5C87.629,69.894,78.101,73.097,76,81.5c-2.099,8.403-22.009-40.045,18.833-44.667
						C119.582,34.032,126.167,43.833,126.167,43.833z"/>
					<path fill="#FFE2B5" d="M75.889,75.841c0,0-8.709-4.233-7.651,3.175c1.058,7.408,7.034,11.818,8.28,11.906
						C77.763,91.011,75.889,75.841,75.889,75.841z"/>
					<path fill="#FFE2B5" d="M125.426,75.841c0,0,8.708-4.233,7.649,3.175c-1.058,7.408-7.034,11.818-8.279,11.906
						C123.55,91.011,125.426,75.841,125.426,75.841z"/>
					
						<path fill="#846C52" stroke="#846C52" stroke-width="0.6969" stroke-linecap="round" stroke-linejoin="round" stroke-miterlimit="10" d="
						M123.802,42.052c0,0,0.844,0.124,4.532,4.114c3.465,3.748,0.945,27.779,0.945,27.779L124,90.333
						c0.246-13.368-9.667-30.667-9.667-30.667S122.527,42.314,123.802,42.052z"/>
				</g>
				
					<path fill="#846C52" stroke="#846C52" stroke-width="0.6969" stroke-linecap="round" stroke-linejoin="round" stroke-miterlimit="10" d="
					M87.553,62.192c0,0-13.553,8.641-10.386,29.641c0,0-5.012-13.973-3.663-24.238"/>
			</g>
			
				<path clip-path="url(#SVGID_2_)" fill="#4D4D4D" stroke="#4D4D4D" stroke-width="0.9" stroke-linecap="round" stroke-linejoin="round" stroke-miterlimit="10" d="
				M97.272,141.011c0,0-2.932,34.372-2.327,40.683c0,0,2.006,8.528,13.03,1.194l-4.938-41.877"/>
			<g clip-path="url(#SVGID_2_)">
				<path fill="#FFFFFF" d="M83.29,118.429l17.485,5.596l2.315,64.916l-56.188-20.111c0,0,0.05-28.118,4.184-41.236
					C51.086,127.594,68.053,118.206,83.29,118.429z"/>
				<path fill="#FFFFFF" d="M119.224,118.429l-17.485,5.596l-2.315,64.916l56.187-20.111c0,0-0.049-28.118-4.183-41.236
					C151.428,127.594,134.46,118.206,119.224,118.429z"/>
				<line fill="#FFFFFF" x1="98" y1="180" x2="98" y2="124"/>
				<path d="M101.184,144.076c0.541,0,0.98,0.439,0.98,0.98c0,0.541-0.439,0.98-0.98,0.98"/>
				<circle cx="101.183" cy="164.01" r="0.98"/>
				<g>
					<polygon fill="#F92828" points="85.167,114.5 82.567,119.005 101,127.19 101,121.143 					"/>
					<polygon fill="#F92828" points="116,115.145 119.202,118.597 101,127.19 101,121.143 					"/>
					<path d="M109.41,118.933c-0.355-0.246-0.723-0.207-1.004-0.028c-1.078-0.137-2.205,0.911-2.97,1.522
						c-0.516,0.413-0.96,0.937-1.433,1.401c-0.092,0.091-0.351,0.456-0.562,0.704c-0.108-0.137-0.252-0.25-0.445-0.313
						c-0.532-0.176-0.941-0.025-1.234,0.3c-0.043,0.015-0.083,0.034-0.113,0.067c-0.069,0.07-0.125,0.16-0.172,0.262
						c-0.014-0.017-0.028-0.031-0.044-0.045c-0.025-0.038-0.05-0.076-0.082-0.112c-0.23-0.258-0.518-0.33-0.805-0.275
						c-0.287-0.055-0.574,0.017-0.805,0.275c-0.03,0.036-0.055,0.074-0.08,0.112c-0.016,0.014-0.03,0.028-0.044,0.045
						c-0.048-0.102-0.104-0.192-0.172-0.262c-0.03-0.033-0.071-0.052-0.113-0.067c-0.294-0.325-0.701-0.476-1.234-0.3
						c-0.194,0.063-0.337,0.175-0.447,0.313c-0.209-0.248-0.468-0.613-0.56-0.704c-0.473-0.464-0.917-0.988-1.434-1.401
						c-0.763-0.61-1.89-1.658-2.97-1.522c-0.278-0.179-0.647-0.218-1.003,0.028c-1.764,1.222-2.615,3.559-2.463,5.66
						c0.14,1.942,1.494,5.082,3.935,4.531c1.873-0.424,2.913-1.916,4.259-3.08c0.102-0.087,0.2-0.176,0.296-0.267
						c0.05-0.015,0.098-0.027,0.15-0.041c0.101-0.029,0.188-0.079,0.265-0.142c0.032,0.043,0.066,0.083,0.098,0.117
						c0.116,0.122,0.244,0.199,0.373,0.233c0.012,0.02,0.02,0.04,0.033,0.06c0.197,0.313,0.667,0.269,0.879,0.009
						c0.04-0.051,0.076-0.107,0.111-0.168c0.007,0.003,0.014,0.008,0.022,0.01c0.08,0.071,0.167,0.135,0.267,0.179
						c0.236,0.106,0.45,0.126,0.638,0.085c0.192,0.042,0.403,0.022,0.64-0.085c0.099-0.044,0.186-0.108,0.267-0.179
						c0.007-0.002,0.014-0.007,0.022-0.01c0.034,0.061,0.071,0.118,0.112,0.168c0.211,0.26,0.681,0.304,0.878-0.009
						c0.012-0.02,0.02-0.04,0.032-0.06c0.13-0.035,0.258-0.111,0.374-0.233c0.032-0.034,0.066-0.074,0.098-0.117
						c0.077,0.063,0.166,0.113,0.265,0.142c0.051,0.014,0.099,0.026,0.15,0.041c0.097,0.091,0.194,0.18,0.296,0.267
						c1.345,1.165,2.385,2.657,4.259,3.08c2.44,0.551,3.795-2.589,3.935-4.531C112.027,122.492,111.176,120.155,109.41,118.933z"/>
					<polygon points="74.414,121.567 82.066,119.005 97.878,170.575 76.92,137.151 81.551,132.519 					"/>
					<polygon points="127.404,121.567 119.752,119.005 104.416,170.575 124.898,137.151 120.267,132.519 					"/>
				</g>
			</g>
		</g>
		<circle fill="none" stroke="#998675" stroke-width="4.32" stroke-miterlimit="10" cx="101.284" cy="99.824" r="93.085"/>
	</g>
	
		<polygon display="none" fill="#4D4D4D" stroke="#4D4D4D" stroke-width="0.9" stroke-linecap="round" stroke-linejoin="round" stroke-miterlimit="10" points="
		100.101,131.441 95.644,140.673 100.384,144.279 104.587,140.529 	"/>
	<path opacity="0.2" fill="#FFFFFF" d="M100.388,15.089c46.504,0,84.205,37.7,84.205,84.205c0,46.505-37.701,84.205-84.205,84.205"
		/>
</g>
<g>
	<defs>
		<circle id="SVGID_13_" cx="299.098" cy="98.781" r="84.205"/>
	</defs>
	<clipPath id="SVGID_14_">
		<use xlink:href="#SVGID_13_"  overflow="visible"/>
	</clipPath>
	<circle clip-path="url(#SVGID_14_)" fill="#C7B299" cx="299.098" cy="99.395" r="84.205"/>
	<path clip-path="url(#SVGID_14_)" fill="#FFE2B5" d="M284,109v15.027c0,0-32.546,8.307-34.505,16.797
		c-1.96,8.492-6.929,30.701-6.929,30.701L299,191.123V109H284z"/>
	<g clip-path="url(#SVGID_14_)">
		<defs>
			<path id="SVGID_15_" d="M284,112v12.027c0,0-32.546,8.307-34.505,16.797c-1.96,8.492-6.929,30.701-6.929,30.701L299,191.123V112
				H284z"/>
		</defs>
		<clipPath id="SVGID_16_">
			<use xlink:href="#SVGID_15_"  overflow="visible"/>
		</clipPath>
	</g>
	<path clip-path="url(#SVGID_14_)" fill="#FFE2B5" d="M314,109v15.027c0,0,32.04,8.307,33.999,16.797
		c1.961,8.492,7.181,30.701,7.181,30.701L299,191.123V109H314z"/>
	<polygon clip-path="url(#SVGID_14_)" fill="#FFC088" points="313.932,112.371 303.617,116.578 283.287,123.148 283.18,108.322 
		313.975,108.855 	"/>
	<g clip-path="url(#SVGID_14_)">
		<defs>
			<path id="SVGID_17_" d="M284,112v12.027c0,0-32.546,8.307-34.505,16.797c-1.96,8.492-6.929,30.701-6.929,30.701L299,191.123V112
				H284z"/>
		</defs>
		<clipPath id="SVGID_18_">
			<use xlink:href="#SVGID_17_"  overflow="visible"/>
		</clipPath>
	</g>
	<g clip-path="url(#SVGID_14_)">
		<defs>
			<path id="SVGID_19_" d="M314,112v11.416c0,0,31.991,8.307,33.95,16.799c1.959,8.49,7.206,30.699,7.206,30.699L299,190.51V112H314
				z"/>
		</defs>
		<clipPath id="SVGID_20_">
			<use xlink:href="#SVGID_19_"  overflow="visible"/>
		</clipPath>
	</g>
	<g display="none" clip-path="url(#SVGID_14_)">
		<defs>
			<path id="SVGID_21_" d="M284,112v12.027c0,0-39.008,7.465-40.967,15.955c-1.961,8.492-0.511,31.543-0.511,31.543L299,191.123V112
				H284z"/>
		</defs>
		<clipPath id="SVGID_22_" display="inline">
			<use xlink:href="#SVGID_21_"  overflow="visible"/>
		</clipPath>
		<path display="inline" clip-path="url(#SVGID_22_)" d="M278.958,125.863l19.674,6.227l2.139,71.451l-61.898-22.156
			c0,0,0.054-30.975,4.609-45.426C243.482,135.959,262.174,125.615,278.958,125.863z"/>
	</g>
	<polygon display="none" clip-path="url(#SVGID_14_)" fill="#1A1A1A" points="278.588,119.424 270.141,127.086 290.024,145.443 
		298.018,131.221 	"/>
	<g display="none" clip-path="url(#SVGID_14_)">
		<defs>
			<path id="SVGID_23_" d="M314,109v15.027c0,0,37.665,8.838,39.624,17.328c1.961,8.492,1.729,30.17,1.729,30.17L299,191.123V109
				H314z"/>
		</defs>
		<clipPath id="SVGID_24_" display="inline">
			<use xlink:href="#SVGID_23_"  overflow="visible"/>
		</clipPath>
		<path display="inline" clip-path="url(#SVGID_24_)" d="M318.545,125.863l-19.674,6.227l-2.139,71.451l61.897-22.156
			c0,0-0.053-30.975-4.607-45.426C354.021,135.959,335.328,125.615,318.545,125.863z"/>
	</g>
	<polygon display="none" clip-path="url(#SVGID_14_)" fill="#1A1A1A" points="317.115,119.424 325.562,127.086 305.678,145.443 
		298.018,131.221 	"/>
	<g clip-path="url(#SVGID_14_)">
		<path fill="#F92828" d="M300.014,190.042l-61.894-18.638c0,0,0.055-26.056,4.609-38.212c0,0,18.69-8.701,35.474-8.493l19.26,5.186
			"/>
		<line fill="none" x1="298" y1="180" x2="298" y2="113"/>
		<path fill="#F92828" d="M316.811,124.185l-19.348,5.699L295,189.528l61.893-18.638c0,0-0.054-26.056-4.609-38.213
			C352.285,132.677,333.595,123.976,316.811,124.185z"/>
		<rect x="295" y="128" fill="#FFFFFF" width="7" height="53"/>
		<path fill="#FFFFFF" d="M276.08,125.117c10.509,4.705,21.584,4.234,21.584,4.234c3.388,0.623,21.247-3.107,21.535-4.024
			c0.289-0.917-0.26-7.996-2.704-7.223c-18.343,5.805-35.264-0.232-37.725-0.327c-2.461-0.094-2.691,6.943-2.691,6.943"/>
	</g>
	<path clip-path="url(#SVGID_14_)" fill="#160F0A" stroke="#160F0A" stroke-miterlimit="10" d="M325.225,54.764L325.225,54.764
		 M325.038,53.164l-0.74-1.013l-52.13-0.651c-1.304,0-0.983,1.341-1.858,2.223c-0.875,0.88-0.491,6.697-0.359,7.878l3.053,42.196
		c0.448,12.234,13.372,24.952,24.743,24.952c13.15,0,21.968-10.22,24.781-25.46l3.98-46.379c-2.221,0.834-3.573,2.614-0.507,1.756
		c0-2.32,2.132-3.25-0.417-3.25L325.038,53.164z"/>
	<path clip-path="url(#SVGID_14_)" fill="#FFE2B5" d="M292.904,112c-0.373,0-0.74,0.237-1.069,0.075l-15.312-7.353
		c-0.686-0.338-1.146-0.896-1.225-1.616l-5.425-50.09c-0.066-0.608,0.146-1.033,0.583-1.486c0.438-0.453,1.059-0.531,1.711-0.531
		l50.083,1.667c0.664,0,1.727,1.615,2.167,2.083c0.436,0.466,0.836,3.966,0.75,4.583l-4.926,44.857
		c-0.107,0.748-0.619,1.369-1.354,1.674l-14.451,6.282c-0.295,0.121-0.613-0.146-0.933-0.146H292.904z"/>
	
		<path clip-path="url(#SVGID_14_)" fill="#FFC088" stroke="#FFC088" stroke-width="0.8321" stroke-linecap="round" stroke-linejoin="round" stroke-miterlimit="10" d="
		M298.047,100.27c-2.65,0-9.011,0.99-9.011,0.99c3.18,1.957,9.011,3.58,9.011,3.58s5.831-1.623,9.013-3.58
		C307.06,101.26,300.697,100.27,298.047,100.27z"/>
	<path clip-path="url(#SVGID_14_)" fill="#FFFFFF" d="M291.389,101.748c0,0,5.302,0.061,13.316,0
		C304.705,101.748,299.248,104.033,291.389,101.748z"/>
	
		<polygon clip-path="url(#SVGID_14_)" fill="#160F0A" stroke="#160F0A" stroke-width="0.9196" stroke-linecap="round" stroke-linejoin="round" stroke-miterlimit="10" points="
		281.091,74.155 294.659,74.369 294.444,77.045 277.675,77.469 	"/>
	
		<polygon clip-path="url(#SVGID_14_)" fill="#160F0A" stroke="#160F0A" stroke-width="0.9196" stroke-linecap="round" stroke-linejoin="round" stroke-miterlimit="10" points="
		314.84,73.845 302.143,74.383 302.504,77.045 319.293,77.158 	"/>
	<path clip-path="url(#SVGID_14_)" fill="#FFE2B5" d="M271.991,76.129c0,0-6.243-4.127-5.485,3.096
		c0.759,7.221,5.043,11.52,5.936,11.605C273.335,90.916,271.991,76.129,271.991,76.129z"/>
	<path clip-path="url(#SVGID_14_)" fill="#FFE2B5" d="M325.25,76.129c0,0,6.184-4.127,5.434,3.096
		c-0.754,7.221-4.998,11.52-5.881,11.605C323.916,90.916,325.25,76.129,325.25,76.129z"/>
	
		<path clip-path="url(#SVGID_14_)" fill="#160F0A" stroke="#160F0A" stroke-width="0.9196" stroke-linecap="round" stroke-linejoin="round" stroke-miterlimit="10" d="
		M286.366,58.871c6,2.625-9.739,26.438-9.739,26.438l-4.005-0.717l-2.55-29.725C270.073,54.867,282.099,57.004,286.366,58.871z"/>
	<path clip-path="url(#SVGID_14_)" fill="#160F0A" stroke="#160F0A" stroke-width="0.9493" stroke-miterlimit="10" d="
		M321.941,52.255l-0.986,38.594l2.564-6.258l1.647-25.258C325.167,59.333,325.135,48.864,321.941,52.255z"/>
	
		<path clip-path="url(#SVGID_14_)" fill="#160F0A" stroke="#160F0A" stroke-width="0.9196" stroke-linecap="round" stroke-linejoin="round" stroke-miterlimit="10" d="
		M276.628,85.309c0,0-0.975,7.922,2.906,16.699c2.566,5.803,15.758,9.213,17.493,6.281c0.167-0.283,0.826-0.873,0.826-0.012
		l0.195,4.609c0,0-18.339-0.67-23.564-8.621l-1.861-19.674L276.628,85.309z"/>
	<path clip-path="url(#SVGID_14_)" fill="#160F0A" stroke="#160F0A" stroke-width="0.9493" stroke-miterlimit="10" d="M298.018,96.5
		c-10.38-0.014-14.438,9.656-14.438,9.656l3.794,2.219c4.476-9.125,10.83-10.5,10.857-10.506c0.027,0.006,5.706,0.763,10.178,9.882
		l3.912-2.021C312.322,105.73,308.313,96.062,298.018,96.5z"/>
	<path clip-path="url(#SVGID_14_)" fill="#FFC088" d="M282.603,80.646c0,0,6.635-1.399,9.182,0.879
		C291.785,81.525,285.685,85.763,282.603,80.646z"/>
	<path clip-path="url(#SVGID_14_)" fill="#FFC088" d="M314.376,80.558c0,0-6.464-1.108-8.844,1.188
		C305.532,81.746,311.586,85.618,314.376,80.558z"/>
	
		<path clip-path="url(#SVGID_14_)" fill="#160F0A" stroke="#160F0A" stroke-width="0.9196" stroke-linecap="round" stroke-linejoin="round" stroke-miterlimit="10" d="
		M321.297,84.916c0,0,1.285,5.82-3.477,15.553c-2.791,5.705-16.803,11.479-19.118,7.82c-0.176-0.277-1.475-0.916-0.826-0.012
		l-0.195,4.609c0,0,18.338-0.67,23.563-8.621l1.863-19.674L321.297,84.916z"/>
	<path clip-path="url(#SVGID_14_)" fill="#160F0A" stroke="#160F0A" stroke-width="0.9493" stroke-miterlimit="10" d="
		M326.643,55.557c-2.477-14.14-28.625-17.057-28.625-17.057c-26.022,1.87-27.945,16.367-27.945,16.367L282.5,58.25
		c0,0,18.75,16.375,40.125,16.625c0,0,3.25-9.625-0.887-14.643"/>
	<path display="none" opacity="0.3" clip-path="url(#SVGID_14_)" fill="#FFFFFF" d="M303.068,84.226
		c0.207,0.967,0.275,1.774,0.59,1.774h14.389c0.873-1,0.953-2.266,0.953-2.746v-4.301c0-0.48-0.057-0.953-0.953-0.953H302.76
		c-0.94,0-0.441,1.406-0.441,1.887L303.068,84.226z"/>
	<path display="none" opacity="0.3" clip-path="url(#SVGID_14_)" fill="#FFFFFF" d="M294.96,84.255
		c-0.207,0.967-0.212,1.745-0.527,1.745H279.73c-0.875-1-0.73-2.266-0.73-2.746v-4.301c0-0.48,0.555-0.953,1.453-0.953h14.844
		c0.941,0,0.382,1.736,0.382,2.217L294.96,84.255z"/>
	
		<path clip-path="url(#SVGID_14_)" fill="#FFFFFF" stroke="#FFFFFF" stroke-width="0.9" stroke-linecap="round" stroke-linejoin="round" stroke-miterlimit="10" d="
		M294.902,140.211c0,0-2.931,34.371-2.326,40.682c0,0,2.005,8.529,13.031,1.195l-4.94-41.877"/>
</g>
<circle fill="none" stroke="#998675" stroke-width="4.32" stroke-miterlimit="10" cx="298.914" cy="99.023" r="93.086"/>
<polygon fill="#FFFFFF" stroke="#FFFFFF" stroke-width="0.9" stroke-linecap="round" stroke-linejoin="round" stroke-miterlimit="10" points="
	298.018,131.221 293.274,139.873 298.015,143.479 302.219,139.729 "/>
<path opacity="0.2" fill="#FFFFFF" d="M298.018,14.289c46.505,0,84.205,37.7,84.205,84.205c0,46.504-37.699,84.205-84.205,84.205"/>
</svg>
