<svg version="1.1" id="Layer_1" xmlns="http://www.w3.org/2000/svg" xmlns:xlink="http://www.w3.org/1999/xlink" x="0px" y="0px" width="150px" height="150px" viewBox="0 0 150 150" enable-background="new 0 0 150 150" xml:space="preserve">
<rect x="29.9" y="24.2" fill="none" width="90.6" height="31"/>
<path fill="#41423E" d="M86.1,16.8c-1.7,2.8-3.4,5.5-5,8.1c-0.7,1.1-1.4,2.2-2.1,3.4c-0.7,1.2-1.4,2.3-2.1,3.4s-1.3,2.2-1.9,3.2
	s-1.1,1.9-1.6,2.6c-0.6,1-1.2,1.9-1.8,2.8C71,41.2,70.5,42.1,70,43s-0.9,1.6-1.3,2.4c-0.3,0.7-0.6,1.3-0.7,1.9
	c-0.1,0.5,0,0.9,0.3,1.1c0.3,0.3,0.6,0.4,1,0.4c0.3,0,0.6-0.1,1-0.2c0.4-0.1,0.7-0.3,1.1-0.6s0.7-0.6,1-1s0.6-0.9,0.8-1.4l1,1.5
	c-0.3,0.8-0.6,1.6-1.1,2.3s-1,1.4-1.7,1.9c-0.6,0.5-1.3,1-2.1,1.3c-0.8,0.3-1.6,0.5-2.4,0.5c-1.2,0-2.3-0.2-3.2-0.6
	c-0.9-0.4-1.5-1.1-1.9-2s-0.4-2-0.2-3.5c0.3-1.4,0.9-3.1,2-5.1c-2-1.4-4.4-2.3-7.1-2.9c-1.2,2.3-2.5,4.6-3.8,6.9
	c-1.3,2.2-2.7,4.2-4.3,5.9c-1.5,1.7-3.2,3.1-5,4.2c-1.8,1.1-3.7,1.6-5.8,1.6c-1.7,0-3.1-0.4-4-1.1c-1-0.7-1.6-1.7-1.9-2.8
	c-0.3-1.2-0.2-2.5,0.2-3.9c0.4-1.5,1.1-2.9,2.2-4.3c1-1.4,2.3-2.8,3.9-4.1c1.6-1.3,3.4-2.3,5.5-3.1c-1-0.4-1.9-1-2.7-1.7
	s-1.5-1.6-2-2.6S38,32,38,30.8c-0.1-1.1,0.2-2.3,0.8-3.5s1.4-2.1,2.4-2.8c1.1-0.7,2.3-1.3,3.6-1.7c1.4-0.4,2.8-0.7,4.3-0.9
	c1.5-0.2,3-0.3,4.5-0.3c1.5-0.1,2.9-0.1,4.2-0.2c1.3,0,2.5-0.1,3.4-0.3c0.9-0.8,1.8-1.5,2.8-2.2c1-0.6,2-1.1,3-1.5
	c0.4-0.1,0.8-0.2,1.3-0.3c0.5-0.1,0.9-0.2,1.4-0.2s1,0,1.4,0.1c0.5,0.1,0.8,0.3,1.2,0.6c0.4,0.4,0.5,0.8,0.3,1.3s-0.5,1-1.1,1.4
	c-0.6,0.5-1.4,0.9-2.4,1.3s-2.2,0.7-3.5,0.9c-0.7,0.9-1.4,1.9-2.1,3c-0.7,1.1-1.4,2.3-2.1,3.6c-0.7,1.3-1.4,2.6-2.1,4
	c-0.7,1.4-1.4,2.8-2.1,4.2c2.8,0.6,5.2,1.5,7.3,2.8c0.6-0.9,1.2-2,2-3.1c0.8-1.2,1.6-2.4,2.4-3.6s1.7-2.5,2.6-3.8s1.7-2.6,2.6-3.8
	c2-2.8,4-5.8,6.1-8.8h5.9V16.8z M36.6,55.2c1.1,0,2.2-0.4,3.3-1.3c1.1-0.9,2.1-2.1,3.2-3.6c1-1.5,2.1-3.2,3.2-5.2
	c1.1-2,2.2-4,3.3-6.2c-2.4,0.3-4.5,0.9-6.3,1.8c-1.8,0.9-3.4,2-4.7,3.2s-2.3,2.5-3,3.8s-1.2,2.6-1.4,3.7c-0.2,1.1,0,2,0.3,2.8
	C34.9,54.8,35.6,55.2,36.6,55.2z M46.6,37.3c1.3-0.3,2.6-0.5,4-0.6c1.3-2.5,2.7-4.9,4.2-7.3s3.1-4.5,4.8-6.4c-1.2,0.1-2.6,0.3-4,0.6
	c-1.5,0.3-2.9,0.6-4.2,1.1c-1.4,0.5-2.6,1-3.8,1.8c-1.1,0.7-2,1.6-2.6,2.7c-0.5,0.9-0.8,1.7-0.9,2.6c-0.1,0.8-0.1,1.6,0.1,2.3
	c0.2,0.7,0.5,1.4,0.9,1.9S46,37,46.6,37.3z"/>
<path fill="#41423E" d="M87.3,30.4c1,0,1.8,0.2,2.4,0.6c0.7,0.4,1.1,1,1.4,1.7s0.4,1.6,0.4,2.5c-0.1,1-0.3,2-0.7,3.1
	c-0.5,1.3-1.1,2.4-1.8,3.3c-0.7,1-1.5,1.8-2.3,2.5S85,45.3,84,45.7c-1,0.4-1.9,0.5-3,0.5c-1,0-1.8-0.2-2.5-0.6s-1.1-1-1.4-1.7
	s-0.4-1.6-0.3-2.5c0.1-1,0.3-2,0.7-3.1c1-2.5,2.4-4.5,4.1-5.9C83.4,31.1,85.2,30.4,87.3,30.4z M86.3,38.4c0.3-0.8,0.6-1.6,0.8-2.4
	c0.2-0.7,0.3-1.4,0.4-2s0-1-0.1-1.4c-0.1-0.3-0.3-0.5-0.6-0.5c-0.3,0-0.7,0.2-1.1,0.5s-0.8,0.8-1.2,1.4s-0.8,1.2-1.2,2
	c-0.4,0.7-0.8,1.5-1.1,2.4c-0.3,0.8-0.6,1.6-0.8,2.3c-0.2,0.7-0.3,1.4-0.4,1.9s0,1,0.1,1.3s0.4,0.5,0.7,0.5c0.3,0,0.7-0.2,1.1-0.5
	s0.8-0.8,1.2-1.3s0.8-1.2,1.2-1.9C85.6,40,86,39.2,86.3,38.4z"/>
<path fill="#41423E" d="M98.1,27.5c0.8,0,1.3,0.3,1.5,0.9s0.2,1.3-0.2,2.2c-0.2,0.6-0.5,1.2-0.9,1.6h3.6c-0.1,0.2-0.2,0.6-0.4,1.1
	c-0.2,0.5-0.5,1.1-0.7,1.8c-0.3,0.7-0.6,1.4-0.9,2.1c-0.3,0.7-0.6,1.4-0.9,2s-0.5,1.2-0.7,1.7s-0.3,0.8-0.4,0.9
	c-0.2,0.5-0.2,0.9,0.1,1.1c0.3,0.2,0.6,0.3,1.1,0.2s1-0.3,1.5-0.7s1-1,1.3-1.7l0.7,1.1c-0.3,0.6-0.6,1.2-1.1,1.8
	c-0.5,0.5-1,1-1.6,1.4s-1.2,0.7-1.9,1c-0.7,0.2-1.3,0.4-2,0.4s-1.2-0.1-1.7-0.3s-0.8-0.5-1-1c-0.2-0.4-0.3-1-0.3-1.6
	s0.2-1.4,0.6-2.2l3.3-7.9c-0.5,0.2-1,0.4-1.5,0.4c-0.8,0-1.2-0.3-1.5-0.9c-0.2-0.6-0.2-1.3,0.2-2.2c0.4-1,0.9-1.7,1.6-2.3
	C96.6,27.8,97.3,27.5,98.1,27.5z"/>
<path fill="#41423E" d="M112.6,30.4c1,0,1.8,0.4,2.4,1.1c0.1-0.2,0.1-0.4,0.2-0.5c0-0.1,0.1-0.2,0.1-0.3h4.4
	c-0.1,0.2-0.2,0.7-0.5,1.2c-0.2,0.6-0.5,1.3-0.8,2c-0.3,0.8-0.7,1.6-1,2.4c-0.3,0.8-0.7,1.6-1,2.4c-0.3,0.7-0.6,1.4-0.8,1.9
	c-0.2,0.5-0.4,0.9-0.4,1.1c-0.2,0.5-0.2,0.9,0.1,1.1c0.3,0.2,0.6,0.3,1.1,0.2s1-0.3,1.5-0.7c0.6-0.4,1-1,1.4-1.7l0.7,1.1
	c-0.3,0.6-0.6,1.2-1.1,1.8c-0.5,0.5-1,1-1.6,1.4s-1.2,0.7-1.9,1c-0.7,0.2-1.3,0.4-2,0.4c-0.8,0-1.5-0.2-2-0.5s-0.9-0.9-1-1.6
	c-0.8,0.6-1.6,1.1-2.4,1.5s-1.6,0.6-2.3,0.6c-0.9,0-1.7-0.2-2.2-0.6c-0.6-0.4-1-1-1.2-1.7s-0.3-1.6-0.2-2.5c0.1-1,0.4-2,0.9-3.1
	c1.2-2.7,2.6-4.7,4.3-6C108.9,31.1,110.7,30.4,112.6,30.4z M114.3,33.1c-0.2-0.4-0.6-0.6-1.2-0.6c-0.5,0-1,0.1-1.4,0.3
	s-0.9,0.5-1.3,1c-0.4,0.4-0.9,1-1.4,1.7s-0.9,1.6-1.5,2.6c-0.4,0.8-0.7,1.5-0.9,2.2c-0.2,0.7-0.4,1.3-0.4,1.8s0.1,0.9,0.3,1.2
	c0.2,0.3,0.5,0.4,1,0.4s1-0.1,1.5-0.4c0.5-0.3,1.1-0.6,1.6-1.1c0.1-0.3,0.2-0.7,0.4-1L114.3,33.1z"/>
<rect x="44.2" y="71.7" fill="none" width="31.3" height="24.3"/>
<path fill="#41423E" d="M55.6,76.9c0.9,0,1.5,0.3,2,0.9l1.2-3c0.2-0.4,0.2-0.8,0.1-1.1c-0.1-0.3-0.5-0.4-1-0.4h-0.3l0.7-1.4
	c0.2,0,0.4-0.1,0.6-0.1c0.2,0,0.4-0.1,0.6-0.1c0.2,0,0.4,0,0.7,0c1.3,0,2.1,0.3,2.4,1c0.3,0.7,0.2,1.8-0.5,3.3l-4.3,10.3
	c-0.2,0.4-0.1,0.8,0.1,0.9c0.2,0.2,0.5,0.2,0.9,0.1s0.8-0.3,1.3-0.6c0.4-0.3,0.8-0.8,1.1-1.4l0.6,0.9c-0.2,0.5-0.5,1-0.9,1.5
	s-0.8,0.8-1.3,1.2c-0.5,0.3-1,0.6-1.5,0.8C57.6,89.9,57,90,56.5,90c-0.7,0-1.3-0.1-1.7-0.4s-0.7-0.7-0.8-1.3c-0.6,0.5-1.3,0.9-2,1.2
	s-1.3,0.4-1.9,0.4c-0.8,0-1.4-0.2-1.9-0.5s-0.8-0.8-1-1.4s-0.3-1.3-0.2-2.1c0.1-0.8,0.3-1.7,0.7-2.6c1-2.3,2.2-3.9,3.6-5
	C52.6,77.4,54.1,76.9,55.6,76.9z M54.3,85.9c0.1-0.2,0.2-0.5,0.4-0.9c0.2-0.5,0.4-1,0.7-1.6s0.6-1.3,0.9-2c0.3-0.7,0.6-1.5,0.9-2.2
	c-0.2-0.3-0.6-0.5-1-0.5c-0.8,0-1.6,0.3-2.3,1s-1.5,1.9-2.3,3.6c-0.3,0.6-0.6,1.2-0.8,1.8c-0.2,0.6-0.3,1.1-0.3,1.5s0.1,0.8,0.2,1
	c0.1,0.3,0.3,0.4,0.7,0.4s0.8-0.1,1.2-0.3c0.4-0.2,0.9-0.5,1.3-0.9c0-0.2,0.1-0.3,0.2-0.4C54.1,86.2,54.2,86.1,54.3,85.9z"/>
<path fill="#41423E" d="M67.6,88.2c0.5,0,1-0.1,1.5-0.2c0.5-0.2,1-0.4,1.4-0.6c0.5-0.3,0.9-0.6,1.3-0.9s0.7-0.7,0.9-1.1l0.6,0.9
	c-0.6,1.2-1.5,2.1-2.9,2.8c-1.4,0.7-2.9,1-4.8,1c-0.9,0-1.7-0.2-2.4-0.5s-1.2-0.8-1.5-1.4c-0.4-0.6-0.5-1.3-0.6-2.1
	c0-0.8,0.1-1.7,0.5-2.6c0.8-2.1,2-3.8,3.4-4.9c1.4-1.1,3-1.7,4.7-1.7c0.9,0,1.6,0.2,2.1,0.7s0.7,1.1,0.8,1.7
	c0.1,0.7-0.1,1.4-0.4,2.2c-0.3,0.8-0.9,1.4-1.6,2c-1,0.8-2.2,1.2-3.5,1.2h-2.2c-0.3,1-0.2,1.8,0.3,2.5
	C65.7,87.9,66.5,88.2,67.6,88.2z M68.9,78.4c-0.2,0.1-0.5,0.3-0.8,0.6c-0.3,0.3-0.6,0.7-0.9,1.2s-0.6,1-1,1.6
	c-0.3,0.6-0.6,1.2-0.9,1.8h1.2c0.5,0,0.9-0.2,1.3-0.5s0.7-0.8,1-1.4c0.3-0.5,0.5-1,0.6-1.4c0.2-0.4,0.2-0.8,0.3-1.1
	c0-0.3,0-0.5-0.2-0.7C69.4,78.3,69.2,78.3,68.9,78.4z"/>
<rect x="48.184" y="112.6" fill="none" width="79.7" height="24.3"/>
<path fill="#41423E" d="M36.084,126c0.4,0,0.8-0.1,1.2-0.2c0.4-0.1,0.8-0.3,1.2-0.5s0.7-0.4,1-0.7c0.3-0.3,0.6-0.6,0.8-0.9l0.5,0.8
	c-0.5,1-1.2,1.7-2.3,2.2s-2.4,0.8-3.9,0.8c-0.8,0-1.4-0.1-1.9-0.4s-0.9-0.7-1.2-1.1c-0.3-0.4-0.4-1.1-0.5-1.7c0-0.7,0.1-1.4,0.4-2.1
	c0.7-1.7,1.6-3.1,2.8-4c1.2-0.9,2.4-1.4,3.8-1.4c0.7,0,1.3,0.2,1.7,0.6c0.4,0.4,0.6,0.9,0.6,1.4c0,0.6-0.1,1.1-0.4,1.8
	c-0.3,0.6-0.7,1.2-1.3,1.7c-0.8,0.7-1.8,1-2.8,1h-1.7c-0.2,0.8-0.1,1.5,0.3,2C34.584,125.8,35.284,126,36.084,126z M37.184,118
	c-0.2,0.1-0.4,0.2-0.6,0.5s-0.5,0.6-0.7,0.9c-0.3,0.4-0.5,0.8-0.8,1.3s-0.5,1-0.7,1.5h1c0.4,0,0.8-0.1,1.1-0.4
	c0.3-0.3,0.6-0.6,0.8-1.2c0.2-0.4,0.4-0.8,0.5-1.1c0.1-0.4,0.2-0.7,0.2-0.9c0-0.2,0-0.4-0.1-0.6
	C37.584,117.9,37.484,117.9,37.184,118z"/>
<path fill="#41423E" d="M46.284,118.9c0.6-0.1,1.1-0.1,1.6,0c0.5,0.1,0.9,0.4,1.2,0.7c0.3,0.3,0.5,0.8,0.6,1.3s0.1,1.1-0.1,1.8
	c-0.3,0.9-0.6,1.7-1.1,2.3c-0.4,0.6-0.9,1.1-1.5,1.5c-0.6,0.4-1.2,0.6-1.8,0.8c-0.7,0.2-1.3,0.2-2,0.2c-0.6,0-1-0.1-1.4-0.4
	c-0.3-0.3-0.6-0.6-0.7-1c-0.1-0.4-0.2-0.9-0.1-1.4c0.1-0.5,0.2-1,0.5-1.5c0.2-0.4,0.5-0.8,0.7-1.1c0.3-0.3,0.5-0.5,0.7-0.7
	s0.5-0.3,0.7-0.4c0.2-0.1,0.4-0.1,0.5-0.1c0.5,0,0.8,0.2,1,0.6c0.2,0.4,0.1,0.9-0.1,1.5c-0.3,0.7-0.6,1.2-1.1,1.5
	c-0.4,0.4-0.9,0.5-1.5,0.5c-0.1,0-0.2,0-0.4-0.1c0,0.4,0,0.7,0.2,0.9s0.4,0.4,0.8,0.4c0.3,0,0.7-0.1,1-0.3s0.6-0.4,0.9-0.8
	c0.3-0.3,0.6-0.7,0.8-1.1c0.3-0.4,0.5-0.9,0.7-1.4c0.5-1.3,0.6-2.2,0.3-2.7c-0.3-0.5-1-0.6-2-0.3c-0.3,0.1-0.5,0.1-0.7,0
	c-0.2-0.1-0.3-0.2-0.4-0.4c-0.1-0.2-0.1-0.4-0.1-0.7s0-0.5,0.1-0.8c0.3-0.7,0.6-1.2,1.1-1.6c0.4-0.4,0.9-0.5,1.5-0.5
	c0.5,0,0.9,0.2,1,0.6c0.2,0.4,0.1,0.9-0.1,1.5c-0.1,0.2-0.2,0.4-0.3,0.6C46.684,118.6,46.484,118.8,46.284,118.9z"/>
<path fill="#41423E" d="M56.584,116.3l-3.4,8.2c-0.1,0.3-0.1,0.6,0.1,0.7c0.2,0.1,0.4,0.2,0.7,0.1c0.3-0.1,0.7-0.2,1-0.5
	c0.4-0.3,0.7-0.6,0.9-1.1l0.5,0.8c-0.2,0.4-0.4,0.8-0.7,1.2s-0.7,0.7-1.1,1c-0.4,0.3-0.8,0.5-1.3,0.6c-0.4,0.2-0.9,0.2-1.3,0.2
	s-0.8-0.1-1.1-0.2c-0.3-0.1-0.6-0.4-0.7-0.6c-0.2-0.3-0.2-0.6-0.2-1.1s0.1-0.9,0.4-1.5l3.3-7.8h-1.6l0.8-1.4h1.4l0.3-0.8l3.3-0.6
	l-0.6,1.4h2.5l-0.8,1.4C58.984,116.3,56.584,116.3,56.584,116.3z"/>
<path fill="#41423E" d="M66.784,124.5c-0.1,0.3-0.1,0.6,0.1,0.7c0.2,0.1,0.4,0.2,0.7,0.1c0.3-0.1,0.7-0.2,1-0.5
	c0.4-0.3,0.7-0.6,0.9-1.1l0.5,0.8c-0.2,0.4-0.4,0.8-0.7,1.2c-0.3,0.4-0.7,0.7-1.1,1s-0.8,0.5-1.3,0.6c-0.5,0.1-0.9,0.2-1.3,0.2
	c-0.6,0-1-0.1-1.4-0.4s-0.6-0.6-0.7-1.1c-0.5,0.4-1,0.8-1.5,1c-0.6,0.3-1.1,0.4-1.7,0.4c-0.4,0-0.8-0.1-1.1-0.2
	c-0.3-0.1-0.6-0.4-0.7-0.6c-0.2-0.3-0.2-0.6-0.2-1.1s0.1-0.9,0.4-1.5c0.1-0.2,0.2-0.5,0.4-1c0.2-0.4,0.4-0.9,0.6-1.4
	c0.2-0.5,0.4-0.9,0.6-1.4c0.2-0.4,0.3-0.7,0.4-0.9c0.2-0.4,0.2-0.7,0.1-0.9c-0.1-0.2-0.4-0.3-0.8-0.3h-0.3l0.5-1.2
	c0.1,0,0.3-0.1,0.5-0.1c0.1,0,0.3-0.1,0.5-0.1s0.4,0,0.6,0c1,0,1.7,0.3,1.9,0.9c0.3,0.6,0.1,1.4-0.4,2.6c-0.1,0.3-0.3,0.6-0.4,1.1
	c-0.2,0.5-0.4,0.9-0.6,1.4c-0.2,0.5-0.4,1.1-0.7,1.7c-0.1,0.3-0.1,0.5,0,0.7s0.3,0.2,0.5,0.2s0.5-0.1,0.8-0.2
	c0.3-0.2,0.6-0.4,0.9-0.7c0-0.1,0-0.1,0.1-0.2c0-0.1,0-0.1,0.1-0.2l2.9-7.1h3L66.784,124.5z"/>
<path fill="#41423E" d="M77.584,116.8c0.7,0,1.2,0.3,1.6,0.8l1-2.4c0.2-0.4,0.2-0.7,0.1-0.9s-0.4-0.3-0.8-0.3h-0.3l0.5-1.2
	c0.1,0,0.3,0,0.5-0.1c0.1,0,0.3-0.1,0.5-0.1c0.2,0,0.3,0,0.5,0c1,0,1.7,0.3,1.9,0.8c0.3,0.6,0.1,1.4-0.4,2.6l-3.5,8.4
	c-0.1,0.4-0.1,0.6,0.1,0.8c0.2,0.1,0.4,0.2,0.7,0.1c0.3-0.1,0.7-0.2,1-0.5c0.4-0.3,0.7-0.6,0.9-1.1l0.5,0.8
	c-0.2,0.4-0.4,0.8-0.7,1.2c-0.3,0.4-0.7,0.7-1.1,1s-0.8,0.5-1.3,0.6c-0.4,0.2-0.9,0.2-1.3,0.2c-0.6,0-1-0.1-1.4-0.3
	c-0.3-0.2-0.6-0.6-0.7-1c-0.5,0.4-1.1,0.8-1.6,1s-1.1,0.4-1.6,0.4c-0.6,0-1.1-0.1-1.5-0.4s-0.7-0.7-0.8-1.1
	c-0.2-0.5-0.2-1.1-0.1-1.7c0.1-0.7,0.3-1.4,0.6-2.1c0.8-1.8,1.8-3.2,2.9-4.1C75.084,117.3,76.284,116.8,77.584,116.8z M76.384,124.1
	c0.1-0.1,0.2-0.4,0.3-0.7c0.2-0.4,0.3-0.8,0.6-1.3c0.3-0.5,0.4-1.1,0.7-1.7c0.2-0.6,0.5-1.2,0.7-1.8c-0.2-0.3-0.5-0.4-0.8-0.4
	c-0.7,0-1.3,0.3-1.9,0.9c-0.6,0.6-1.2,1.6-1.9,3c-0.3,0.5-0.5,1-0.6,1.5s-0.2,0.9-0.3,1.2c-0.1,0.3,0,0.6,0.2,0.8
	c0.2,0.2,0.4,0.3,0.7,0.3c0.3,0,0.6-0.1,1-0.3c0.3-0.2,0.7-0.4,1.1-0.7c0-0.1,0.1-0.2,0.1-0.4
	C76.284,124.4,76.384,124.3,76.384,124.1z"/>
<path fill="#41423E" d="M88.984,116.8c0.7,0,1.2,0.3,1.6,0.8c0.1-0.1,0.1-0.2,0.1-0.3s0.1-0.2,0.1-0.2h3c-0.1,0.2-0.2,0.4-0.3,0.8
	c-0.2,0.4-0.4,0.9-0.6,1.4s-0.4,1.1-0.7,1.6c-0.2,0.6-0.5,1.1-0.7,1.6s-0.4,0.9-0.5,1.3c-0.1,0.4-0.2,0.6-0.3,0.7
	c-0.1,0.3-0.1,0.6,0.1,0.7c0.2,0.1,0.4,0.2,0.7,0.1c0.3-0.1,0.6-0.2,1-0.5s0.7-0.6,0.9-1.1l0.5,0.8c-0.2,0.4-0.4,0.8-0.7,1.2
	c-0.3,0.4-0.7,0.7-1.1,1s-0.8,0.5-1.3,0.6c-0.4,0.2-0.9,0.2-1.3,0.2c-0.6,0-1-0.1-1.4-0.4s-0.6-0.6-0.7-1.1c-0.5,0.4-1.1,0.8-1.6,1
	c-0.5,0.3-1,0.4-1.5,0.4c-0.6,0-1.1-0.1-1.5-0.4s-0.7-0.7-0.8-1.1c-0.2-0.5-0.2-1.1-0.1-1.7c0.1-0.7,0.3-1.4,0.6-2.1
	c0.8-1.8,1.8-3.2,2.9-4.1C86.584,117.3,87.784,116.8,88.984,116.8z M90.184,118.6c-0.2-0.3-0.4-0.4-0.8-0.4c-0.3,0-0.7,0.1-1,0.2
	c-0.3,0.1-0.6,0.4-0.9,0.6c-0.3,0.3-0.6,0.7-0.9,1.2s-0.6,1.1-1,1.8c-0.3,0.5-0.5,1-0.6,1.5s-0.2,0.9-0.3,1.2c0,0.3,0,0.6,0.2,0.8
	c0.2,0.2,0.4,0.3,0.7,0.3c0.3,0,0.6-0.1,1-0.3s0.7-0.4,1.1-0.8c0.1-0.2,0.1-0.5,0.2-0.7L90.184,118.6z"/>
<path fill="#41423E" d="M98.584,114.9c0.5,0,0.9,0.2,1,0.6c0.1,0.4,0.1,0.9-0.1,1.5c-0.2,0.4-0.4,0.8-0.6,1.1h2.4
	c-0.1,0.2-0.2,0.4-0.3,0.8c-0.1,0.4-0.3,0.7-0.5,1.2s-0.4,0.9-0.6,1.4s-0.4,0.9-0.6,1.4c-0.2,0.4-0.3,0.8-0.5,1.1
	c-0.1,0.3-0.2,0.5-0.3,0.6c-0.1,0.3-0.1,0.6,0.1,0.7c0.2,0.1,0.4,0.2,0.7,0.1c0.3-0.1,0.7-0.2,1-0.5c0.4-0.3,0.7-0.6,0.9-1.1
	l0.5,0.8c-0.2,0.4-0.4,0.8-0.7,1.2c-0.3,0.4-0.7,0.7-1.1,1s-0.8,0.5-1.3,0.6c-0.4,0.2-0.9,0.2-1.3,0.2s-0.8-0.1-1.1-0.2
	c-0.3-0.1-0.6-0.4-0.7-0.6c-0.2-0.3-0.2-0.6-0.2-1.1c0-0.4,0.1-0.9,0.4-1.5l2.2-5.3c-0.3,0.2-0.7,0.2-1,0.2c-0.5,0-0.8-0.2-1-0.6
	c-0.2-0.4-0.1-0.9,0.1-1.5c0.3-0.7,0.6-1.2,1-1.5C97.584,115,97.984,114.9,98.584,114.9z"/>
<path fill="#EFE7BE" d="M116,144.8c-0.2,0-0.4,0-0.6-0.1c-0.6-0.3-0.9-0.9-0.9-1.6l0.9-7c0.1-0.4,0.3-0.8,0.6-1l8.3-6.2
	c0.2-0.1,0.3-0.2,0.5-0.3l3.2-0.8c0.1,0,0.2,0,0.4,0c0.5,0,1,0.3,1.3,0.7c0.3,0.6,0.3,1.3-0.2,1.8l-12.4,14
	C116.9,144.6,116.5,144.8,116,144.8z"/>
<path fill="#41423E" d="M128.4,129.3L128.4,129.3 M128.4,129.3l-12.4,14l0.9-7l8.3-6.2L128.4,129.3 M128.4,126.3c-0.1,0-0.2,0-0.3,0
	c-0.2,0-0.4,0-0.5,0.1l-3.1,0.8c-0.4,0.1-0.7,0.3-1.1,0.5l-8.3,6.2c-0.6,0.5-1.1,1.2-1.2,2l-0.9,7c-0.2,1.3,0.5,2.6,1.7,3.1
	c0.4,0.2,0.8,0.3,1.3,0.3c0.8,0,1.7-0.4,2.2-1l12.3-13.9c0.5-0.5,0.8-1.3,0.8-2c0-1.6-1.3-2.9-2.9-3
	C128.5,126.3,128.5,126.3,128.4,126.3L128.4,126.3z"/>
<polygon fill="#7C7F77" stroke="#41423E" stroke-width="3" stroke-linecap="round" stroke-linejoin="round" stroke-miterlimit="10" points="
	105.4,131.8 132.1,139 145.2,112.4 "/>
<path fill="#303030" d="M116,144.8c-0.1,0-0.1,0-0.2,0c-0.7-0.1-1.2-0.7-1.3-1.4l-0.7-8.1c0-0.5,0.2-1,0.6-1.3l24.9-18.7
	c0.3-0.2,0.6-0.3,0.9-0.3c0.4,0,0.9,0.2,1.2,0.5c0.5,0.6,0.4,1.5-0.1,2.1L120.1,137l-2.7,6.9C117.2,144.4,116.7,144.8,116,144.8z"/>
<path fill="#41423E" d="M140.3,116.4L140.3,116.4 M140.3,116.4L118.9,136l-2.8,7.3l-0.7-8.1L140.3,116.4 M140.3,113.4
	c-0.2,0-0.4,0-0.5,0.1c-0.5,0.1-0.9,0.3-1.3,0.6l-24.9,18.7c-0.8,0.6-1.3,1.6-1.2,2.7l0.7,8.1c0.1,1.4,1.2,2.5,2.6,2.7
	c0.1,0,0.3,0,0.4,0c1.2,0,2.4-0.8,2.8-1.9l2.5-6.6l20.9-19.1c0.6-0.5,1-1.4,1-2.3C143.3,114.8,142,113.4,140.3,113.4L140.3,113.4
	L140.3,113.4z"/>
<path fill="none" stroke="#41423E" stroke-width="3" stroke-linecap="round" stroke-linejoin="round" d="M105,141.9
	c-1.4,0.6-2.9,1.2-4.3,1.8"/>
<path fill="none" stroke="#41423E" stroke-width="3" stroke-linecap="round" stroke-linejoin="round" stroke-dasharray="9.3" d="
	M91.7,146.3c-6.4,1.5-13.1,2.1-19.9,1.8C31.8,146.1,1,112,3,71.9C4.9,31.8,39,1,79,2.9c38.8,1.9,68.9,34,68.9,72.4l0,0
	c0,20.6-16.7,37.3-37.3,37.3c-16.5,0-29.8-13.4-29.8-29.9c0-13.2,10.7-23.9,23.9-23.9c10.5,0,19.1,8.6,19.1,19.1
	c0,8.4-6.8,15.3-15.3,15.3c-6.7,0-12.2-5.5-12.2-12.2c0-5.4,4.4-9.8,9.8-9.8c4.3,0,7.8,3.5,7.8,7.8c0,3-2,5.4-4.8,6.1"/>
<path fill="none" stroke="#41423E" stroke-width="3" stroke-linecap="round" stroke-linejoin="round" d="M104.6,84.5
	c-1.2-0.9-2-2.4-2-4"/>
<rect x="29.1" y="23.5" fill="none" width="90.6" height="31"/>
<path fill="#565853" d="M85.3,16.2c-1.7,2.8-3.4,5.5-5,8.1c-0.7,1.1-1.4,2.2-2.1,3.4c-0.7,1.2-1.4,2.3-2.1,3.4s-1.3,2.2-1.9,3.2
	s-1.1,1.9-1.6,2.6c-0.6,1-1.2,1.9-1.8,2.8c-0.6,0.9-1.1,1.8-1.6,2.7s-0.9,1.6-1.3,2.4c-0.3,0.7-0.6,1.3-0.7,1.9
	c-0.1,0.5,0,0.9,0.3,1.1c0.3,0.3,0.6,0.4,1,0.4c0.3,0,0.6-0.1,1-0.2c0.4-0.1,0.7-0.3,1.1-0.6s0.7-0.6,1-1s0.6-0.9,0.8-1.4l1,1.5
	c-0.3,0.8-0.6,1.6-1.1,2.3s-1,1.4-1.7,1.9c-0.6,0.5-1.3,1-2.1,1.3c-0.8,0.3-1.6,0.5-2.4,0.5c-1.2,0-2.3-0.2-3.2-0.6
	c-0.9-0.4-1.5-1.1-1.9-2s-0.4-2-0.2-3.5c0.3-1.4,0.9-3.1,2-5.1c-2-1.4-4.4-2.3-7.1-2.9c-1.2,2.3-2.5,4.6-3.8,6.9
	c-1.3,2.2-2.7,4.2-4.3,5.9c-1.5,1.7-3.2,3.1-5,4.2c-1.8,1.1-3.7,1.6-5.8,1.6c-1.7,0-3.1-0.4-4-1.1c-1-0.7-1.6-1.7-1.9-2.8
	c-0.3-1.2-0.2-2.5,0.2-3.9c0.4-1.5,1.1-2.9,2.2-4.3c1-1.4,2.3-2.8,3.9-4.1c1.6-1.3,3.4-2.3,5.5-3.1c-1-0.4-1.9-1-2.7-1.7
	s-1.5-1.6-2-2.6s-0.8-2-0.8-3.2c-0.1-1.1,0.2-2.3,0.8-3.5s1.4-2.1,2.4-2.8c1.1-0.7,2.3-1.3,3.6-1.7c1.4-0.4,2.8-0.7,4.3-0.9
	c1.5-0.2,3-0.3,4.5-0.3c1.5-0.1,2.9-0.1,4.2-0.2c1.3,0,2.5-0.1,3.4-0.3c0.9-0.8,1.8-1.5,2.8-2.2c1-0.6,2-1.1,3-1.5
	c0.4-0.1,0.8-0.2,1.3-0.3c0.5-0.1,0.9-0.2,1.4-0.2s1,0,1.4,0.1c0.5,0.1,0.8,0.3,1.2,0.6c0.4,0.4,0.5,0.8,0.3,1.3s-0.5,1-1.1,1.4
	c-0.6,0.5-1.4,0.9-2.4,1.3s-2.2,0.7-3.5,0.9c-0.7,0.9-1.4,1.9-2.1,3c-0.7,1.1-1.4,2.3-2.1,3.6c-0.7,1.3-1.4,2.6-2.1,4
	c-0.7,1.4-1.4,2.8-2.1,4.2c2.8,0.6,5.2,1.5,7.3,2.8c0.6-0.9,1.2-2,2-3.1c0.8-1.2,1.6-2.4,2.4-3.6s1.7-2.5,2.6-3.8s1.7-2.6,2.6-3.8
	c2-2.8,4-5.8,6.1-8.8h5.9V16.2z M35.8,54.5c1.1,0,2.2-0.4,3.3-1.3c1.1-0.9,2.1-2.1,3.2-3.6c1-1.5,2.1-3.2,3.2-5.2
	c1.1-2,2.2-4,3.3-6.2c-2.4,0.3-4.5,0.9-6.3,1.8c-1.8,0.9-3.4,2-4.7,3.2s-2.3,2.5-3,3.8s-1.2,2.6-1.4,3.7c-0.2,1.1,0,2,0.3,2.8
	C34.1,54.2,34.8,54.5,35.8,54.5z M45.8,36.6c1.3-0.3,2.6-0.5,4-0.6c1.3-2.5,2.7-4.9,4.2-7.3s3.1-4.5,4.8-6.4c-1.2,0.1-2.6,0.3-4,0.6
	c-1.5,0.3-2.9,0.6-4.2,1.1c-1.4,0.5-2.6,1-3.8,1.8c-1.1,0.7-2,1.6-2.6,2.7c-0.5,0.9-0.8,1.7-0.9,2.6c-0.1,0.8-0.1,1.6,0.1,2.3
	c0.2,0.7,0.5,1.4,0.9,1.9S45.2,36.3,45.8,36.6z"/>
<path fill="#565853" d="M86.5,29.8c1,0,1.8,0.2,2.4,0.6c0.7,0.4,1.1,1,1.4,1.7c0.3,0.7,0.4,1.6,0.4,2.5c-0.1,1-0.3,2-0.7,3.1
	c-0.5,1.3-1.1,2.4-1.8,3.3c-0.7,1-1.5,1.8-2.3,2.5s-1.7,1.2-2.7,1.6c-1,0.4-1.9,0.5-3,0.5c-1,0-1.8-0.2-2.5-0.6s-1.1-1-1.4-1.7
	s-0.4-1.6-0.3-2.5c0.1-1,0.3-2,0.7-3.1c1-2.5,2.4-4.5,4.1-5.9C82.6,30.5,84.4,29.8,86.5,29.8z M85.5,37.7c0.3-0.8,0.6-1.6,0.8-2.4
	c0.2-0.7,0.3-1.4,0.4-2s0-1-0.1-1.4c-0.1-0.3-0.3-0.5-0.6-0.5c-0.3,0-0.7,0.2-1.1,0.5c-0.4,0.3-0.8,0.8-1.2,1.4s-0.8,1.2-1.2,2
	c-0.4,0.7-0.8,1.5-1.1,2.4c-0.3,0.8-0.6,1.6-0.8,2.3c-0.2,0.7-0.3,1.4-0.4,1.9c0,0.6,0,1,0.1,1.3s0.4,0.5,0.7,0.5
	c0.3,0,0.7-0.2,1.1-0.5s0.8-0.8,1.2-1.3s0.8-1.2,1.2-1.9C84.8,39.3,85.2,38.5,85.5,37.7z"/>
<path fill="#565853" d="M97.3,26.8c0.8,0,1.3,0.3,1.5,0.9s0.2,1.3-0.2,2.2c-0.2,0.6-0.5,1.2-0.9,1.6h3.6c-0.1,0.2-0.2,0.6-0.4,1.1
	c-0.2,0.5-0.5,1.1-0.7,1.8c-0.3,0.7-0.6,1.4-0.9,2.1c-0.3,0.7-0.6,1.4-0.9,2s-0.5,1.2-0.7,1.7s-0.3,0.8-0.4,0.9
	c-0.2,0.5-0.2,0.9,0.1,1.1c0.3,0.2,0.6,0.3,1.1,0.2s1-0.3,1.5-0.7s1-1,1.3-1.7l0.7,1.1c-0.3,0.6-0.6,1.2-1.1,1.8
	c-0.5,0.5-1,1-1.6,1.4s-1.2,0.7-1.9,1c-0.7,0.2-1.3,0.4-2,0.4s-1.2-0.1-1.7-0.3s-0.8-0.5-1-1c-0.2-0.4-0.3-1-0.3-1.6
	s0.2-1.4,0.6-2.2l3.3-7.9c-0.5,0.2-1,0.4-1.5,0.4c-0.8,0-1.2-0.3-1.5-0.9c-0.2-0.6-0.2-1.3,0.2-2.2c0.4-1,0.9-1.7,1.6-2.3
	C95.8,27.1,96.5,26.8,97.3,26.8z"/>
<path fill="#565853" d="M111.8,29.8c1,0,1.8,0.4,2.4,1.1c0.1-0.2,0.1-0.4,0.2-0.5c0-0.1,0.1-0.2,0.1-0.3h4.4
	c-0.1,0.2-0.2,0.7-0.5,1.2c-0.2,0.6-0.5,1.3-0.8,2c-0.3,0.8-0.7,1.6-1,2.4c-0.3,0.8-0.7,1.6-1,2.4c-0.3,0.7-0.6,1.4-0.8,1.9
	c-0.2,0.5-0.4,0.9-0.4,1.1c-0.2,0.5-0.2,0.9,0.1,1.1c0.3,0.2,0.6,0.3,1.1,0.2s1-0.3,1.5-0.7c0.6-0.4,1-1,1.4-1.7l0.7,1.1
	c-0.3,0.6-0.6,1.2-1.1,1.8c-0.5,0.5-1,1-1.6,1.4s-1.2,0.7-1.9,1c-0.7,0.2-1.3,0.4-2,0.4c-0.8,0-1.5-0.2-2-0.5s-0.9-0.9-1-1.6
	c-0.8,0.6-1.6,1.1-2.4,1.5s-1.6,0.6-2.3,0.6c-0.9,0-1.7-0.2-2.2-0.6c-0.6-0.4-1-1-1.2-1.7s-0.3-1.6-0.2-2.5c0.1-1,0.4-2,0.9-3.1
	c1.2-2.7,2.6-4.7,4.3-6C108.2,30.4,109.9,29.8,111.8,29.8z M113.5,32.4c-0.2-0.4-0.6-0.6-1.2-0.6c-0.5,0-1,0.1-1.4,0.3
	s-0.9,0.5-1.3,1c-0.4,0.4-0.9,1-1.4,1.7s-0.9,1.6-1.5,2.6c-0.4,0.8-0.7,1.5-0.9,2.2c-0.2,0.7-0.4,1.3-0.4,1.8s0.1,0.9,0.3,1.2
	c0.2,0.3,0.5,0.4,1,0.4s1-0.1,1.5-0.4c0.5-0.3,1.1-0.6,1.6-1.1c0.1-0.3,0.2-0.7,0.4-1L113.5,32.4z"/>
<rect x="43.4" y="71" fill="none" width="31.3" height="24.3"/>
<path fill="#565853" d="M54.8,76.2c0.9,0,1.5,0.3,2,0.9l1.2-3c0.2-0.4,0.2-0.8,0.1-1.1c-0.1-0.3-0.5-0.4-1-0.4h-0.3l0.7-1.4
	c0.2,0,0.4-0.1,0.6-0.1c0.2,0,0.4-0.1,0.6-0.1c0.2,0,0.4,0,0.7,0c1.3,0,2.1,0.3,2.4,1c0.3,0.7,0.2,1.8-0.5,3.3L57,85.7
	c-0.2,0.4-0.1,0.8,0.1,0.9c0.2,0.2,0.5,0.2,0.9,0.1s0.8-0.3,1.3-0.6c0.4-0.3,0.8-0.8,1.1-1.4l0.6,0.9c-0.2,0.5-0.5,1-0.9,1.5
	s-0.8,0.8-1.3,1.2c-0.5,0.3-1,0.6-1.5,0.8c-0.5,0.2-1.1,0.3-1.6,0.3c-0.7,0-1.3-0.1-1.7-0.4s-0.7-0.7-0.8-1.3
	c-0.6,0.5-1.3,0.9-2,1.2s-1.3,0.4-1.9,0.4c-0.8,0-1.4-0.2-1.9-0.5s-0.8-0.8-1-1.4s-0.3-1.3-0.2-2.1c0.1-0.8,0.3-1.7,0.7-2.6
	c1-2.3,2.2-3.9,3.6-5C51.8,76.8,53.3,76.2,54.8,76.2z M53.5,85.2c0.1-0.2,0.2-0.5,0.4-0.9c0.2-0.5,0.4-1,0.7-1.6s0.6-1.3,0.9-2
	c0.3-0.7,0.6-1.5,0.9-2.2c-0.2-0.3-0.6-0.5-1-0.5c-0.8,0-1.6,0.3-2.3,1s-1.5,1.9-2.3,3.6c-0.3,0.6-0.6,1.2-0.8,1.8
	c-0.2,0.6-0.3,1.1-0.3,1.5s0.1,0.8,0.2,1c0.2,0.2,0.4,0.4,0.8,0.4c0.4,0,0.8-0.1,1.2-0.3c0.4-0.2,0.9-0.5,1.3-0.9
	c0-0.2,0.1-0.3,0.2-0.4C53.3,85.5,53.4,85.4,53.5,85.2z"/>
<path fill="#565853" d="M66.8,87.6c0.5,0,1-0.1,1.5-0.2c0.5-0.2,1-0.4,1.4-0.6c0.5-0.3,0.9-0.6,1.3-0.9s0.7-0.7,0.9-1.1l0.6,0.9
	c-0.6,1.2-1.5,2.1-2.9,2.8c-1.4,0.7-2.9,1-4.8,1c-0.9,0-1.7-0.2-2.4-0.5s-1.2-0.8-1.5-1.4c-0.4-0.6-0.5-1.3-0.6-2.1
	c0-0.8,0.1-1.7,0.5-2.6c0.8-2.1,2-3.8,3.4-4.9c1.4-1.1,3-1.7,4.7-1.7c0.9,0,1.6,0.2,2.1,0.7s0.7,1.1,0.8,1.7
	c0.1,0.7-0.1,1.4-0.4,2.2c-0.3,0.8-0.9,1.4-1.6,2c-1,0.8-2.2,1.2-3.5,1.2h-2.1c-0.3,1-0.2,1.8,0.3,2.5
	C64.9,87.2,65.7,87.6,66.8,87.6z M68.1,77.7c-0.2,0.1-0.5,0.3-0.8,0.6c-0.3,0.3-0.6,0.7-0.9,1.2s-0.6,1-1,1.6
	c-0.3,0.6-0.6,1.2-0.9,1.8h1.2c0.5,0,0.9-0.2,1.3-0.5s0.7-0.8,1-1.4c0.3-0.5,0.5-1,0.6-1.4c0.2-0.4,0.2-0.8,0.3-1.1
	c0-0.3,0-0.5-0.2-0.7C68.6,77.6,68.4,77.6,68.1,77.7z"/>
<rect x="47.384" y="111.9" fill="none" width="79.7" height="24.3"/>
<path fill="#565853" d="M35.284,125.4c0.4,0,0.8-0.1,1.2-0.2c0.4-0.1,0.8-0.3,1.2-0.5s0.7-0.4,1-0.7c0.3-0.3,0.6-0.6,0.8-0.9
	l0.5,0.8c-0.5,1-1.2,1.7-2.3,2.2s-2.4,0.8-3.9,0.8c-0.8,0-1.4-0.1-1.9-0.4c-0.5-0.3-0.9-0.7-1.2-1.1c-0.3-0.4-0.4-1.1-0.5-1.7
	c0-0.7,0.1-1.4,0.4-2.1c0.7-1.7,1.6-3.1,2.8-4c1.2-0.9,2.4-1.4,3.8-1.4c0.7,0,1.3,0.2,1.7,0.6c0.4,0.4,0.6,0.9,0.6,1.4
	c0,0.6-0.1,1.1-0.4,1.8c-0.3,0.6-0.7,1.2-1.3,1.7c-0.8,0.7-1.8,1-2.8,1h-1.7c-0.2,0.8-0.1,1.5,0.3,2
	C33.784,125.1,34.484,125.4,35.284,125.4z M36.384,117.4c-0.2,0.1-0.4,0.2-0.6,0.5s-0.5,0.6-0.7,0.9c-0.3,0.4-0.5,0.8-0.8,1.3
	s-0.5,1-0.7,1.5h1c0.4,0,0.8-0.1,1.1-0.4c0.3-0.3,0.6-0.6,0.8-1.2c0.2-0.4,0.4-0.8,0.5-1.1c0.1-0.4,0.2-0.7,0.2-0.9
	c0-0.2,0-0.4-0.1-0.6C36.884,117.3,36.684,117.3,36.384,117.4z"/>
<path fill="#565853" d="M45.484,118.3c0.6-0.1,1.1-0.1,1.6,0c0.5,0.1,0.9,0.4,1.2,0.7c0.3,0.3,0.5,0.8,0.6,1.3
	c0.1,0.5,0.1,1.1-0.1,1.8c-0.3,0.9-0.6,1.7-1.1,2.3c-0.4,0.6-0.9,1.1-1.5,1.5c-0.6,0.4-1.2,0.6-1.8,0.8c-0.7,0.2-1.3,0.2-2,0.2
	c-0.6,0-1-0.1-1.4-0.4c-0.3-0.3-0.6-0.6-0.7-1c-0.1-0.4-0.2-0.9-0.1-1.4c0.1-0.5,0.2-1,0.5-1.5c0.2-0.4,0.5-0.8,0.7-1.1
	c0.3-0.3,0.5-0.5,0.7-0.7s0.5-0.3,0.7-0.4c0.2-0.1,0.4-0.1,0.5-0.1c0.5,0,0.8,0.2,1,0.6c0.2,0.4,0.1,0.9-0.1,1.5
	c-0.3,0.7-0.6,1.2-1.1,1.5c-0.4,0.4-0.9,0.5-1.5,0.5c-0.1,0-0.2,0-0.4-0.1c0,0.4,0,0.7,0.2,0.9c0.2,0.2,0.4,0.4,0.8,0.4
	c0.3,0,0.7-0.1,1-0.3c0.3-0.2,0.6-0.4,0.9-0.8c0.3-0.3,0.6-0.7,0.8-1.1c0.3-0.4,0.5-0.9,0.7-1.4c0.5-1.3,0.6-2.2,0.3-2.7
	c-0.3-0.5-1-0.6-2-0.3c-0.3,0.1-0.5,0.1-0.7,0c-0.2-0.1-0.3-0.2-0.4-0.4c-0.1-0.2-0.1-0.4-0.1-0.7c0-0.3,0-0.5,0.1-0.8
	c0.3-0.7,0.6-1.2,1.1-1.6c0.4-0.4,0.9-0.5,1.5-0.5c0.5,0,0.9,0.2,1,0.6c0.2,0.4,0.1,0.9-0.1,1.5c-0.1,0.2-0.2,0.4-0.3,0.6
	C45.884,118,45.684,118.1,45.484,118.3z"/>
<path fill="#565853" d="M55.784,115.6l-3.4,8.2c-0.1,0.3-0.1,0.6,0.1,0.7c0.2,0.1,0.4,0.2,0.7,0.1c0.3-0.1,0.7-0.2,1-0.5
	c0.4-0.3,0.7-0.6,0.9-1.1l0.5,0.8c-0.2,0.4-0.4,0.8-0.7,1.2s-0.7,0.7-1.1,1c-0.4,0.3-0.8,0.5-1.3,0.6c-0.4,0.2-0.9,0.2-1.3,0.2
	s-0.8-0.1-1.1-0.2c-0.3-0.1-0.6-0.4-0.7-0.6c-0.2-0.3-0.2-0.6-0.2-1.1s0.1-0.9,0.4-1.5l3.3-7.8h-1.6l0.8-1.4h1.4l0.3-0.8l3.3-0.6
	l-0.6,1.4h2.5l-0.8,1.4C58.184,115.6,55.784,115.6,55.784,115.6z"/>
<path fill="#565853" d="M65.984,123.8c-0.1,0.3-0.1,0.6,0.1,0.7c0.2,0.1,0.4,0.2,0.7,0.1c0.3-0.1,0.7-0.2,1-0.5
	c0.4-0.3,0.7-0.6,0.9-1.1l0.5,0.8c-0.2,0.4-0.4,0.8-0.7,1.2c-0.3,0.4-0.7,0.7-1.1,1c-0.4,0.3-0.8,0.5-1.3,0.6
	c-0.5,0.1-0.9,0.2-1.3,0.2c-0.6,0-1-0.1-1.4-0.4s-0.6-0.6-0.7-1.1c-0.5,0.4-1,0.8-1.5,1c-0.6,0.3-1.1,0.4-1.7,0.4
	c-0.4,0-0.8-0.1-1.1-0.2c-0.3-0.1-0.6-0.4-0.7-0.6c-0.2-0.3-0.2-0.6-0.2-1.1s0.1-0.9,0.4-1.5c0.1-0.2,0.2-0.5,0.4-1
	c0.2-0.4,0.4-0.9,0.6-1.4c0.2-0.5,0.4-0.9,0.6-1.4c0.2-0.4,0.3-0.7,0.4-0.9c0.2-0.4,0.2-0.7,0.1-0.9c-0.1-0.2-0.4-0.3-0.8-0.3h-0.3
	l0.5-1.2c0.1,0,0.3-0.1,0.5-0.1c0.1,0,0.3-0.1,0.5-0.1s0.4,0,0.6,0c1,0,1.7,0.3,1.9,0.9c0.3,0.6,0.1,1.4-0.4,2.6
	c-0.1,0.3-0.3,0.6-0.4,1.1c-0.2,0.5-0.4,0.9-0.6,1.4c-0.2,0.5-0.4,1.1-0.7,1.7c-0.1,0.3-0.1,0.5,0,0.7s0.3,0.2,0.5,0.2
	s0.5-0.1,0.8-0.2c0.3-0.2,0.6-0.4,0.9-0.7c0-0.1,0-0.1,0.1-0.2c0-0.1,0-0.1,0.1-0.2l2.9-7.1h3L65.984,123.8z"/>
<path fill="#565853" d="M76.784,116.2c0.7,0,1.2,0.3,1.6,0.8l1-2.4c0.2-0.4,0.2-0.7,0.1-0.9c-0.1-0.2-0.4-0.3-0.8-0.3h-0.3l0.5-1.2
	c0.1,0,0.3,0,0.5-0.1c0.1,0,0.3-0.1,0.5-0.1c0.2,0,0.3,0,0.5,0c1,0,1.7,0.3,1.9,0.8c0.3,0.6,0.1,1.4-0.4,2.6l-3.5,8.4
	c-0.1,0.4-0.1,0.6,0.1,0.8c0.2,0.1,0.4,0.2,0.7,0.1c0.3-0.1,0.7-0.2,1-0.5c0.4-0.3,0.7-0.6,0.9-1.1l0.5,0.8
	c-0.2,0.4-0.4,0.8-0.7,1.2c-0.3,0.4-0.7,0.7-1.1,1s-0.8,0.5-1.3,0.6c-0.4,0.2-0.9,0.2-1.3,0.2c-0.6,0-1-0.1-1.4-0.3
	c-0.3-0.2-0.6-0.6-0.7-1c-0.5,0.4-1.1,0.8-1.6,1s-1.1,0.4-1.6,0.4c-0.6,0-1.1-0.1-1.5-0.4s-0.7-0.7-0.8-1.1
	c-0.2-0.5-0.2-1.1-0.1-1.7c0.1-0.7,0.3-1.4,0.6-2.1c0.8-1.8,1.8-3.2,2.9-4.1C74.284,116.6,75.484,116.2,76.784,116.2z M75.584,123.5
	c0.1-0.1,0.2-0.4,0.3-0.7c0.2-0.4,0.3-0.8,0.6-1.3c0.3-0.5,0.4-1.1,0.7-1.7c0.2-0.6,0.5-1.2,0.7-1.8c-0.2-0.3-0.5-0.4-0.8-0.4
	c-0.7,0-1.3,0.3-1.9,0.9c-0.6,0.6-1.2,1.6-1.9,3c-0.3,0.5-0.5,1-0.6,1.5s-0.2,0.9-0.3,1.2c-0.1,0.3,0,0.6,0.2,0.8
	c0.2,0.2,0.4,0.3,0.7,0.3c0.3,0,0.6-0.1,1-0.3c0.3-0.2,0.7-0.4,1.1-0.7c0-0.1,0.1-0.2,0.1-0.4
	C75.484,123.7,75.584,123.6,75.584,123.5z"/>
<path fill="#565853" d="M88.184,116.2c0.7,0,1.2,0.3,1.6,0.8c0.1-0.1,0.1-0.2,0.1-0.3s0.1-0.2,0.1-0.2h3c-0.1,0.2-0.2,0.4-0.3,0.8
	c-0.2,0.4-0.4,0.9-0.6,1.4s-0.4,1.1-0.7,1.6c-0.2,0.6-0.5,1.1-0.7,1.6s-0.4,0.9-0.5,1.3c-0.1,0.4-0.2,0.6-0.3,0.7
	c-0.1,0.3-0.1,0.6,0.1,0.7c0.2,0.1,0.4,0.2,0.7,0.1c0.3-0.1,0.6-0.2,1-0.5s0.7-0.6,0.9-1.1l0.5,0.8c-0.2,0.4-0.4,0.8-0.7,1.2
	c-0.3,0.4-0.7,0.7-1.1,1s-0.8,0.5-1.3,0.6c-0.4,0.2-0.9,0.2-1.3,0.2c-0.6,0-1-0.1-1.4-0.4s-0.6-0.6-0.7-1.1c-0.5,0.4-1.1,0.8-1.6,1
	c-0.5,0.3-1,0.4-1.5,0.4c-0.6,0-1.1-0.1-1.5-0.4s-0.7-0.7-0.8-1.1c-0.2-0.5-0.2-1.1-0.1-1.7c0.1-0.7,0.3-1.4,0.6-2.1
	c0.8-1.8,1.8-3.2,2.9-4.1C85.784,116.6,86.984,116.2,88.184,116.2z M89.384,118c-0.2-0.3-0.4-0.4-0.8-0.4c-0.3,0-0.7,0.1-1,0.2
	c-0.3,0.1-0.6,0.4-0.9,0.6c-0.3,0.3-0.6,0.7-0.9,1.2c-0.3,0.5-0.6,1.1-1,1.8c-0.3,0.5-0.5,1-0.6,1.5s-0.2,0.9-0.3,1.2
	c0,0.3,0,0.6,0.2,0.8c0.2,0.2,0.4,0.3,0.7,0.3c0.3,0,0.6-0.1,1-0.3c0.4-0.2,0.7-0.4,1.1-0.8c0.1-0.2,0.1-0.5,0.2-0.7L89.384,118z"/>
<path fill="#565853" d="M97.784,114.2c0.5,0,0.9,0.2,1,0.6c0.2,0.4,0.1,0.9-0.1,1.5c-0.2,0.4-0.4,0.8-0.6,1.1h2.4
	c-0.1,0.2-0.2,0.4-0.3,0.8c-0.1,0.4-0.3,0.7-0.5,1.2s-0.4,0.9-0.6,1.4s-0.4,0.9-0.6,1.4c-0.2,0.4-0.3,0.8-0.5,1.1
	c-0.1,0.3-0.2,0.5-0.3,0.6c-0.1,0.3-0.1,0.6,0.1,0.7c0.2,0.1,0.4,0.2,0.7,0.1c0.3-0.1,0.7-0.2,1-0.5c0.4-0.3,0.7-0.6,0.9-1.1
	l0.5,0.8c-0.2,0.4-0.4,0.8-0.7,1.2s-0.7,0.7-1.1,1s-0.8,0.5-1.3,0.6c-0.4,0.2-0.9,0.2-1.3,0.2s-0.8-0.1-1.1-0.2
	c-0.3-0.1-0.6-0.4-0.7-0.6c-0.2-0.3-0.2-0.6-0.2-1.1c0-0.4,0.1-0.9,0.4-1.5l2.2-5.3c-0.3,0.2-0.7,0.2-1,0.2c-0.5,0-0.8-0.2-1-0.6
	c-0.2-0.4-0.1-0.9,0.1-1.5c0.3-0.7,0.6-1.2,1-1.5C96.784,114.4,97.184,114.2,97.784,114.2z"/>
<path fill="#EFE7BE" d="M115.2,144.1c-0.2,0-0.4,0-0.6-0.1c-0.6-0.3-0.9-0.9-0.9-1.6l0.9-7c0.1-0.4,0.3-0.8,0.6-1l8.3-6.2
	c0.2-0.1,0.3-0.2,0.5-0.3l3.2-0.8c0.1,0,0.2,0,0.4,0c0.5,0,1,0.3,1.3,0.7c0.3,0.6,0.3,1.3-0.2,1.8l-12.4,14
	C116.1,143.9,115.7,144.1,115.2,144.1z"/>
<path fill="#565853" d="M127.6,128.6L127.6,128.6 M127.6,128.6l-12.4,14l0.9-7l8.3-6.2L127.6,128.6 M127.6,125.6c-0.1,0-0.2,0-0.3,0
	c-0.2,0-0.4,0-0.5,0.1l-3.1,0.8c-0.4,0.1-0.7,0.3-1.1,0.5l-8.3,6.2c-0.6,0.5-1.1,1.2-1.2,2l-0.9,7c-0.2,1.3,0.5,2.6,1.7,3.1
	c0.4,0.2,0.8,0.3,1.3,0.3c0.8,0,1.7-0.4,2.2-1l12.3-13.9c0.5-0.5,0.8-1.3,0.8-2c0-1.6-1.3-2.9-2.9-3
	C127.7,125.7,127.7,125.6,127.6,125.6L127.6,125.6z"/>
<polygon fill="#7C7F77" stroke="#565853" stroke-width="3" stroke-linecap="round" stroke-linejoin="round" stroke-miterlimit="10" points="
	104.6,131.2 131.3,138.3 144.4,111.7 "/>
<path fill="#303030" d="M115.2,144.1c-0.1,0-0.1,0-0.2,0c-0.7-0.1-1.2-0.7-1.3-1.4l-0.7-8.1c0-0.5,0.2-1,0.6-1.3l24.9-18.7
	c0.3-0.2,0.6-0.3,0.9-0.3c0.4,0,0.9,0.2,1.2,0.5c0.5,0.6,0.4,1.5-0.1,2.1l-21.2,19.4l-2.7,6.9C116.4,143.7,115.9,144.1,115.2,144.1z
	"/>
<path fill="#565853" d="M139.5,115.7L139.5,115.7 M139.5,115.7l-21.4,19.6l-2.8,7.3l-0.7-8.1L139.5,115.7 M139.5,112.7
	c-0.2,0-0.4,0-0.5,0.1c-0.5,0.1-0.9,0.3-1.3,0.6l-24.9,18.7c-0.8,0.6-1.3,1.6-1.2,2.7l0.7,8.1c0.1,1.4,1.2,2.5,2.6,2.7
	c0.1,0,0.3,0,0.4,0c1.2,0,2.4-0.8,2.8-1.9l2.5-6.6l20.9-19.1c0.6-0.5,1-1.4,1-2.3C142.5,114.1,141.2,112.7,139.5,112.7
	C139.5,112.7,139.5,112.7,139.5,112.7L139.5,112.7z"/>
<path fill="none" stroke="#565853" stroke-width="3" stroke-linecap="round" stroke-linejoin="round" d="M104.2,141.2
	c-1.4,0.6-2.9,1.2-4.3,1.8"/>
<path fill="none" stroke="#565853" stroke-width="3" stroke-linecap="round" stroke-linejoin="round" stroke-dasharray="9.3" d="
	M90.9,145.6c-6.4,1.5-13.1,2.1-19.9,1.8c-40-2-70.8-36.1-68.8-76.2c1.9-40,36-70.9,76-68.9c38.8,1.9,68.9,34,68.9,72.4l0,0
	c0,20.6-16.7,37.3-37.3,37.3C93.3,112,80,98.6,80,82.1c0-13.2,10.7-23.9,23.9-23.9c10.5,0,19.1,8.6,19.1,19.1
	c0,8.4-6.8,15.3-15.3,15.3c-6.7,0-12.2-5.5-12.2-12.2c0-5.4,4.4-9.8,9.8-9.8c4.3,0,7.8,3.5,7.8,7.8c0,3-2,5.4-4.8,6.1"/>
<path fill="none" stroke="#565853" stroke-width="3" stroke-linecap="round" stroke-linejoin="round" d="M103.8,83.8
	c-1.2-0.9-2-2.4-2-4"/>
<g>
	<path fill="#303030" d="M13.685,73.936c0.808,0-1.526,0-1.705,0c-0.179,1.705,0.359,3.858,0.718,5.563
		c0.449,2.064,0.718,4.037,0.897,6.1c0.269,3.14,0.539,6.28,1.077,9.331c0.897-0.628,2.512-0.269,3.589-0.358
		c1.615-0.269,3.319-0.718,4.934-0.898c2.782-0.269,5.652,0,8.434-0.269c2.871-0.269,6.011-0.359,8.792-0.987
		c1.705-0.269,1.526-0.808,1.615-2.333c0.09-1.077,0.269-2.063,0.269-3.14c0.09-3.23-0.807-7.742-1.614-11.214"/>
	<g>
		<path fill="#565853" d="M13.685,74.155c0.056,0,0.113,0,0.169,0c0.282,0,0.282-0.437,0-0.437c-0.625,0-1.249,0-1.874,0
			c-0.123,0-0.213,0.1-0.219,0.219c-0.156,3.325,1.024,6.632,1.437,9.912c0.468,3.713,0.643,7.442,1.262,11.139
			c0.025,0.15,0.206,0.185,0.321,0.131c1.4-0.664,3.613-0.336,5.175-0.649c2.652-0.531,5.225-0.711,7.926-0.712
			c4.164-0.002,8.509-0.292,12.596-1.129c2.375-0.486,1.828-2.86,2.015-4.89c0.366-3.981-0.711-8.219-1.593-12.066
			c-0.063-0.275-0.484-0.158-0.421,0.116c0.616,2.688,1.156,5.385,1.467,8.128c0.166,1.461,0.78,7.427-0.962,8.157
			c-2.722,1.14-6.437,0.857-9.355,1.113c-2.817,0.247-5.69-0.102-8.492,0.277c-1.386,0.187-2.749,0.476-4.12,0.75
			c-1.116,0.224-2.221-0.058-3.313,0.154c-1.518,0.294-1.216-2.072-1.347-3.135c-0.193-1.559-0.324-3.126-0.462-4.691
			c-0.233-2.655-0.589-5.248-1.148-7.856c-0.117-0.546-0.785-4.531-0.573-4.531c0.56,0,1.121,0,1.681,0c0.282,0,0.282-0.437,0-0.437
			c-0.056,0-0.113,0-0.169,0C13.403,73.718,13.403,74.155,13.685,74.155L13.685,74.155z"/>
	</g>
</g>
<g>
	<path fill="#FBF5E5" d="M25.438,72.052c1.974-1.884,3.409-2.781,6.101-3.05c1.794-0.18,5.562-0.18,7.087,0.897
		c2.602,1.705,2.153,7.805,2.153,10.497c0,2.692,0.359,5.742-0.179,8.434c-0.09,0.358,0,0.807,0,1.166
		c-4.217-1.076-7.986-0.358-12.023,0.987"/>
	<g>
		<path fill="#565853" d="M25.593,72.207c3.241-3.007,7.228-3.62,11.477-2.717c3.954,0.841,3.551,6.402,3.51,9.491
			c-0.018,1.337,0.486,10.896-0.818,10.6c-3.77-0.856-7.649,0.03-11.242,1.191c-0.267,0.086-0.153,0.508,0.116,0.421
			c3.957-1.279,7.795-1.92,11.907-0.987c0.131,0.03,0.285-0.063,0.277-0.211c-0.102-1.762,0.3-3.599,0.291-5.383
			c-0.009-1.879-0.125-3.752-0.094-5.632c0.045-2.714,0.115-5.705-1.225-8.155c-1.194-2.184-4.485-2.128-6.603-2.13
			c-3.212-0.002-5.575,1.04-7.905,3.201C25.077,72.09,25.386,72.398,25.593,72.207L25.593,72.207z"/>
	</g>
</g>
<g>
	<g>
		<path fill="#565853" d="M31.114,76.682c0.974,0.45,2.165,0.363,3.206,0.288c0.952-0.069,2.093-0.16,2.936-0.647
			c0.244-0.141,0.024-0.519-0.221-0.377c-0.777,0.449-1.848,0.508-2.716,0.587c-0.939,0.085-2.106,0.178-2.985-0.228
			C31.081,76.187,30.859,76.564,31.114,76.682L31.114,76.682z"/>
	</g>
</g>
<g>
	<g>
		<path fill="#565853" d="M31.494,77.788c1.788-0.006,3.587-0.058,5.351-0.366c0.277-0.048,0.159-0.469-0.116-0.421
			c-1.725,0.3-3.488,0.344-5.235,0.35C31.212,77.352,31.212,77.789,31.494,77.788L31.494,77.788z"/>
	</g>
</g>
<g>
	<g>
		<path fill="#565853" d="M30.115,72.843c2.467-0.402,4.977-0.239,7.446-0.628c0.249-0.039,0.182-0.429-0.058-0.429
			c-0.149,0-0.299,0-0.448,0c-0.282,0-0.282,0.437,0,0.437c0.149,0,0.299,0,0.448,0c-0.019-0.143-0.039-0.286-0.058-0.429
			c-2.469,0.389-4.979,0.225-7.446,0.628C29.721,72.467,29.839,72.888,30.115,72.843L30.115,72.843z"/>
	</g>
</g>
<g>
	<g>
		<path fill="#565853" d="M30.653,73.74c1.841-0.297,3.718-0.257,5.562-0.539c0.278-0.042,0.159-0.464-0.116-0.421
			c-1.844,0.282-3.72,0.241-5.562,0.539C30.259,73.363,30.377,73.785,30.653,73.74L30.653,73.74z"/>
	</g>
</g>
<g>
	<g>
		<path fill="#565853" d="M30.595,74.466c2.13,0.184,4.246,0.221,6.338-0.277c0.274-0.065,0.158-0.487-0.116-0.421
			c-2.057,0.49-4.131,0.442-6.222,0.261C30.314,74.004,30.316,74.442,30.595,74.466L30.595,74.466z"/>
	</g>
</g>
<g>
	<g>
		<path fill="#565853" d="M31.186,80.486c-0.02,1.086,0.205,2.149,0.269,3.23c0.007,0.122,0.094,0.215,0.219,0.219
			c1.156,0.035,2.306-0.046,3.454-0.18c0.089-0.01,0.195-0.058,0.211-0.16c0.13-0.843-0.176-1.6-0.217-2.436
			c-0.014-0.285,0.18-0.951-0.189-1.117c-1.027-0.461-2.543,0.037-3.587,0.234c-0.277,0.052-0.159,0.473,0.116,0.421
			c0.923-0.174,1.868-0.389,2.812-0.363c0.608,0.016,0.4,0.618,0.421,1.055c0.034,0.713,0.333,1.362,0.221,2.089
			c0.07-0.053,0.14-0.107,0.211-0.16c-1.148,0.133-2.298,0.215-3.454,0.18c0.073,0.073,0.146,0.146,0.219,0.219
			c-0.064-1.081-0.289-2.144-0.269-3.23C31.628,80.204,31.191,80.205,31.186,80.486L31.186,80.486z"/>
	</g>
</g>
<g>
	<g>
		<path fill="#565853" d="M35.402,84.343c-0.002,1.067,0.455,2.041,0.539,3.095c0.009,0.109,0.093,0.231,0.219,0.219
			c0.793-0.081,1.765,0.214,2.512-0.138c0.797-0.375,0.591-1.43,0.442-2.125c-0.094-0.436-0.176-0.865-0.254-1.305
			c-0.036-0.203-0.146-0.412-0.35-0.486c-0.876-0.314-2.109,0.322-2.946,0.529c-0.274,0.067-0.157,0.489,0.116,0.421
			c0.782-0.193,1.546-0.498,2.353-0.565c0.579-0.048,0.475,0.785,0.583,1.205c0.164,0.638,0.518,1.806-0.382,1.996
			c-0.674,0.142-1.392-0.04-2.074,0.029c0.073,0.073,0.146,0.146,0.219,0.219c-0.083-1.053-0.541-2.034-0.539-3.095
			C35.84,84.062,35.403,84.062,35.402,84.343L35.402,84.343z"/>
	</g>
</g>
<g>
	<g>
		<path fill="#565853" d="M32.481,85.011c0.784-0.018,1.536-0.217,2.301-0.367c0.276-0.054,0.159-0.475-0.116-0.421
			c-0.727,0.142-1.44,0.334-2.185,0.351C32.199,84.58,32.199,85.018,32.481,85.011L32.481,85.011z"/>
	</g>
</g>
<g>
	<g>
		<path fill="#565853" d="M32.615,85.818c0.708-0.09,1.42-0.145,2.122-0.277c0.277-0.052,0.159-0.473-0.116-0.421
			c-0.664,0.124-1.337,0.176-2.006,0.261C32.339,85.416,32.336,85.854,32.615,85.818L32.615,85.818z"/>
	</g>
</g>
<g>
	<g>
		<path fill="#565853" d="M32.871,87.066c0.644,0.166,1.237-0.031,1.828-0.291c0.257-0.113,0.035-0.49-0.221-0.377
			c-0.477,0.21-0.969,0.381-1.491,0.247C32.714,86.575,32.598,86.996,32.871,87.066L32.871,87.066z"/>
	</g>
</g>
<g>
	<g>
		<path fill="#565853" d="M35.8,80.974c0.665,0.024,1.298-0.135,1.942-0.277c0.275-0.06,0.159-0.482-0.116-0.421
			c-0.606,0.133-1.201,0.284-1.826,0.261C35.518,80.526,35.519,80.963,35.8,80.974L35.8,80.974z"/>
	</g>
</g>
<g>
	<g>
		<path fill="#565853" d="M36.397,82.087c0.664-0.122,1.338-0.157,1.974-0.404c0.26-0.101,0.147-0.524-0.116-0.421
			c-0.635,0.247-1.309,0.282-1.974,0.404C36.004,81.717,36.121,82.138,36.397,82.087L36.397,82.087z"/>
	</g>
</g>
<g>
	<g>
		<path fill="#565853" d="M36.563,83.037c0.536-0.006,1.04-0.07,1.538-0.277c0.256-0.106,0.144-0.53-0.116-0.421
			c-0.462,0.192-0.924,0.256-1.422,0.261C36.282,82.603,36.281,83.04,36.563,83.037L36.563,83.037z"/>
	</g>
</g>
<g>
	<g>
		<path fill="#565853" d="M34.255,79.972c-1.016,1.066-1.637,2.463-2.502,3.645c-0.167,0.228,0.213,0.446,0.377,0.221
			c0.842-1.151,1.444-2.519,2.433-3.556C34.759,80.078,34.45,79.768,34.255,79.972L34.255,79.972z"/>
	</g>
</g>
<g>
	<g>
		<path fill="#565853" d="M31.25,80.641c0.551,0.431,1.176,0.775,1.77,1.142c0.389,0.241,0.777,0.482,1.162,0.729
			c0.14,0.09,0.722,0.423,0.735,0.499c0.049,0.277,0.47,0.159,0.421-0.116c-0.076-0.432-1.115-0.875-1.429-1.073
			c-0.777-0.489-1.626-0.924-2.351-1.49C31.339,80.16,31.028,80.467,31.25,80.641L31.25,80.641z"/>
	</g>
</g>
<g>
	<g>
		<path fill="#565853" d="M38.124,83.617c-0.596,1.145-0.796,2.631-1.715,3.578c-0.196,0.202,0.113,0.512,0.309,0.309
			c0.954-0.983,1.168-2.484,1.783-3.666C38.631,83.588,38.254,83.367,38.124,83.617L38.124,83.617z"/>
	</g>
</g>
<g>
	<g>
		<path fill="#565853" d="M35.915,84.409c0.96,0.751,2.146,1.332,2.728,2.456c0.033,0.065,0.116,0.112,0.189,0.108
			c0.007,0,0.014-0.001,0.022-0.001c0.2-0.011,0.277-0.225,0.155-0.373c-0.034-0.039-0.065-0.079-0.093-0.122
			c-0.139-0.245-0.517-0.025-0.377,0.221c0.045,0.078,0.104,0.141,0.162,0.21c0.052-0.124,0.103-0.249,0.155-0.373
			c0.212-0.012-0.208-0.474-0.295-0.581c-0.201-0.246-0.447-0.455-0.691-0.656c-0.524-0.431-1.108-0.781-1.642-1.198
			C36.005,83.928,35.693,84.235,35.915,84.409L35.915,84.409z"/>
	</g>
</g>
<g>
	<path fill="#FBF5E5" d="M25.617,72.232c-3.184-0.852-3.588-0.448-4.755-0.448c-2.422,0-4.755,0.359-6.998,1.077
		c0.539,3.32,1.436,6.729,1.705,10.138c0.269,3.05,0.359,6.011,0.448,9.062c3.051-2.243,9.331-2.961,12.65-1.167
		C29.475,84.882,27.232,77.884,25.617,72.232"/>
	<g>
		<path fill="#565853" d="M25.675,72.021c-3.882-0.974-8.059-0.509-11.869,0.628c-0.123,0.037-0.173,0.149-0.153,0.269
			c0.574,3.362,1.374,6.678,1.697,10.08c0.286,3.01,0.359,6.041,0.448,9.062c0.005,0.155,0.186,0.286,0.329,0.189
			c3.407-2.31,8.672-2.988,12.43-1.167c0.159,0.077,0.31-0.019,0.329-0.189c0.715-6.394-1.315-12.65-3.059-18.72
			c-0.078-0.27-0.499-0.155-0.421,0.116c1.596,5.555,3.365,11.17,3.187,17.014c-0.045,1.479-0.354,1.098-1.453,0.76
			c-0.819-0.252-1.701-0.321-2.549-0.383c-2.219-0.163-4.51,0.289-6.579,1.059c-0.433,0.161-1.778,1.235-1.802,0.407
			c-0.045-1.507-0.101-3.014-0.173-4.52c-0.134-2.804-0.418-5.566-0.92-8.327c-0.279-1.533-0.603-3.058-0.886-4.59
			c-0.272-1.471,4.193-1.58,4.832-1.64c2.235-0.212,4.31-0.175,6.496,0.373C25.832,72.511,25.948,72.089,25.675,72.021
			L25.675,72.021z"/>
	</g>
</g>
<g>
	<g>
		<path fill="#565853" d="M16.606,75.103c0.089,1.053,0.107,3.765,1.506,4.068c0.933,0.202,1.87-0.141,2.756-0.412
			c1.619-0.496,3.159-0.444,4.838-0.566c0.144-0.01,0.245-0.131,0.211-0.277c-0.492-2.087,0.397-4.214-2.185-4.377
			c-2.143-0.136-5.122-0.255-6.929,1.107c-0.222,0.167-0.005,0.547,0.221,0.377c1.44-1.086,3.469-1.043,5.195-1.056
			c0.79-0.006,1.6-0.031,2.383,0.086c0.962,0.144,0.601,2.737,0.751,3.372c0.15,0.634-2.352,0.42-2.697,0.42
			c-0.629,0.001-1.313,0.308-1.903,0.492c-1.243,0.389-2.716,0.919-3.308-0.711c-0.289-0.795-0.331-1.689-0.401-2.523
			C17.02,74.824,16.583,74.822,16.606,75.103L16.606,75.103z"/>
	</g>
</g>
<g>
	<g>
		<path fill="#565853" d="M16.982,74.475c-0.121,0.972-0.01,1.901,0.09,2.871c0.038,0.368,0.566,0.382,0.583,0
			c0.044-1.009,0.263-1.895,0.678-2.814c-0.181-0.049-0.362-0.098-0.543-0.147c-0.125,1.363-0.381,2.686,0.01,4.025
			c0.077,0.262,0.504,0.294,0.562,0c0.265-1.34,0.094-2.697,0.359-4.037c-0.187,0-0.375,0-0.562,0
			c0.347,1.305-0.102,3.431,1.301,4.211c0.175,0.098,0.362,0.003,0.428-0.174c0.544-1.456-0.003-2.893-0.08-4.384
			c-0.191,0.026-0.382,0.052-0.572,0.077c0.204,1.384,0.323,2.867,1.242,3.986c0.154,0.187,0.416,0.053,0.487-0.129
			c0.488-1.247,0.056-2.505-0.269-3.743c-0.083-0.317-0.582-0.254-0.572,0.077c0.034,1.22,0.244,2.472,1.162,3.346
			c0.153,0.146,0.435,0.091,0.487-0.129c0.297-1.266-0.025-2.45-0.449-3.654c-0.124-0.353-0.645-0.214-0.562,0.155
			c0.285,1.275,0.387,2.586,1.241,3.627c0.141,0.172,0.436,0.069,0.487-0.129c0.296-1.153,0.043-2.24-0.179-3.385
			c-0.062-0.321-0.605-0.25-0.572,0.077c0.127,1.255,0.364,2.468,1.026,3.556c0.133,0.218,0.459,0.173,0.533-0.07
			c0.332-1.093,0.201-2.185,0.101-3.307c-0.194,0-0.389,0-0.583,0c0.126,1.255,0.364,2.468,1.026,3.557
			c0.13,0.214,0.465,0.177,0.533-0.07c0.381-1.383-0.093-2.699-0.538-4.013c-0.187,0.052-0.375,0.103-0.562,0.155
			c0.486,1.166,0.748,2.399,1.166,3.589c0.114,0.325,0.533,0.245,0.572-0.077c0.131-1.068-0.005-2.077-0.19-3.128
			c-0.178,0.075-0.355,0.15-0.533,0.225c0.355,0.493,0.492,1.043,0.409,1.647c-0.014,0.376,0.569,0.375,0.583,0
			c0.027-0.732-0.104-1.315-0.489-1.941c-0.181-0.295-0.588-0.092-0.533,0.225c0.178,1.008,0.294,1.957,0.169,2.973
			c0.191-0.026,0.382-0.052,0.572-0.077c-0.419-1.19-0.68-2.422-1.166-3.589c-0.14-0.336-0.685-0.209-0.562,0.155
			c0.406,1.198,0.89,2.427,0.538,3.703c0.178-0.023,0.355-0.046,0.533-0.07c-0.611-1.004-0.831-2.108-0.947-3.262
			c-0.037-0.369-0.616-0.376-0.583,0c0.094,1.062,0.235,2.113-0.08,3.152c0.178-0.023,0.355-0.046,0.533-0.07
			c-0.611-1.004-0.83-2.108-0.947-3.262c-0.191,0.026-0.382,0.052-0.572,0.077c0.202,1.038,0.45,2.023,0.179,3.075
			c0.162-0.043,0.325-0.086,0.487-0.129c-0.776-0.946-0.836-2.227-1.091-3.37c-0.187,0.052-0.375,0.103-0.562,0.155
			c0.383,1.089,0.722,2.181,0.449,3.344c0.162-0.043,0.325-0.086,0.487-0.129c-0.809-0.771-0.961-1.87-0.991-2.934
			c-0.191,0.026-0.382,0.052-0.572,0.077c0.296,1.128,0.716,2.291,0.269,3.433c0.162-0.043,0.325-0.086,0.487-0.129
			c-0.831-1.012-0.908-2.482-1.092-3.729c-0.048-0.327-0.589-0.247-0.572,0.077c0.073,1.421,0.619,2.841,0.101,4.229
			c0.143-0.058,0.285-0.116,0.428-0.174c-1.141-0.635-0.737-2.749-1.033-3.863c-0.071-0.268-0.505-0.29-0.562,0
			c-0.265,1.34-0.094,2.697-0.359,4.037c0.187,0,0.375,0,0.562,0c-0.375-1.283-0.108-2.57,0.01-3.87
			c0.026-0.282-0.425-0.408-0.543-0.147c-0.456,1.008-0.709,2.002-0.758,3.108c0.194,0,0.389,0,0.583,0
			c-0.1-0.97-0.211-1.898-0.09-2.871C17.611,74.102,17.027,74.107,16.982,74.475L16.982,74.475z"/>
	</g>
</g>
<g>
	<g>
		<path fill="#565853" d="M19.427,81.512c2.226-0.204,4.38-0.713,6.518-1.354c0.195-0.058,0.223-0.38,0-0.421
			c-0.211-0.04-0.264-0.04-0.475,0c-0.277,0.052-0.159,0.473,0.116,0.421c0.081,0,0.162,0,0.242,0c0-0.14,0-0.281,0-0.421
			c-2.1,0.63-4.213,1.138-6.402,1.338C19.149,81.1,19.146,81.538,19.427,81.512L19.427,81.512z"/>
	</g>
</g>
<g>
	<g>
		<path fill="#565853" d="M20.292,82.401c2.159-0.36,4.315-0.726,6.459-1.166c0.276-0.057,0.159-0.478-0.116-0.421
			c-2.144,0.44-4.301,0.806-6.459,1.166C19.899,82.026,20.017,82.447,20.292,82.401L20.292,82.401z"/>
	</g>
</g>
<g>
	<g>
		<path fill="#565853" d="M20.831,83.567c1.64-0.519,3.344-0.734,5.024-1.077c0.276-0.056,0.159-0.477-0.116-0.421
			c-1.681,0.342-3.385,0.557-5.024,1.077C20.447,83.231,20.561,83.653,20.831,83.567L20.831,83.567z"/>
	</g>
</g>
<g>
	<g>
		<path fill="#565853" d="M20.324,84.831c1.78-0.099,3.554-0.277,5.262-0.815c0.268-0.084,0.153-0.507-0.116-0.421
			c-1.671,0.527-3.403,0.702-5.145,0.799C20.044,84.409,20.043,84.847,20.324,84.831L20.324,84.831z"/>
	</g>
</g>
<g>
	<g>
		<path fill="#565853" d="M20.773,86.267c1.829,0.155,3.755-0.428,5.441-1.084c0.26-0.101,0.147-0.524-0.116-0.421
			c-1.655,0.644-3.534,1.22-5.325,1.069C20.492,85.806,20.494,86.243,20.773,86.267L20.773,86.267z"/>
	</g>
</g>
<g>
	<path fill="#FBF5E5" d="M16.735,91.835c1.705-1.39,3.858-2.019,6.011-2.109c1.794-0.089,4.351-0.179,5.652,1.167l0.27,0.179
		c-3.14,1.167-8.434,1.436-11.843,0.807"/>
	<g>
		<path fill="#565853" d="M16.846,92.024c3.144-2.344,8.217-3.084,11.577-0.853c-0.496-0.329-1.641,0.219-2.181,0.335
			c-1.116,0.239-2.258,0.339-3.394,0.424c-1.985,0.148-4.001,0.062-5.964-0.262c-0.276-0.045-0.394,0.376-0.116,0.421
			c3.907,0.644,8.193,0.485,11.959-0.807c0.182-0.063,0.214-0.292,0.052-0.399c-3.56-2.364-8.761-1.766-12.153,0.763
			C16.402,91.813,16.619,92.193,16.846,92.024L16.846,92.024z"/>
	</g>
</g>
<g>
	<path fill="#FBF5E5" d="M28.6,91.01c2.377-0.799,5.024-1.416,7.581-1.598c0.853-0.036,1.749-0.072,2.602,0.037
		c0.448,0.072,1.442,0.382,2.063,0.472l-0.045,0.209c-3.32,0.799-8.433,1.453-12.202,1.017L28.6,91.01z"/>
	<g>
		<path fill="#565853" d="M28.659,91.221c2.188-0.707,4.383-1.23,6.668-1.514c0.536-0.067,5.32,0.11,5.287,0.261
			c-0.101,0.466-5.44,0.884-5.744,0.916c-0.485,0.051-6.051,0.317-6.05,0.127c0.001-0.282-0.436-0.282-0.437,0
			c0,0.046,0,0.091-0.001,0.137c-0.001,0.128,0.1,0.207,0.219,0.219c4.093,0.392,8.266-0.106,12.26-1.025
			c0.07-0.016,0.137-0.082,0.153-0.153c0.015-0.07,0.03-0.139,0.045-0.209c0.024-0.109-0.031-0.245-0.153-0.269
			c-4.31-0.84-8.174-0.264-12.362,1.089C28.275,90.886,28.39,91.308,28.659,91.221z"/>
	</g>
</g>
</svg>
