<svg version="1.1" id="Layer_1" xmlns="http://www.w3.org/2000/svg" xmlns:xlink="http://www.w3.org/1999/xlink" x="0px" y="0px" width="1000px" height="450px" viewBox="0 0 1000 450" enable-background="new 0 0 1000 450" xml:space="preserve">
  <g opacity="0">
    <path fill="#444444" d="M955,418c0,6.627-5.373,12-12,12H767c-6.627,0-12-5.373-12-12v-97c0-6.627,5.373-12,12-12h176
      c6.627,0,12,5.373,12,12V418z"/>
    <polygon fill="#444444" points="814.284,343 854.784,265.636 895.284,343   "/>
    <animate begin="5.7s" attributeName="opacity" from="0" to="0.6" dur="0.6s" fill="freeze"/>
  </g>
  <g opacity="0">
    <path fill="#444444" d="M671,418c0,6.627-5.373,12-12,12H483c-6.627,0-12-5.373-12-12v-97c0-6.627,5.373-12,12-12h176
      c6.627,0,12,5.373,12,12V418z"/>
    <polygon fill="#444444" points="530.284,343 570.784,265.636 611.284,343   "/>
    <animate begin="3.5s" attributeName="opacity" from="0" to="0.6" dur="0.6s" fill="freeze"/>
  </g>
  <g opacity="0">
    <path fill="#444444" d="M384,418c0,6.627-5.373,12-12,12H196c-6.627,0-12-5.373-12-12v-97c0-6.627,5.373-12,12-12h176
      c6.627,0,12,5.373,12,12V418z"/>
    <polygon fill="#444444" points="243.284,343 283.784,265.636 324.284,343   "/>
    <animate begin="1.3s" attributeName="opacity" from="0" to="0.6" dur="0.6s" fill="freeze"/>
  </g>
  <g opacity="0">
    <path fill="#444444" d="M814,131c0,6.627-5.373,12-12,12H626c-6.627,0-12-5.373-12-12V34c0-6.627,5.373-12,12-12h176
      c6.627,0,12,5.373,12,12V131z"/>
    <polygon fill="#444444" points="755.716,109 715.216,186.364 674.716,109   "/>
    <animate begin="4.6s" attributeName="opacity" from="0" to="0.6" dur="0.6s" fill="freeze"/>
  </g>
  <g opacity="0">
    <path fill="#444444" d="M529,131c0,6.627-5.373,12-12,12H341c-6.627,0-12-5.373-12-12V34c0-6.627,5.373-12,12-12h176
      c6.627,0,12,5.373,12,12V131z"/>
    <polygon fill="#444444" points="470.716,109 430.216,186.364 389.716,109   "/>
    <animate begin="2.4s" attributeName="opacity" from="0" to="0.6" dur="0.6s" fill="freeze"/>
  </g>
  <g opacity="0">
    <path fill="#444444" d="M240,131c0,6.627-5.373,12-12,12H52c-6.627,0-12-5.373-12-12V34c0-6.627,5.373-12,12-12h176
        c6.627,0,12,5.373,12,12V131z"/>
    <polygon fill="#444444" points="181.716,109 141.216,186.364 100.716,109"/>
    <animate begin="0.2s" attributeName="opacity" from="0" to="0.6" dur="0.6s" fill="freeze"/>
  </g>
  <g opacity="0">
    <path fill="#D9DCD0" d="M237,127c0,6.627-5.373,12-12,12H49c-6.627,0-12-5.373-12-12V30c0-6.627,5.373-12,12-12h176
    c6.627,0,12,5.373,12,12V127z"/>
    <polygon fill="#D9DCD0" points="178.716,105 138.216,182.364 97.716,105"/>
    <animate begin="0.2s" attributeName="opacity" from="0" to="1" dur="0.6s" fill="freeze"/>
  </g>
  <g opacity="0">
    <path fill="#D9DCD0" d="M526,127c0,6.627-5.373,12-12,12H338c-6.627,0-12-5.373-12-12V30c0-6.627,5.373-12,12-12h176
      c6.627,0,12,5.373,12,12V127z"/>
    <polygon fill="#D9DCD0" points="467.716,105 427.216,182.364 386.716,105   "/>
    <animate begin="2.4s" attributeName="opacity" from="0" to="1" dur="0.6s" fill="freeze"/>
  </g>
  <g opacity="0">
    <path fill="#D9DCD0" d="M811,127c0,6.627-5.373,12-12,12H623c-6.627,0-12-5.373-12-12V30c0-6.627,5.373-12,12-12h176
      c6.627,0,12,5.373,12,12V127z"/>
    <polygon fill="#D9DCD0" points="752.716,105 712.216,182.364 671.716,105   "/>
    <animate begin="4.6s" attributeName="opacity" from="0" to="1" dur="0.6s" fill="freeze"/>
  </g>
  <g opacity="0">
    <path fill="#D9DCD0" d="M381,414c0,6.627-5.373,12-12,12H193c-6.627,0-12-5.373-12-12v-97c0-6.627,5.373-12,12-12h176
      c6.627,0,12,5.373,12,12V414z"/>
    <polygon fill="#D9DCD0" points="240.284,339 280.784,261.636 321.284,339   "/>
    <animate begin="1.3s" attributeName="opacity" from="0" to="1" dur="0.6s" fill="freeze"/>
  </g>
  <g opacity="0">
    <path fill="#D9DCD0" d="M668,414c0,6.627-5.373,12-12,12H480c-6.627,0-12-5.373-12-12v-97c0-6.627,5.373-12,12-12h176
      c6.627,0,12,5.373,12,12V414z"/>
    <polygon fill="#D9DCD0" points="527.284,339 567.784,261.636 608.284,339   "/>
    <animate begin="3.5s" attributeName="opacity" from="0" to="1" dur="0.6s" fill="freeze"/>
  </g>
  <g opacity="0">
    <path fill="#D9DCD0" d="M952,414c0,6.627-5.373,12-12,12H764c-6.627,0-12-5.373-12-12v-97c0-6.627,5.373-12,12-12h176
      c6.627,0,12,5.373,12,12V414z"/>
    <polygon fill="#D9DCD0" points="811.284,339 851.784,261.636 892.284,339   "/>
    <animate begin="5.7s" attributeName="opacity" from="0" to="1" dur="0.6s" fill="freeze"/>
  </g>
  <line fill="none" stroke="#1E6283" stroke-width="17" stroke-miterlimit="10" x1="138" y1="224.5" x2="852" y2="224.5"/>
  <circle fill="#ddd" cx="137.552" cy="223.731" r="27.652"><animate begin="0s" attributeName="fill" from="#ddd" to="#2CBCA3" dur="0.3s" fill="freeze"/></circle>
  <circle fill="#ddd" cx="851.674" cy="223.731" r="27.652"><animate begin="5.5s" attributeName="fill" from="#ddd" to="#2CBCA3" dur="0.3s" fill="freeze"/></circle>
  <circle fill="#ddd" cx="281.8" cy="224.527" r="27.652"><animate begin="1.1s" attributeName="fill" from="#ddd" to="#2CBCA3" dur="0.3s" fill="freeze"/></circle>
  <circle fill="#ddd" cx="426.629" cy="223.731" r="27.652"><animate begin="2.2s" attributeName="fill" from="#ddd" to="#2CBCA3" dur="0.3s" fill="freeze"/></circle>
  <circle fill="#ddd" cx="568.704" cy="223.731" r="27.652"><animate begin="3.3s" attributeName="fill" from="#ddd" to="#2CBCA3" dur="0.3s" fill="freeze"/></circle>
  <circle fill="#ddd" cx="711.233" cy="223.731" r="27.652"><animate begin="4.4s" attributeName="fill" from="#ddd" to="#2CBCA3" dur="0.3s" fill="freeze"/></circle>
  <circle fill="none" stroke="#1E6283" stroke-width="10" stroke-miterlimit="10" cx="137.552" cy="223.731" r="27.652"/>
  <circle fill="none" stroke="#1E6283" stroke-width="10" stroke-miterlimit="10" cx="851.674" cy="223.731" r="27.652"/>
  <circle fill="none" stroke="#1E6283" stroke-width="10" stroke-miterlimit="10" cx="281.8" cy="224.527" r="27.652"/>
  <circle fill="none" stroke="#1E6283" stroke-width="10" stroke-miterlimit="10" cx="426.629" cy="223.731" r="27.652"/>
  <circle fill="none" stroke="#1E6283" stroke-width="10" stroke-miterlimit="10" cx="568.704" cy="223.731" r="27.652"/>
  <circle fill="none" stroke="#1E6283" stroke-width="10" stroke-miterlimit="10" cx="711.233" cy="223.731" r="27.652"/>
  <g opacity="0">
    <text transform="matrix(1 0 0 1 74 47)" fill="#313949" font-weight="700" font-size="22" letter-spacing="1">PROBLEMA</text>
    <text transform="matrix(1 0 0 1 64.5212 67.6667)"><tspan x="0" y="0" font-weight="400" font-size="13" letter-spacing="2">Professor define</tspan><tspan x="4.479" y="16.8" font-weight="400" font-size="13" letter-spacing="2">o problema que</tspan><tspan x="7.245" y="33.6" font-weight="400" font-size="13" letter-spacing="2">será resolvido</tspan><tspan x="16.799" y="50.4" font-weight="400" font-size="13" letter-spacing="2">pelos alunos</tspan></text>
    <animate begin="0.2s" attributeName="opacity" from="0" to="1" dur="0.6s" fill="freeze"/>
  </g>
  <g opacity="0">
    <text transform="matrix(1 0 0 1 244 338.3337)" fill="#313949" font-weight="700" font-size="22" letter-spacing="1">FATOS</text>
    <text transform="matrix(1 0 0 1 202.5261 362)"><tspan x="0" y="0" font-weight="400" font-size="13" letter-spacing="2">Alunos identificam</tspan><tspan x="3.115" y="16.8" font-weight="400" font-size="13" letter-spacing="2">fatos conhecidos</tspan><tspan x="2.548" y="33.6" font-weight="400" font-size="13" letter-spacing="2">sobre o problema</tspan></text>
    <animate begin="1.3s" attributeName="opacity" from="0" to="1" dur="0.6s" fill="freeze"/>
  </g>
  <g opacity="0">
    <text transform="matrix(1 0 0 1 366.1185 47.0002)" fill="#313949" font-weight="700" font-size="22" letter-spacing="1">HIPÓTESES</text>
    <text transform="matrix(1 0 0 1 367.4864 67.6667)"><tspan x="0" y="0" font-weight="400" font-size="13" letter-spacing="2">Alunos geram</tspan><tspan x="-10.038" y="16.8" font-weight="400" font-size="13" letter-spacing="2">hipóteses sobre</tspan><tspan x="-7.189" y="33.6" font-weight="400" font-size="13" letter-spacing="2">a resolução do</tspan><tspan x="18.613" y="50.4" font-weight="400" font-size="13" letter-spacing="2">problema</tspan></text>
    <animate begin="2.4s" attributeName="opacity" from="0" to="1" dur="0.6s" fill="freeze"/>
  </g>
  <g opacity="0">
    <text transform="matrix(1 0 0 1 512.4725 339)" fill="#313949" font-weight="700" font-size="22" letter-spacing="1">PESQUISA</text>
    <text transform="matrix(1 0 0 1 490.3539 361)"><tspan x="0" y="0" font-weight="400" font-size="13" letter-spacing="2">Professor guia os</tspan><tspan x="-4.263" y="16.8" font-weight="400" font-size="13" letter-spacing="2">alunos na pesquisa</tspan><tspan x="0.98" y="33.6" font-weight="400" font-size="13" letter-spacing="2">de conhecimentos</tspan><tspan x="52.471" y="50.4" font-weight="400" font-size="13" letter-spacing="2">novos</tspan></text>
    <animate begin="3.5s" attributeName="opacity" from="0" to="1" dur="0.6s" fill="freeze"/>
  </g>
  <g opacity="0">
    <text transform="matrix(1 0 0 1 644 47)" fill="#313949" font-weight="700" font-size="22" letter-spacing="1">RESOLUÇÃO</text>
    <text transform="matrix(1 0 0 1 646.029 67.6667)"><tspan x="0" y="0" font-weight="400" font-size="13" letter-spacing="2">Alunos aplicam</tspan><tspan x="-12.817" y="16.8" font-weight="400" font-size="13" letter-spacing="2">os conhecimentos</tspan><tspan x="-3.052" y="33.6" font-weight="400" font-size="13" letter-spacing="2">adquiridos para</tspan><tspan x="-25.095" y="50.4" font-weight="400" font-size="13" letter-spacing="2">resolver o problema</tspan></text>
    <animate begin="4.6s" attributeName="opacity" from="0" to="1" dur="0.6s" fill="freeze"/>
  </g>
  <g opacity="0">
    <text transform="matrix(1 0 0 1 784.1406 339)" fill="#313949" font-weight="700" font-size="22" letter-spacing="1">ABSTRAÇÃO</text>
    <text transform="matrix(1 0 0 1 799.6854 361)"><tspan x="0" y="0" font-weight="400" font-size="13" letter-spacing="2">Professor e</tspan><tspan x="-22.911" y="16.8" font-weight="400" font-size="13" letter-spacing="2">alunos deliberam</tspan><tspan x="-21.175" y="33.6" font-weight="400" font-size="13" letter-spacing="2">sobre a atividade</tspan></text>
    <animate begin="5.7s" attributeName="opacity" from="0" to="1" dur="0.6s" fill="freeze"/>
  </g>
  <line fill="none" stroke="#2CBCA3" stroke-width="5" stroke-miterlimit="10" style="stroke-dasharray:800,800;stroke-dashoffset:800" x1="138" y1="224.5" x2="853" y2="224.5"><animate begin="0.3" attributeName="stroke-dashoffset" from="800" to="0" dur="6s" fill="freeze"/></line>
  <text transform="matrix(1 0 0 1 127.6099 235.7578)" fill="#1E6283" font-weight="700" font-size="34.3454">1</text>
  <text transform="matrix(1 0 0 1 271.9204 235.7578)" fill="#1E6283" font-weight="700" font-size="34.3454">2</text>
  <text transform="matrix(1 0 0 1 416.834 235.7578)" fill="#1E6283" font-weight="700" font-size="34.3454">3</text>
  <text transform="matrix(1 0 0 1 558.1318 235.7578)" fill="#1E6283" font-weight="700" font-size="34.3454">4</text>
  <text transform="matrix(1 0 0 1 701.8408 235.7578)" fill="#1E6283" font-weight="700" font-size="34.3454">5</text>
  <text transform="matrix(1 0 0 1 841.9326 235.7578)" fill="#1E6283" font-weight="700" font-size="34.3454">6</text>
</svg>
