<svg version="1.1" id="Layer_3" xmlns="http://www.w3.org/2000/svg" xmlns:xlink="http://www.w3.org/1999/xlink" x="0px" y="0px"
         width="500px" height="365.667px" viewBox="0 0 500 365.667" enable-background="new 0 0 500 365.667" xml:space="preserve">
      <path fill="none" stroke="#454257" stroke-width="5" stroke-linecap="round" stroke-linejoin="round" stroke-miterlimit="10" style="stroke-dasharray:1000,1000;stroke-dashoffset:1000" d="
        M371.138,176.734c-1.685-2.511-0.736-5.322-0.741-7.959c-0.079-40.856-0.269-81.715,0.106-122.567
        c0.086-9.394-3.968-9.753-10.517-11.098c-1.527-0.314-3.174-0.046-4.766-0.046c-71.631,0-143.263,0-214.894,0
        c-2.122,0-4.314-0.343-6.354,0.066c-5.501,1.103-8.977,3.345-8.928,10.282c0.314,44.568,0.145,89.14,0.175,133.711
        c0.005,7.746,2.586,10.33,10.332,10.333c74.815,0.023,149.63,0.025,224.445-0.003c7.78-0.003,9.059-1.484,11.143-11.921"><animate begin="1" attributeName="stroke-dashoffset" from="1000" to="0" dur="3s" fill="freeze"/></path>
      <path fill="none" stroke="#454257" stroke-width="5" stroke-linecap="round" stroke-linejoin="round" stroke-miterlimit="10" style="stroke-dasharray:1000,1000;stroke-dashoffset:1000" d="
        M370.834,233.858c-1.736-4.851-4.4-7.492-10.295-7.476c-75.449,0.196-150.898,0.174-226.347,0.017
        c-4.455-0.009-7.245,1.268-8.809,5.261c-4.383,11.185-8.72,22.388-12.882,33.088c2.186,3.592,5.076,2.911,7.728,2.911
        c84.758,0.009,141.175,0.088,225.933,0.051"><animate begin="1" attributeName="stroke-dashoffset" from="1000" to="0" dur="3s" fill="freeze"/></path>
      <path fill="none" stroke="#454257" stroke-width="5" stroke-linecap="round" stroke-linejoin="round" stroke-miterlimit="10" style="stroke-dasharray:2000,2000;stroke-dashoffset:2000" d="
        M86.123,302.94c93.718,0,168.308,0,262.026,0l7.571,19.842c-98.664,0-158.828,0-257.491,0c-1.484,0-3.007-0.213-4.442,0.05
        c-2.187,0.4-4.299-0.997-4.293-2.253c0.046-9.881-6.535-19.09-2.457-29.421c8.863-22.456,17.127-45.148,26.251-67.496
        c1.689-4.136,4.503-9.303,10.905-8.908l-5.193,0.735c-4.883-4.604-6.771-10.178-6.754-16.903
        c0.138-54.382,0.067-108.764,0.086-163.146c0.004-11.297,4.227-15.433,15.57-15.433c79.871,0,159.741,0,239.612,0
        c13.036,0,16.316,3.236,16.318,16.168c0.006,53.157-0.091,106.315,0.107,159.472c0.028,7.611-0.996,14.404-6.781,19.843
        l-6.676-0.735c5.158-0.409,8.61,1.777,10.401,6.609c0.648,1.749,4.173,10.598,4.878,12.327"><animate begin="0" attributeName="stroke-dashoffset" from="2000" to="0" dur="4.5s" fill="freeze"/></path>
      <path fill="none" stroke="#454257" stroke-width="5" stroke-linecap="round" stroke-linejoin="round" stroke-miterlimit="10" style="stroke-dasharray:400,400;stroke-dashoffset:400" d="
        M134.685,60.425c1.711,12.955,0.628,25.971,0.628,38.949c0,12.979,1.083,25.994-0.628,38.949"><animate begin="3" attributeName="stroke-dashoffset" from="400" to="0" dur="3s" fill="freeze"/></path>
      <path fill="none" stroke="#454257" stroke-width="5" stroke-linecap="round" stroke-linejoin="round" stroke-miterlimit="10" style="stroke-dasharray:400,400;stroke-dashoffset:400" d="
        M137.866,235.33c-1.829,5.305-3.447,10.641-6.47,15.522c-1.342,2.167-1.124,5.3-1.614,7.995"><animate begin="3.2" attributeName="stroke-dashoffset" from="400" to="0" dur="3s" fill="freeze"/></path>
      <line fill="none" stroke="#454257" stroke-width="10" stroke-linecap="round" stroke-linejoin="round" stroke-miterlimit="10" style="stroke-dasharray:400,400;stroke-dashoffset:400" x1="150.667" y1="85" x2="176" y2="130.333"><animate begin="2" attributeName="stroke-dashoffset" from="400" to="0" dur="3s" fill="freeze"/></line>
      <line fill="none" stroke="#454257" stroke-width="10" stroke-linecap="round" stroke-linejoin="round" stroke-miterlimit="10" style="stroke-dasharray:400,400;stroke-dashoffset:400" x1="150.667" y1="130.333" x2="176" y2="85"><animate begin="2.2" attributeName="stroke-dashoffset" from="400" to="0" dur="3s" fill="freeze"/></line>
      <line fill="none" stroke="#454257" stroke-width="10" stroke-linecap="round" stroke-linejoin="round" stroke-miterlimit="10" style="stroke-dasharray:400,400;stroke-dashoffset:400" x1="186" y1="99" x2="206" y2="99"><animate begin="2.4" attributeName="stroke-dashoffset" from="400" to="0" dur="3s" fill="freeze"/></line>
      <line fill="none" stroke="#454257" stroke-width="10" stroke-linecap="round" stroke-linejoin="round" stroke-miterlimit="10" style="stroke-dasharray:400,400;stroke-dashoffset:400" x1="186" y1="112" x2="206" y2="112"><animate begin="2.6" attributeName="stroke-dashoffset" from="400" to="0" dur="3s" fill="freeze"/></line>
      <line fill="none" stroke="#454257" stroke-width="10" stroke-linecap="round" stroke-linejoin="round" stroke-miterlimit="10" style="stroke-dasharray:400,400;stroke-dashoffset:400" x1="242" y1="85" x2="255.333" y2="112"><animate begin="3" attributeName="stroke-dashoffset" from="400" to="0" dur="3s" fill="freeze"/></line>
      <polyline fill="none" stroke="#454257" stroke-width="10" stroke-linecap="round" stroke-linejoin="round" stroke-miterlimit="10" style="stroke-dasharray:400,400;stroke-dashoffset:400" points="
        248.667,130.333 255.333,112 268.667,85 "><animate begin="3.2" attributeName="stroke-dashoffset" from="400" to="0" dur="3s" fill="freeze"/></polyline>
      <line fill="none" stroke="#454257" stroke-width="10" stroke-linecap="round" stroke-linejoin="round" stroke-miterlimit="10" style="stroke-dasharray:400,400;stroke-dashoffset:400" x1="276" y1="108" x2="299" y2="108"><animate begin="3.4" attributeName="stroke-dashoffset" from="400" to="0" dur="3s" fill="freeze"/></line>
      <line fill="none" stroke="#454257" stroke-width="10" stroke-linecap="round" stroke-linejoin="round" stroke-miterlimit="10" style="stroke-dasharray:400,400;stroke-dashoffset:400" x1="287" y1="94" x2="287" y2="121"><animate begin="3.6" attributeName="stroke-dashoffset" from="400" to="0" dur="3s" fill="freeze"/></line>
      <polyline fill="none" stroke="#454257" stroke-width="10" stroke-linecap="round" stroke-linejoin="round" stroke-miterlimit="10" style="stroke-dasharray:400,400;stroke-dashoffset:400" points="
        330,130 308,130 308,130.333 330,85 308,85 "><animate begin="3.8" attributeName="stroke-dashoffset" from="400" to="0" dur="2s" fill="freeze"/></polyline>
      <path fill="none" stroke="#454257" stroke-width="10" stroke-linecap="round" stroke-linejoin="round" stroke-miterlimit="10" style="stroke-dasharray:400,400;stroke-dashoffset:400" d="
        M229,79c-19,28.5,0,59,0,59"><animate begin="2.8" attributeName="stroke-dashoffset" from="400" to="0" dur="2s" fill="freeze"/></path>
      <path fill="none" stroke="#454257" stroke-width="10" stroke-linecap="round" stroke-linejoin="round" stroke-miterlimit="10" style="stroke-dasharray:400,400;stroke-dashoffset:400" d="
        M347,79c17.28,28.5,0.667,59,0.667,59"><animate begin="4" attributeName="stroke-dashoffset" from="400" to="0" dur="2s" fill="freeze"/></path>
      <path fill="none" stroke="#454257" stroke-width="5" stroke-linecap="round" stroke-linejoin="round" stroke-miterlimit="10" style="stroke-dasharray:400,400;stroke-dashoffset:400" d="
        M403.121,342.426c15.355,6.949,28.624,1.774,38.126-9.671c12.928-15.572,20.244-35.808,19.587-56.25
        c-0.508-15.788-6.246-27.587-21.002-35.696c-9.047-4.971-19.664-7.549-28.699-2.787c-8.461,4.459-10.708,0.04-16.063-0.333
        c-8.64-0.6-17.109-3.986-25.727-0.587c-11.807,4.656-19.446,13.265-22.383,24.854c-7.311,28.848,1.856,53.454,22.556,73.817
        c9.406,9.253,21.14,11.652,33.101,6.653"><animate begin="2" attributeName="stroke-dashoffset" from="400" to="0" dur="2s" fill="freeze"/></path>
      <path fill="none" stroke="#454257" stroke-width="5" stroke-linecap="round" stroke-linejoin="round" stroke-miterlimit="10" style="stroke-dasharray:400,400;stroke-dashoffset:400" d="
        M400.272,217.523c3.18-2.959,3.74-10.969,6.807-14.092c6.587-6.707,9.787-8.608,21.238-7.008h5.954
        c-0.507,0.282,3.141-0.783,3.206,0c1.072,12.883-13.108,26.048-25.8,26.198c-3.02,0.036-6.04,0.005-9.06,0.005"><animate begin="3.5" attributeName="stroke-dashoffset" from="400" to="0" dur="5s" fill="freeze"/></path>
      <path fill="none" stroke="#454257" stroke-width="5" stroke-linecap="round" stroke-linejoin="round" stroke-miterlimit="10" style="stroke-dasharray:400,400;stroke-dashoffset:400" d="
        M402.114,237.224c-0.357-6.576,0.777-13.204-1.842-19.7c-0.987-2.448-7.085-10.72-9.442-11.914"><animate begin="3" attributeName="stroke-dashoffset" from="400" to="0" dur="4s" fill="freeze"/></path>
      </svg>