<svg id="bulb-svg" version="1.1" xmlns="http://www.w3.org/2000/svg" xmlns:xlink="http://www.w3.org/1999/xlink" x="0px" y="0px" width="500px" height="365.667px" viewBox="0 0 500 365.667" enable-background="new 0 0 500 365.667" xml:space="preserve">
  <path fill="none" stroke="#454257" stroke-width="5" stroke-linecap="round" stroke-linejoin="round" stroke-miterlimit="10" style="stroke-dasharray:800,800;stroke-dashoffset:800" d="
  M151.577,159.381c-0.092,21.69,7.038,40.893,20.042,58.056c6.449,8.512,13.228,16.744,20.447,24.631
  c5.272,5.76,10.827,11.327,15.044,17.965c3.079,4.847,4.797,10.187,5.575,15.912c0.3,2.211,0.111,4.435,0.585,6.617
  c0.59,2.721,0.958,3.021,3.87,3.692c0.714,0.164,1.383,0.16,2.061,0.161c18.063,0.02,36.127,0.07,54.19-0.016
  c5.671-0.027,5.912-1.277,6.083-5.89c0.352-9.461,3.231-17.965,9.218-25.233c5.399-6.554,11.305-12.689,16.777-19.186
  c9.521-11.304,19.266-22.467,25.757-35.952c4.248-8.825,7.054-18.052,8.492-27.769c1-6.761,1.115-13.53,0.743-20.269
  c-0.384-6.942-1.704-13.81-3.763-20.5c-2.469-8.02-5.821-15.668-10.292-22.743c-10.103-15.985-23.787-28.012-40.956-35.978
  c-7.752-3.597-15.902-5.915-24.345-7.353c-7.268-1.239-14.603-1.58-21.858-0.993c-19.707,1.594-37.391,8.508-52.858,21.044
  c-12.165,9.86-21.186,22.071-27.438,36.273c-3.361,7.634-5.512,15.716-6.535,24.088c-0.539,4.408-0.893,8.788-0.836,13.215"><animate begin="0" attributeName="stroke-dashoffset" from="800" to="0" dur="3s" fill="freeze"/></path>
  <path fill="none" stroke="#454257" stroke-width="10" stroke-linecap="round" stroke-linejoin="round" stroke-miterlimit="10" style="stroke-dasharray:200,200;stroke-dashoffset:200" d="
  M284.091,310.794c-25.349,0-50.699,0-76.048,0"><animate begin="0" attributeName="stroke-dashoffset" from="200" to="0" dur="3s" fill="freeze"/></path>
  <path fill="none" stroke="#454257" stroke-width="5" stroke-linecap="round" stroke-linejoin="round" stroke-miterlimit="10" style="stroke-dasharray:200,200;stroke-dashoffset:200" d="
  M250.849,87.318c-3.178,0.375-6.372,0.082-9.567,0.266c-9.087,0.522-17.606,2.89-25.726,6.902
  c-14.295,7.064-24.797,17.871-31.906,32.092c-0.891,1.783-1.233,3.554-1.106,5.48"><animate begin="2" attributeName="stroke-dashoffset" from="200" to="0" dur="2s" fill="freeze"/></path>
  <path fill="none" stroke="#454257" stroke-width="10" stroke-linecap="round" stroke-linejoin="round" stroke-miterlimit="10" style="stroke-dasharray:200,200;stroke-dashoffset:200" d="
  M276.805,333.107c-20.492,0-40.984,0-61.476,0"><animate begin="1" attributeName="stroke-dashoffset" from="200" to="0" dur="3s" fill="freeze"/></path>
  <path fill="none" stroke="#454257" stroke-width="10" stroke-linecap="round" stroke-linejoin="round" stroke-miterlimit="10" style="stroke-dasharray:200,200;stroke-dashoffset:200" d="
  M269.519,355.421c-15.635,0-31.269,0-46.904,0"><animate begin="2" attributeName="stroke-dashoffset" from="200" to="0" dur="3s" fill="freeze"/></path>
  <path fill="none" stroke="#454257" stroke-width="5" stroke-linecap="round" stroke-linejoin="round" stroke-miterlimit="10" style="stroke-dasharray:200,200;stroke-dashoffset:200" d="
  M246.067,4.554c0,8.88,0,17.76,0,26.639"><animate begin="3" attributeName="stroke-dashoffset" from="200" to="0" dur="2s" fill="freeze"/></path>
  <path fill="none" stroke="#454257" stroke-width="5" stroke-linecap="round" stroke-linejoin="round" stroke-miterlimit="10" style="stroke-dasharray:200,200;stroke-dashoffset:200" d="
  M177.078,153.917c-0.442,9.932,1.159,19.507,5.016,28.686c0.315,0.751,0.18,1.517,0.221,2.28"><animate begin="3" attributeName="stroke-dashoffset" from="200" to="0" dur="2s" fill="freeze"/></path>
  <path fill="none" stroke="#454257" stroke-width="5" stroke-linecap="round" stroke-linejoin="round" stroke-miterlimit="10" style="stroke-dasharray:200,200;stroke-dashoffset:200" d="
  M381.542,81.285c-3.736-0.545-6.92,0.686-10.048,2.686c-4.207,2.69-8.657,4.999-12.927,7.595c-1.216,0.739-2.418,0.594-3.665,0.648"><animate begin="4" attributeName="stroke-dashoffset" from="200" to="0" dur="2s" fill="freeze"/></path>
  <path fill="none" stroke="#454257" stroke-width="5" stroke-linecap="round" stroke-linejoin="round" stroke-miterlimit="10" style="stroke-dasharray:200,200;stroke-dashoffset:200" d="
  M110.593,81.285c3.858-0.544,7.093,0.763,10.286,2.901c3.778,2.529,7.871,4.583,11.791,6.906c1.434,0.85,2.893,1.352,4.563,1.123"><animate begin="2" attributeName="stroke-dashoffset" from="200" to="0" dur="2s" fill="freeze"/></path>
  <path fill="none" stroke="#454257" stroke-width="5" stroke-linecap="round" stroke-linejoin="round" stroke-miterlimit="10" style="stroke-dasharray:200,200;stroke-dashoffset:200" d="
  M170.93,22.996c-0.287,2.38,0.48,4.374,1.77,6.408c2.675,4.218,4.969,8.676,7.602,12.923c1.434,2.313,1.739,4.724,1.557,7.309"><animate begin="2.5" attributeName="stroke-dashoffset" from="200" to="0" dur="2s" fill="freeze"/></path>
  <path fill="none" stroke="#454257" stroke-width="5" stroke-linecap="round" stroke-linejoin="round" stroke-miterlimit="10" style="stroke-dasharray:200,200;stroke-dashoffset:200" d="
  M321.204,22.996c0.287,2.38-0.48,4.374-1.77,6.408c-2.675,4.218-4.969,8.676-7.602,12.923c-1.434,2.313-1.739,4.724-1.557,7.309"><animate begin="3.5" attributeName="stroke-dashoffset" from="200" to="0" dur="2s" fill="freeze"/></path>
  <path fill="none" stroke="#454257" stroke-width="10" stroke-linecap="round" stroke-linejoin="round" stroke-miterlimit="10" style="stroke-dasharray:600,600;stroke-dashoffset:600" d="
  M256.996,260.93c0.158-11.847,0.096-23.694,1.06-35.526c0.328-4.018,0.531-8.078,1.085-12.048
  c0.984-7.054,2.291-14.065,4.168-20.977c2.449-9.021,5.695-17.718,9.664-26.149c1.434-3.047,1.99-6.078,1.327-9.353l6.375-6.148
  c-1.822,1.67-3.755,3.237-5.415,5.054c-0.78,0.854-1.52,0.687-2.325,0.621c-2.827-0.232-5.562,0.141-8.196,1.162
  c-4.865,1.885-9.011,0.855-13.022-2.461c-5.632-4.655-5.777-4.626-11.047-0.197c-4.452,3.742-8.968,4.479-14.185,2.422
  c-2.74-1.08-5.554-1.223-8.425-0.682l-6.603-5.92c1.822,1.67,3.671,3.311,5.439,5.035c0.323,0.314,0.95,0.411,0.766,1.351
  c-0.956,4.887,1.479,8.981,3.354,13.196c5.387,12.105,9.154,24.694,11.148,37.796c0.885,5.812,1.493,11.648,1.911,17.525
  c0.523,7.363,0.751,14.717,0.89,22.09c0.083,4.402,0.116,8.805,0.171,13.207"><animate begin="0" attributeName="stroke-dashoffset" from="600" to="0" dur="3s" fill="freeze"/></path>
</svg>
