<?xml version="1.0" encoding="utf-8"?>
<!-- Generator: Adobe Illustrator 17.0.0, SVG Export Plug-In . SVG Version: 6.00 Build 0)  -->
<!DOCTYPE svg PUBLIC "-//W3C//DTD SVG 1.1//EN" "http://www.w3.org/Graphics/SVG/1.1/DTD/svg11.dtd">
<svg version="1.1" id="Layer_1" xmlns="http://www.w3.org/2000/svg" xmlns:xlink="http://www.w3.org/1999/xlink" x="0px" y="0px"
	 width="450px" height="450px" viewBox="0 0 450 450" enable-background="new 0 0 450 450" xml:space="preserve">
<path fill="#D9DCD0" d="M383.154,185.731c0,85.136-69.018,154.157-154.157,154.157c-85.138,0-154.157-69.021-154.157-154.157
	c0-85.14,69.02-154.158,154.157-154.158C314.137,31.573,383.154,100.591,383.154,185.731z"/>
<polygon fill="#FEFDFD" points="315.334,281.509 300.614,260.839 287.417,281.509 246.961,281.509 246.961,379.721 357.904,379.721 
	357.904,281.509 "/>
<rect x="270.605" y="299.697" fill="#D9DCD0" width="18.187" height="69.112"/>
<rect x="270.605" y="310.609" fill="#746F91" width="18.187" height="20.006"/>
<rect x="292.429" y="292.422" fill="#2CBCA3" width="20.006" height="76.387"/>
<rect x="292.429" y="299.697" fill="#FFFFFF" width="20.006" height="14.55"/>
<rect x="292.429" y="354.259" fill="#FFFFFF" width="20.006" height="5.456"/>
<circle fill="#746F91" cx="302.764" cy="307.18" r="4.419"/>
<rect x="321.342" y="306.311" transform="matrix(0.9619 -0.2734 0.2734 0.9619 -79.6722 102.6142)" fill="#746F91" stroke="#746F91" stroke-width="2" stroke-miterlimit="10" width="13.887" height="61.629"/>
<rect x="321.579" y="316.694" transform="matrix(0.9619 -0.2734 0.2734 0.9619 -79.8914 102.7108)" fill="#D9DCD0" width="13.887" height="42.533"/>
<polygon fill="#2CBCA3" points="353.016,88.724 353.016,135.494 332.747,179.66 353.016,165.726 353.016,199.666 447.59,199.666 
	447.59,88.724 "/>
<g>
	<g>
		
			<rect x="396.041" y="100.291" transform="matrix(0.8273 0.5618 -0.5618 0.8273 146.0685 -200.2446)" fill="#746F91" width="5.324" height="74.293"/>
	</g>
</g>
<g>
	<path fill="#42505A" d="M404.192,106.359l-2.638,3.888c13.481,1.714,23.944,13.25,23.944,27.19
		c0,15.116-12.301,27.416-27.416,27.416c-10.302,0-19.292-5.716-23.976-14.136l-2.629,3.877
		c5.646,8.726,15.459,14.516,26.604,14.516c17.466,0,31.675-14.209,31.675-31.673C429.758,122.059,418.742,109.215,404.192,106.359z
		"/>
</g>
<circle fill="#746F91" cx="398.083" cy="137.437" r="22.358"/>
<path fill="#746F91" d="M417.424,181.479c0-5.016-8.341-8.428-18.633-8.428c-10.289,0-18.629,3.412-18.629,8.428H417.424z"/>
<g>
	<path fill="#FEFDFD" d="M399.635,115.136l-2.97,1.961v6.065l1.755,2.021l2.989,2.391l4.067-0.92l3.32,0.92l1.11,3.858l0.924,4.412
		c0,0-1.471,2.021-1.288,2.572c0.185,0.552,2.575,3.804,2.575,3.804l1.471,2.884h3.675l2.09-1.055
		c0.703-2.169,1.048-4.277,1.048-6.682C420.401,125.487,411.332,115.857,399.635,115.136z"/>
	<path fill="#FEFDFD" d="M390.9,152.379h2.84l-0.405-3.438l-2.435-2.018h4.668l2.281-2.444l-4.82-0.474v-4.058l-2.181,1.218
		l-3.49-3.044l-1.373,2.232l-0.789,7.243l-2.018-3.812l-2.886-0.796l-2.787-2.236l1.421-2.645l4.87-1.636l2.234-2.661l-1.016-3.229
		l-2.636,1.79h-1.828h-3.245l-1.231,1.336c-0.226,1.275-0.35,2.556-0.35,3.898c0,8.09,4.298,15.161,10.735,19.084l1.396-2.099
		L390.9,152.379z"/>
</g>
<polygon fill="#746F91" points="125.674,150.326 103.849,145.191 103.849,95.764 2,95.764 2,217.619 103.849,217.619 
	103.849,177.486 "/>
<rect x="62.704" y="150.225" transform="matrix(-0.8137 0.5813 -0.5813 -0.8137 212.9069 239.3875)" fill="#FFFFFF" width="10.77" height="7.179"/>
<rect x="32.488" y="110.079" transform="matrix(-0.8137 0.5813 -0.5813 -0.8137 139.8018 184.9237)" fill="#42505A" width="15.555" height="9.575"/>
<rect x="40.873" y="110.215" transform="matrix(-0.8137 0.5813 -0.5813 -0.8137 168.1264 206.033)" fill="#2CBCA3" width="20.346" height="39.49"/>
<rect x="54.092" y="143.075" transform="matrix(-0.8137 0.5813 -0.5813 -0.8137 202.8519 231.9052)" fill="#42505A" width="20.343" height="10.769"/>
<rect x="47.468" y="173.97" fill="#D9DCD0" width="25.462" height="23.644"/>
<path fill="#42505A" d="M23.622,156.191c0-13.088,9.296-23.736,23.846-23.736v8.376c-10.912,0-15.47,7.19-15.47,15.662
	c0,8.461,5.666,15.658,15.223,15.658h36.622v9.094H47.234c-0.007,0,0,0-0.007,0l-2.318-0.732l0,0
	C32.881,179.312,23.622,168.474,23.622,156.191z"/>
<rect x="23.825" y="195.795" fill="#42505A" width="60.018" height="3.637"/>
<circle fill="#D9DCD0" cx="44.487" cy="135.986" r="9.237"/>
<circle fill="#FFFFFF" cx="44.486" cy="135.986" r="6.453"/>
<path fill="#1E6283" d="M258.441,1.424h-76.387v60.018h26.276c2.563,12.673,6.323,30.4,8.122,34.606l18.926-34.606h23.063V1.424z"/>
<g>
	<g>
		<path fill="#FFFFFF" d="M245.097,19.832h-12.123v11.819c0,1.72-1.852,3.121-4.129,3.121H210.18v3.957
			c0,0.985,1.056,1.783,2.359,1.783h18.335l7.664,4.836c0.999,0.63,1.538,0.372,1.201-0.579l-1.497-4.228
			c-0.003-0.011-0.009-0.02-0.015-0.029h6.87c1.301,0,2.358-0.798,2.358-1.783V21.613C247.454,20.63,246.398,19.832,245.097,19.832z
			"/>
		<path fill="#FFFFFF" d="M196.288,33.432h3.607c-0.004,0.009-0.011,0.019-0.015,0.029l-1.496,4.228
			c-0.213,0.6-0.076,0.924,0.301,0.924c0.223,0,0.529-0.112,0.899-0.345l7.662-4.836h2.934h18.663c1.305,0,2.361-0.798,2.361-1.783
			V19.832v-5.296c0-0.983-1.056-1.783-2.361-1.783h-32.555c-1.303,0-2.359,0.799-2.359,1.783v17.114
			C193.929,32.634,194.985,33.432,196.288,33.432z"/>
	</g>
</g>
<path fill="#152C34" d="M318.234,232.632c0,3.079-1.857,5.574-4.151,5.574H141.456c-2.293,0-4.151-2.495-4.151-5.574v-110.75
	c0-3.079,1.859-5.574,4.151-5.574h172.627c2.294,0,4.151,2.495,4.151,5.574V232.632z"/>
<rect x="144.519" y="123" fill="#FEFDFD" width="166.994" height="102.948"/>
<g>
	<g>
		<path fill="#414F5A" d="M106.49,239.889c0,0-1.506,2.804,9.191,5.14h223.901c0,0,7.49-0.479,9.463-4.011l0.013-1.934
			L106.49,239.889z"/>
		<path fill="#E7E6E7" d="M106.544,234.229h242.595v6.23c0,0,0.361,0.832-2.494,0.623H108.828c0,0-2.234,0.623-2.441-0.83
			L106.544,234.229z"/>
		<path fill="#152C34" d="M337.868,237.864c0,0.242-0.16,0.438-0.358,0.438h-8.254c-0.2,0-0.36-0.197-0.36-0.438l0,0
			c0-0.242,0.16-0.437,0.36-0.437h8.254C337.708,237.427,337.868,237.622,337.868,237.864L337.868,237.864z"/>
	</g>
	<path fill="#152C34" d="M211.363,234.278c0,0-0.935,3.116,2.182,3.429h28.142c0,0,2.995,0.387,2.596-3.324L211.363,234.278z"/>
	<g>
		<linearGradient id="SVGID_1_" gradientUnits="userSpaceOnUse" x1="212.0286" y1="237.4154" x2="212.0286" y2="234.2008">
			<stop  offset="0.0244" style="stop-color:#5F6767"/>
			<stop  offset="0.4756" style="stop-color:#676B6C"/>
			<stop  offset="0.5137" style="stop-color:#717576"/>
			<stop  offset="0.6192" style="stop-color:#878A8B"/>
			<stop  offset="0.7202" style="stop-color:#949899"/>
			<stop  offset="0.811" style="stop-color:#999C9D"/>
		</linearGradient>
		<path fill="url(#SVGID_1_)" d="M211.519,234.274h0.02l0.012-0.071l-0.344-0.001c0,0-0.848,2.705,1.774,3.215
			C210.741,236.759,211.519,234.274,211.519,234.274z"/>
		<linearGradient id="SVGID_2_" gradientUnits="userSpaceOnUse" x1="228.7218" y1="237.5722" x2="228.7218" y2="234.3728">
			<stop  offset="0.0244" style="stop-color:#5F6767"/>
			<stop  offset="0.4756" style="stop-color:#676B6C"/>
			<stop  offset="0.5137" style="stop-color:#717576"/>
			<stop  offset="0.6192" style="stop-color:#878A8B"/>
			<stop  offset="0.7202" style="stop-color:#949899"/>
			<stop  offset="0.811" style="stop-color:#999C9D"/>
		</linearGradient>
		<path fill="url(#SVGID_2_)" d="M244.439,234.374l-0.304-0.001v0.076c0.22,3.506-2.604,3.027-2.604,3.027h-28.142
			c-0.146-0.013-0.278-0.034-0.408-0.06c0.213,0.061,0.449,0.109,0.718,0.134h28.143
			C241.842,237.549,244.75,238.048,244.439,234.374z"/>
		<linearGradient id="SVGID_3_" gradientUnits="userSpaceOnUse" x1="244.1336" y1="234.4485" x2="244.1336" y2="234.3728">
			<stop  offset="0.0244" style="stop-color:#5F6767"/>
			<stop  offset="0.4756" style="stop-color:#676B6C"/>
			<stop  offset="0.5137" style="stop-color:#717576"/>
			<stop  offset="0.6192" style="stop-color:#878A8B"/>
			<stop  offset="0.7202" style="stop-color:#949899"/>
			<stop  offset="0.811" style="stop-color:#999C9D"/>
		</linearGradient>
		<path fill="url(#SVGID_3_)" d="M244.135,234.449v-0.076h-0.003C244.134,234.399,244.134,234.422,244.135,234.449z"/>
	</g>
</g>
<circle fill="#95C6DD" cx="111.212" cy="338.788" r="109.212"/>
<path fill="#FEFDFD" d="M83.63,409.375c15.913-0.637,15.138,21.959,15.138,21.959l-0.041,1.907h1.589
	c8.257-6.4,16.418-12.62,25.972-17.042c7.303-3.38,15.156-4.693,22.487-3.644c0.35-11.669,5.643-21.637,5.643-21.637
	s32.144-28.643,21.959-68.422c-10.183-39.779-65.237-47.734-98.334-29.278c-33.097,18.456-19.837,50.706-18.775,56.328
	c1.061,5.622-8.168,18.776-10.926,23.444c-2.759,4.666-1.485,6.364,2.97,8.222c4.454,1.855,2.544,2.066,2.705,4.88
	c0.159,2.809,4.403,2.97,4.403,2.97s-2.597,0.584-2.544,3.181c0.053,2.6,3.982,4.636,3.982,4.636
	c2.574,2.542-1.297,5.894,2.522,11.861C66.196,414.705,67.72,410.012,83.63,409.375z"/>
<g>
	<g>
		<path fill="#2CBCA3" d="M114.619,324.133c4.783-0.869,8.438,0.922,10.044,1.936c1.2-0.652,3.483-1.699,6.327-2.07
			c0.062-3.253,1.51-8.662,6.456-11.195c0.193-2.396-1.848-8.029-9.17-9.183c-6.733-1.063-9.811,4.21-9.938,4.434
			c-0.232,0.408-0.673,0.674-1.167,0.701c-0.494,0.029-0.973-0.182-1.262-0.56c-0.074-0.091-2.306-2.657-8.945-1.222
			c-5.421,1.171-6.528,5.022-6.752,6.435c0.295,0.17,0.586,0.351,0.871,0.545c5.56,3.762,7.253,9.787,7.731,13.874
			C109.976,326.193,111.795,324.648,114.619,324.133z"/>
		<path fill="#2CBCA3" d="M171.331,333.105c-0.433-11.004-7.137-15.226-7.137-15.226s-0.807-5.312-5.998-11.005
			c-8.06-8.244-18.238-6.832-18.238-6.832c-13.266-12.039-26.728-2.891-26.728-2.891c-18.783-5.843-24.046,7.854-24.046,7.854
			c-10.71,1.002-19.381,12.736-11.47,25.377c6.067,9.696,14.928,9.857,18.729,9.406c1.216-3.019,3.875-6.408,9.648-7.883
			c0.04-0.528,0.691-10.814-6.668-15.791c-4.408-2.982-9.295-2.271-11.967-0.35c-2.535,1.822-3.239,4.658-1.933,7.779
			c0.693,1.59,1.711,2.641,3.104,3.193c2.693,1.067,5.895-0.136,5.927-0.147c0.727-0.278,1.567,0.048,1.875,0.727
			c0.308,0.681-0.026,1.46-0.751,1.743c-0.174,0.068-4.305,1.644-8.121,0.146c-2.118-0.833-3.696-2.413-4.69-4.696
			c-1.783-4.26-0.724-8.316,2.829-10.869c3.268-2.348,7.753-2.816,11.83-1.442c0.685-2.781,3.024-6.586,8.764-7.825
			c5.489-1.187,8.768-0.011,10.465,1.046c2.008-2.441,6.101-5.355,11.969-4.429c4.892,0.77,7.688,3.182,9.173,5.07
			c1.377,1.753,2.228,3.815,2.394,5.726c5.524-1.258,11.983,0.372,15.756,3.99c3.081,2.952,4.172,6.944,3.115,11.316
			c1.415,1.301,4.187,4.623,3.392,10.181c-0.42,2.93-2.148,5.185-4.864,6.348c-3.482,1.492-8.217,0.974-12.065-1.319
			c-5.45-3.248-13.939-3.469-17.807-0.463c-3.013,2.339-6.495,4.639-9.798,4.373c-0.259-0.021-0.518-0.058-0.774-0.112
			c-1.953-0.41-3.521-1.744-4.661-3.966c-0.344-0.667-0.046-1.463,0.666-1.777c0.712-0.315,1.568-0.025,1.911,0.644
			c0.747,1.455,1.623,2.269,2.681,2.491c2.362,0.497,5.77-1.884,8.128-3.716c4.873-3.786,14.57-3.66,21.174,0.276
			c3.044,1.814,6.705,2.261,9.328,1.136c1.831-0.783,2.953-2.271,3.244-4.299c0.808-5.639-2.947-8.239-2.986-8.264
			c-0.492-0.332-0.712-0.916-0.549-1.456c1.139-3.786,0.386-7.085-2.172-9.539c-3.117-2.985-8.508-4.311-13.113-3.224
			c-6.063,1.432-6.913,7.499-7.028,9.485c3.556,0.191,7.611,1.681,11.413,6.011c0.504,0.574,0.418,1.416-0.191,1.881
			c-0.609,0.463-1.509,0.374-2.014-0.199c-8.087-9.216-17.222-3.078-17.608-2.812c-0.542,0.374-1.3,0.341-1.808-0.084
			c-0.137-0.111-3.521-2.826-8.464-1.928c-4.703,0.856-5.508,6.198-5.515,6.251c-0.081,0.574-0.547,1.027-1.158,1.129
			c-10.898,1.781-10.252,10.739-10.22,11.119c0.04,0.458-0.172,0.878-0.527,1.144c1.708,13.306,20.772,12.222,20.772,12.222
			c0.037,0.148,0.077,0.292,0.116,0.438c0.543,0.199,13.346,4.78,19.082-1.598c1.423-2.211,1.887-4.116,1.34-5.514
			c-0.61-1.56-2.303-2.148-2.321-2.154c-0.749-0.242-1.152-1.004-0.9-1.701c0.252-0.696,1.063-1.067,1.812-0.822
			c0.121,0.039,3.01,1.004,4.096,3.786c0.875,2.237,0.326,4.892-1.63,7.894c-0.035,0.052-0.074,0.103-0.116,0.15
			c-3.56,4.047-9.015,4.712-13.655,4.335c-2.585-0.209-4.914-0.74-6.526-1.19c3.379,6.917,10.889,10.137,18.906,10.543
			c9.306,0.472,11.078-6.094,11.078-6.094c12.565-4.568,9.784-16.413,9.784-16.413C164.865,349.579,171.765,344.108,171.331,333.105
			z"/>
	</g>
</g>
<g>
	<g>
		<g>
			<polygon fill="#1E6283" points="22.227,329.687 5.012,321.896 22.68,314.104 39.714,321.714 			"/>
		</g>
		<g>
			<g>
				<rect x="38.279" y="321.442" fill="#1E6283" width="1.086" height="11.416"/>
				<circle fill="#1E6283" cx="38.821" cy="333.267" r="1.721"/>
				<g>
					<path fill="#1E6283" d="M38.041,333.809c0,0-1.362,2.855-0.819,7.204h1.957v-7.611
						C39.179,333.402,38.041,334.037,38.041,333.809z"/>
					<path fill="#1E6283" d="M39.765,333.809c0,0,1.357,2.855,0.813,7.204h-1.943v-7.611
						C38.635,333.402,39.766,334.037,39.765,333.809z"/>
				</g>
			</g>
		</g>
		<g>
			<path fill="#1E6283" d="M32.012,326.54c0,0.081-8.43,3.989-10.057,4.742c-1.628-0.754-10.056-4.662-10.056-4.742v11.572
				c2.716,2.886,8.072,3.353,9.785,3.429v0.015c0,0,0.099,0,0.271-0.005c0.173,0.005,0.272,0.005,0.272,0.005v-0.015
				c1.714-0.076,7.068-0.542,9.785-3.429V326.54z"/>
		</g>
	</g>
</g>
<g>
	<g>
		<path fill="#746F91" d="M175.1,384.91c-5.088,4.13-5.866,11.605-1.738,16.693c4.13,5.09,11.604,5.869,16.693,1.74
			c5.091-4.131,5.869-11.605,1.74-16.696C187.667,381.56,180.191,380.781,175.1,384.91z M188.663,401.625
			c-4.14,3.36-10.221,2.725-13.58-1.417c-3.36-4.14-2.727-10.221,1.412-13.578c4.14-3.36,10.223-2.727,13.582,1.413
			C193.436,392.184,192.802,398.267,188.663,401.625z"/>
		
			<rect x="191.282" y="401.057" transform="matrix(0.7765 -0.6301 0.6301 0.7765 -213.2294 212.4434)" fill="#746F91" width="3.209" height="11.548"/>
		<path fill="#746F91" d="M202.021,414.017c0.893,1.101,0.724,2.719-0.376,3.61l0,0c-1.099,0.892-2.715,0.725-3.609-0.376
			l-6.873-8.471c-0.892-1.101-0.724-2.717,0.376-3.609l0,0c1.1-0.892,2.717-0.725,3.609,0.375L202.021,414.017z"/>
	</g>
</g>
<g>
	<g>
		<g>
			<path fill="#746F91" d="M117.042,273.28c0,0.648-0.725,1.173-1.62,1.173h-6.483c-0.896,0-1.621-0.525-1.621-1.173l0,0
				c0-0.647,0.725-1.171,1.621-1.171h6.483C116.317,272.109,117.042,272.633,117.042,273.28L117.042,273.28z"/>
		</g>
		<g>
			<path fill="#746F91" d="M117.042,275.773c0,0.647-0.725,1.174-1.62,1.174h-6.483c-0.896,0-1.621-0.527-1.621-1.174l0,0
				c0-0.648,0.725-1.174,1.621-1.174h6.483C116.317,274.599,117.042,275.125,117.042,275.773L117.042,275.773z"/>
		</g>
		<g>
			<path fill="#746F91" d="M115.107,278.265c0,0.647-0.438,1.173-0.975,1.173h-3.904c-0.54,0-0.976-0.526-0.976-1.173l0,0
				c0-0.647,0.436-1.175,0.976-1.175h3.904C114.669,277.09,115.107,277.619,115.107,278.265L115.107,278.265z"/>
		</g>
		<g>
			<g>
				<path fill="#746F91" d="M112.372,234.801v-0.026c0,0-0.272,0.013-0.41,0.013c-0.138,0,0.41-0.013-0.401-0.013v0.025
					c-20.261,0.518-15.338,20.653-9.835,25.593c5.571,5.008,5.357,11.292,5.357,11.292h4.863h0.811h4.478
					c0,0-0.408-6.284,5.167-11.292C127.9,255.456,132.634,235.336,112.372,234.801z M122.166,253.488
					c3.445-9.422-5.876-14.656-5.876-14.656C130.134,241.057,122.166,253.488,122.166,253.488z"/>
			</g>
		</g>
	</g>
</g>
<path fill="#1E6283" d="M198.026,293.263c0,0-0.829-0.44-0.829-2.135c0-1.408,0-6.856,0-8.67c0.543-0.317,0.812-0.71,0.885-1.14
	h0.203v-3.8h-0.203c0.006-0.045,0.02-0.089,0.02-0.136c0-1.124-2.371-2.035-5.294-2.035c-2.922,0-5.295,0.911-5.295,2.035
	c0,0.047,0.01,0.091,0.02,0.136h-0.107v3.8h0.107c0.077,0.453,0.436,0.864,1.521,1.189c0,1.862,0,7.224,0,8.621
	c0,1.695-1.151,2.135-1.151,2.135c-1.968,1.155-13.368,12.624-8.413,16.086c4.439,3.099,11.897,2.986,13.403,2.93
	c1.489,0.055,8.934,0.169,13.377-2.93C211.224,305.887,199.995,294.418,198.026,293.263z M197.74,309.483
	c0,0,5.633-1.086,5.904-4.071c0.272-2.985-5.088-8.621-5.088-8.621s6.988,5.362,6.922,9.028
	C205.409,309.483,197.74,309.483,197.74,309.483z"/>
<path fill="#746F91" d="M62.75,425.624c-2.041-5.651-9.264-6.357-9.264-6.357c-32.5,0.472-19.625,27.554-11.226,28.18
	c8.4,0.629,7.143-9.419,12.483-11.538C60.08,433.789,64.79,431.279,62.75,425.624z M38.497,424.377c1.044,0,1.89,0.858,1.89,1.915
	c0,1.058-0.846,1.916-1.89,1.916c-1.045,0-1.893-0.858-1.893-1.916C36.605,425.235,37.452,424.377,38.497,424.377z M34.093,431.944
	c0-1.409,1.126-2.551,2.52-2.551c1.392,0,2.519,1.141,2.519,2.551c0,1.409-1.127,2.552-2.519,2.552
	C35.22,434.496,34.093,433.354,34.093,431.944z M38.374,441.091c-1.584,0-2.868-1.3-2.868-2.905c0-1.604,1.284-2.905,2.868-2.905
	c1.583,0,2.868,1.301,2.868,2.905C41.242,439.791,39.957,441.091,38.374,441.091z M43.555,446.036c-1.713,0-3.1-1.405-3.1-3.138
	c0-1.735,1.387-3.143,3.1-3.143c1.712,0,3.1,1.408,3.1,3.143C46.655,444.63,45.267,446.036,43.555,446.036z M56.311,431.513
	c-2.081,0-3.767-1.687-3.767-3.769c0-2.08,1.687-3.766,3.767-3.766c2.082,0,3.769,1.686,3.769,3.766
	C60.08,429.826,58.393,431.513,56.311,431.513z"/>
<rect x="148.502" y="126.314" fill="#746F91" width="60.26" height="19.3"/>
<rect x="148.502" y="145.614" fill="#1E6283" width="60.26" height="77.2"/>
<rect x="158.545" y="154.387" fill="#1C2B38" width="40.173" height="15.791"/>
<rect x="158.545" y="180.705" fill="#1C2B38" width="40.173" height="15.791"/>
<rect x="158.545" y="205.269" fill="#1C2B38" width="40.173" height="8.773"/>
<rect x="223.865" y="147.369" fill="#D9DCD0" width="74.32" height="5.264"/>
<rect x="223.865" y="161.405" fill="#746F91" width="74.32" height="5.264"/>
<rect x="223.865" y="175.442" fill="#D9DCD0" width="74.32" height="5.264"/>
<rect x="223.865" y="189.478" fill="#4C4E5B" width="74.32" height="5.264"/>
<rect x="223.865" y="203.514" fill="#95C6DD" width="74.32" height="5.264"/>
</svg>
