<svg version="1.1" id="objects" xmlns="http://www.w3.org/2000/svg" xmlns:xlink="http://www.w3.org/1999/xlink" x="0px" y="0px"
	 width="400px" height="400px" viewBox="0 0 400 400" enable-background="new 0 0 400 400" xml:space="preserve">
<pattern  x="-200" y="600" width="28.799" height="28.801" patternUnits="userSpaceOnUse" id="Unnamed_Pattern_10" viewBox="2.879 -31.681 28.799 28.801" overflow="visible">
	<g>
		<polygon fill="none" points="2.879,-31.681 31.679,-31.681 31.679,-2.88 2.879,-2.88 		"/>
		<g>
			<path fill="#222221" d="M31.678,0c1.59,0,2.881-1.29,2.881-2.88c0-1.592-1.291-2.88-2.881-2.88c-1.59,0-2.879,1.288-2.879,2.88
				C28.799-1.29,30.088,0,31.678,0z"/>
			<path fill="#222221" d="M17.279,0c1.589,0,2.88-1.29,2.88-2.88c0-1.592-1.291-2.88-2.88-2.88c-1.59,0-2.879,1.288-2.879,2.88
				C14.4-1.29,15.689,0,17.279,0z"/>
			<path fill="#222221" d="M31.678-14.399c1.59,0,2.881-1.29,2.881-2.881s-1.291-2.88-2.881-2.88c-1.59,0-2.879,1.289-2.879,2.88
				S30.088-14.399,31.678-14.399z"/>
			<path fill="#222221" d="M17.279-14.399c1.589,0,2.88-1.29,2.88-2.881s-1.291-2.88-2.88-2.88c-1.59,0-2.879,1.289-2.879,2.88
				S15.689-14.399,17.279-14.399z"/>
			<path fill="#222221" d="M10.08-7.2c1.59,0,2.881-1.29,2.881-2.88c0-1.591-1.291-2.88-2.881-2.88c-1.591,0-2.88,1.289-2.88,2.88
				C7.2-8.49,8.489-7.2,10.08-7.2z"/>
			<path fill="#222221" d="M24.479-7.2c1.59,0,2.879-1.29,2.879-2.88c0-1.591-1.289-2.88-2.879-2.88
				c-1.592,0-2.881,1.289-2.881,2.88C21.598-8.49,22.887-7.2,24.479-7.2z"/>
			<path fill="#222221" d="M10.08-21.601c1.59,0,2.881-1.289,2.881-2.88c0-1.59-1.291-2.88-2.881-2.88c-1.591,0-2.88,1.29-2.88,2.88
				C7.2-22.89,8.489-21.601,10.08-21.601z"/>
			<path fill="#222221" d="M24.479-21.601c1.59,0,2.879-1.289,2.879-2.88c0-1.59-1.289-2.88-2.879-2.88
				c-1.592,0-2.881,1.29-2.881,2.88C21.598-22.89,22.887-21.601,24.479-21.601z"/>
		</g>
		<g>
			<path fill="#222221" d="M2.879,0C4.469,0,5.76-1.29,5.76-2.88c0-1.592-1.291-2.88-2.881-2.88C1.289-5.76,0-4.472,0-2.88
				C0-1.29,1.289,0,2.879,0z"/>
			<path fill="#222221" d="M2.879-14.399c1.59,0,2.881-1.29,2.881-2.881s-1.291-2.88-2.881-2.88C1.289-20.16,0-18.871,0-17.28
				S1.289-14.399,2.879-14.399z"/>
		</g>
		<g>
			<path fill="#222221" d="M31.678-28.801c1.59,0,2.881-1.29,2.881-2.88c0-1.592-1.291-2.88-2.881-2.88
				c-1.59,0-2.879,1.288-2.879,2.88C28.799-30.091,30.088-28.801,31.678-28.801z"/>
			<path fill="#222221" d="M17.279-28.801c1.589,0,2.88-1.29,2.88-2.88c0-1.592-1.291-2.88-2.88-2.88
				c-1.59,0-2.879,1.288-2.879,2.88C14.4-30.091,15.689-28.801,17.279-28.801z"/>
		</g>
		<g>
			<path fill="#222221" d="M2.879-28.801c1.59,0,2.881-1.29,2.881-2.88c0-1.592-1.291-2.88-2.881-2.88
				c-1.59,0-2.879,1.288-2.879,2.88C0-30.091,1.289-28.801,2.879-28.801z"/>
		</g>
	</g>
</pattern>
<g>
	<g>
		<g>
			<ellipse opacity="0.35" fill="#40181E" cx="215.278" cy="392.419" rx="103.642" ry="5.622"/>
			<g>
				<g>
					<path fill="#FCFCF7" d="M142.118,389h132.669c8.21,0,16.212-6.185,16.212-13.364v-1.95c0-7.179-8.003-12.686-16.212-12.686
						H142.118c0,0,3.716,4.571,3.716,13.35C145.835,384.416,142.118,389,142.118,389z"/>
				</g>
				<g>
					<path fill="#F0F0E2" d="M140.572,389H224v-27h-83.428c0,0,3.716,4.071,3.716,12.85C144.288,384.916,140.572,389,140.572,389z"
						/>
				</g>
				<g>
					<path fill="#4A6080" d="M272.596,389.38c9.142,0,16.404-5.895,16.404-13.419v-1.95c0-3.699-1.848-7.126-5.02-9.649
						c-3.077-2.448-7.199-3.796-11.514-3.796c-0.618,0-1.144,0.438-1.144,0.978s0.708,0.978,1.326,0.978
						c7.932,0,14.352,5.046,14.352,11.488v1.95c0,6.428-6.398,11.463-14.285,11.463c-0.618,0-1.178,0.438-1.178,0.978
						C271.537,388.942,271.978,389.38,272.596,389.38z"/>
				</g>
				<g>
					<path fill="#593F3E" d="M140,390h135.159c9.299,0,17.841-6.207,17.841-14.364v-1.95c0-7.889-8.381-14.686-17.841-14.686H140v4
						h135.159c7.344,0,13.841,4.646,13.841,10.686v1.95c0,6.23-6.745,11.364-13.841,11.364H140V390z"/>
				</g>
			</g>
			<g>
				<g>
					<path fill="#FCFCF7" d="M172.075,276h86.716c6.157,0,11.209-5.262,11.209-10.646v-1.462c0-5.384-5.052-8.892-11.209-8.892
						h-86.716c0,0,2.787,3.428,2.787,10.013C174.863,272.562,172.075,276,172.075,276z"/>
				</g>
				<g>
					<path fill="#F0F0E2" d="M170.916,276H240v-21h-69.084c0,0,2.787,3.428,2.787,10.013C173.703,272.562,170.916,276,170.916,276z"
						/>
				</g>
				<g>
					<path fill="#4A6080" d="M256.922,275.663c6.856,0,12.078-4.421,12.078-10.065v-1.462c0-2.774-1.161-5.344-3.54-7.237
						c-2.308-1.836-5.286-2.847-8.523-2.847c-0.463,0-0.802,0.329-0.802,0.734c0,0.405,0.584,0.734,1.048,0.734
						c5.949,0,10.817,3.785,10.817,8.616v1.462c0,4.821-4.823,8.597-10.739,8.597c-0.463,0-1.009,0.328-1.009,0.734
						S256.459,275.663,256.922,275.663z"/>
				</g>
				<g>
					<path fill="#92A0B3" d="M170,276h89.07c6.974,0,12.93-4.528,12.93-10.646v-1.462c0-5.917-5.836-11.892-12.93-11.892H170v4
						h89.07c5.508,0,9.93,3.362,9.93,7.892v1.462c0,4.672-4.609,8.646-9.93,8.646H170V276z"/>
				</g>
			</g>
			<g>
				<g>
					<path fill="#FCFCF7" d="M137.699,315h134.226c6.367,0,11.075-5.131,11.075-10.699v-1.512c0-5.568-4.708-9.789-11.075-9.789
						H137.699c0,0,2.882,3.687,2.882,10.496C140.581,311.303,137.699,315,137.699,315z"/>
				</g>
				<g>
					<path fill="#F0F0E2" d="M137.699,293.132h98.036v21.523h-98.036c0,0,2.882-3.458,2.882-11.265
						C140.581,296.581,137.699,293.132,137.699,293.132z"/>
				</g>
				<g>
					<path fill="#A5A47F" d="M270.633,315.738c6.831,0,12.367-5.018,12.367-11.185v-1.512c0-6.003-5.696-10.887-12.724-10.887
						c-0.618,0-1.108,0.438-1.108,0.978c0,0.54,0.603,0.978,1.221,0.978c5.795,0,10.611,4.006,10.611,8.93v1.512
						c0,5.089-4.651,9.229-10.248,9.229c-0.618,0-1.178,0.438-1.178,0.978C269.574,315.3,270.015,315.738,270.633,315.738z"/>
				</g>
				<g>
					<path fill="#C05263" d="M136,316h136.213c6.962,0,13.787-5.439,13.787-11.699v-1.512c0-6.042-6.459-10.789-13.787-10.789H136v3
						h136.213c4.289,0,10.787,4.606,10.787,7.789v1.512c0,5.069-5.188,9.699-10.787,9.699H136V316z"/>
				</g>
			</g>
			<g>
				<g>
					<path fill="#FCFCF7" d="M266.337,359h-35.58c-5.683,0-9.758-5.049-9.758-10.018v-1.35c0-4.97,4.074-8.632,9.758-8.632h35.58
						c0,0-2.573,3.473-2.573,9.55C263.765,355.518,266.337,359,266.337,359z"/>
				</g>
				<g>
					<path fill="#A5A47F" d="M230.535,358.68c0.268,0,0.529-0.117,0.68-0.331c0.233-0.328,0.117-0.759-0.258-0.962
						c-1.824-1-5.391-0.542-5.391-9.499c0-5.623,5.336-8.57,5.39-8.599c0.375-0.203,0.492-0.634,0.26-0.962
						c-0.232-0.329-0.724-0.43-1.1-0.227c-0.251,0.136-6.148,3.395-6.148,9.788c0,7.273,5.896,10.551,6.147,10.687
						C230.246,358.646,230.391,358.68,230.535,358.68z"/>
				</g>
				<path fill="#C05263" d="M174.56,339H269l0,0h-41.033c-1.677,2-3.84,4.549-3.84,8.271c0,4.91,2.863,8.729,4.555,9.729H269v2
					h-94.44c-6.173,0-10.56-3.372-10.56-10.298v-1.35C164,341.849,167.961,339,174.56,339z"/>
				<g>
					<g>
						<path fill="#C0B92C" d="M204.308,349.109c0-6.077,3.212-10.109,3.212-10.109h6.074c0,0-3.212,4.032-3.212,10.109
							c0,6.968,3.212,9.891,3.212,9.891h-6.074C207.52,359,204.308,356.077,204.308,349.109z"/>
					</g>
				</g>
				<g>
					<g>
						<path fill="#C0B92C" d="M175.538,349.109c0-6.077,3.212-10.109,3.212-10.109h6.074c0,0-3.212,4.032-3.212,10.109
							c0,6.968,3.212,9.891,3.212,9.891h-6.074C178.75,359,175.538,356.077,175.538,349.109z"/>
					</g>
				</g>
			</g>
			<g>
				<g>
					<path fill="#FCFCF7" d="M176.613,238h36.083c3.823,0,8.304-2.634,8.304-5.977v-0.908c0-3.343-4.481-6.115-8.304-6.115h-36.083
						c0,0,1.731,2.109,1.731,6.197C178.343,235.885,176.613,238,176.613,238z"/>
				</g>
				<g>
					<path fill="#593F3E" d="M213.275,238h37.269c3.823,0,7.456-2.822,7.456-6.165v-0.908c0-3.343-3.633-5.927-7.456-5.927h-37.269
						c0,0,3.881,2.109,3.881,6.197C217.156,235.885,213.275,238,213.275,238z"/>
				</g>
				<g>
					<path fill="#4A6080" d="M212.845,238.547c-0.18,0-0.356-0.079-0.457-0.223c-0.156-0.221-0.079-0.511,0.174-0.647
						c0.147-0.08,3.626-2.037,3.626-6.39c0-3.783-3.59-5.765-3.626-5.785c-0.253-0.137-0.331-0.426-0.175-0.647
						c0.156-0.221,0.581-0.238,0.834-0.102c0.169,0.091,4.043,2.232,4.043,6.534c0,4.893-3.967,7.098-4.136,7.19
						C213.04,238.525,212.942,238.547,212.845,238.547z"/>
				</g>
				<g>
					<path fill="#593F3E" d="M250.502,239H176v-1h74.502c3.221,0,6.498-3.087,6.498-6.165v-0.908c0-2.83-3.056-4.927-6.498-4.927
						H176v-2h74.502c4.44,0,7.498,3.225,7.498,6.927v0.908C258,235.728,254.655,239,250.502,239z"/>
				</g>
			</g>
			<g>
				<g>
					<path fill="#FCFCF7" d="M244.069,224h-41.652c-2.516,0-4.418-2.219-4.418-4.832v-0.71c0-2.613,1.901-4.458,4.418-4.458h41.652
						c0,0-1.139,1.568-1.139,4.764C242.93,222.427,244.069,224,244.069,224z"/>
				</g>
				<g>
					<path fill="#4A6080" d="M201.8,224.418c0.1,0,0.198-0.059,0.255-0.167c0.087-0.165,0.297-0.159,0.156-0.262
						c-0.082-0.06-2.276-1.748-2.276-5.008c0-2.833,2.002-4.317,2.022-4.332c0.141-0.102,0.184-0.319,0.097-0.484
						c-0.087-0.166-0.537,0.075-0.678,0.177c-0.094,0.068-2.041,1.419-2.041,4.64c0,3.664,2.213,5.316,2.307,5.384
						C201.691,224.401,201.746,224.418,201.8,224.418z"/>
				</g>
				<path fill="#DAC865" d="M177.533,213.078h67.336v1.799h-43.76c-0.731,0.854-1.627,2.296-1.627,4.253
					c0,2.272,0.919,3.844,1.655,4.742h43.732v0.899h-42.832h-24.503h-0.028c-0.035,0-0.069-0.006-0.104-0.007
					c-2.666-0.077-4.632-2.453-4.632-5.546v-0.733C172.768,215.495,174.611,213.078,177.533,213.078z"/>
			</g>
			<g>
				<rect x="148" y="316" fill="#3D6C97" width="129" height="23"/>
				<rect x="265" y="316" fill="#EEEDC8" width="4" height="23"/>
				<rect x="256" y="316" fill="#EEEDC8" width="5" height="23"/>
			</g>
			<g>
				<rect x="154" y="239" fill="#C05263" width="119" height="13"/>
				<rect x="158" y="239" fill="#EEEDC8" width="5" height="13"/>
				<rect x="164" y="239" fill="#EEEDC8" width="5" height="13"/>
			</g>
			<g>
				<g>
					<path fill="#FCFCF7" d="M148,292h84.123c5.493,0,9.877-2.719,9.877-7.522v-1.305c0-4.803-4.383-5.173-9.877-5.173H148V292z"/>
				</g>
				<g>
					<path fill="#F0F0E2" d="M142.593,292H198v-14h-55.407c0,0,1.396,2.887,1.396,7.042C143.988,289.233,142.593,292,142.593,292z"
						/>
				</g>
				<g>
					<path fill="#DAC865" d="M231.827,292H141v-1h90.827c6.286,0,9.173-2.391,9.173-6.522v-1.305c0-3.599-2.625-5.173-9.173-5.173
						H141v-2h90.827c4.696,0,10.173,1.318,10.173,7.173v1.305C242,287.916,240.869,292,231.827,292z"/>
				</g>
			</g>
		</g>
		<g>
			<ellipse fill="#FCFCF7" cx="93.861" cy="22.786" rx="3.455" ry="5.001"/>
			<path fill="#DAC865" d="M168.96,28.48l35.092,1.359c0.009,0,0.016-0.007,0.017-0.015l0.272-7.03c0-0.009-0.007-0.016-0.015-0.017
				l-35.092-1.359c-0.009,0-0.016,0.007-0.017,0.015l-0.272,7.03C168.944,28.472,168.951,28.48,168.96,28.48z"/>
			<path fill="#DAC865" d="M144.15,27.89l24.949,0.966c0.009,0,0.016-0.007,0.017-0.015l0.297-7.659
				c0-0.009-0.007-0.016-0.015-0.017l-24.949-0.966c-0.009,0-0.016,0.007-0.017,0.015l-0.297,7.659
				C144.135,27.882,144.141,27.89,144.15,27.89z"/>
			<path fill="#DAC865" d="M118.545,27.983l24.942,0.966c0.011,0,0.02-0.009,0.02-0.021l0.355-9.162
				c0-0.012-0.008-0.023-0.018-0.023l-24.942-0.966c-0.011,0-0.695-0.258-0.695-0.246l0.32,9.429
				C118.526,27.972,118.534,27.983,118.545,27.983z"/>
			<path fill="#DAC865" d="M92.996,27.88l24.949,0.966c0.009,0,0.016-0.007,0.017-0.015l0.42-10.849
				c0-0.009-0.007-0.016-0.015-0.017l-24.949-0.966c-0.009,0-0.016,0.007-0.017,0.015l-0.42,10.849
				C92.981,27.872,92.988,27.879,92.996,27.88z"/>
			<g>
				<path fill="#DDD98D" d="M204.233,30.09h0.213c0.282,0,0.512-0.231,0.512-0.512v-7.022c0-0.282-0.23-0.512-0.512-0.512h-0.213
					c-0.282,0-0.512,0.23-0.512,0.512v7.022C203.721,29.86,203.951,30.09,204.233,30.09z"/>
				<path fill="#DDD98D" d="M169.446,29.591h0.213c0.282,0,0.512-0.231,0.512-0.512v-8.137c0-0.282-0.23-0.512-0.512-0.512h-0.213
					c-0.282,0-0.512,0.23-0.512,0.512v8.137C168.933,29.361,169.164,29.591,169.446,29.591z"/>
				<path fill="#DDD98D" d="M143.82,29.593h0.213c0.282,0,0.512-0.23,0.512-0.512v-9.5c0-0.282-0.23-0.512-0.512-0.512h-0.213
					c-0.282,0-0.512,0.231-0.512,0.512v9.5C143.307,29.363,143.538,29.593,143.82,29.593z"/>
				<path fill="#DDD98D" d="M118.408,29.438h-0.213c-0.282,0-0.512-0.231-0.512-0.512V17.802c0-0.282,0.231-0.512,0.512-0.512h0.213
					c0.282,0,0.512,0.231,0.512,0.512v11.123C118.921,29.207,118.69,29.438,118.408,29.438z"/>
				<path fill="#DDD98D" d="M92.784,28.868h0.213c0.282,0,0.512-0.231,0.512-0.512V16.954c0-0.282-0.23-0.512-0.512-0.512h-0.213
					c-0.282,0-0.512,0.231-0.512,0.512v11.401C92.272,28.637,92.502,28.868,92.784,28.868z"/>
			</g>
			<path fill="#F8F7E8" d="M224.908,45.122c0,0,8.728,23.761,0.027,10.233c-0.004-0.006-0.014,0.01-0.021,0.014
				c-0.371-0.012-0.736,0.092-1.061,0.272c-0.391-0.184-0.84-0.233-1.27-0.16c-0.062-0.118-2.922,7.442-3.009,7.34l2.702-7.778
				c-0.049-0.058-0.106-0.103-0.159-0.154c0.098-0.281-1.229,7.794-1.088,7.446c-0.047-1.793-0.875-16.026-0.875-16.026
				C224.604,45.6,224.908,45.122,224.908,45.122z"/>
			<g>
				<g>
					<path fill="#F8F7E8" d="M170.439,25.711c0.253,0.502,0.582,0.956,0.974,1.348c0.646,0.931,1.724,1.673,2.272,1.717
						c0.097,0.008,0.219-0.03,0.355-0.094c0.431,0.114,0.897,0.183,1.408,0.183c0.211,0,0.41-0.018,0.607-0.04
						c0.16,0.019,0.322,0.033,0.485,0.04c0.104,0.005,0.207-0.003,0.31-0.006c-0.041,0.962-0.518,2.375-1.849,4.112
						c-2.188,2.857-3.887,4.814-3.887,4.814s2.384,10.611,5.884,14.757c3.5,4.146-5.369,2.498-6.492,3.059
						c0,0-4.324-10.127-4.914-16.107c0,0-3.551-7.418-3.72-10.495C161.766,27.107,167.484,23.077,170.439,25.711z"/>
				</g>
				<g>
					<path fill="#553C3B" d="M228.801,199.64c0,0,2.912,9.359,3.057,11.693c0.145,2.334-10.354,2.403-11.347,1.727
						c-0.994-0.676-3.345-11.864-2.364-12.187C219.128,200.549,228.461,198.528,228.801,199.64z"/>
					<path fill="#3A648C" d="M229.598,200.384c0,0-1.737,1.61-4.668,2.793c-2.932,1.183-6.807-2.082-6.807-2.082
						c-4.09-9.43-9.627-68.893-9.627-68.893s13.592-14.876,14.724-10.256c1.132,4.621-3.593,25.298-1.905,37.715L229.598,200.384z"
						/>
				</g>
				<g>
					<path fill="#593F3E" d="M210.665,200.915c0,0-3.745,6.91-4.712,7.471c-0.967,0.561-7.848-0.014-8.482,0.526
						c-0.634,0.54-0.627,4.073-0.627,4.073c1.647,0.549,9.861,1.117,12.864,1.098c3.004-0.019,10.637,0.257,12.395-1.021
						c0.281-0.852-2.385-11.539-3.122-12.662C218.244,199.277,211.03,198.722,210.665,200.915z"/>
					<path fill="#3D6C97" d="M194.835,119.192c0,0-0.159,37.612,2.363,45.971c2.521,8.358,9.258,29.477,9.828,31.278
						c0,0,0,2.003,0.186,2.994c0.186,0.99,1.92,4.723,2.969,5.492c1.049,0.77,8.595,1.304,10.173-1.895
						c0,0-3.274-13.391-4.612-18.817c-1.338-5.426-4.757-38.81-4.179-51.033c0,0,9.952-5.381,11.147-8.704
						c1.083-3.012,1.76-6.62,1.729-7.119C224.407,116.858,194.835,119.192,194.835,119.192z"/>
				</g>
				<g>
					<path fill="#C05263" d="M226.882,120.102c0,0-3.484-18.956,0.306-31.829c3.791-12.872,11.414-27.78,7.915-33.76
						c0,0-2.874-0.768-6.499,0c-3.624,0.768-10.248,0.471-10.248,0.471s-6.499,0.422-8.123,0.797
						c-1.625,0.375-12.247,8.873-18.746,9.998c-6.499,1.125-15.447-18.571-16.822-21.047c-1.375-2.476-8.537-1.103-8.787,1.198
						c-0.25,2.301,6.737,23.223,14.486,27.223c7.748,3.999,20.37,1.125,20.37,1.125s-9.721,25.705-7.346,47.825
						C193.389,122.102,211.109,126.453,226.882,120.102z"/>
					<path fill="#553137" d="M215.877,55.072c0,0,1-3.499,1.5-3.749c0.5-0.25,11.497,1.25,14.747,0c0,0,0.375,1.875,0,3.374
						C232.123,54.697,228.249,58.071,215.877,55.072z"/>
				</g>
				<g>
					<path fill="#F8F7E8" d="M196.784,29.471c2.788,0.134,4.067-1.645,4.678-1.144c0.611,0.501,0.699,2.514-1.489,5.371
						c-2.188,2.857-3.887,4.814-3.887,4.814s2.384,10.611,5.884,14.757c3.5,4.146-5.369,2.498-6.492,3.059
						c0,0-4.324-10.127-4.914-16.107c0,0-4.91-9.315-5.394-11.135C189.049,29.502,192.878,29.283,196.784,29.471z"/>
				</g>
				<g>
					<path fill="#C05263" d="M191.337,48.112c0.25-2.301,7.412-3.674,8.787-1.198c1.375,2.476,10.323,22.172,16.821,21.047
						c4.526-0.783,11.05-5.141,15.144-7.843c-1.015,2.112-2.044,4.211-3.251,6.238c-2.029,3.408-3.69,6.926-5.112,10.546
						c-4.061,0.613-12.269,1.34-17.903-1.569C198.075,71.335,191.087,50.413,191.337,48.112z"/>
				</g>
			</g>
			<path fill="#F8F7E8" d="M213.358,15.782c0,0-0.126,5.788-2.698,14.01c-2.642,8.446-3.694,9.996-4.058,11.815
				c-1.724,8.618,14.363,8.361,18.691,5.005c4.328-3.356,9.915-22.38,10.54-26.235C236.459,16.521,219.504,3.256,213.358,15.782z"/>
			<path fill="#593F3E" d="M228.047,36.516c0,0-4.368-2.797-2.229-10.751c0.755-2.806,0.36-5.179,0.36-5.179
				s1.008,1.746-4.336-3.239c-1.744-1.627-8.558,0.717-11.131-1.236s-7.193-10.292,1.137-12.999
				c8.602-2.795,18.032-5.221,14.264-2.658c-14.519,9.877,8.994,7.36,14.042,13.979c0,0-0.805-2.694,0.523-2.707
				c2.616-0.025,0.146,2.756,0.146,2.756s1.714-2.269,2.746-0.256c1.031,2.014-2.184,2.038-2.184,2.038s7.068,9.133-2.076,18.476
				c0,0-7.742,7.064-8.01,8.715c-0.268,1.651-2.37-0.846-2.37-0.846s1.501,3.934-2.061,2.034
				C220.968,41.498,228.047,36.516,228.047,36.516z"/>
			<g>
				<path fill="#F8F7E8" d="M225.58,31.934c0,0,2.607-2.212,5.298-0.493c2.691,1.718-0.881,8.661-6.481,4.401
					C224.397,35.842,223.312,34.77,225.58,31.934z"/>
				<path opacity="0.34" fill="#F8F7E8" d="M224.648,33.315c0.022,0.02,0.039,0.044,0.062,0.063
					c0.822,0.667,1.925,0.934,2.858,0.264c0.792-0.57,0.95-1.433,0.868-2.327c-0.017-0.18-0.062-0.346-0.12-0.506
					c0.784-0.072,1.667,0.06,2.563,0.631c2.691,1.718-0.881,8.661-6.481,4.401C224.397,35.842,223.674,35.125,224.648,33.315z"/>
				<path opacity="0.58" fill="#F8F7E8" d="M225.015,35.114c0,0,3.881,0.666,5.456-1.693
					C230.471,33.421,229.898,37.608,225.015,35.114z"/>
			</g>
			<path fill="#593F3E" d="M216.079,18.848c0,0-0.787,1.112,0.233,2.501c1.02,1.389,3.397-0.168,4.674,2.384
				s1.868-2.251-2.991-3.431C217.995,20.302,217.629,17.962,216.079,18.848z"/>
			<path fill="#5C708C" d="M213.77,25.79c0,0,0.048,0.049,0.134,0.122c-0.001-0.003-0.006-0.014-0.006-0.014
				s0.008,0.011,0.017,0.023c0.216,0.183,0.674,0.52,1.365,0.751c0.931,0.311,1.845,0.065,1.845,0.065s-0.947,0.484-1.874,0.222
				c-0.074-0.021-0.141-0.052-0.21-0.08c0.07,0.041,0.137,0.082,0.214,0.121c0.873,0.449,1.814,0.346,1.814,0.346
				s-1.01,0.333-1.886-0.067c-0.636-0.291-1.023-0.884-1.189-1.189C213.848,25.917,213.77,25.79,213.77,25.79z"/>
			<g>
				<path fill="#B8AAAC" d="M214.138,35.994c0,0-0.01,0.323-0.221,0.72c-0.102,0.201-0.255,0.419-0.471,0.617
					c-0.205,0.21-0.502,0.366-0.825,0.483c-0.177,0.024-0.346,0.075-0.527,0.055c-0.181,0.008-0.35-0.044-0.505-0.105
					c-0.164-0.041-0.284-0.148-0.401-0.231c-0.125-0.076-0.198-0.188-0.272-0.282c-0.157-0.179-0.21-0.373-0.254-0.498
					c-0.04-0.128-0.052-0.203-0.052-0.203s0.08,0.024,0.2,0.071c0.121,0.044,0.273,0.126,0.455,0.175
					c0.176,0.065,0.368,0.107,0.547,0.116c0.089,0.017,0.178-0.002,0.266-0.009c0.087,0.01,0.18-0.041,0.27-0.051
					c0.371-0.11,0.805-0.338,1.154-0.532C213.85,36.126,214.138,35.994,214.138,35.994z"/>
			</g>
			<path fill="#593F3E" d="M226.732,24.98c0,0-3.244,3.925-4.757,7.677c-0.278,0.688,0.474,1.345,1.115,0.972
				c1.594-0.927,4.351-2.48,3.991-3.787C226.921,29.26,226.732,24.98,226.732,24.98z"/>
			<path fill="#F8F7E8" d="M211.266,28.388c-1.049-1.704-5.997,1.525-1.012,3.899"/>
			<g opacity="0.29">
				<path fill="#553137" d="M211.573,57.609c0,0,0.944,0.139,2.217,0.797c0.628,0.336,1.346,0.785,2.006,1.416
					c0.329,0.312,0.651,0.667,0.938,1.055c0.263,0.408,0.553,0.811,0.732,1.279c0.224,0.447,0.332,0.935,0.441,1.412
					c0.141,0.472,0.075,0.964,0.117,1.42c0,0.459-0.111,0.895-0.165,1.306c-0.051,0.414-0.235,0.771-0.34,1.112
					c-0.116,0.339-0.226,0.646-0.384,0.891c-0.144,0.249-0.269,0.467-0.373,0.646c-0.216,0.348-0.339,0.546-0.339,0.546
					s0.057-0.228,0.157-0.626c0.054-0.194,0.12-0.429,0.196-0.7c0.096-0.262,0.132-0.576,0.189-0.91
					c0.038-0.336,0.153-0.688,0.156-1.07c-0.001-0.381,0.047-0.78,0.023-1.185c-0.067-0.402-0.055-0.828-0.182-1.232
					c-0.105-0.409-0.205-0.826-0.41-1.207c-0.14-0.408-0.388-0.764-0.608-1.129c-0.25-0.343-0.495-0.693-0.776-0.994
					c-0.285-0.298-0.554-0.599-0.849-0.846c-0.278-0.266-0.574-0.482-0.835-0.702C212.4,58.066,211.573,57.609,211.573,57.609z"/>
			</g>
			<path fill="#F8F7E8" d="M161.756,28.781c0.113-1.718,0.379-4.016,0.962-6.934c0.492-2.462,10.526-1.084,11.772,0.824
				c0.031-0.047-0.979,5.819-0.134,7.662c0.531,1.159-5.163,1.779-9.07,2.065C164.887,30.7,163.711,29.218,161.756,28.781z"/>
			<ellipse fill="#F8F7E8" cx="195.086" cy="24.392" rx="1.576" ry="2.909"/>
			<ellipse fill="#F8F7E8" cx="192.419" cy="24.029" rx="1.576" ry="2.909"/>
			<ellipse fill="#F8F7E8" cx="189.51" cy="23.665" rx="1.576" ry="2.909"/>
			<ellipse fill="#F8F7E8" cx="186.479" cy="23.665" rx="1.576" ry="2.909"/>
			<ellipse fill="#F8F7E8" cx="172.902" cy="22.574" rx="1.576" ry="2.909"/>
			<ellipse fill="#F8F7E8" cx="170.235" cy="22.21" rx="1.576" ry="2.909"/>
			<ellipse fill="#F8F7E8" cx="167.325" cy="21.847" rx="1.576" ry="2.909"/>
			<ellipse fill="#F8F7E8" cx="164.295" cy="21.847" rx="1.576" ry="2.909"/>
			<g opacity="0.29">
				<path fill="#553137" d="M224.816,82.47c0.022-0.089-0.036,0.057-0.103,0.291c-0.068,0.237-0.167,0.583-0.294,1.025
					c-0.241,0.885-0.586,2.15-1,3.668c-0.419,1.514-0.85,3.296-1.317,5.2c-0.456,1.907-0.933,3.941-1.328,5.99
					c-0.417,2.044-0.751,4.102-0.982,6.037c-0.218,1.935-0.347,3.752-0.25,5.301c0.088,1.547,0.338,2.827,0.702,3.66
					c0.347,0.84,0.701,1.245,0.701,1.245s-0.097-0.089-0.261-0.275c-0.162-0.187-0.393-0.474-0.616-0.885
					c-0.448-0.816-0.907-2.102-1.087-3.693c-0.189-1.587-0.229-3.457-0.066-5.437c0.15-1.982,0.476-4.074,0.878-6.146
					c0.421-2.069,0.917-4.119,1.459-6.018c0.531-1.902,1.125-3.648,1.631-5.142c0.507-1.495,1.013-2.711,1.353-3.566
					c0.171-0.427,0.325-0.756,0.426-0.981C224.754,82.516,224.854,82.384,224.816,82.47z"/>
			</g>
		</g>
	</g>
	<path fill="#FCFCF7" d="M53.619,101.245c1.361,0,2.634,0.379,3.719,1.037c0.107-3.872,3.277-6.978,7.174-6.978
		c1.577,0,3.033,0.509,4.218,1.371c0.192-6.805,5.765-12.264,12.617-12.264c5.861,0,10.787,3.994,12.21,9.408
		c1.776-1.098,3.868-1.733,6.109-1.733c6.426,0,11.636,5.209,11.636,11.636c0,5.115-3.302,9.457-7.891,11.016
		c-0.752,0.393-1.604,0.62-2.507,0.62H55.489c-0.596,0.161-1.223,0.248-1.87,0.248c-3.965,0-7.179-3.214-7.179-7.179
		C46.44,104.46,49.654,101.245,53.619,101.245z"/>
	<path fill="#FCFCF7" d="M292.802,145.081c1.377,0,2.664,0.383,3.76,1.049c0.108-3.916,3.314-7.057,7.255-7.057
		c1.594,0,3.068,0.515,4.265,1.386c0.194-6.882,5.83-12.402,12.759-12.402c5.927,0,10.909,4.039,12.348,9.514
		c1.796-1.11,3.912-1.753,6.178-1.753c6.499,0,11.767,5.268,11.767,11.767c0,5.173-3.34,9.563-7.98,11.14
		c-0.76,0.398-1.622,0.627-2.535,0.627h-45.927c-0.603,0.162-1.237,0.25-1.891,0.25c-4.01,0-7.26-3.251-7.26-7.26
		C285.541,148.332,288.792,145.081,292.802,145.081z"/>
</g>
</svg>
