<?xml version="1.0" encoding="utf-8"?>
<!-- Generator: Adobe Illustrator 17.0.0, SVG Export Plug-In . SVG Version: 6.00 Build 0)  -->
<!DOCTYPE svg PUBLIC "-//W3C//DTD SVG 1.1//EN" "http://www.w3.org/Graphics/SVG/1.1/DTD/svg11.dtd">
<svg version="1.1" id="Layer_1" xmlns="http://www.w3.org/2000/svg" xmlns:xlink="http://www.w3.org/1999/xlink" x="0px" y="0px"
	 width="145.952px" height="150px" viewBox="0 0 145.952 150" xml:space="preserve">
<path fill-rule="evenodd" clip-rule="evenodd" fill="#434343" d="M34.763,20.411c-7.272,4.253-24.14,9.019-16.272,18.82
	C27.298,50.2,40.559,54.596,50.036,62.766c4.002-0.5,7.25-3.502,6.163-6.393c-0.174-1.894-2.293-1.297-3.486-1.887
	C44.6,48.607,35.198,44.37,28.473,36.727c21.475-6.814,48.486-8.77,66.453-0.069c9.01,4.357,20.113,13.114,23.537,21.588
	c1.614,3.99-0.568,7.689,2.769,11.078c1.787,1.776,5.62-1.652,7.135-3.265c-0.794-11.887-7.236-20.709-14.903-26.751
	C94.941,24.739,67.886,20.983,37.37,27.807c6.52-5.802,15.974-9.712,24.258-14.392c0.62-2.091,2.705-3.254,2.13-6.128
	C52.814,7.346,44.505,14.722,34.763,20.411L34.763,20.411z"/>
<g>
	<path fill="#3A3A3A" d="M31.594,82.344c0.02,0.279-0.034,0.652-0.159,1.116c-0.293,1.091-0.977,1.998-2.048,2.722
		c-0.989,0.664-2.085,1.039-3.29,1.123c-2.042,0.142-3.638-0.59-4.784-2.194c-0.968-1.318-1.527-3.06-1.678-5.226
		c-0.129-1.851,0.02-3.614,0.448-5.293c0.477-1.962,1.281-3.51,2.413-4.641c0.837-0.848,1.708-1.303,2.616-1.366
		c1.344-0.093,2.393,0.483,3.146,1.728c0.595,0.977,0.942,2.207,1.046,3.69c0.051,0.733-0.004,1.588-0.164,2.563
		c-0.21,1.277-0.55,1.933-1.021,1.966c-0.367,0.025-0.643-0.148-0.826-0.521c0.1-0.077,0.257-0.211,0.473-0.401
		c0.423-0.468,0.576-1.549,0.458-3.242c-0.071-1.03-0.332-2.004-0.781-2.919c-0.574-1.188-1.289-1.752-2.145-1.693
		c-0.681,0.047-1.368,0.507-2.062,1.379c-0.517,0.65-0.947,1.391-1.293,2.222c-0.761,1.913-1.048,4.221-0.86,6.927
		c0.125,1.799,0.538,3.209,1.241,4.23c0.877,1.271,2.146,1.85,3.804,1.734c0.908-0.062,1.721-0.36,2.438-0.893
		c0.717-0.531,1.248-1.214,1.594-2.044c0.052-0.268,0.175-0.645,0.369-1.131c0.124-0.237,0.29-0.363,0.5-0.378
		C31.379,81.779,31.568,81.961,31.594,82.344z"/>
	<path fill="#3A3A3A" d="M34.71,85.917c0.031,0.453-0.197,0.697-0.687,0.731c-0.769,0.053-1.253-1.501-1.455-4.661l-0.737-11.764
		c-0.014-0.192-0.06-0.465-0.137-0.819s-0.122-0.619-0.134-0.793c0.314-0.267,0.585-0.409,0.813-0.425
		c0.244-0.017,0.494,0.053,0.752,0.211c0.256,0.158,0.393,0.359,0.409,0.603c0.013,0.175-0.016,0.405-0.084,0.69
		c-0.08,0.357-0.126,0.579-0.138,0.667c-0.127,1.203-0.116,2.868,0.032,4.998c0.238,3.439,0.345,5.098,0.319,4.977
		c0.201,2.144,0.453,3.749,0.755,4.815c0.004,0.053,0.052,0.168,0.143,0.346C34.653,85.671,34.702,85.812,34.71,85.917z"/>
	<path fill="#3A3A3A" d="M37.646,71.74c0.041,0.594-0.218,0.91-0.776,0.949c-0.332,0.023-0.646-0.079-0.942-0.303
		c-0.295-0.225-0.455-0.495-0.477-0.809c-0.041-0.593,0.234-0.912,0.828-0.953c0.349-0.024,0.658,0.068,0.928,0.277
		C37.475,71.112,37.621,71.392,37.646,71.74z M37.421,75.703c0.021,0.313-0.021,0.791-0.124,1.43
		c-0.105,0.639-0.146,1.115-0.125,1.43l0.402,5.786c0.026,0.385,0.15,0.902,0.37,1.554c-0.06,0.144-0.151,0.221-0.273,0.229
		c-0.855,0.06-1.311-0.321-1.368-1.142l-0.667-9.61c0.218-0.137,0.432-0.214,0.642-0.229c0.209-0.015,0.432,0.032,0.667,0.138
		C37.25,75.39,37.409,75.529,37.421,75.703z"/>
	<path fill="#3A3A3A" d="M47.306,77.096c-0.004-0.053-0.131,0.386-0.382,1.315c-0.348,1.322-0.391,3.852-0.131,7.587
		c0.248,3.578,0.757,5.465,1.524,5.657l0.025,0.366c-0.338,0.198-0.568,0.303-0.691,0.312c-1.121,0.078-1.844-2.354-2.17-7.296
		l-0.141-0.122c-0.591,0.62-1.395,0.965-2.41,1.035c-1.085,0.075-1.916-0.357-2.492-1.3c-0.438-0.724-0.698-1.688-0.781-2.893
		c-0.103-1.467,0.041-2.941,0.429-4.425c0.53-1.966,1.381-2.99,2.55-3.071c0.664-0.046,1.312,0.216,1.949,0.786
		c0.526,0.507,1.044,1.015,1.553,1.523c0.328-0.075,0.448-0.11,0.361-0.104C47.005,76.432,47.275,76.642,47.306,77.096z
		 M45.494,78.668c-0.029-0.419-0.128-0.71-0.298-0.874c-0.012-0.174-0.024-0.349-0.036-0.523c-0.028-0.401-0.276-0.827-0.746-1.277
		c-0.47-0.45-0.905-0.661-1.308-0.633c-0.838,0.058-1.452,0.943-1.842,2.654c-0.314,1.284-0.432,2.495-0.353,3.63
		c0.168,2.427,0.882,3.596,2.139,3.509c1.064-0.074,1.793-0.949,2.186-2.626C45.506,81.369,45.593,80.082,45.494,78.668z"/>
	<path fill="#3A3A3A" d="M55.991,74.861c0.037,0.541,0.037,1.352-0.002,2.434c-0.039,1.08-0.031,2.015,0.023,2.8
		c0.021,0.314,0.094,0.911,0.217,1.787c0.122,0.878,0.196,1.509,0.223,1.893c0.054,0.769-0.002,1.237-0.165,1.407
		c-0.1,0.076-0.246,0.121-0.438,0.135c-0.384,0.026-0.658-0.121-0.82-0.442c-0.093-0.327-0.186-0.645-0.277-0.954
		c-0.452,0.813-1.283,1.361-2.49,1.646c-0.449,0.102-0.987-0.063-1.613-0.496c-0.57-0.383-0.958-0.779-1.162-1.188
		c-0.284-0.562-0.483-1.667-0.598-3.315l-0.396-5.708c-0.142-0.519,0.137-0.803,0.836-0.851c0.488-0.034,0.752,0.229,0.791,0.787
		c0.058,0.838,0.107,1.931,0.148,3.278c0.066,1.714,0.116,2.808,0.148,3.279c0.026,0.63,0.21,1.248,0.55,1.855
		c0.401,0.728,0.873,1.071,1.414,1.033c0.891-0.062,1.539-0.702,1.945-1.924c0.287-0.915,0.394-1.904,0.32-2.969l-0.238-3.431
		c-0.01-0.139-0.072-0.333-0.186-0.579c-0.113-0.247-0.176-0.448-0.187-0.605c-0.006-0.087-0.004-0.184,0.007-0.29
		c0.228-0.244,0.464-0.383,0.707-0.417C55.53,73.902,55.944,74.18,55.991,74.861z"/>
	<path fill="#3A3A3A" d="M65.343,81.447c0.054,0.769-0.414,1.493-1.402,2.176c-0.886,0.623-1.739,0.964-2.56,1.021
		c-2.34,0.162-3.612-1.24-3.818-4.209c-0.091-1.31,0.047-2.73,0.414-4.265c0.493-1.999,1.228-3.033,2.205-3.101
		c0.839-0.058,1.784,0.302,2.838,1.08c1.055,0.778,1.61,1.584,1.669,2.423c0.075,1.083-0.297,2.055-1.113,2.918
		c-0.817,0.864-1.775,1.334-2.876,1.411c-0.104,0.007-0.333-0.065-0.686-0.216s-0.59-0.223-0.712-0.214
		c-0.228,0.016-0.336,0.094-0.326,0.233c0.14,2.008,0.873,2.965,2.199,2.873c0.682-0.048,1.294-0.317,1.839-0.812
		c0.33-0.286,0.687-0.723,1.066-1.312c0.301-0.458,0.504-0.692,0.609-0.699C65.091,80.728,65.309,80.958,65.343,81.447z
		 M63.201,76.754c-0.043-0.61-0.257-1.17-0.644-1.679c-0.386-0.508-0.867-0.742-1.443-0.702c-0.698,0.048-1.235,0.524-1.611,1.428
		c-0.315,0.758-0.446,1.53-0.392,2.316c0.035,0.506,0.226,0.918,0.573,1.236c0.347,0.317,0.772,0.459,1.279,0.424
		c0.716-0.049,1.288-0.396,1.717-1.04C63.078,78.148,63.252,77.487,63.201,76.754z"/>
	<path fill="#3A3A3A" d="M80.423,83.769c0.018,0.243-0.167,0.379-0.551,0.406c-0.419,0.028-0.684-0.129-0.795-0.472
		c-0.022-0.052-0.054-0.392-0.098-1.02c-0.012-0.175-0.048-0.312-0.107-0.413c-0.929,0.784-1.959,1.215-3.094,1.293
		c-0.786,0.055-1.561-0.11-2.325-0.496c-0.871-0.431-1.332-1.013-1.383-1.746c-0.05-0.715,0.398-1.448,1.347-2.198
		c0.863-0.691,1.68-1.064,2.448-1.118l2.593-0.18c0.098-0.111,0.137-0.298,0.118-0.561c-0.081-1.17-0.237-2.044-0.471-2.625
		c-0.384-0.973-1.038-1.428-1.963-1.363c-0.664,0.046-1.246,0.507-1.746,1.384c-0.453,0.804-0.655,1.554-0.606,2.252
		c0.002,0.035,0.006,0.088,0.011,0.157s0.008,0.113,0.009,0.131c0.01,0.14-0.056,0.215-0.195,0.225
		c-0.174,0.012-0.373-0.08-0.598-0.274c-0.224-0.195-0.341-0.371-0.353-0.528c-0.033-0.488,0.071-1.114,0.317-1.877
		c0.245-0.763,0.528-1.348,0.852-1.756c0.403-0.502,0.928-0.775,1.574-0.82c0.995-0.069,1.934,0.182,2.815,0.752
		c0.938,0.619,1.448,1.408,1.532,2.367L80.423,83.769z M78.746,79.7c-0.049-0.698-0.614-1.011-1.696-0.936
		c-0.855,0.06-1.597,0.262-2.222,0.603c-0.793,0.441-1.163,1.046-1.11,1.813c0.033,0.472,0.276,0.823,0.73,1.054
		c0.384,0.203,0.827,0.285,1.334,0.25c0.75-0.052,1.444-0.346,2.082-0.881C78.503,81.068,78.797,80.433,78.746,79.7z"/>
	<path fill="#3A3A3A" d="M89.466,74.167c-0.004-0.053-0.131,0.387-0.383,1.316c-0.347,1.322-0.39,3.851-0.131,7.586
		c0.249,3.578,0.757,5.465,1.524,5.657l0.025,0.366c-0.338,0.199-0.568,0.304-0.691,0.312c-1.121,0.078-1.844-2.354-2.17-7.296
		l-0.14-0.122c-0.592,0.62-1.395,0.965-2.41,1.036c-1.086,0.075-1.917-0.357-2.492-1.301c-0.438-0.723-0.698-1.688-0.782-2.893
		c-0.102-1.467,0.041-2.941,0.429-4.424c0.53-1.967,1.381-2.99,2.551-3.071c0.663-0.046,1.312,0.216,1.948,0.785
		c0.526,0.508,1.045,1.015,1.554,1.523c0.328-0.075,0.448-0.11,0.361-0.104C89.165,73.503,89.434,73.713,89.466,74.167z
		 M87.654,75.74c-0.029-0.419-0.128-0.71-0.298-0.874c-0.013-0.174-0.024-0.349-0.037-0.523c-0.027-0.402-0.276-0.827-0.746-1.277
		s-0.905-0.661-1.307-0.633c-0.838,0.058-1.452,0.942-1.842,2.653c-0.314,1.285-0.432,2.495-0.354,3.63
		c0.169,2.427,0.882,3.597,2.139,3.509c1.064-0.074,1.793-0.948,2.186-2.625C87.666,78.44,87.752,77.153,87.654,75.74z"/>
	<path fill="#3A3A3A" d="M98.152,71.933c0.037,0.541,0.037,1.352-0.002,2.434c-0.039,1.081-0.031,2.015,0.023,2.8
		c0.021,0.314,0.094,0.91,0.217,1.787c0.122,0.877,0.196,1.509,0.223,1.893c0.054,0.769-0.002,1.236-0.165,1.406
		c-0.1,0.076-0.246,0.121-0.438,0.135c-0.384,0.026-0.658-0.121-0.82-0.442c-0.093-0.327-0.186-0.645-0.277-0.954
		c-0.452,0.813-1.283,1.362-2.49,1.646c-0.449,0.102-0.987-0.063-1.613-0.496c-0.57-0.383-0.958-0.779-1.162-1.188
		c-0.284-0.562-0.483-1.667-0.598-3.315l-0.396-5.708c-0.142-0.519,0.137-0.802,0.836-0.851c0.488-0.034,0.752,0.229,0.791,0.787
		c0.058,0.838,0.107,1.931,0.148,3.279c0.066,1.714,0.116,2.807,0.148,3.279c0.026,0.63,0.21,1.248,0.55,1.855
		c0.401,0.728,0.873,1.071,1.414,1.034c0.891-0.062,1.539-0.703,1.945-1.925c0.287-0.915,0.394-1.904,0.32-2.969l-0.238-3.431
		c-0.01-0.139-0.072-0.333-0.186-0.579c-0.113-0.247-0.176-0.449-0.187-0.606c-0.006-0.087-0.004-0.184,0.007-0.29
		c0.228-0.244,0.464-0.383,0.707-0.417C97.691,70.973,98.104,71.251,98.152,71.933z"/>
	<path fill="#3A3A3A" d="M102.038,67.268c0.041,0.594-0.218,0.91-0.776,0.949c-0.332,0.023-0.646-0.079-0.942-0.303
		c-0.296-0.225-0.456-0.495-0.477-0.809c-0.041-0.593,0.236-0.912,0.829-0.953c0.349-0.024,0.658,0.069,0.928,0.278
		C101.867,66.64,102.013,66.919,102.038,67.268z M101.812,71.23c0.022,0.314-0.019,0.791-0.123,1.43
		c-0.105,0.639-0.147,1.115-0.125,1.43l0.401,5.786c0.027,0.385,0.151,0.902,0.372,1.554c-0.062,0.144-0.151,0.221-0.273,0.229
		c-0.856,0.06-1.312-0.321-1.369-1.142l-0.668-9.61c0.219-0.137,0.433-0.214,0.643-0.229c0.209-0.015,0.432,0.032,0.667,0.138
		C101.642,70.918,101.8,71.056,101.812,71.23z"/>
	<path fill="#3A3A3A" d="M34.187,105.645c0.108,1.563-0.029,2.891-0.414,3.98c-0.514,1.513-1.435,2.313-2.761,2.405
		c-0.869,0.061-1.655-0.289-2.358-1.05c-0.107,0.056-0.129,0.549-0.064,1.48c0.143,2.053,0.346,3.499,0.611,4.338
		c0.021,0.078,0.109,0.262,0.264,0.554c0.155,0.289,0.235,0.468,0.24,0.531c0.018,0.252-0.132,0.39-0.447,0.411
		c-0.38,0.026-0.648-0.011-0.807-0.11c-0.157-0.102-0.312-0.455-0.466-1.063c-0.131-0.515-0.207-0.922-0.228-1.222l-0.418-6.018
		c-0.039-0.553-0.062-1.297-0.07-2.233c-0.021-1.094-0.037-1.839-0.05-2.234c-0.014-0.428-0.053-0.98-0.115-1.658
		c-0.061-0.869-0.1-1.431-0.117-1.683c-0.075-1.09,0.172-1.654,0.74-1.694c0.284-0.02,0.434,0.073,0.447,0.278
		c0.028,0.395,0.036,0.974,0.025,1.736s-0.002,1.334,0.024,1.713l0.094-0.007c0.33-0.515,0.658-1.038,0.987-1.569
		c0.388-0.581,0.897-0.896,1.529-0.939c1.059-0.073,1.889,0.345,2.491,1.256C33.82,103.574,34.108,104.507,34.187,105.645z
		 M33.009,105.821c-0.059-0.837-0.195-1.549-0.411-2.138c-0.33-0.866-0.794-1.278-1.395-1.236c-0.442,0.03-0.953,0.454-1.53,1.272
		c-0.507,0.718-0.845,1.439-1.017,2.166c-0.137,0.549-0.224,1.349-0.263,2.398c-0.01,0.764-0.016,1.129-0.019,1.097
		c0.004,0.048,0.079,0.121,0.229,0.223c0.099,0.057,0.198,0.121,0.298,0.193c0.277,0.347,0.558,0.695,0.843,1.048
		c0.285,0.354,0.687,0.513,1.206,0.477c0.864-0.06,1.467-0.817,1.809-2.269C33.003,108.02,33.087,106.942,33.009,105.821z"/>
	<path fill="#3A3A3A" d="M42.647,111.579c0.015,0.221-0.151,0.345-0.499,0.368c-0.379,0.026-0.619-0.114-0.72-0.427
		c-0.019-0.046-0.048-0.353-0.088-0.921c-0.011-0.158-0.043-0.283-0.098-0.374c-0.84,0.709-1.772,1.099-2.8,1.17
		c-0.71,0.05-1.411-0.101-2.102-0.448c-0.789-0.39-1.206-0.917-1.253-1.58c-0.045-0.647,0.361-1.311,1.219-1.99
		c0.782-0.625,1.521-0.963,2.216-1.011l2.345-0.163c0.089-0.101,0.125-0.27,0.108-0.506c-0.073-1.059-0.216-1.851-0.427-2.376
		c-0.348-0.88-0.939-1.292-1.776-1.233c-0.601,0.042-1.127,0.459-1.579,1.252c-0.41,0.727-0.593,1.407-0.549,2.038
		c0.002,0.032,0.005,0.08,0.01,0.143c0.004,0.063,0.007,0.104,0.008,0.119c0.009,0.126-0.05,0.192-0.176,0.201
		c-0.158,0.011-0.339-0.071-0.541-0.247c-0.203-0.177-0.31-0.335-0.319-0.478c-0.03-0.442,0.065-1.009,0.287-1.699
		c0.222-0.689,0.479-1.22,0.771-1.588c0.365-0.455,0.84-0.702,1.425-0.743c0.9-0.062,1.749,0.165,2.547,0.681
		c0.849,0.561,1.31,1.274,1.387,2.142L42.647,111.579z M41.129,107.899c-0.044-0.631-0.556-0.912-1.535-0.845
		c-0.774,0.054-1.444,0.235-2.01,0.544c-0.718,0.399-1.054,0.945-1.005,1.641c0.029,0.427,0.25,0.744,0.662,0.954
		c0.346,0.183,0.747,0.259,1.205,0.227c0.679-0.047,1.308-0.313,1.885-0.798C40.908,109.137,41.175,108.563,41.129,107.899z"/>
	<path fill="#3A3A3A" d="M48.954,101.976c0.004,0.063,0.006,0.198,0.004,0.404c-0.183,0.331-0.369,0.502-0.56,0.516
		c-0.126,0.008-0.242-0.063-0.348-0.214c-0.116-0.993-0.562-1.46-1.336-1.406c-0.505,0.035-0.938,1-1.298,2.898
		c-0.143,0.692-0.174,1.607-0.096,2.744c0.102,1.453,0.203,2.343,0.305,2.669c0.019,0.047,0.065,0.143,0.14,0.288
		c0.073,0.146,0.112,0.259,0.118,0.338c0.024,0.348-0.201,0.536-0.675,0.569c-0.537,0.037-0.824-0.221-0.863-0.772
		c-0.005-0.079,0.007-0.195,0.036-0.349c0.028-0.152,0.04-0.268,0.035-0.348c-0.061-0.868-0.19-2.168-0.391-3.9
		c-0.199-1.732-0.329-3.032-0.39-3.901c-0.022-0.315,0.02-0.513,0.125-0.592c0.106-0.079,0.317-0.129,0.633-0.151
		c0.395-0.027,0.634,0.1,0.717,0.379c0.037,0.315,0.075,0.622,0.112,0.921c0.366-0.66,0.578-1.032,0.636-1.116
		c0.32-0.419,0.67-0.642,1.049-0.668c0.284-0.02,0.575,0.049,0.871,0.202c0.164,0.083,0.398,0.313,0.702,0.688
		C48.786,101.552,48.944,101.818,48.954,101.976z"/>
	<path fill="#3A3A3A" d="M56.861,110.592c0.016,0.221-0.15,0.345-0.498,0.368c-0.379,0.026-0.619-0.114-0.72-0.427
		c-0.02-0.046-0.049-0.353-0.088-0.921c-0.011-0.158-0.043-0.283-0.098-0.374c-0.84,0.709-1.772,1.099-2.799,1.17
		c-0.711,0.049-1.412-0.101-2.103-0.448c-0.789-0.391-1.206-0.918-1.253-1.581c-0.045-0.647,0.361-1.311,1.219-1.989
		c0.782-0.625,1.521-0.963,2.216-1.011l2.345-0.163c0.089-0.101,0.125-0.27,0.108-0.506c-0.073-1.059-0.216-1.851-0.427-2.376
		c-0.348-0.881-0.939-1.292-1.776-1.233c-0.601,0.042-1.127,0.459-1.579,1.252c-0.41,0.727-0.593,1.407-0.549,2.038
		c0.002,0.032,0.005,0.08,0.01,0.143c0.004,0.063,0.007,0.104,0.008,0.119c0.009,0.126-0.05,0.192-0.176,0.201
		c-0.158,0.011-0.339-0.071-0.541-0.247c-0.203-0.177-0.31-0.336-0.319-0.479c-0.03-0.442,0.065-1.008,0.287-1.698
		c0.222-0.689,0.479-1.22,0.771-1.589c0.364-0.454,0.84-0.701,1.425-0.742c0.9-0.062,1.749,0.165,2.547,0.681
		c0.849,0.561,1.31,1.274,1.387,2.142L56.861,110.592z M55.345,106.912c-0.044-0.631-0.556-0.913-1.535-0.845
		c-0.774,0.054-1.444,0.234-2.01,0.544c-0.718,0.399-1.054,0.945-1.005,1.641c0.029,0.427,0.25,0.744,0.661,0.954
		c0.347,0.183,0.748,0.258,1.206,0.227c0.679-0.047,1.308-0.313,1.885-0.798C55.124,108.149,55.391,107.576,55.345,106.912z"/>
	<path fill="#3A3A3A" d="M70.267,106.5c0.026,0.382-0.262,0.916-0.864,1.605c-0.604,0.688-1.106,1.103-1.509,1.242
		c-0.542,0.215-0.993,0.332-1.355,0.357c-1.154,0.08-2.067-0.277-2.741-1.072c-0.621-0.706-0.973-1.651-1.055-2.839
		c-0.085-1.219,0.081-2.598,0.498-4.138c0.518-1.913,1.259-2.902,2.222-2.97c0.459-0.032,1.082,0.15,1.872,0.548
		c0.789,0.397,1.245,0.799,1.369,1.203c0.144,0.482,0.233,0.959,0.266,1.433c0.121,1.738-0.079,2.626-0.601,2.662
		c-0.127,0.009-0.28-0.028-0.46-0.111c-0.181-0.084-0.275-0.187-0.284-0.313c-0.004-0.062,0.021-0.149,0.078-0.255
		c0.056-0.107,0.09-0.177,0.104-0.211c0.048-0.208,0.048-0.685-0.004-1.427c-0.122-1.754-0.578-2.604-1.367-2.549
		c-0.869,0.061-1.524,0.91-1.966,2.548c-0.325,1.264-0.449,2.449-0.372,3.559c0.059,0.854,0.243,1.559,0.551,2.109
		c0.415,0.719,1.002,1.053,1.761,1c0.458-0.031,0.979-0.309,1.561-0.828c0.523-0.47,0.902-0.952,1.138-1.447
		c0.052-0.165,0.131-0.393,0.237-0.688c0.071-0.117,0.179-0.181,0.32-0.19c0.095-0.007,0.217,0.092,0.366,0.298
		C70.181,106.23,70.259,106.389,70.267,106.5z"/>
	<path fill="#3A3A3A" d="M76.295,100.076c0.005,0.063,0.006,0.199,0.005,0.405c-0.184,0.33-0.37,0.501-0.56,0.515
		c-0.126,0.009-0.242-0.062-0.349-0.214c-0.116-0.992-0.562-1.46-1.335-1.406c-0.506,0.035-0.938,1-1.299,2.898
		c-0.143,0.693-0.174,1.607-0.095,2.744c0.101,1.453,0.202,2.344,0.304,2.669c0.02,0.047,0.066,0.143,0.14,0.289
		c0.073,0.146,0.113,0.258,0.118,0.337c0.024,0.348-0.2,0.537-0.674,0.569c-0.538,0.038-0.825-0.22-0.863-0.771
		c-0.006-0.079,0.006-0.196,0.035-0.35c0.028-0.151,0.041-0.268,0.035-0.348c-0.061-0.868-0.19-2.168-0.39-3.899
		c-0.2-1.733-0.33-3.033-0.391-3.902c-0.021-0.315,0.021-0.513,0.126-0.592s0.316-0.129,0.633-0.15
		c0.395-0.027,0.633,0.099,0.716,0.378c0.038,0.315,0.075,0.623,0.112,0.922c0.366-0.661,0.578-1.032,0.637-1.117
		c0.319-0.419,0.67-0.642,1.049-0.667c0.284-0.021,0.574,0.048,0.871,0.201c0.164,0.084,0.398,0.313,0.702,0.688
		C76.127,99.652,76.284,99.919,76.295,100.076z"/>
	<path fill="#3A3A3A" d="M79.332,95.462c0.037,0.536-0.197,0.822-0.702,0.857c-0.301,0.021-0.585-0.069-0.853-0.274
		c-0.269-0.203-0.412-0.446-0.432-0.731c-0.037-0.536,0.212-0.824,0.75-0.861c0.315-0.021,0.595,0.062,0.839,0.251
		C79.177,94.893,79.31,95.146,79.332,95.462z M79.128,99.046c0.021,0.285-0.018,0.716-0.112,1.294s-0.132,1.01-0.112,1.293
		l0.363,5.236c0.024,0.348,0.137,0.815,0.336,1.405c-0.055,0.131-0.137,0.2-0.247,0.208c-0.774,0.054-1.187-0.291-1.238-1.033
		l-0.604-8.696c0.197-0.123,0.392-0.192,0.581-0.206c0.189-0.013,0.391,0.029,0.604,0.124
		C78.974,98.764,79.117,98.889,79.128,99.046z"/>
	<path fill="#3A3A3A" d="M88.278,108.41c0.016,0.221-0.15,0.344-0.498,0.368c-0.379,0.026-0.619-0.115-0.72-0.427
		c-0.02-0.046-0.049-0.354-0.088-0.922c-0.011-0.158-0.043-0.283-0.098-0.374c-0.84,0.709-1.772,1.099-2.799,1.17
		c-0.711,0.05-1.412-0.1-2.103-0.448c-0.789-0.39-1.206-0.917-1.253-1.58c-0.045-0.647,0.361-1.311,1.219-1.989
		c0.782-0.626,1.521-0.963,2.216-1.012l2.345-0.163c0.089-0.101,0.125-0.27,0.108-0.506c-0.073-1.059-0.216-1.851-0.427-2.375
		c-0.348-0.881-0.939-1.292-1.776-1.234c-0.601,0.042-1.127,0.459-1.579,1.252c-0.41,0.728-0.593,1.407-0.549,2.038
		c0.002,0.032,0.005,0.08,0.01,0.143c0.004,0.063,0.007,0.104,0.008,0.119c0.009,0.126-0.05,0.193-0.176,0.202
		c-0.158,0.011-0.339-0.072-0.541-0.247c-0.203-0.178-0.31-0.336-0.319-0.479c-0.03-0.442,0.065-1.009,0.287-1.699
		c0.222-0.689,0.479-1.22,0.771-1.588c0.364-0.454,0.84-0.702,1.425-0.743c0.9-0.062,1.749,0.165,2.547,0.681
		c0.849,0.561,1.31,1.274,1.387,2.143L88.278,108.41z M86.761,104.729c-0.044-0.631-0.556-0.912-1.535-0.844
		c-0.774,0.054-1.444,0.234-2.01,0.544c-0.719,0.398-1.054,0.945-1.005,1.641c0.029,0.427,0.25,0.744,0.661,0.954
		c0.347,0.182,0.748,0.258,1.206,0.226c0.679-0.047,1.308-0.313,1.885-0.798S86.807,105.394,86.761,104.729z"/>
	<path fill="#3A3A3A" d="M94.586,98.806c0.004,0.063,0.005,0.199,0.004,0.405c-0.183,0.33-0.369,0.501-0.56,0.515
		c-0.126,0.009-0.242-0.062-0.348-0.214c-0.116-0.992-0.562-1.46-1.336-1.406c-0.506,0.035-0.938,1-1.298,2.898
		c-0.143,0.693-0.175,1.607-0.096,2.744c0.102,1.453,0.202,2.344,0.305,2.669c0.019,0.047,0.065,0.143,0.139,0.289
		c0.074,0.146,0.113,0.258,0.119,0.337c0.024,0.348-0.201,0.537-0.675,0.569c-0.537,0.038-0.825-0.22-0.863-0.771
		c-0.006-0.079,0.006-0.196,0.035-0.349s0.041-0.269,0.035-0.349c-0.06-0.868-0.189-2.168-0.39-3.899
		c-0.199-1.733-0.329-3.033-0.39-3.902c-0.021-0.315,0.02-0.513,0.125-0.592c0.106-0.078,0.317-0.129,0.633-0.15
		c0.395-0.027,0.634,0.1,0.717,0.378c0.037,0.315,0.075,0.623,0.111,0.922c0.366-0.661,0.579-1.032,0.637-1.117
		c0.32-0.419,0.67-0.641,1.049-0.667c0.284-0.021,0.575,0.048,0.871,0.201c0.164,0.084,0.398,0.313,0.702,0.689
		S94.575,98.648,94.586,98.806z"/>
	<path fill="#3A3A3A" d="M107.517,97.479c0.034,0.49,0.033,1.225-0.002,2.203c-0.035,0.979-0.028,1.823,0.021,2.534
		c0.021,0.284,0.085,0.823,0.195,1.617c0.111,0.794,0.18,1.364,0.204,1.712c0.048,0.695-0.003,1.119-0.151,1.272
		c-0.09,0.069-0.222,0.11-0.396,0.122c-0.348,0.024-0.595-0.109-0.742-0.401c-0.084-0.295-0.168-0.583-0.25-0.862
		c-0.41,0.737-1.16,1.232-2.254,1.489c-0.406,0.092-0.893-0.057-1.459-0.448c-0.517-0.346-0.867-0.704-1.051-1.075
		c-0.258-0.507-0.439-1.508-0.543-2.999l-0.358-5.164c-0.127-0.47,0.124-0.728,0.756-0.771c0.442-0.03,0.682,0.208,0.717,0.714
		c0.053,0.758,0.098,1.746,0.135,2.966c0.061,1.551,0.104,2.54,0.135,2.967c0.023,0.569,0.188,1.129,0.497,1.68
		c0.363,0.657,0.789,0.968,1.279,0.934c0.806-0.056,1.393-0.635,1.76-1.74c0.26-0.827,0.356-1.724,0.289-2.687l-0.216-3.104
		c-0.009-0.126-0.063-0.3-0.166-0.522c-0.104-0.224-0.159-0.406-0.169-0.549c-0.006-0.079-0.004-0.167,0.005-0.262
		c0.207-0.221,0.42-0.347,0.641-0.378C107.1,96.613,107.474,96.863,107.517,97.479z"/>
	<path fill="#3A3A3A" d="M120.654,105.636c-0.317,0.23-0.562,0.35-0.736,0.361c-0.111,0.008-0.272-0.036-0.486-0.132
		c-0.018-0.254-0.047-0.681-0.089-1.283c-0.038-0.554-0.068-0.981-0.089-1.282c-0.339-4.876-1.007-7.279-2.004-7.21
		c-0.593,0.041-1.055,0.834-1.386,2.381c-0.259,1.241-0.358,2.279-0.301,3.116l0.165,2.369c0.009,0.127,0.057,0.301,0.144,0.525
		c0.088,0.224,0.135,0.393,0.143,0.503c0.009,0.126-0.069,0.259-0.234,0.396c-0.165,0.139-0.312,0.212-0.437,0.221
		c-0.143,0.01-0.309-0.077-0.495-0.263c-0.188-0.187-0.286-0.35-0.296-0.492l-0.33-4.762c-0.035-0.506-0.168-1.139-0.395-1.9
		c-0.29-0.964-0.592-1.436-0.908-1.414c-0.174,0.013-0.419,0.252-0.735,0.719c-1.079,1.598-1.542,3.503-1.389,5.714
		c0.019,0.269,0.078,0.665,0.178,1.19c0.101,0.525,0.158,0.914,0.176,1.166c0.033,0.475-0.148,0.725-0.543,0.752
		c-0.188,0.013-0.36-0.055-0.514-0.202c-0.067-0.074-0.164-0.425-0.287-1.052c-0.119-0.562-0.185-0.946-0.199-1.152l-0.388-5.592
		c-0.112-1.611,0.021-2.431,0.4-2.457c0.158-0.011,0.325,0.055,0.501,0.193c0.176,0.138,0.271,0.286,0.282,0.443
		c0.022,0.332,0.005,0.771-0.053,1.312c-0.047,0.702-0.072,1.141-0.076,1.315l0.128,0.111c0.253-0.701,0.506-1.401,0.758-2.101
		c0.367-0.898,0.843-1.369,1.427-1.409c0.821-0.058,1.593,0.779,2.315,2.505c0.145-0.199,0.315-0.607,0.511-1.226
		c0.195-0.616,0.38-1.057,0.551-1.323c0.274-0.4,0.632-0.615,1.074-0.646c0.427-0.029,0.92,0.223,1.48,0.757
		c1.035,0.962,1.646,2.788,1.833,5.479L120.654,105.636z"/>
	<path fill="#3A3A3A" d="M129.054,105.578c0.016,0.221-0.151,0.344-0.499,0.368c-0.379,0.026-0.619-0.115-0.72-0.427
		c-0.019-0.046-0.048-0.354-0.088-0.922c-0.011-0.158-0.043-0.283-0.098-0.374c-0.84,0.709-1.773,1.099-2.799,1.17
		c-0.711,0.05-1.413-0.1-2.104-0.448c-0.788-0.39-1.205-0.917-1.252-1.58c-0.045-0.647,0.361-1.311,1.219-1.989
		c0.781-0.626,1.521-0.964,2.216-1.012l2.346-0.163c0.088-0.101,0.124-0.27,0.108-0.506c-0.074-1.059-0.217-1.851-0.429-2.376
		c-0.347-0.88-0.938-1.291-1.776-1.233c-0.6,0.042-1.126,0.459-1.578,1.252c-0.41,0.728-0.593,1.407-0.549,2.038
		c0.002,0.032,0.005,0.08,0.01,0.143c0.004,0.063,0.007,0.104,0.008,0.119c0.009,0.126-0.05,0.192-0.176,0.201
		c-0.158,0.012-0.338-0.071-0.541-0.246c-0.204-0.178-0.31-0.336-0.319-0.479c-0.03-0.442,0.064-1.009,0.287-1.699
		c0.222-0.689,0.478-1.22,0.771-1.588c0.365-0.454,0.839-0.702,1.424-0.743c0.9-0.062,1.75,0.165,2.548,0.681
		c0.849,0.561,1.31,1.274,1.387,2.143L129.054,105.578z M127.537,101.897c-0.044-0.631-0.556-0.912-1.535-0.845
		c-0.774,0.054-1.444,0.235-2.01,0.544c-0.719,0.399-1.054,0.946-1.005,1.642c0.029,0.427,0.251,0.743,0.662,0.953
		c0.346,0.183,0.747,0.259,1.205,0.227c0.679-0.047,1.308-0.313,1.885-0.798S127.583,102.562,127.537,101.897z"/>
	<path fill="#3A3A3A" d="M32.075,137.016c-0.085,0.199-0.219,0.306-0.399,0.318c-0.182,0.013-0.486-0.09-0.915-0.306l-0.015-0.209
		c-0.011-0.158-0.027-0.393-0.049-0.707s-0.038-0.541-0.047-0.682c-0.403-5.795-1.326-8.644-2.768-8.543
		c-0.452,0.031-0.916,0.396-1.392,1.096c-1.206,1.733-1.723,3.848-1.55,6.344c0.023,0.332,0.105,0.813,0.245,1.444
		c0.141,0.63,0.223,1.111,0.246,1.443c0.018,0.261-0.15,0.405-0.505,0.43c-0.676,0.047-1.052-0.48-1.128-1.58l-0.413-5.943
		c-0.011-0.158-0.019-0.385-0.021-0.684c-0.004-0.298-0.011-0.525-0.021-0.683c-0.017-0.227-0.07-0.557-0.161-0.988
		c-0.092-0.432-0.145-0.754-0.159-0.963c-0.01-0.14,0.088-0.309,0.294-0.507c0.205-0.199,0.369-0.303,0.491-0.311
		c0.228-0.017,0.445,0.092,0.654,0.323c0.026,1.139,0.046,1.803,0.06,1.995c0.019,0.261,0.045,0.515,0.079,0.758
		c0.153-0.064,0.343-0.366,0.568-0.908c0.285-0.687,0.533-1.16,0.744-1.42c0.385-0.518,0.848-0.796,1.389-0.833
		c0.21-0.015,0.529,0.042,0.959,0.171c0.967,0.283,1.679,0.813,2.137,1.588c0.776,1.331,1.244,3.133,1.401,5.402L32.075,137.016z"/>
	<path fill="#3A3A3A" d="M41.319,131.059c0.104,1.502-0.137,2.834-0.723,3.998c-0.692,1.397-1.736,2.146-3.133,2.243
		c-1.414,0.098-2.509-0.378-3.284-1.43c-0.639-0.868-1.01-2.052-1.114-3.553c-0.104-1.484,0.127-2.966,0.691-4.443
		c0.716-1.821,1.719-2.776,3.011-2.866c0.331-0.023,0.816,0.136,1.454,0.478C40.097,126.478,41.129,128.335,41.319,131.059z
		 M40.06,131.12c-0.078-1.117-0.296-2.111-0.654-2.98c-0.523-1.21-1.238-1.783-2.146-1.72c-1.048,0.072-1.82,0.82-2.318,2.24
		c-0.38,1.097-0.527,2.256-0.442,3.478c0.077,1.1,0.298,2.015,0.664,2.743c0.525,0.998,1.269,1.464,2.229,1.397
		c1.048-0.073,1.801-0.721,2.26-1.946C40.006,133.379,40.142,132.308,40.06,131.12z"/>
	<path fill="#3A3A3A" d="M49.778,125.182c0.209,1.495,0.039,3.586-0.511,6.272c-0.582,2.987-1.311,4.511-2.183,4.571
		c-1.048,0.073-2.085-0.969-3.112-3.126c-0.634-1.305-1.198-2.862-1.692-4.671c-0.233-0.843-0.384-1.736-0.449-2.678
		c-0.01-0.141,0.055-0.289,0.192-0.448s0.277-0.243,0.417-0.253c0.21-0.015,0.535,0.139,0.979,0.458
		c-0.049,0.302-0.062,0.603-0.042,0.898c0.073,1.064,0.372,2.334,0.896,3.805c0.479,1.336,1.018,2.526,1.616,3.572
		c0.338,0.573,0.604,0.854,0.795,0.84c0.682-0.047,1.18-1.459,1.496-4.236c0.235-2.155,0.308-3.897,0.216-5.225
		c-0.008-0.104,0.066-0.224,0.225-0.356c0.157-0.134,0.297-0.205,0.42-0.214C49.475,124.361,49.721,124.625,49.778,125.182z"/>
	<path fill="#3A3A3A" d="M58.803,135.792c0.017,0.243-0.166,0.379-0.55,0.406c-0.42,0.029-0.685-0.129-0.796-0.472
		c-0.022-0.052-0.054-0.391-0.098-1.019c-0.012-0.175-0.048-0.313-0.107-0.414c-0.929,0.784-1.959,1.215-3.094,1.294
		c-0.786,0.054-1.561-0.111-2.324-0.496c-0.872-0.432-1.333-1.014-1.384-1.747c-0.05-0.715,0.398-1.447,1.347-2.198
		c0.864-0.691,1.681-1.063,2.448-1.117l2.593-0.18c0.098-0.112,0.137-0.299,0.119-0.561c-0.082-1.17-0.238-2.046-0.472-2.625
		c-0.384-0.975-1.038-1.429-1.963-1.364c-0.664,0.046-1.246,0.508-1.746,1.385c-0.453,0.804-0.654,1.554-0.606,2.253
		c0.003,0.035,0.006,0.087,0.011,0.156c0.005,0.07,0.008,0.114,0.01,0.132c0.01,0.14-0.056,0.214-0.195,0.224
		c-0.175,0.012-0.374-0.079-0.598-0.275c-0.225-0.194-0.342-0.37-0.353-0.526c-0.034-0.489,0.071-1.116,0.316-1.878
		c0.245-0.763,0.528-1.349,0.852-1.757c0.403-0.502,0.928-0.774,1.574-0.819c0.995-0.069,1.934,0.182,2.815,0.752
		c0.938,0.619,1.448,1.408,1.532,2.366L58.803,135.792z M57.126,131.725c-0.049-0.698-0.614-1.011-1.696-0.936
		c-0.855,0.06-1.597,0.26-2.222,0.601c-0.794,0.443-1.164,1.047-1.11,1.814c0.032,0.472,0.276,0.823,0.731,1.055
		c0.382,0.202,0.826,0.285,1.333,0.25c0.75-0.052,1.444-0.347,2.083-0.883C56.883,133.092,57.177,132.457,57.126,131.725z"/>
	<path fill="#3A3A3A" d="M73.782,134.751c0.017,0.243-0.167,0.38-0.551,0.406c-0.419,0.029-0.684-0.129-0.796-0.472
		c-0.021-0.051-0.054-0.391-0.097-1.019c-0.013-0.175-0.049-0.313-0.107-0.413c-0.929,0.783-1.96,1.214-3.095,1.293
		c-0.785,0.055-1.56-0.11-2.324-0.496c-0.871-0.431-1.333-1.013-1.384-1.746c-0.05-0.715,0.399-1.448,1.347-2.199
		c0.864-0.69,1.681-1.063,2.449-1.116l2.593-0.181c0.098-0.111,0.137-0.299,0.118-0.561c-0.081-1.17-0.238-2.045-0.472-2.624
		c-0.383-0.975-1.038-1.429-1.963-1.364c-0.664,0.046-1.245,0.507-1.745,1.384c-0.454,0.804-0.655,1.554-0.606,2.253
		c0.002,0.035,0.006,0.087,0.011,0.156c0.005,0.07,0.008,0.114,0.009,0.132c0.01,0.14-0.056,0.214-0.195,0.224
		c-0.174,0.013-0.373-0.079-0.598-0.274c-0.224-0.194-0.342-0.371-0.353-0.527c-0.034-0.489,0.071-1.115,0.317-1.877
		c0.245-0.763,0.528-1.349,0.852-1.757c0.403-0.502,0.928-0.775,1.574-0.82c0.995-0.068,1.934,0.182,2.815,0.753
		c0.937,0.619,1.448,1.407,1.532,2.366L73.782,134.751z M72.105,130.684c-0.048-0.698-0.613-1.01-1.696-0.935
		c-0.854,0.059-1.596,0.26-2.221,0.601c-0.794,0.442-1.164,1.046-1.11,1.813c0.032,0.472,0.275,0.824,0.73,1.056
		c0.383,0.202,0.826,0.285,1.333,0.25c0.75-0.053,1.445-0.347,2.083-0.883C71.862,132.052,72.155,131.416,72.105,130.684z"/>
	<path fill="#3A3A3A" d="M79.468,125.304c-0.133,0.114-0.458,0.225-0.978,0.331c-0.571,0.109-0.898,0.194-0.982,0.253
		c-0.004,0.192,0.055,1.163,0.176,2.908c0.095,1.361,0.176,2.277,0.244,2.746c0.013,0.191,0.078,0.495,0.194,0.908
		s0.183,0.733,0.198,0.959c0.01,0.141-0.068,0.286-0.232,0.437c-0.165,0.152-0.317,0.233-0.458,0.243
		c-0.349,0.024-0.652-0.314-0.911-1.017c-0.177-0.513-0.28-1.006-0.313-1.478c-0.171-2.462-0.297-4.276-0.378-5.447
		c-0.109-0.079-0.5-0.052-1.175,0.082c-0.539,0.107-0.825-0.073-0.858-0.545c-0.046-0.663,0.641-1.02,2.059-1.064l0.01-4.763
		c-0.003-0.053-0.031-0.135-0.082-0.245c-0.052-0.11-0.079-0.191-0.083-0.244c-0.007-0.105,0.056-0.209,0.189-0.315
		c0.132-0.105,0.295-0.157,0.488-0.152c0.614,0.01,0.942,0.294,0.98,0.854c0.03,0.437,0.015,1.095-0.047,1.977
		c-0.062,0.881-0.077,1.531-0.049,1.95c0.015,0.21,0.046,0.408,0.095,0.599l1.435-0.18c0.488-0.033,0.747,0.143,0.773,0.526
		C79.782,124.905,79.684,125.131,79.468,125.304z"/>
	<path fill="#3A3A3A" d="M83.089,119.106c0.041,0.593-0.218,0.909-0.775,0.947c-0.332,0.023-0.646-0.076-0.942-0.303
		c-0.297-0.225-0.456-0.494-0.478-0.81c-0.041-0.593,0.235-0.91,0.829-0.951c0.349-0.024,0.658,0.068,0.927,0.278
		C82.918,118.478,83.065,118.757,83.089,119.106z M82.864,123.068c0.021,0.313-0.02,0.79-0.124,1.429
		c-0.104,0.64-0.146,1.116-0.125,1.431l0.402,5.787c0.026,0.385,0.15,0.901,0.371,1.553c-0.061,0.144-0.151,0.221-0.273,0.229
		c-0.855,0.059-1.312-0.321-1.368-1.142l-0.668-9.61c0.218-0.138,0.432-0.215,0.642-0.229s0.432,0.032,0.667,0.139
		C82.694,122.757,82.853,122.894,82.864,123.068z"/>
	<path fill="#3A3A3A" d="M92.174,122.237c0.209,1.495,0.039,3.586-0.511,6.271c-0.583,2.988-1.311,4.512-2.183,4.572
		c-1.048,0.073-2.085-0.969-3.112-3.126c-0.634-1.306-1.198-2.862-1.692-4.671c-0.233-0.844-0.384-1.737-0.449-2.679
		c-0.01-0.141,0.055-0.289,0.192-0.447c0.138-0.159,0.277-0.243,0.417-0.253c0.21-0.015,0.535,0.139,0.979,0.458
		c-0.049,0.302-0.062,0.602-0.042,0.897c0.073,1.064,0.372,2.334,0.896,3.805c0.479,1.336,1.018,2.527,1.616,3.573
		c0.338,0.573,0.604,0.853,0.795,0.839c0.682-0.047,1.18-1.458,1.495-4.235c0.236-2.155,0.309-3.897,0.217-5.225
		c-0.008-0.104,0.066-0.224,0.225-0.357c0.157-0.134,0.297-0.205,0.42-0.214C91.871,121.416,92.117,121.68,92.174,122.237z"/>
	<path fill="#3A3A3A" d="M96.026,118.208c0.041,0.593-0.218,0.908-0.776,0.947c-0.332,0.023-0.646-0.076-0.942-0.303
		c-0.296-0.225-0.455-0.494-0.478-0.81c-0.041-0.593,0.235-0.91,0.829-0.951c0.349-0.024,0.658,0.068,0.928,0.278
		C95.854,117.579,96.001,117.858,96.026,118.208z M95.801,122.17c0.021,0.313-0.021,0.79-0.125,1.429
		c-0.104,0.64-0.146,1.116-0.124,1.431l0.401,5.787c0.027,0.385,0.151,0.9,0.371,1.553c-0.06,0.144-0.151,0.221-0.273,0.229
		c-0.854,0.06-1.312-0.32-1.368-1.141l-0.668-9.61c0.219-0.138,0.434-0.215,0.643-0.229s0.432,0.032,0.667,0.139
		C95.63,121.858,95.788,121.995,95.801,122.17z"/>
	<path fill="#3A3A3A" d="M105.464,115.054c0.028,0.402,0.011,0.921-0.05,1.558c-0.064,0.831-0.108,1.353-0.128,1.563
		c-0.015,0.547,0.022,2.353,0.113,5.421c0.089,2.805,0.145,4.355,0.165,4.652c0.131,1.871,0.388,3.179,0.772,3.926
		c-0.108,0.2-0.259,0.308-0.45,0.321c-0.176,0.012-0.378-0.062-0.607-0.222c-0.232-0.16-0.378-0.325-0.443-0.495
		c-0.024-0.349-0.113-0.878-0.268-1.586c-0.939,1.38-1.88,2.104-2.823,2.169c-1.135,0.079-2.038-0.288-2.708-1.102
		c-0.574-0.696-0.903-1.648-0.987-2.853c-0.102-1.467,0.063-3.004,0.496-4.612c0.555-2.109,1.409-3.203,2.561-3.283
		c0.488-0.033,0.999,0.115,1.53,0.446c0.11,0.063,0.546,0.401,1.308,1.015c0.092-1.203-0.002-3.819-0.281-7.848
		c0.113-0.131,0.275-0.204,0.484-0.218c0.332-0.023,0.628,0.079,0.89,0.307C105.298,114.441,105.44,114.722,105.464,115.054z
		 M104.173,124.878c-0.054-0.768-0.275-1.446-0.668-2.033c-0.47-0.703-1.063-1.031-1.778-0.981c-0.873,0.061-1.509,0.999-1.91,2.816
		c-0.326,1.374-0.447,2.654-0.365,3.842c0.054,0.769,0.222,1.422,0.506,1.965c0.382,0.709,0.905,1.042,1.568,0.996
		c1.083-0.075,1.845-0.972,2.287-2.687C104.148,127.563,104.268,126.257,104.173,124.878z"/>
	<path fill="#3A3A3A" d="M115.524,131.852c0.017,0.243-0.168,0.38-0.552,0.407c-0.419,0.028-0.684-0.13-0.795-0.473
		c-0.021-0.051-0.054-0.391-0.098-1.019c-0.012-0.175-0.048-0.313-0.107-0.413c-0.929,0.784-1.96,1.215-3.094,1.293
		c-0.786,0.055-1.561-0.11-2.324-0.496c-0.872-0.431-1.333-1.013-1.384-1.746c-0.05-0.715,0.399-1.448,1.347-2.198
		c0.864-0.691,1.681-1.064,2.449-1.117l2.592-0.181c0.098-0.111,0.137-0.299,0.119-0.561c-0.082-1.17-0.239-2.045-0.473-2.624
		c-0.383-0.975-1.038-1.429-1.962-1.364c-0.664,0.046-1.245,0.508-1.746,1.384c-0.453,0.804-0.655,1.554-0.606,2.253
		c0.003,0.035,0.006,0.087,0.011,0.156c0.005,0.07,0.008,0.114,0.01,0.132c0.01,0.14-0.056,0.214-0.195,0.224
		c-0.175,0.013-0.374-0.079-0.599-0.274c-0.224-0.194-0.341-0.37-0.352-0.526c-0.034-0.489,0.07-1.116,0.316-1.878
		c0.245-0.763,0.529-1.349,0.852-1.757c0.403-0.502,0.929-0.775,1.574-0.819c0.995-0.069,1.934,0.182,2.815,0.752
		c0.938,0.619,1.448,1.407,1.532,2.366L115.524,131.852z M113.846,127.784c-0.049-0.698-0.614-1.01-1.697-0.935
		c-0.854,0.06-1.595,0.26-2.22,0.601c-0.795,0.442-1.165,1.046-1.111,1.813c0.032,0.472,0.276,0.824,0.73,1.056
		c0.384,0.202,0.826,0.285,1.333,0.25c0.751-0.053,1.445-0.347,2.084-0.883C113.603,129.152,113.897,128.517,113.846,127.784z"/>
	<path fill="#3A3A3A" d="M124.187,113.753c0.028,0.402,0.011,0.921-0.05,1.558c-0.065,0.831-0.108,1.353-0.128,1.563
		c-0.015,0.547,0.022,2.353,0.113,5.421c0.089,2.805,0.145,4.355,0.165,4.652c0.13,1.871,0.388,3.179,0.772,3.927
		c-0.108,0.199-0.259,0.307-0.45,0.32c-0.176,0.013-0.378-0.062-0.608-0.222c-0.23-0.159-0.378-0.325-0.442-0.495
		c-0.024-0.349-0.114-0.877-0.268-1.586c-0.94,1.38-1.881,2.104-2.823,2.17c-1.135,0.078-2.038-0.289-2.708-1.103
		c-0.574-0.696-0.903-1.647-0.987-2.852c-0.102-1.467,0.063-3.005,0.495-4.613c0.556-2.109,1.409-3.203,2.562-3.282
		c0.488-0.034,0.999,0.114,1.531,0.445c0.109,0.063,0.545,0.401,1.307,1.015c0.092-1.203-0.002-3.819-0.282-7.848
		c0.114-0.13,0.275-0.203,0.485-0.218c0.331-0.023,0.627,0.079,0.89,0.307C124.021,113.141,124.164,113.421,124.187,113.753z
		 M122.896,123.577c-0.054-0.768-0.276-1.446-0.668-2.033c-0.47-0.703-1.062-1.031-1.778-0.981c-0.873,0.061-1.51,0.999-1.909,2.816
		c-0.325,1.374-0.447,2.654-0.364,3.842c0.053,0.769,0.221,1.422,0.504,1.965c0.382,0.709,0.905,1.042,1.569,0.996
		c1.082-0.075,1.844-0.972,2.287-2.686C122.872,126.263,122.992,124.956,122.896,123.577z"/>
	<path fill="#3A3A3A" d="M134.145,127.189c0.054,0.769-0.414,1.493-1.401,2.176c-0.887,0.624-1.74,0.964-2.561,1.021
		c-2.34,0.162-3.612-1.241-3.818-4.209c-0.091-1.31,0.047-2.73,0.414-4.266c0.492-1.998,1.228-3.032,2.206-3.1
		c0.838-0.059,1.784,0.301,2.837,1.078c1.055,0.778,1.61,1.586,1.669,2.424c0.075,1.083-0.296,2.056-1.113,2.919
		c-0.817,0.864-1.775,1.334-2.875,1.41c-0.105,0.008-0.334-0.064-0.687-0.215c-0.352-0.151-0.591-0.223-0.713-0.215
		c-0.227,0.016-0.335,0.094-0.325,0.233c0.14,2.008,0.872,2.965,2.199,2.873c0.681-0.047,1.294-0.316,1.839-0.811
		c0.33-0.286,0.687-0.723,1.066-1.312c0.301-0.459,0.504-0.692,0.609-0.7C133.893,126.471,134.111,126.7,134.145,127.189z
		 M132.003,122.497c-0.042-0.611-0.256-1.171-0.643-1.68c-0.386-0.508-0.866-0.742-1.442-0.702
		c-0.699,0.049-1.236,0.525-1.611,1.428c-0.316,0.759-0.447,1.531-0.393,2.316c0.035,0.507,0.227,0.919,0.572,1.237
		c0.347,0.317,0.772,0.459,1.279,0.424c0.716-0.05,1.289-0.396,1.718-1.04C131.881,123.892,132.054,123.23,132.003,122.497z"/>
</g>
<g>
</g>
<g>
</g>
<g>
</g>
<g>
</g>
<g>
</g>
<g>
</g>
<g>
</g>
<g>
</g>
<g>
</g>
<g>
</g>
<g>
</g>
<g>
</g>
<g>
</g>
<g>
</g>
<g>
</g>
</svg>
