<?xml version="1.0" encoding="utf-8"?>
<!DOCTYPE svg PUBLIC "-//W3C//DTD SVG 1.1//EN" "http://www.w3.org/Graphics/SVG/1.1/DTD/svg11.dtd">
<svg version="1.1" id="Objects" xmlns="http://www.w3.org/2000/svg" xmlns:xlink="http://www.w3.org/1999/xlink" x="0px" y="0px"
	 width="800px" height="800px" viewBox="0 0 800 800" enable-background="new 0 0 800 800" xml:space="preserve">
<g>
	<g id="purple">
		<g id="paths">
			<path fill="none" stroke="#697FA5" stroke-width="2" stroke-miterlimit="10" style="stroke-dasharray:200,200;stroke-dashoffset:200" d="M516.101,398.278 
				c0-67.518-54.741-122.253-122.257-122.253">
				<animate begin="0" attributeName="stroke-dashoffset" from="200" to="0" dur="2s" fill="freeze"/>
			</path>
			<line fill="none" stroke="#697FA5" stroke-miterlimit="10" style="stroke-dasharray:200,200;stroke-dashoffset:200" x1="516.278" y1="398.101" x2="565.684" y2="398.101">
				<animate begin="0" attributeName="stroke-dashoffset" from="200" to="0" dur="5s" fill="freeze"/>
			</line>
			<line fill="none" stroke="#065170" stroke-width="1.6606" stroke-miterlimit="10" style="stroke-dasharray:200,200;stroke-dashoffset:200" x1="395.942" y1="577.246" x2="395.942" y2="739.218">
				<animate begin="0" attributeName="stroke-dashoffset" from="200" to="0" dur="3s" fill="freeze"/>
			</line>
			<path fill="none" stroke="#697FA5" stroke-width="2" stroke-miterlimit="10" style="stroke-dasharray:400,400;stroke-dashoffset:400" d="M395.502,577.262
				c48.612-1.735,90.054-22.991,121.361-56.194c30.264-32.098,48.82-75.365,48.82-122.968">
				<animate begin="0" attributeName="stroke-dashoffset" from="400" to="0" dur="3s" fill="freeze"/>
			</path>
			<path fill="none" stroke="#697FA5" stroke-width="2" stroke-miterlimit="10" style="stroke-dasharray:400,400;stroke-dashoffset:400" d="M394.023,739.218
				c65.069,0,125.883-18.218,177.619-49.835c41.928-25.619,77.887-60.035,105.322-100.683">
				<animate begin="1.4s" attributeName="stroke-dashoffset" from="400" to="0" dur="2s" fill="freeze"/>
			</path>
			<line fill="none" stroke="#697FA5" stroke-width="2" stroke-miterlimit="10" style="stroke-dasharray:200,200;stroke-dashoffset:200" x1="633.796" y1="546.762" x2="676.964" y2="591.29">
				<animate begin="1s" attributeName="stroke-dashoffset" from="200" to="0" dur="5s" fill="freeze"/>
			</line>
			<path fill="none" stroke="#697FA5" stroke-width="2" stroke-miterlimit="10" style="stroke-dasharray:400,400;stroke-dashoffset:400" d="M633.796,548.329
				c26.756-43.283,43.83-100.522,43.83-155.145c0-47.723-11.789-92.693-32.613-132.158">
				<animate begin="1s" attributeName="stroke-dashoffset" from="400" to="0" dur="2s" fill="freeze"/>
			</path>
			<line fill="none" stroke="#697FA5" stroke-width="2" stroke-miterlimit="10" style="stroke-dasharray:200,200;stroke-dashoffset:200" x1="645.032" y1="261.978" x2="590.303" y2="297.851">
				<animate begin="2s" attributeName="stroke-dashoffset" from="200" to="0" dur="3s" fill="freeze"/>
			</line>
			<path fill="none" stroke="#697FA5" stroke-width="2" stroke-miterlimit="10" style="stroke-dasharray:400,400;stroke-dashoffset:400" d="M582.058,514.272
				c20.469-33.441,32.269-72.765,32.269-114.849c0-36.634-8.945-71.18-24.765-101.572">
				<animate begin="1.5s" attributeName="stroke-dashoffset" from="400" to="0" dur="3s" fill="freeze"/>
			</path>
		</g>
		<g id="circles">
			<circle fill="#697FA5" cx="395.502" cy="577.262" r="11"/>
			<path fill="#697FA5" d="M526.8,398.1c0-5.811-4.71-10.521-10.519-10.521c-5.814,0-10.525,4.71-10.525,10.521
				c0,5.812,4.711,10.524,10.525,10.524C522.09,408.623,526.8,403.912,526.8,398.1z"/>
			<circle fill="#697FA5" cx="633.797" cy="545.773" r="13.615"/>
			<path fill="#697FA5" d="M600.824,297.851c0-5.811-4.708-10.522-10.519-10.522c-5.814,0-10.524,4.71-10.524,10.522
				c0,5.813,4.71,10.522,10.524,10.522C596.116,308.373,600.824,303.663,600.824,297.851z"/>
		</g>
		<g id="elements">
			<g>
				<circle fill="#F2F6F7" cx="395.942" cy="739.218" r="49.174">
					<animate begin="1s" attributeName="fill" from="#F2F6F7" to="#fff" dur="0.1s" fill="freeze"/>
					<animate begin="1.1s" attributeName="fill" from="#fff" to="#697FA5" dur="1s" fill="freeze"/>
				</circle>
				<path fill="#F2F6F7" d="M419.944,741.109c-4.039-1.03-12.188-2.635-23.776-2.635c-17.063,0-26.307,3.48-26.307,3.48v19.13
					c0,0,12.813-3.473,26.449-3.48l0,0c8.8,0.012,17.304,1.456,22.225,2.477c2.693,0.568,4.313,1.004,4.313,1.004v-0.012v-19.118
					v-0.012C422.848,741.942,421.85,741.588,419.944,741.109z"/>
				<path fill="#F2F6F7" d="M368.968,741.018c0,0,9.863-3.716,28.075-3.716c12.37,0,21.068,1.714,25.377,2.814
					c2.033,0.513,3.098,0.888,3.098,0.888v0.014v2.708l15.381-6.768l-44.546-19.607l-44.543,19.607l17.158,7.548V741.018z"/>
				<path fill="#F2F6F7" d="M432.823,757.5c-0.586-0.599-0.722-1.925-1.055-5.509c-0.069-0.53-0.31-0.996-0.65-1.28v-1.083
					c0.375-0.279,0.622-0.763,0.622-1.312c0-0.664-0.364-1.228-0.875-1.459v-14.148c0-0.313-0.223-0.566-0.496-0.566
					c-0.272,0-0.495,0.253-0.495,0.566v14.148c-0.516,0.226-0.881,0.792-0.881,1.459c0,0.549,0.249,1.033,0.623,1.312v1.088
					c-0.338,0.282-0.579,0.748-0.646,1.276c-0.333,3.584-0.465,4.912-1.052,5.509c-0.2,0.828,0.885,1.784,2.436,1.793
					c0.006-0.003,0.013,0,0.019-0.003c0.005,0,0.01,0.003,0.014,0.003C431.939,759.281,433.02,758.324,432.823,757.5z"/>
				<set begin="click" attributeName="fill" to="#000000" dur="3s"/>	
			</g>
			<g>
				<circle fill="#F2F6F7" cx="582.897" cy="512.43" r="24.702">
					<animate begin="1.6s" attributeName="fill" from="#F2F6F7" to="#fff" dur="0.1s" fill="freeze"/>
					<animate begin="1.7s" attributeName="fill" from="#fff" to="#697FA5" dur="1s" fill="freeze"/>
				</circle>
				<path fill="#F2F6F7" d="M597.315,498.721c-4.365-4.366-11.442-4.366-15.808,0c-4.367,4.369-4.367,11.442,0,15.809
					c4.366,4.366,11.444,4.366,15.808,0C601.68,510.163,601.68,503.089,597.315,498.721z M583.483,512.551
					c-3.275-3.271-3.275-8.578,0-11.854c3.273-3.273,8.582-3.273,11.855,0c3.276,3.276,3.273,8.583,0,11.854
					C592.064,515.826,586.756,515.826,583.483,512.551z"/>
				<path fill="#F2F6F7" d="M572.139,528.208c-1.191,1.191-3.121,1.191-4.312,0l0,0c-1.189-1.191-1.189-3.119,0-4.311l8.369-8.369
					c1.191-1.189,3.122-1.189,4.311,0l0,0c1.191,1.191,1.191,3.122,0,4.313L572.139,528.208z"/>
				<path fill="#F2F6F7" d="M577.29,520.245c-0.413,0.414-1.084,0.414-1.498,0l0,0c-0.414-0.416-0.414-1.083,0-1.497l6.086-6.087
					c0.413-0.414,1.083-0.414,1.497,0l0,0c0.414,0.412,0.414,1.086,0,1.497L577.29,520.245z"/>
				<path fill="#F2F6F7" d="M593.752,502.285c2.855,2.855,3.001,7.387,0.453,10.419c0.171-0.142,0.339-0.291,0.499-0.453
					c3.015-3.013,3.017-7.904,0-10.92c-3.015-3.013-7.905-3.013-10.921,0.002c-0.161,0.159-0.308,0.327-0.453,0.501
					C586.365,499.281,590.897,499.428,593.752,502.285z"/>
			</g>
			<g>
				<circle fill="#F2F6F7" cx="676.966" cy="591.29" r="32.655">
					<animate begin="1.4s" attributeName="fill" from="#F2F6F7" to="#fff" dur="0.1s" fill="freeze"/>
					<animate begin="1.5s" attributeName="fill" from="#fff" to="#697FA5" dur="1s" fill="freeze"/>
				</circle>
				<path fill="#F2F6F7" d="M701.146,573.756h-48.364c-0.459,0-0.834,0.375-0.834,0.835v33.393c0,0.462,0.375,0.838,0.834,0.838
					h48.364c0.462,0,0.836-0.375,0.836-0.838v-33.393C701.983,574.131,701.608,573.756,701.146,573.756z M698.979,605.929H679.75
					c-1.199,0-2.244,0.659-2.775,1.625v0.026c-0.005-0.005-0.008-0.01-0.01-0.012c-0.001,0.002-0.006,0.007-0.006,0.012v-0.026
					c-0.537-0.965-1.579-1.625-2.779-1.625h-19.228v-29.422h19.228c1.461,0,2.66,1.098,2.78,2.491c-0.005,0.08,0.014,0.08,0.01,0
					c0.122-1.394,1.32-2.491,2.78-2.491h19.229V605.929z"/>
				<rect x="679.861" y="580.529" fill="#F2F6F7" width="17.047" height="1.095"/>
				<rect x="679.861" y="584.488" fill="#F2F6F7" width="17.047" height="1.095"/>
				<rect x="679.861" y="588.447" fill="#F2F6F7" width="17.047" height="1.093"/>
				<rect x="679.861" y="592.404" fill="#F2F6F7" width="17.047" height="1.095"/>
				<rect x="679.861" y="596.364" fill="#F2F6F7" width="17.047" height="1.093"/>
				<rect x="679.861" y="600.32" fill="#F2F6F7" width="17.047" height="1.098"/>
				<rect x="656.83" y="580.529" fill="#F2F6F7" width="17.044" height="1.095"/>
				<rect x="656.83" y="584.488" fill="#F2F6F7" width="17.044" height="1.095"/>
				<rect x="656.83" y="588.447" fill="#F2F6F7" width="17.044" height="1.093"/>
				<rect x="656.83" y="592.404" fill="#F2F6F7" width="17.044" height="1.095"/>
				<rect x="656.83" y="596.364" fill="#F2F6F7" width="17.044" height="1.093"/>
				<rect x="656.83" y="600.32" fill="#F2F6F7" width="17.044" height="1.098"/>
			</g>
			<g>
				<path fill="#F2F6F7" d="M677.626,261.027c0-18.418-14.928-33.346-33.346-33.346c-18.416,0-33.34,14.928-33.34,33.346
					c0,18.416,14.924,33.346,33.34,33.346C662.698,294.372,677.626,279.442,677.626,261.027z">
					<animate begin="2.2s" attributeName="fill" from="#F2F6F7" to="#fff" dur="0.1s" fill="freeze"/>
					<animate begin="2.3s" attributeName="fill" from="#fff" to="#697FA5" dur="1s" fill="freeze"/>
				</path>
				<polygon fill="#F2F6F7" points="638.83,268.783 638.646,272.616 649.92,272.616 649.734,268.783"/>
				<path fill="#F2F6F7" d="M649.687,267.814h10.47v-19.75h-15.874v2.439h12.996v14.87h-7.71h-5.286v2.44H649.687z M644.283,248.064
					h-15.875v19.75h10.47h5.405v-2.44h-5.285h-7.711l0,0v-14.87h12.996V248.064z"/>
				<polygon fill="#F2F6F7" points="636.46,273.586 636.46,275.139 652.106,275.139 652.106,273.586 649.966,273.586 638.599,273.586 
					"/>
			</g>
			<g>
				<path fill="#F2F6F7" d="M599.054,399.422c0-18.433-14.931-33.373-33.369-33.373c-18.432,0-33.375,14.94-33.375,33.373
					s14.943,33.374,33.375,33.374C584.123,432.796,599.054,417.854,599.054,399.422z">
					<animate begin="0.1s" attributeName="fill" from="#F2F6F7" to="#fff" dur="0.1s" fill="freeze"/>
					<animate begin="0.2s" attributeName="fill" from="#fff" to="#697FA5" dur="1s" fill="freeze"/>
				</path>
				<path fill="#F2F6F7" d="M583.019,399.423c0.662-0.637,1.285-1.271,1.859-1.902c0.373,0.147,0.781,0.231,1.207,0.231
					c0.238,0,0.471-0.027,0.693-0.075c1.581-0.298,2.779-1.684,2.779-3.35c0-0.844-0.307-1.614-0.812-2.21
					c1.22-2.459,1.467-4.648,0.512-6.305c-1.052-1.816-3.361-2.776-6.685-2.776c-2.373,0-5.18,0.48-8.221,1.366
					c-1.828-7.396-4.997-12.197-8.668-12.197c-3.672,0-6.838,4.802-8.666,12.197c-1.33-0.384-2.607-0.693-3.831-0.918
					c0-0.001,0-0.004,0-0.006c0-1.883-1.527-3.412-3.412-3.412c-1.805,0-3.279,1.401-3.402,3.176c-2.034,0.368-3.49,1.236-4.261,2.571
					c-1.837,3.182,0.74,8.328,6.235,13.612c-5.495,5.285-8.072,10.429-6.235,13.61c1.049,1.818,3.36,2.777,6.681,2.777l0,0
					c2.377,0,5.183-0.48,8.224-1.366c0.28,1.13,0.59,2.202,0.933,3.206c-0.54,0.603-0.872,1.398-0.872,2.272
					c0,1.886,1.53,3.414,3.414,3.414c0.06,0,0.12-0.007,0.179-0.01c1.478,2.113,3.181,3.314,5.012,3.314
					c3.672,0,6.84-4.802,8.668-12.197c3.041,0.886,5.848,1.366,8.221,1.366c3.324,0,5.633-0.959,6.685-2.777
					C591.092,409.852,588.514,404.708,583.019,399.423z M548.792,414.103c-1.867,0-4.284-0.334-5.204-1.924
					c-1.319-2.284,0.864-6.725,5.991-11.611c1.761,1.581,3.773,3.159,5.997,4.692c0.214,2.685,0.575,5.21,1.061,7.523
					C553.724,413.64,551.046,414.103,548.792,414.103z M555.438,403.083c-1.706-1.22-3.246-2.451-4.612-3.66
					c1.366-1.209,2.905-2.439,4.612-3.66c-0.059,1.196-0.094,2.415-0.094,3.66C555.344,400.669,555.379,401.888,555.438,403.083z
					 M555.576,393.587c-2.224,1.532-4.236,3.112-5.997,4.692c-5.127-4.887-7.31-9.328-5.991-11.612
					c0.59-1.024,1.804-1.523,3.093-1.751c0.543,1.166,1.722,1.976,3.093,1.976c1.283,0,2.4-0.709,2.983-1.756
					c1.229,0.221,2.527,0.53,3.88,0.927C556.151,388.375,555.79,390.901,555.576,393.587z M573.977,392.38
					c-1.007-0.649-2.046-1.288-3.124-1.91c-1.067-0.617-2.137-1.197-3.207-1.745c1.87-0.844,3.705-1.569,5.47-2.157
					C573.478,388.354,573.772,390.297,573.977,392.38z M565.682,373.91c2.638,0,5.391,4.108,7.061,10.99
					c-2.272,0.748-4.645,1.708-7.061,2.856c-2.413-1.148-4.789-2.109-7.058-2.856C560.291,378.018,563.043,373.91,565.682,373.91z
					 M558.25,386.568c1.766,0.589,3.599,1.313,5.468,2.157c-1.066,0.548-2.137,1.128-3.204,1.745c-1.081,0.622-2.119,1.261-3.124,1.91
					C557.593,390.297,557.886,388.354,558.25,386.568z M557.391,406.466c1.005,0.648,2.043,1.287,3.124,1.912
					c1.066,0.616,2.137,1.196,3.204,1.744c-1.869,0.844-3.703,1.568-5.468,2.157C557.886,410.492,557.593,408.55,557.391,406.466z
					 M565.682,424.935c-1.124,0-2.27-0.755-3.346-2.145c0.941-0.609,1.567-1.663,1.567-2.868c0-1.886-1.53-3.414-3.413-3.414
					c-0.384,0-0.753,0.066-1.097,0.182c-0.276-0.857-0.536-1.771-0.769-2.746c2.267-0.747,4.645-1.709,7.058-2.854
					c2.415,1.146,4.788,2.107,7.061,2.854C571.074,420.826,568.32,424.935,565.682,424.935z M573.115,412.278
					c-1.764-0.588-3.599-1.313-5.47-2.157c1.07-0.548,2.14-1.128,3.207-1.744c1.078-0.625,2.117-1.264,3.124-1.912
					C573.772,408.55,573.478,410.492,573.115,412.278z M574.154,404.312c-1.303,0.872-2.685,1.737-4.156,2.584
					c-1.438,0.833-2.882,1.602-4.315,2.305c-1.431-0.703-2.875-1.471-4.316-2.305c-1.468-0.847-2.85-1.711-4.153-2.584
					c-0.104-1.565-0.161-3.193-0.161-4.889c0-1.694,0.058-3.325,0.161-4.89c1.303-0.871,2.685-1.737,4.153-2.584
					c1.441-0.833,2.885-1.601,4.316-2.303c1.431,0.702,2.877,1.471,4.315,2.303c1.467,0.847,2.852,1.713,4.156,2.584
					c0.101,1.564,0.16,3.195,0.16,4.89C574.314,401.119,574.255,402.747,574.154,404.312z M582.572,384.742
					c1.868,0,4.288,0.334,5.205,1.926c0.62,1.073,0.46,2.627-0.408,4.474c-0.381-0.146-0.792-0.23-1.225-0.23
					c-1.883,0-3.413,1.528-3.413,3.415c0,0.433,0.085,0.849,0.231,1.231c0.002,0.005,0.005,0.011,0.008,0.016
					c0.052,0.135,0.111,0.268,0.182,0.395c0.104,0.199,0.223,0.389,0.363,0.563c-0.533,0.575-1.11,1.158-1.727,1.749
					c-1.763-1.58-3.774-3.16-5.999-4.692c-0.215-2.685-0.574-5.212-1.059-7.523C577.641,385.207,580.319,384.742,582.572,384.742z
					 M575.93,395.763c1.705,1.221,3.243,2.451,4.612,3.66c-1.368,1.209-2.906,2.44-4.612,3.66c0.057-1.196,0.09-2.414,0.09-3.66
					C576.02,398.178,575.986,396.959,575.93,395.763z M587.777,412.179c-0.917,1.59-3.337,1.924-5.205,1.924
					c-2.253,0-4.931-0.466-7.842-1.321c0.485-2.312,0.844-4.838,1.059-7.523c2.225-1.533,4.236-3.111,5.999-4.692
					C586.914,405.454,589.096,409.895,587.777,412.179z"/>
				<circle fill="#F2F6F7" cx="565.682" cy="399.422" r="5.193"/>
			</g>
			<g>
				<path fill="#F2F6F7" d="M422.908,275.849c0-16.029-12.986-29.022-29.016-29.022c-16.031,0-29.021,12.993-29.021,29.022
					c0,16.027,12.991,29.019,29.021,29.019C409.921,304.869,422.908,291.876,422.908,275.849z">
					<animate begin="1.5s" attributeName="fill" from="#F2F6F7" to="#fff" dur="0.1s" fill="freeze"/>
					<animate begin="1.6s" attributeName="fill" from="#fff" to="#697FA5" dur="1s" fill="freeze"/>
				</path>
					<path fill="#F2F6F7" d="M393.89,258.098c-9.788,0-17.75,7.963-17.75,17.747c0,9.789,7.962,17.753,17.75,17.753
						c9.79,0,17.75-7.964,17.75-17.753C411.64,266.061,403.68,258.098,393.89,258.098z M409.232,281.136
						c-0.055,0.005-0.105,0.023-0.095,0.108c-0.006,0.058-0.002,0.097,0.016,0.12c-0.416,1.163-0.972,2.255-1.632,3.275
						c-0.108,0.051-0.212,0.114-0.282,0.217c-0.398-0.086-0.531,0.137-0.755,0.252c-0.159,0.017-0.168-0.143-0.324-0.126
						c-0.046-0.304,0.082-0.407,0.053-0.698c-0.018-0.143-0.058-0.275-0.162-0.315c0.135-0.315,0-0.664-0.057-0.951
						c0.073-0.149,0.315-0.097,0.436-0.189c0.197-0.086,0.137-0.475,0.27-0.634c0.112-0.127,0.106,0.028,0.215,0.063
						c0.125-0.024,0.004-0.339,0.108-0.379c0.167,0.012,0.309-0.149,0.433,0c0.199-0.039,0.149-0.377,0.218-0.572
						c0.161-0.085,0.342-0.148,0.54-0.188c0.114-0.017,0.016-0.281,0.114-0.315c0.258,0.115,0.741-0.023,0.967,0.137
						C409.276,281.003,409.252,281.072,409.232,281.136z M381.397,265.501c0.061,0.035,0.121,0.062,0.182,0.091
						c0.219-0.018,0.214-0.297,0.489-0.252c-0.006,0.155,0.027,0.263,0.109,0.316c0.119-0.109,0.185-0.614,0-0.699
						c-0.043-0.177,0.075-0.167,0.053-0.315c0.263-0.091,0.227,0.16,0.433,0.126c0.075,0.274,0.252,0.429,0.436,0.572
						c0.06,0.247-0.192,0.224-0.057,0.379c0.102-0.139,0.211-0.258,0.274-0.442c0.01-0.143-0.191-0.029-0.274-0.062
						c-0.332-0.361-0.008-1.008,0.274-1.209c0.172,0.011,0.241,0.144,0.212,0.383c0.064-0.206,0.523-0.33,0.493,0.064
						c0.183-0.017,0.309-0.104,0.541-0.064c0.017,0.144,0.189,0.116,0.161,0.316c0.164,0,0.328,0,0.488,0
						c-0.022,0.257,0.149,0.292,0.217,0.446c-0.016,0.126-0.149,0.12-0.164,0.251c0.161,0.063,0.302,0.155,0.49,0.19
						c0.058,0.057,0.012,0.235,0.159,0.188c0.005,0.149-0.092,0.19-0.052,0.385c-0.181-0.068-0.179,0.087-0.164,0.252
						c-0.168-0.052-0.23-0.241-0.434-0.252c0,0.189,0.141,0.212,0.164,0.378c0.034,0.377-0.172,0.372-0.053,0.698
						c-0.452-0.046-0.587-0.457-0.919-0.635c-0.23,0.011-0.457,0.022-0.544-0.127c0.061-0.457,0.65-0.297,0.703-0.76
						c0.033-0.27-0.293-0.122-0.215-0.442c-0.174,0.075-0.333-0.195-0.434,0c-0.088-0.132-0.271-0.149-0.489-0.126
						c0.069,0.091,0.208,0.091,0.273,0.188c-0.055,0.165-0.064,0.389-0.055,0.63c-0.241,0.12-0.446,0.172-0.812,0.259
						c-0.013,0.114,0.061,0.136,0.053,0.25c-0.285,0.023-0.368,0.288-0.486,0.51c-0.181,0.109-0.258,0.332-0.436,0.441
						c-0.002,0.102,0.008,0.217-0.106,0.189c-0.03,0.245,0.249,0.131,0.161,0.446c0.25,0.085,0.434,0.252,0.595,0.441
						c0.138-0.007,0.171-0.12,0.218,0.063c0.11-0.035,0.11-0.19,0.217-0.063c0.069,0.257,0.093,0.567,0.217,0.761
						c0.077-0.27,0.081-0.624,0.268-0.761c-0.034-0.087-0.166,0.057-0.218-0.127c0.059-0.177,0.236,0.017,0.327,0
						c-0.091-0.469,0.135-0.824,0.055-1.46c0.154,0.052,0.14-0.085,0.271-0.063c0.153-0.012,0.126,0.241,0.27,0.063
						c0.251,0.046,0.196,0.344,0.485,0.196c0,0.21,0,0.423,0,0.629c0.022,0.144,0.269,0.029,0.382,0.062
						c0.116,0.011,0.023-0.223,0.054-0.314c0.303,0.028,0.226,0.498,0.434,0.635c0.004,0.11-0.01,0.194-0.052,0.251
						c0.021,0.269,0.275,0.269,0.27,0.573c0.133-0.012,0.168-0.122,0.271,0c0.017,0.394,0.017,0.428,0,0.819
						c0.08,0.165,0.128,0.36,0.327,0.383c-0.11,0.12-0.029,0.297,0,0.44c-0.174,0.092-0.33-0.154-0.382,0
						c-0.079-0.011-0.048-0.154-0.052-0.251c-0.203-0.045-0.234,0.109-0.433,0.064c0.099-0.362,0.363-0.546,0.485-0.888
						c-0.184-0.114-0.493,0.4-0.757,0.194c-0.048,0.179,0.076,0.161,0.054,0.316c-0.119,0.075-0.294,0.081-0.324,0.252
						c-0.022,0.28,0.245,0.218,0.377,0.315c-0.149,0.19-0.377,0.276-0.594,0.385c0-0.126,0.147-0.079,0.106-0.252
						c-0.26,0.114-0.557,0.189-0.758,0.378c-0.057,0.234,0.133,0.177,0.109,0.383c-0.188,0.075-0.362,0.165-0.541,0.252
						c0.07,0.424-0.245,0.349-0.106,0.693c-0.067,0.057-0.15,0.087-0.276,0.068c0.051,0.184,0.051,0.196,0,0.378
						c-0.372,0.086-0.611,0.338-0.703,0.762c0.008,0.159,0.1,0.223,0.165,0.314c-0.039,0.206-0.064,0.31,0,0.635
						c-0.261-0.033-0.405-0.205-0.379-0.572c-0.038-0.268-0.393-0.178-0.65-0.188c-0.063,0.011-0.06,0.097-0.054,0.188
						c-0.286,0.017-0.356-0.223-0.649-0.188c-0.184,0.061-0.298,0.2-0.489,0.252c0.162,0.497-0.294,1.625,0.43,1.585
						c0.168-0.058,0.121-0.372,0.218-0.503c0.263,0.034,0.281,0.034,0.544,0c0.047,0.394-0.11,0.543-0.164,0.819
						c0.19,0.12,0.55,0.034,0.651,0.258c0.054,0.406-0.13,0.703,0,1.012c0.176-0.028,0.24-0.188,0.377-0.25
						c0.155,0.011,0.232,0.108,0.218,0.314c0.132-0.206,0.352-0.309,0.434-0.573c0.169,0.034,0.22-0.079,0.268-0.189
						c0.13,0.046,0.147,0.212,0.27,0.252c0.106-0.023,0.045-0.24,0.218-0.188c0.042,0.269,0.309,0.274,0.383,0.502
						c0.075-0.011,0.092-0.101,0.159-0.119c0.275,0.096,0.482,0.28,0.759,0.377c0.029,0.281,0.156,0.453,0.324,0.566
						c0.492-0.28,0.806,0.533,0.651,0.825c0.006,0.166,0.185,0.126,0.327,0.132c0.03,0.257,0.391,0.133,0.487,0.315
						c0.125,0,0.252,0,0.378,0c0.193,0.092,0.403,0.166,0.487,0.377c0.112-0.034,0.172-0.182,0.27-0.063
						c0.055,0.172,0.114,0.338,0.114,0.572c0,0.15-0.1,0.19-0.059,0.379c-0.173,0.075-0.018,0.218-0.159,0.383
						c-0.062,0.161-0.199,0.23-0.219,0.441c-0.069,0.007-0.075,0.08-0.166,0.064c0.012,0.159-0.026,0.263-0.105,0.314
						c0.177,0.452-0.087,0.802-0.109,1.208c-0.233,0.097-0.227,0.097-0.49,0.188c-0.099,0.115-0.167,0.268-0.27,0.383
						c0,0.144,0,0.293,0,0.441c-0.12,0.2-0.34,0.276-0.327,0.635c-0.167-0.011-0.183,0.161-0.214,0.315
						c-0.04,0.012-0.106,0-0.11,0.063c-0.145,0-0.289,0-0.432,0c0.025,0.224,0.143,0.339,0.108,0.631
						c-0.205,0.079-0.309,0.28-0.598,0.257c-0.082,0.218-0.07,0.551-0.431,0.446c0.366,0.063,0.143,0.688,0,0.882
						c-0.029,0.229,0.191,0.155,0.164,0.384c-0.008,0.161-0.081,0.246-0.222,0.253c-0.005,0.245-0.179,0.291-0.16,0.572
						c-0.06,0.235,0.203,0.097,0.16,0.316c0.075,0.131,0.178,0.217,0.328,0.252c-0.038,0.228-0.396,0.087-0.597,0.126
						c-0.097-0.063-0.184-0.143-0.309-0.177c-0.005-0.006-0.011-0.011-0.016-0.011c0.011-0.121-0.061-0.144-0.052-0.253
						c-0.18-0.132-0.166-0.481-0.327-0.635c0.13-0.361-0.057-0.585-0.108-1.013c0.112-0.196-0.049-0.35,0.055-0.505
						c0.065-0.206-0.175-0.052-0.106-0.257c0.086-0.149,0.315-0.132,0.269-0.441c-0.052-0.173-0.188,0.114-0.269-0.063
						c0.111-0.419-0.024-1.128,0.269-1.333c0.069-0.395-0.149-0.729,0-1.015c-0.008-0.114-0.034-0.21-0.109-0.252
						c0.057-0.08,0.052-0.235,0.109-0.315c0-0.406-0.172-0.606-0.269-0.888c-0.321-0.052-0.395-0.389-0.601-0.572
						c-0.047-0.177,0.076-0.165,0.057-0.315c-0.287-0.131-0.528-0.315-0.487-0.825c0.095-0.039,0.223-0.034,0.27-0.125
						c-0.109-0.109-0.284-0.132-0.379-0.258c0.218-0.2-0.105-0.441,0-0.881c0.043-0.246,0.24-0.309,0.218-0.636
						c-0.04-0.172,0.108-0.125,0.108-0.257c-0.052-0.189-0.142-0.338-0.165-0.566c-0.11,0.017-0.105,0.165-0.161,0.251
						c-0.275-0.08-0.337-0.406-0.649-0.441c0-0.063,0-0.132,0-0.188c-0.112-0.085-0.221-0.167-0.274-0.321
						c-0.174,0.019-0.228-0.115-0.434-0.062c-0.082-0.133-0.155-0.282-0.217-0.441c-0.539,0.137-0.799-0.19-1.247-0.321
						c-0.111-0.27-0.254-0.504-0.214-0.951c-0.124-0.193-0.269-0.365-0.435-0.502c-0.002-0.104,0.005-0.224-0.106-0.19
						c0,0.356,0.111,0.293,0.106,0.567c-0.165,0.047-0.161-0.109-0.323-0.062c-0.105-0.241-0.159-0.539-0.382-0.636
						c0.012-0.075-0.009-0.178,0.055-0.19c-0.187-0.205-0.175-0.641-0.324-0.887c-0.052-0.04-0.091-0.086-0.134-0.132
						C378.437,270.143,379.655,267.601,381.397,265.501z M383.409,263.467c0.903-0.767,1.89-1.431,2.946-1.985
						c0.024,0.073,0.155,0.016,0.155,0.12c-0.084,0.378-0.424,0.189-0.648,0.315c-0.119,0.011,0.07,0.159,0,0.314
						c-0.205-0.005-0.31,0.103-0.379,0.258c-0.344-0.067-0.37,0.24-0.65,0.253c0.057,0.406-0.272,0.36-0.272,0.698
						c-0.127,0-0.252,0-0.38,0c-0.039,0.172,0.258-0.047,0.218,0.126c0.015,0.165-0.078,0.206-0.218,0.19
						c-0.126,0.469-0.671,0.12-1.082,0.188c0-0.073-0.034-0.113-0.081-0.131c0.069-0.064,0.138-0.12,0.206-0.183
						c0.15,0.063,0.321,0.114,0.525,0.063C383.666,263.531,383.55,263.48,383.409,263.467z M408.265,268.322
						c-0.081,0.097-0.176,0.167-0.212,0.309c0.085,0.298,0.257,0.125,0.4,0.057c0.091,0.19,0.177,0.385,0.268,0.578
						c0.014,0.304,0.087,0.664,0.035,1.013c-0.195,0.212-0.3,0.526-0.427,0.825c-0.161,0.068-0.323,0.132-0.437,0.252
						c-0.176,0.486,0.165,1.185-0.161,1.459c-0.171-0.079-0.324-0.17-0.274-0.508c-0.075-0.184-0.264-0.241-0.321-0.441
						c-0.355,0,0.045,0.297-0.112,0.377c0.007,0.114-0.052,0.149-0.16,0.127c0.045,0.182-0.073,0.166-0.055,0.314
						c0.004,0.189,0.124,0.241,0.215,0.321c0,0.194,0.049,0.325,0.166,0.382c-0.174,0.149-0.076,0.625-0.166,0.888
						c-0.069,0-0.075,0.082-0.16,0.064c-0.087,0.406-0.315,0.642-0.487,0.946c-0.286-0.012-0.557-0.012-0.599,0.257
						c0.096-0.007,0.167,0.016,0.218,0.063c-0.066,0.135-0.066,0.342-0.218,0.378c0.059,0.766-0.069,1.316-0.594,1.396
						c0.004-0.108-0.013-0.2-0.054-0.258c-0.229-0.04-0.316-0.257-0.434-0.439c-0.181,0.022-0.084,0.365-0.105,0.571
						c0.083,0.196,0.227,0.322,0.379,0.441c0.014,0.384,0.28,0.47,0.267,0.888c-0.307-0.212-0.551-0.493-0.812-0.756
						c0.058-0.286-0.09-0.32-0.108-0.509c-0.046-0.201,0.09-0.201,0.108-0.314c-0.028-0.202-0.129-0.316-0.268-0.384
						c0.081-0.196-0.02-0.247,0.054-0.378c-0.112-0.144-0.485,0.01-0.543-0.195c-0.046-0.178,0.076-0.161,0.054-0.315
						c-0.203-0.081-0.203-0.395-0.326-0.566c-0.201,0.034-0.354,0.131-0.489,0.252c-0.073,0.184-0.285,0.211-0.268,0.504
						c-0.169-0.046-0.069,0.223-0.272,0.126c0,0.085,0,0.171,0,0.258c-0.071,0-0.144,0-0.218,0c0.049,0.545-0.144,0.802-0.218,1.202
						c-0.143,0-0.306,0.023-0.379-0.063c0-0.126,0-0.253,0-0.379c-0.04-0.201-0.158-0.325-0.27-0.446
						c-0.089-0.293-0.16-0.614-0.324-0.826c0.043-0.223-0.081-0.24-0.052-0.446c-0.079-0.098-0.272-0.062-0.327-0.183
						c0.006-0.081,0.017-0.155,0.107-0.132c-0.235-0.102-0.326-0.378-0.705-0.315c-0.107,0.017-0.107-0.086-0.16-0.126
						c-0.242-0.005-0.282,0.218-0.541,0.19c0.046-0.202-0.088-0.195-0.111-0.315c-0.549,0.069-0.457-0.607-0.761-0.824
						c-0.082,0.034-0.131,0.092-0.213,0.126c0.115,0.057,0.093,0.268,0.27,0.251c-0.03,0.325,0.173,0.395,0.219,0.635
						c0.085-0.11,0.227-0.159,0.431-0.131c-0.047,0.395,0.232,0.412,0.329,0.641c-0.007,0.223-0.202,0.229-0.164,0.503
						c-0.212,0.073-0.311,0.275-0.544,0.316c-0.098,0.011-0.034,0.216-0.107,0.258c-0.438,0.074-0.704,0.36-1.084,0.503
						c-0.27-0.224-0.253-0.623-0.38-0.888c-0.219-0.268-0.371-0.625-0.593-0.888c0.054-0.125-0.087-0.457-0.218-0.566
						c-0.078,0.012,0.048,0.315,0,0.505c0.062,0.177,0.229,0.234,0.323,0.378c-0.105,0.486,0.267,0.412,0.221,0.83
						c0.188,0.234,0.458,0.388,0.486,0.818c0.161,0,0.325,0,0.489,0c0.211,0.017,0.197-0.223,0.431-0.189
						c0.17,0.137,0.093,0.464,0.053,0.699c-0.264,0.428-0.501,0.893-0.757,1.327c-0.141,0.092-0.249,0.218-0.382,0.321
						c-0.06,0.308-0.153,0.578-0.272,0.824c0.084,0.51,0.084,1.254,0,1.769c-0.418,0.252-0.64,0.727-0.65,1.46
						c-0.185-0.052-0.226,0.07-0.321,0.127c0.042,0.262-0.083,0.325-0.056,0.571c-0.241,0.162-0.404,0.413-0.486,0.762
						c-0.462,0.115-0.728,0.463-1.248,0.504c-0.248-0.32-0.244-0.939-0.489-1.266c0-0.188,0-0.378,0-0.571
						c-0.083-0.425-0.256-0.756-0.485-1.013c0.113-0.311,0.084-0.791,0.219-1.078c-0.067-0.302-0.075-0.674-0.219-0.886
						c0.091-0.441-0.171-0.688-0.326-1.013c-0.006-0.431,0.167-0.654,0.107-1.14c-0.185-0.052-0.226,0.068-0.325,0.125
						c-0.191-0.028-0.286-0.172-0.542-0.125c-0.076-0.041-0.007-0.246-0.107-0.257c-0.221-0.024-0.215,0.216-0.324,0.32
						c-0.284-0.017-0.544,0-0.761,0.062c-0.342-0.068-0.508-0.338-0.756-0.509c-0.087-0.361-0.248-0.642-0.436-0.888
						c0-0.548,0-1.098,0-1.642c0.139-0.223,0.262-0.458,0.27-0.825c0.117-0.172,0.41-0.342,0.492-0.51
						c0.122-0.262,0.066-0.652,0.214-0.948c0.136-0.116,0.336-0.161,0.382-0.378c0.161-0.007,0.273,0.051,0.327,0.189
						c0.205-0.247,0.583-0.286,1.023-0.253c0.224-0.12,0.485-0.193,0.815-0.193c0.071,0.085,0.071,0.239-0.054,0.257
						c0.046,0.108,0.149,0.16,0.108,0.378c0.229,0.32,0.727,0.332,0.975,0.634c0.144-0.068,0.113-0.332,0.272-0.383
						c0.522,0.023,1.013,0.085,1.409,0.258c0.218-0.04,0.113-0.463,0.272-0.573c0-0.125,0-0.251,0-0.378
						c-0.266-0.097-0.054,0.361-0.272,0.315c-0.249,0.011,0.052-0.228-0.107-0.315c-0.152,0.11-0.509,0.16-0.704,0
						c-0.093-0.075-0.044-0.28-0.166-0.257c0.047-0.271-0.006-0.257,0.052-0.504c-0.052,0-0.106,0-0.161,0
						c-0.149,0.229,0.041,0.538-0.052,0.761c0.182-0.028,0.309,0.019,0.268,0.253c-0.142-0.138-0.306-0.011-0.323-0.189
						c0.031-0.007,0.063-0.011,0.054-0.064c-0.143,0-0.309,0.024-0.381-0.068c0-0.125,0-0.252,0-0.378
						c0.024-0.097-0.065-0.171-0.104-0.251c-0.036-0.057-0.075-0.205-0.113-0.258c-0.177-0.271-0.486-0.401-0.649-0.693
						c-0.174,0.492,0.503,0.549,0.649,0.888c-0.089,0.212-0.171-0.202-0.27,0c0.007,0.097,0.137,0.051,0.111,0.19
						c-0.125,0.108-0.301,0.159-0.274,0.441c-0.078-0.115-0.279-0.093-0.267-0.316c0.131,0.012,0.26,0.012,0.267-0.125
						c-0.055-0.253-0.221-0.373-0.486-0.384c-0.054-0.081-0.051-0.235-0.163-0.252c-0.032,0.338,0.179,0.664-0.165,0.699
						c-0.075-0.309-0.152-0.704,0-0.95c-0.217,0.016-0.313,0.222-0.542,0.063c-0.286,0.018-0.248,0.429-0.489,0.508
						c0.041,0.441-0.144,0.625-0.267,0.888c-0.207-0.125-0.229-0.125-0.433,0c-0.161-0.045-0.236-0.188-0.49-0.13
						c0.057-0.294-0.071-0.378-0.107-0.567c0.227-0.013,0.051-0.487,0.107-0.699c0.333,0.057,0.557-0.149,0.812,0
						c0.113-0.017,0.111-0.172,0.164-0.252c0.031-0.293-0.241-0.223-0.213-0.51c-0.149,0-0.313,0.024-0.384-0.063
						c-0.007-0.2,0.144-0.217,0.277-0.252c0.141-0.086,0.187-0.281,0.426-0.257c0.043-0.012,0.065-0.052,0.058-0.127
						c-0.327-0.023-0.599,0.017-0.87,0.068c-0.016-0.194,0.179-0.135,0.276-0.194c-0.075-0.149-0.155-0.286-0.113-0.566
						c0.091,0.091,0.296-0.035,0.274-0.258c-0.075-0.029-0.138-0.035-0.274-0.126c-0.03-0.331,0.096-0.481,0.058-0.824
						c0.13-0.058,0.231-0.149,0.433-0.126c0.012,0.159-0.087,0.2-0.16,0.257c0.049,0.087,0.141,0.126,0.213,0.19
						c-0.195,0.326,0.227,0.384,0.164,0.755c0.051,0.085,0.142,0.132,0.214,0.195c-0.202,0.184-0.167,0.361-0.214,0.629
						c0.258,0.052,0.069-0.423,0.375-0.314c-0.043-0.219,0.064-0.269,0.112-0.378c0.177-0.03,0.292-0.122,0.486-0.132
						c-0.006-0.097,0.007-0.217-0.109-0.189c0-0.182,0.101-0.258,0.217-0.441c-0.09-0.125-0.375-0.022-0.435-0.188
						c0.018-0.298,0-0.549-0.107-0.697c0.111-0.299,0.149-0.677,0.491-0.699c0-0.087,0-0.171,0-0.252
						c0.061,0.011,0.154-0.011,0.161,0.063c0.154-0.178,0.264-0.407,0.327-0.698c0.209-0.218,0.455-0.396,0.65-0.637
						c0.094,0.03,0.141-0.091,0.159,0c0.152-0.12,0.286-0.258,0.436-0.377c0.162,0,0.324,0,0.49,0
						c0.113,0.097,0.196,0.235,0.268,0.377c0.2,0.018,0.35,0.104,0.436,0.258c0.344,0.029,0.792,0.235,0.649,0.63
						c0.324,0.046,0.336-0.281,0.324-0.63c0.069,0.069,0.19,0.069,0.325,0.063c0,0.127,0,0.253,0,0.377
						c0.274-0.078,0.406-0.325,0.65-0.44c0.345,0.029,0.587-0.063,0.815,0c0.061-0.286-0.302-0.068-0.22-0.383
						c0.385,0.012,0.355,0.16,0.707,0.126c0.184-0.228,0.393-0.43,0.543-0.693c0.25-0.084,0.241,0.138,0.324,0.253
						c0.235,0.085,0.117-0.246,0.329-0.189c-0.01,0.156-0.012,0.304,0.051,0.378c0.14-0.007,0.108-0.212,0.113-0.378
						c0.288-0.046,0.342,0.184,0.537,0.252c0.049-0.286-0.27-0.148-0.27-0.377c-0.048-0.229,0.213-0.093,0.327-0.127
						c0.137-0.011,0.087-0.241,0.161-0.32c0.183,0.022,0.231-0.11,0.323-0.19c0.317,0.029,0.51-0.081,0.651-0.252
						c0.173-0.057,0.114,0.167,0.218,0.189c0.205,0.029,0.111-0.292,0.379-0.189c-0.012-0.229,0.04-0.384,0.164-0.447
						c0.212-0.034,0.187,0.202,0.321,0.252c0.239,0.007,0.49,0.024,0.653-0.063c0.076,0.189,0.249,0.258,0.326,0.446
						c0,0.19-0.138,0.211-0.162,0.378c0.304-0.074,0.407,0.097,0.54,0.132c0.07,0.011,0.149-0.03,0.215,0
						c0.129,0.039,0.248,0.114,0.396,0.137C406.457,265.455,407.475,266.817,408.265,268.322z M409.444,271.225
						c-0.011,0.023-0.018,0.051-0.033,0.069c-0.128,0.022-0.063-0.184-0.16-0.189c-0.197-0.04-0.18,0.297-0.33,0.126
						c-0.005-0.258,0.093-0.396,0.053-0.699c0.105,0.011,0.191,0.045,0.277,0.08C409.318,270.812,409.385,271.019,409.444,271.225z
						 M407.513,276.933c0.087-0.149,0.142-0.298,0.326-0.189c0-0.165-0.024-0.361,0.053-0.44c0.154,0.011,0.227,0.108,0.22,0.315
						c0.095,0.12,0.319,0.091,0.265,0.384c-0.258-0.036-0.407,0.062-0.485,0.25c-0.171-0.045-0.071-0.172-0.053-0.32
						C407.666,276.905,407.623,277.07,407.513,276.933z M407.675,279.532c-0.2,0.132-0.206-0.067-0.325-0.189
						c-0.094,0.057-0.122,0.2-0.111,0.384c-0.414-0.241-0.223-0.945,0.058-1.207c0.094,0.188,0.421,0.096,0.434,0.383
						c-0.076,0.079-0.2,0.079-0.274,0C407.469,279.19,407.648,279.27,407.675,279.532z M406.972,278.84
						c-0.181,0.08-0.095,0.475-0.272,0.566c0.001,0.064,0.066,0.052,0.108,0.064c-0.002,0.119-0.181,0.045-0.162,0.189
						c-0.351,0.097-0.298-0.282-0.651-0.189c0.022-0.339-0.218-0.378-0.272-0.63c0.099-0.613,0.817-0.481,0.871-1.146
						c0.247-0.016,0.353,0.138,0.487,0.252c0.025,0.201-0.071,0.264-0.166,0.321C407.016,278.418,406.847,278.634,406.972,278.84z
						 M406.646,280.357c-0.591,0.079-0.835-0.247-1.359-0.253c-0.042-0.217,0.066-0.268,0.112-0.377
						c0.33,0.12,0.639,0.264,1.085,0.253C406.453,280.203,406.672,280.133,406.646,280.357z M407.023,275.095
						c-0.025-0.16-0.075-0.292-0.16-0.378c0.055-0.148,0.243-0.325,0.375-0.194C407.228,274.792,407.247,275.084,407.023,275.095z
						 M407.62,275.606c0.035,0.314-0.152,0.371-0.218,0.572c-0.13-0.104-0.238-0.23-0.321-0.384
						C407.073,275.479,407.475,275.376,407.62,275.606z M408.921,278.644c-0.016,0.264-0.413,0.328-0.592,0.196
						C408.311,278.543,408.741,278.52,408.921,278.644z M408.705,273.069c-0.043-0.035-0.084-0.069-0.165-0.063
						c-0.153,0.092-0.288,0.211-0.325,0.446c-0.087-0.108-0.223-0.159-0.213-0.383c0.111,0,0.213,0,0.327,0
						c0.024-0.178-0.3,0.051-0.276-0.125c0.005-0.333,0.355-0.264,0.543-0.378c0.196-0.206,0.291-0.286,0.486-0.383
						c-0.004-0.075,0.011-0.115,0.054-0.127c-0.083-0.321,0.014-0.462-0.054-0.761c0.075,0,0.146,0,0.22,0
						c-0.012,0.481,0.095,0.818,0.108,1.271C409.235,272.8,408.881,272.828,408.705,273.069z M408.93,269.76
						c0.084,0.206,0.164,0.418,0.247,0.63C408.998,270.286,408.947,270.045,408.93,269.76z M403.991,277.884
						c0.14-0.07,0.278,0.216,0.272-0.058c0.107,0,0.07,0.166,0.215,0.12c-0.037,0.196,0.135,0.299,0.215,0.448
						c0.077,0.132,0.267,0.315,0.434,0.446c-0.007,0.298,0.235,0.578,0.107,0.819c-0.25,0.137-0.327-0.282-0.595-0.316
						C404.75,278.473,403.991,278.623,403.991,277.884z M402.147,277.121c0.112,0.126,0.228,0.247,0.272,0.447
						c-0.129,0.016-0.101,0.225-0.272,0.189C401.943,277.575,402.228,277.501,402.147,277.121z M398.137,282.258
						c-0.046,0.027-0.097,0.057-0.108,0.13c0,0.104,0,0.206,0,0.31c-0.144,0.291-0.098,0.418-0.217,0.703
						c-0.205-0.052-0.26,0.075-0.431,0.063c-0.205-0.223-0.048-0.475-0.166-0.766c0.079-0.098,0.114-0.247,0.166-0.378
						c0.027-0.201-0.095-0.223-0.053-0.441c0.128-0.184,0.255-0.377,0.484-0.446c0.039-0.253,0.123-0.446,0.217-0.629
						c0.226-0.033,0.017,0.441,0.217,0.441C398.241,281.714,398.04,281.983,398.137,282.258z M385.913,288.023
						c-0.007-0.206,0.255-0.247,0.219,0C386.058,288.023,385.988,288.023,385.913,288.023z M387.975,267.366
						c-0.126,0.046-0.162,0.189-0.218,0.316c-0.178,0.017-0.114-0.247-0.265-0.252c-0.132,0-0.258,0-0.386,0
						c-0.288-0.429,0.01-1.151-0.38-1.46c-0.063-0.183,0.262-0.234,0.11-0.314c0.106-0.133,0.255-0.206,0.377-0.316
						c-0.073-0.252-0.439-0.16-0.487-0.445c0.167,0,0.363,0.034,0.328-0.19c-0.132-0.229-0.161,0.184-0.378,0.063
						c-0.033-0.206,0.034-0.292,0.051-0.44c-0.067-0.15-0.147-0.293-0.108-0.573c-0.314,0.057-0.486-0.063-0.651-0.19
						c-0.166-0.046-0.1,0.172-0.27,0.126c-0.177-0.085-0.386-0.143-0.434-0.384c0.147-0.12,0.473-0.034,0.703-0.063
						c-0.009-0.344-0.244-0.102-0.376-0.063c0-0.166-0.276-0.166-0.272,0c-0.099-0.023-0.098-0.178-0.27-0.126
						c0.069-0.257,0.245-0.27,0.377-0.188c0.149-0.167,0.439-0.167,0.597-0.315c0.021-0.2-0.271-0.023-0.219-0.251
						c0.562-0.07,0.82-0.489,1.358-0.574c0.362,0.102,0.584-0.011,0.974,0.063c0.094-0.035-0.058-0.304-0.056-0.446
						c0.1-0.179,0.404-0.122,0.649-0.122c0.23-0.159,0.76,0.035,0.981-0.132c0.093,0.035,0.224,0.035,0.268,0.132
						c0.099-0.171,0.313-0.079,0.489,0c0.297-0.033,0.536,0,0.652,0.184c-0.067,0.285-0.509,0.126-0.543,0.446
						c0.108,0.102,0.362-0.166,0.595-0.126c0.172-0.035,0.143,0.172,0.271,0.19c0.038,0.126,0.325-0.039,0.273,0.189
						c0.03,0.252-0.297,0.074-0.432,0.125c-0.19-0.035-0.135,0.223-0.327,0.19c-0.042,0.193,0.096,0.188,0.054,0.382
						c-0.206-0.068-0.158,0.155-0.325,0.127c0.142,0.131,0.418,0.102,0.435,0.377c-0.197-0.017-0.355,0.011-0.491,0.07
						c0.084,0.343,0.234,0.978-0.211,1.012c0.043,0.109,0.149,0.161,0.108,0.379c-0.083-0.035-0.142-0.093-0.218-0.126
						c-0.153,0.097,0.293,0.223,0.111,0.378c-0.29,0.017-0.4-0.166-0.6-0.252c-0.147-0.046-0.108,0.126-0.214,0.126
						c0.148,0.022,0.374,0.275,0.486,0.126c0.151,0.223-0.303,0.28-0.328,0.509c-0.274,0.057-0.389,0.304-0.651,0.378
						c-0.097,0.073-0.179,0.166-0.27,0.257c-0.226-0.155-0.226,0.125-0.427,0c-0.146,0-0.081,0.246-0.219,0.252
						C388.247,266.88,387.907,266.886,387.975,267.366z M393.966,262.489c0.072-0.01,0.205,0.211,0.215,0.063
						c0.149,0.247,0.486,0.281,0.437,0.756c-0.373,0.098-0.455-0.143-0.599-0.315c-0.067,0.218-0.113,0.459-0.16,0.699
						c-0.155,0.011-0.297,0.006-0.272-0.19c-0.195,0.042-0.288-0.044-0.379-0.124c0.006-0.292,0.258-0.292,0.271-0.574
						c-0.256-0.029-0.265,0.241-0.49,0.252c-0.1-0.12-0.002-0.16,0-0.314c-0.034-0.165-0.243-0.138-0.268-0.32
						c0.016-0.595,0.533-0.298,0.65,0c0.141-0.052-0.105-0.275,0.057-0.378c0.226-0.058,0.397,0.149,0.266,0.314
						C393.741,262.454,393.831,262.495,393.966,262.489z M393.913,261.917c0.438,0.011,0.912,0.034,1.412,0.126
						c0.061,0.291-0.193,0.199-0.223,0.378c-0.513,0.079-0.794-0.12-1.136-0.253C393.923,262.111,393.911,262.026,393.913,261.917z
						 M391.097,269.142c-0.111,0.087-0.313,0.057-0.436,0.125c-0.084-0.091-0.046-0.326-0.054-0.51
						c0.095-0.108,0.213,0.098,0.218-0.188c0.088,0,0.178,0,0.272,0C391.078,268.862,391.038,268.878,391.097,269.142z
						 M390.684,266.731c-0.168-0.034-0.108-0.337-0.378-0.252c-0.049-0.245,0.129-0.223,0.161-0.382
						c-0.131-0.023-0.115,0.12-0.273,0.068c0.002-0.236,0.283-0.138,0.222-0.446c0.186-0.013,0.173,0.217,0.322,0.251
						c0.221-0.097,0.303,0.023,0.544-0.062c-0.014,0.274,0.162,0.314,0.106,0.635c-0.07,0.085-0.262,0.028-0.27,0.188
						C391.061,266.668,390.731,266.6,390.684,266.731z M397.977,263.755c0.321-0.156,0.621-0.328,1.028-0.377
						c0.054-0.007,0.043-0.081,0.054-0.133c0.089,0,0.181,0,0.274,0c-0.03,0.331-0.2,0.486-0.542,0.447
						c-0.292,0.148-0.431,0.469-0.815,0.509c-0.064,0.447,0.194,0.532,0.268,0.82c-0.091,0-0.137,0.051-0.161,0.131
						c-0.2-0.11-0.367-0.252-0.542-0.383c0.01-0.196,0.149-0.247,0.217-0.379C397.717,264.041,398,264.08,397.977,263.755z
						 M397.977,262.358c-0.017-0.327,0.483-0.458,0.486-0.057C398.26,262.271,398.159,262.559,397.977,262.358z M401.55,262.301
						c0.302-0.161,0.793-0.058,0.923,0.188c-0.099,0.412-0.548,0.104-0.975,0.19C401.53,262.563,401.436,262.306,401.55,262.301z
						 M383.694,266.731c-0.063,0.401-0.455-0.303-0.434,0.189c-0.2,0-0.374-0.028-0.378-0.252c0.244,0.074,0.195-0.194,0.27-0.315
						c0.164-0.046,0.161,0.109,0.325,0.063C383.618,266.57,383.479,266.663,383.694,266.731z M384.615,275.668
						c0.048,0.27-0.131,0.27-0.325,0.252c0-0.08,0-0.165,0-0.252C384.399,275.668,384.506,275.668,384.615,275.668z M383.098,275.479
						c-0.239-0.038-0.261-0.331-0.487-0.383c-0.268-0.08-0.268,0.154-0.486,0.132c-0.013-0.16,0.083-0.2,0.105-0.32
						c0.272,0,0.542,0,0.811,0c0.028,0.183,0.209,0.183,0.325,0.257c0,0.121,0.151,0.074,0.11,0.252
						c0.329,0.017,0.626-0.046,0.705,0.377c-0.149,0.011-0.371-0.052-0.379,0.126c-0.117-0.052-0.184-0.161-0.377-0.126
						c-0.029-0.159-0.095-0.245,0.102-0.251C383.491,275.399,383.227,275.518,383.098,275.479z M383.207,275.857
						c-0.194,0.086-0.2-0.005-0.38,0.063c0-0.08,0-0.165,0-0.252C383.002,275.674,383.242,275.606,383.207,275.857z M382.881,274.781
						c0-0.087,0-0.172,0-0.258c0.137,0.011,0.21,0.097,0.217,0.258C383.024,274.781,382.952,274.781,382.881,274.781z M383.26,274.523
						c0.056,0,0.107,0,0.166,0c0.045,0.075,0.067,0.171,0.051,0.32C383.275,274.89,383.239,274.746,383.26,274.523z M383.527,275.095
						c0-0.103,0-0.211,0-0.314c0.143,0.01,0.212,0.091,0.221,0.251c0.079,0.011,0.2-0.022,0.216,0.063
						c0.058,0.223-0.332,0.172-0.216-0.063C383.677,275.055,383.645,275.123,383.527,275.095z M409.518,280.22
						c0-0.126,0-0.246,0-0.373c-0.201-0.268-0.52-0.406-0.762-0.629c-0.13-0.087-0.259,0.143-0.268,0
						c-0.046-0.206,0.178-0.087,0.161-0.257c0.168-0.046,0.103,0.177,0.272,0.131c0.132,0.01,0.172-0.097,0.215-0.19
						c0.125,0,0.254,0,0.381,0c0.108,0.034,0.195,0.103,0.278,0.178C409.718,279.465,409.623,279.841,409.518,280.22z"/>
					<path fill="#F2F6F7" d="M384.02,263.692c-0.016-0.018-0.086,0.029-0.055,0.063C383.98,263.771,384.046,263.725,384.02,263.692z"
						/>
					<path fill="#F2F6F7" d="M406.808,272.055c-0.081-0.01-0.048-0.155-0.055-0.251c-0.205-0.029-0.247,0.132-0.323,0.251
						C406.571,272.004,406.728,272.25,406.808,272.055z"/>
					<path fill="#F2F6F7" d="M403.666,264.264c0.014,0.017,0.081-0.034,0.054-0.063C403.707,264.183,403.637,264.229,403.666,264.264z
						"/>
					<path fill="#F2F6F7" d="M403.83,264.201c0.012,0.011,0.078-0.033,0.054-0.062C403.864,264.115,403.798,264.167,403.83,264.201z"
						/>
					<path fill="#F2F6F7" d="M400.087,265.215c-0.016,0.166,0.117,0.159,0.221,0.187C400.355,265.197,400.129,265.311,400.087,265.215
						z"/>
					<path fill="#F2F6F7" d="M378.928,274.276c0-0.023,0-0.045,0-0.067C378.864,274.225,378.897,274.276,378.928,274.276z"/>
					<path fill="#F2F6F7" d="M393.154,271.294c0-0.04,0-0.081,0-0.126C393.086,271.185,393.1,271.294,393.154,271.294z"/>
					<path fill="#F2F6F7" d="M394.563,266.165c-0.179,0.424-0.563,0.607-0.597,1.202c0.045,0.121,0.089,0.229,0.111,0.379
						c-0.123,0.263-0.205,0.567-0.327,0.824c-0.484,0.262-0.379-0.602-0.65-0.63c0.012,0.281,0.089,0.481,0.217,0.63
						c-0.128,0.022-0.128,0.17,0,0.188c0.007-0.153,0.181-0.011,0.162,0.064c0.141-0.005,0.174-0.155,0.324-0.189
						c0.126-0.028,0.259,0.023,0.433,0c0.173-0.161,0.099-0.601,0.217-0.824c0.249-0.115,0.095,0.229,0.219,0.258
						c0-0.212,0-0.424,0-0.635c-0.188-0.035-0.333-0.12-0.436-0.252c-0.048-0.545,0.392-0.515,0.436-0.95
						C394.657,266.176,394.628,266.154,394.563,266.165z"/>
					<path fill="#F2F6F7" d="M385.805,269.016c-0.01-0.023-0.08,0.029-0.052,0.063C385.766,269.095,385.836,269.044,385.805,269.016z"
						/>
					<path fill="#F2F6F7" d="M405.399,275.416c-0.154,0.184,0.177,0.159,0.111,0.44c0.07,0.063,0.197,0.063,0.267,0.127
						c-0.07-0.391-0.101-0.201,0-0.441C405.541,275.622,405.559,275.239,405.399,275.416z"/>
					<path fill="#F2F6F7" d="M395.807,265.908c-0.011,0.114,0.007,0.646,0.327,0.571c0.149-0.062-0.082-0.171,0.051-0.25
						c0.131-0.064,0.347-0.024,0.329-0.259C396.337,265.878,396.06,265.912,395.807,265.908z"/>
					<path fill="#F2F6F7" d="M395.266,265.151c0.016,0.018,0.082-0.035,0.059-0.069C395.307,265.064,395.238,265.116,395.266,265.151z
						"/>
					<path fill="#F2F6F7" d="M396.244,274.276c0.013,0.018,0.081-0.034,0.049-0.067C396.283,274.191,396.213,274.242,396.244,274.276z
						"/>
					<path fill="#F2F6F7" d="M396.294,266.417c0.017,0.017,0.088-0.03,0.058-0.063C396.333,266.337,396.27,266.383,396.294,266.417z"
						/>
					<path fill="#F2F6F7" d="M400.087,265.215C400.142,264.95,399.93,265.197,400.087,265.215L400.087,265.215z"/>
					<path fill="#F2F6F7" d="M394.834,267.619c0.161,0,0.331,0.006,0.327-0.189C395.024,267.465,394.834,267.43,394.834,267.619z"/>
					<path fill="#F2F6F7" d="M403.991,264.069c0.014,0.017,0.083-0.028,0.057-0.062C404.031,263.989,403.964,264.041,403.991,264.069z
						"/>
					<path fill="#F2F6F7" d="M390.306,261.917c0.091-0.081,0.213-0.131,0.218-0.315c-0.233,0.034-0.739-0.074-0.922,0.189
						C389.894,261.762,390.14,261.791,390.306,261.917z"/>
					<path fill="#F2F6F7" d="M390.14,264.642c0.021-0.166,0.137-0.223,0.165-0.378C390.14,264.223,389.997,264.527,390.14,264.642z"/>
					<path fill="#F2F6F7" d="M378.869,274.019c-0.093-0.057-0.088-0.233-0.214-0.251C378.61,273.956,378.802,274.178,378.869,274.019z
						"/>
					<path fill="#F2F6F7" d="M378.655,273.642c0-0.04-0.043-0.075-0.054,0C378.601,273.676,378.644,273.71,378.655,273.642z"/>
			</g>
		</g>
	</g>

	<g id="blue">
		<g id="paths">
			<path fill="none" stroke="#5EB2D3" stroke-width="2" stroke-miterlimit="10" style="stroke-dasharray:400,400;stroke-dashoffset:400" d="M735.14,398.101
				c0-59.671-15.321-115.764-42.246-164.559c-24.654-44.679-59.033-83.239-100.286-112.826">
				<animate begin="0s" attributeName="stroke-dashoffset" from="400" to="0" dur="2s" fill="freeze"/>
			</path>
			<line fill="none" stroke="#5EB2D3" stroke-width="2" stroke-miterlimit="10" style="stroke-dasharray:400,400;stroke-dashoffset:400" x1="592.608" y1="120.715" x2="508.469" y2="268.788">
				<animate begin="1.2s" attributeName="stroke-dashoffset" from="400" to="0" dur="2s" fill="freeze"/>
			</line>
			<path fill="none" stroke="#0FA9F1" stroke-width="1.6606" stroke-miterlimit="10" style="stroke-dasharray:400,400;stroke-dashoffset:400" d="M513.92,272.083
				c-32.501-32.881-77.625-53.257-127.513-53.257c-47.258,0-90.248,18.286-122.275,48.17">
				<animate begin="2s" attributeName="stroke-dashoffset" from="400" to="0" dur="2s" fill="freeze"/>
			</path>
			<line fill="none" stroke="#0FA9F1" stroke-width="1.6606" stroke-miterlimit="10" style="stroke-dasharray:400,400;stroke-dashoffset:400" x1="202.943" y1="185.913" x2="265.572" y2="264.638">
				<animate begin="2.5s" attributeName="stroke-dashoffset" from="400" to="0" dur="3s" fill="freeze"/>
			</line>
			<path fill="none" stroke="#0FA9F1" stroke-width="1.6606" stroke-miterlimit="10" style="stroke-dasharray:400,400;stroke-dashoffset:400" d="M110.421,393.184
				c0-62.987,20.014-121.568,55.274-168.247c21.735-28.773,37.247-39.024,37.247-39.024">
				<animate begin="1.5s" attributeName="stroke-dashoffset" from="400" to="0" dur="3s" fill="freeze"/>
			</path>
			<line fill="none" stroke="#06A2AE" stroke-width="1.6606" stroke-miterlimit="10" style="stroke-dasharray:400,400;stroke-dashoffset:400" x1="110.421" y1="396.23" x2="47.358" y2="396.23">
				<animate begin="1.5s" attributeName="stroke-dashoffset" from="400" to="0" dur="3s" fill="freeze"/>
			</line>
			<path fill="none" stroke="#0FA9F1" stroke-width="1.6606" stroke-miterlimit="10" style="stroke-dasharray:400,400;stroke-dashoffset:400" d="M52.906,398.101
				c0,52.111,11.687,101.496,32.58,145.674c18.801,39.75,45.061,75.288,76.969,104.803c13.586,12.566,28.197,24.045,43.694,34.289">
				<animate begin="1.5s" attributeName="stroke-dashoffset" from="400" to="0" dur="2s" fill="freeze"/>
			</path>
			<line fill="none" stroke="#0FA9F1" stroke-width="1.6606" stroke-miterlimit="10" style="stroke-dasharray:400,400;stroke-dashoffset:400" x1="249.857" y1="637.225" x2="206.149" y2="682.867">
				<animate begin="2.5s" attributeName="stroke-dashoffset" from="400" to="0" dur="3s" fill="freeze"/>
			</line>
			<path fill="none" stroke="#0FA9F1" stroke-width="1.6606" stroke-miterlimit="10" style="stroke-dasharray:400,400;stroke-dashoffset:400" d="M250.412,637.791
				c42.121,24.784,91.207,38.996,143.611,38.996c44.833,0,87.236-10.405,124.93-28.928">
				<animate begin="2.5s" attributeName="stroke-dashoffset" from="400" to="0" dur="2s" fill="freeze"/>
			</path>
		</g>
		<g id="circles">
			<circle fill="#5EB2D3" cx="110.421" cy="396.231" r="13.616"/>
			<circle fill="#5EB2D3" cx="265.573" cy="264.636" r="10.522"/>
			<circle fill="#5EB2D3" cx="249.857" cy="637.228" r="13.616"/>
		</g>
		<g id="elements">
			<g>
				<circle fill="#F2F6F7" cx="735.139" cy="398.101" r="50.947">
					<animate begin="0.2s" attributeName="fill" from="#F2F6F7" to="#fff" dur="0.1s" fill="freeze"/>
					<animate begin="0.3s" attributeName="fill" from="#fff" to="#5EB2D3" dur="1s" fill="freeze"/>
				</circle>
				<path fill="#F2F6F7" d="M760.09,394.87v-0.941h3.295v-2.977h1.408l-14.823-9.709l-14.829-9.711l-14.828,9.711l-14.826,9.709h1.412
					v2.977h3.295v0.941v2.039h0.717l-0.789,12.082h-1.028v2.824v0.706h-2.195v7.294h13.649h29.187h13.649v-7.294h-2.197v-0.706v-2.824
					h-1.024l-0.794-12.082h0.721V394.87z M738.437,394.87v2.039h0.717l-0.792,12.082h-1.028v2.824v0.706h-4.39v-0.706v-2.824h-1.023
					l-0.791-12.082h0.715v-2.039v-0.941h6.591V394.87z M718.822,412.521v-0.706v-2.824h-1.023l-0.791-12.082h0.716v-2.039v-0.941
					h6.589v0.941v2.039h0.717l-0.789,12.082h-1.025v2.824v0.706H718.822z M752.483,408.99h-1.023v2.824v0.706h-4.394v-0.706v-2.824
					h-1.027l-0.788-12.082h0.716v-2.039v-0.941h6.589v0.941v2.039h0.72L752.483,408.99z"/>
			</g>
			<g>
				<path fill="#F2F6F7" d="M640.969,120.715c0-26.71-21.65-48.361-48.361-48.361c-26.713,0-48.362,21.651-48.362,48.361
					c0,26.711,21.649,48.362,48.362,48.362C619.319,169.077,640.969,147.426,640.969,120.715z">
					<animate begin="1.4s" attributeName="fill" from="#F2F6F7" to="#fff" dur="0.1s" fill="freeze"/>
					<animate begin="1.5s" attributeName="fill" from="#fff" to="#5EB2D3" dur="1s" fill="freeze"/>
				</path>
				<rect x="573.747" y="106.909" fill="#F2F6F7" width="9.215" height="34.579"/>
				<rect x="587.57" y="123.238" fill="#F2F6F7" width="10.368" height="18.25"/>
				<rect x="602.547" y="114.594" fill="#F2F6F7" width="9.215" height="26.894"/>
				<line fill="none" stroke="#F2F6F7" stroke-miterlimit="10" x1="565.682" y1="141.488" x2="619.32" y2="141.488"/>
				<line fill="none" stroke="#F2F6F7" stroke-miterlimit="10" x1="565.682" y1="141.488" x2="565.682" y2="94.906"/>
			</g>
			<g>
				<circle fill="#F2F6F7" cx="508.469" cy="267.051" r="33.344">
					<animate begin="1.9s" attributeName="fill" from="#F2F6F7" to="#fff" dur="0.1s" fill="freeze"/>
					<animate begin="2s" attributeName="fill" from="#fff" to="#5EB2D3" dur="1s" fill="freeze"/>
				</circle>
				<path fill="#F2F6F7" d="M494.016,258.475v0.556v27.567c0,0.342,0.132,0.685,0.395,0.946c0.259,0.261,0.602,0.392,0.945,0.392
					l26.228-0.001c0.343,0,0.686-0.13,0.946-0.391c0.262-0.261,0.395-0.605,0.395-0.946v-27.567v-11.528
					c0-0.342-0.132-0.684-0.395-0.946c-0.26-0.263-0.603-0.392-0.946-0.392l-26.228-0.002c-0.343,0-0.686,0.131-0.948,0.394
					c-0.259,0.262-0.391,0.603-0.391,0.946V258.475L494.016,258.475z M500.552,284.833c0,0.13-0.107,0.233-0.233,0.233h-3.099
					c-0.13,0-0.233-0.103-0.233-0.233v-3.095c0-0.128,0.104-0.235,0.233-0.235h3.099c0.126,0,0.233,0.107,0.233,0.235V284.833z
					 M500.552,278.3c0,0.128-0.107,0.233-0.233,0.233l-3.099-0.001c-0.13,0.001-0.233-0.105-0.233-0.233v-3.098
					c0-0.128,0.104-0.233,0.233-0.233h3.099c0.126,0,0.233,0.105,0.233,0.233V278.3z M500.552,271.767
					c0,0.128-0.107,0.233-0.233,0.233h-3.099c-0.13-0.001-0.233-0.105-0.233-0.233v-3.098c0-0.129,0.104-0.233,0.233-0.233h3.099
					c0.126,0,0.233,0.104,0.233,0.233V271.767z M507.083,284.834c0,0.129-0.103,0.232-0.233,0.232h-3.096
					c-0.126,0-0.234-0.103-0.234-0.232v-3.096c0-0.128,0.107-0.235,0.234-0.235h3.096c0.13,0,0.236,0.107,0.233,0.235V284.834z
					 M507.083,278.3c0,0.128-0.103,0.233-0.233,0.233h-3.096c-0.126,0.001-0.234-0.105-0.234-0.233v-3.098
					c0-0.129,0.107-0.233,0.234-0.233h3.096c0.13,0,0.233,0.105,0.233,0.233V278.3z M507.083,271.767c0,0.128-0.103,0.233-0.233,0.232
					L503.753,272c-0.126,0-0.234-0.105-0.234-0.233v-3.098c0-0.129,0.107-0.233,0.234-0.233h3.096c0.13,0,0.233,0.105,0.233,0.233
					V271.767z M507.083,265.233c0,0.129-0.103,0.234-0.233,0.234h-9.63c-0.13,0-0.233-0.105-0.233-0.234v-3.1
					c0-0.126,0.104-0.232,0.233-0.232h9.63c0.13,0,0.233,0.106,0.233,0.232V265.233z M513.617,284.833c0,0.13-0.104,0.233-0.234,0.233
					h-3.095c-0.128,0-0.235-0.103-0.235-0.233v-3.095c0-0.128,0.107-0.235,0.235-0.235h3.095c0.13,0,0.234,0.107,0.234,0.235V284.833z
					 M513.617,278.3c0,0.128-0.106,0.233-0.234,0.233h-3.095c-0.128,0-0.235-0.106-0.235-0.233v-3.098
					c0-0.128,0.107-0.233,0.235-0.233h3.095c0.128,0,0.234,0.105,0.234,0.233V278.3z M513.617,271.767
					c0,0.128-0.106,0.233-0.234,0.233h-3.095c-0.128,0-0.235-0.105-0.235-0.233v-3.098c0-0.129,0.107-0.233,0.235-0.233h3.095
					c0.13,0,0.234,0.104,0.234,0.233V271.767z M513.617,265.233c0,0.129-0.106,0.234-0.234,0.234h-3.095
					c-0.128-0.001-0.235-0.105-0.235-0.234v-3.098c0-0.128,0.107-0.233,0.235-0.233h3.095c0.13,0,0.234,0.106,0.234,0.233V265.233z
					 M520.15,284.833c0,0.13-0.106,0.233-0.234,0.233h-3.098c-0.128,0-0.231-0.103-0.231-0.233v-3.096
					c0-0.128,0.104-0.235,0.231-0.235h3.098c0.128,0,0.234,0.107,0.234,0.235V284.833z M520.15,278.3c0,0.128-0.106,0.233-0.234,0.233
					h-3.098c-0.128,0-0.231-0.106-0.231-0.233v-3.098c0-0.128,0.104-0.233,0.231-0.233h3.098c0.128,0,0.234,0.105,0.234,0.233V278.3z
					 M520.15,271.767c0,0.128-0.106,0.233-0.234,0.233l-3.098-0.001c-0.128,0.001-0.231-0.104-0.231-0.232v-3.098
					c0-0.129,0.104-0.233,0.231-0.233h3.098c0.128,0,0.234,0.104,0.234,0.233V271.767z M520.15,265.233
					c0,0.129-0.106,0.234-0.234,0.234h-3.098c-0.128,0-0.231-0.105-0.231-0.234v-3.098c0-0.128,0.104-0.233,0.231-0.233h3.098
					c0.128,0,0.234,0.106,0.234,0.232V265.233z M496.43,249.268c0-0.211,0.081-0.41,0.231-0.558c0.152-0.149,0.349-0.232,0.558-0.232
					h22.697c0.213,0,0.413,0.083,0.561,0.233c0.148,0.147,0.229,0.347,0.229,0.557v6.66c0,0.211-0.083,0.409-0.229,0.559
					c-0.148,0.148-0.348,0.23-0.561,0.23l-22.697,0.001c-0.209,0-0.407-0.082-0.558-0.232c-0.15-0.15-0.231-0.348-0.231-0.559V249.268
					z"/>
			</g>
			<g>
				<path fill="#F2F6F7" d="M240.394,185.913c0-20.688-16.766-37.455-37.451-37.455c-20.684,0-37.452,16.768-37.452,37.455
					c0,20.683,16.768,37.454,37.452,37.454C223.628,223.368,240.394,206.596,240.394,185.913z">
					<animate begin="2.8s" attributeName="fill" from="#F2F6F7" to="#fff" dur="0.1s" fill="freeze"/>
					<animate begin="2.9s" attributeName="fill" from="#fff" to="#5EB2D3" dur="1s" fill="freeze"/>
				</path>
				<polygon fill="#F2F6F7" points="188.977,169.126 205.374,173.488 204.828,174.228 188.43,169.816"/>
				<polyline fill="#F2F6F7" points="200.721,190.429 201.588,194.375 179.583,187.668 184.651,182.229 189.348,166.282 
					187.498,159.931 209.92,166.282 206.628,168.752"/>
				<path fill="#F2F6F7" d="M200.389,176.731c0,0,31.532,4.664,33.176,5.032c2.188,0.49,3.475,1.9,3.475,3.829
					c0,2.82-1.097,4.229-3.037,4.686c-1.941,0.457-3.492,0.388-6.548,0c-3.056-0.387-28.811-6.686-28.811-6.686L200.389,176.731z"/>
				<polygon fill="#F2F6F7" points="179.098,208.641 210.448,208.641 206.964,201.287 181.419,201.287"/>
			</g>
			<g>
				<circle fill="#F2F6F7" cx="52.906" cy="398.101" r="38.33">
					<animate begin="1.4s" attributeName="fill" from="#F2F6F7" to="#fff" dur="0.1s" fill="freeze"/>
					<animate begin="1.5s" attributeName="fill" from="#fff" to="#5EB2D3" dur="1s" fill="freeze"/>
				</circle>
				<path fill="#F2F6F7" d="M65.722,377.127c-10.746-10.081-36.497-5.453-34.789,25.924c0.665,12.186,16.234,13.855,18.835,4.653
					c0.736-2.601,3.214-8.135,7.422-7.866c5.207,0.331,8.307,0.773,11.522-2.659C72.996,392.604,74.526,385.388,65.722,377.127z
					 M39.492,380.858c0.436-1.63,2.112-2.596,3.742-2.16c1.63,0.436,2.596,2.111,2.162,3.742c-0.439,1.629-2.113,2.596-3.745,2.159
					C40.023,384.162,39.056,382.487,39.492,380.858z M39.003,393.062c-1.528,0.713-3.345,0.052-4.06-1.477
					c-0.713-1.53-0.051-3.348,1.479-4.06c1.528-0.713,3.347-0.052,4.059,1.477C41.195,390.531,40.534,392.349,39.003,393.062z
					 M53.376,380.572c-1.382,0.967-3.287,0.631-4.256-0.75c-0.967-1.383-0.631-3.288,0.75-4.255c1.383-0.969,3.287-0.634,4.255,0.749
					C55.094,377.698,54.759,379.604,53.376,380.572z M57.913,380.96c0.148-1.681,1.631-2.924,3.311-2.778
					c1.68,0.148,2.923,1.629,2.776,3.31c-0.146,1.681-1.629,2.925-3.31,2.778C59.011,384.124,57.768,382.64,57.913,380.96z
					 M42.7,409.453c-2.538,0.994-5.258,0.106-6.073-1.979c-0.816-2.085,0.579-4.58,3.121-5.574c2.537-0.995,5.257-0.107,6.072,1.977
					C46.636,405.962,45.24,408.46,42.7,409.453z M63.919,391.805c-1.193-1.194-1.194-3.125-0.002-4.319
					c1.194-1.194,3.129-1.194,4.322-0.001c1.194,1.193,1.194,3.127,0,4.321C67.045,392.998,65.113,392.998,63.919,391.805z"/>
				<path fill="#F2F6F7" d="M65.551,412.826l0.879-0.875l-0.178-0.177c5.675-6.476,9.231-10.569,14.974-16.984
					c3.42-3.815,0.203-7.029-3.61-3.608c-6.411,5.744-10.507,9.297-16.981,14.973l-0.177-0.179l-0.879,0.878l0.324,0.324
					c-1.296,2.11-2.294,3.714-3.683,5.797c-0.165-0.033-0.331-0.054-0.498-0.066c-0.023-0.002-0.047-0.004-0.07-0.005
					c-0.341-0.019-0.683,0.001-1.018,0.064c-0.014,0.003-0.027,0.007-0.04,0.009c-0.149,0.031-0.296,0.069-0.442,0.117
					c-0.029,0.008-0.058,0.017-0.087,0.028c-0.156,0.054-0.309,0.114-0.459,0.187h-0.002c-0.152,0.075-0.298,0.161-0.441,0.254
					c-0.031,0.019-0.059,0.041-0.088,0.061c-0.11,0.077-0.216,0.158-0.319,0.245c-0.034,0.03-0.068,0.057-0.101,0.087
					c-0.126,0.114-0.247,0.234-0.362,0.366c-0.478,0.559-0.78,1.206-0.912,1.879c-0.275,1.403-0.185,4.979-2.478,5.307
					c0,0,4.81,1.116,7.819-0.467c0.699-0.366,1.246-0.729,1.798-1.374c0.855-0.994,1.145-2.282,0.907-3.476
					c2.085-1.391,3.691-2.388,5.801-3.687L65.551,412.826z"/>
			</g>
			<g>
				<path fill="#F2F6F7" d="M245.255,682.87c0-21.602-17.506-39.107-39.106-39.107c-21.599,0-39.105,17.505-39.105,39.107
					c0,21.597,17.506,39.105,39.105,39.105C227.748,721.975,245.255,704.467,245.255,682.87z">
					<animate begin="2.8s" attributeName="fill" from="#F2F6F7" to="#fff" dur="0.1s" fill="freeze"/>
					<animate begin="2.9s" attributeName="fill" from="#fff" to="#5EB2D3" dur="1s" fill="freeze"/>
				</path>
				<path fill="#F2F6F7" d="M232.891,685.835l0.001-5.938h-4.708c-0.256-1.916-0.742-3.757-1.454-5.488l4.061-2.344l-2.967-5.141
					l-4.076,2.354c-1.164-1.502-2.509-2.85-4.012-4.01l2.354-4.077l-5.14-2.968l-2.346,4.06c-1.73-0.71-3.572-1.196-5.488-1.454
					v-4.706h-5.936v4.708c-1.916,0.255-3.759,0.741-5.489,1.454l-2.344-4.063l-5.141,2.968l2.353,4.077
					c-1.503,1.162-2.849,2.508-4.012,4.012l-4.077-2.354l-2.967,5.139l4.062,2.344c-0.713,1.731-1.198,3.574-1.453,5.49h-4.707v5.935
					h4.707c0.255,1.916,0.74,3.76,1.452,5.49l-4.06,2.342l2.968,5.141l4.077-2.354c1.161,1.504,2.509,2.85,4.011,4.015l-2.353,4.073
					l5.139,2.968l2.345-4.058c1.731,0.71,3.572,1.196,5.488,1.451v4.705l5.935,0.002v-4.708c1.917-0.255,3.76-0.741,5.488-1.454
					l2.346,4.06l5.14-2.968l-2.353-4.075c1.503-1.163,2.849-2.508,4.012-4.012l4.075,2.354l2.968-5.141l-4.06-2.344
					c0.711-1.728,1.196-3.572,1.452-5.488H232.891z M192.684,682.867c0-7.435,6.028-13.467,13.464-13.467s13.464,6.032,13.464,13.467
					c0,7.437-6.028,13.464-13.464,13.464S192.684,690.305,192.684,682.867z"/>
			</g>
			<g>
				<path fill="#F2F6F7" d="M558.475,648.263c0-21.826-17.689-39.521-39.518-39.521c-21.829,0-39.525,17.696-39.525,39.521
					c0,21.826,17.696,39.524,39.525,39.524C540.786,687.787,558.475,670.089,558.475,648.263z">
					<animate begin="3.7s" attributeName="fill" from="#F2F6F7" to="#fff" dur="0.1s" fill="freeze"/>
					<animate begin="3.8s" attributeName="fill" from="#fff" to="#5EB2D3" dur="1s" fill="freeze"/>
				</path>
				<path fill="#F2F6F7" d="M508.373,637.064c5.438-5.127,13.533-5.639,19.525-1.728c-2.128,1.986-4.588,4.304-4.588,4.304
					c-1.722,1.957,0.113,3.163,1.065,3.16l11.156,0.33c0.586,0.017,1.067,0.031,1.067,0.031l1.076,0.031l2.161,0.065
					c0.592,0.017,1.084-0.445,1.105-1.037l0.454-15.332c0.108-1.401-1.394-2.809-3.029-1.285c0,0-2.71,2.484-4.577,4.229
					c-9.09-7.067-22.208-6.679-30.849,1.466c-5.045,4.754-7.519,11.182-7.438,17.604l7.933,0.236
					C503.285,644.745,504.923,640.316,508.373,637.064"/>
				<path fill="#F2F6F7" d="M534.473,647.387c0.152,4.393-1.483,8.821-4.938,12.075c-5.438,5.124-13.534,5.642-19.525,1.728
					c2.129-1.988,4.585-4.306,4.585-4.306c1.728-1.95-0.112-3.165-1.065-3.16l-11.15-0.327c-0.586-0.017-1.072-0.034-1.072-0.034
					l-1.075-0.034l-2.164-0.063c-0.589-0.017-1.086,0.45-1.104,1.04l-0.455,15.332c-0.105,1.398,1.391,2.804,3.028,1.283
					c0,0,2.707-2.484,4.579-4.229c9.093,7.067,22.212,6.686,30.852-1.461c5.038-4.754,7.517-11.18,7.437-17.606l-7.934-0.236V647.387
					z"/>
			</g>
		</g>
	</g>
	<g id="green">
		<g id="paths">
			<path fill="none" stroke="#4DBD99" stroke-width="1.6606" stroke-miterlimit="10" style="stroke-dasharray:400,400;stroke-dashoffset:400" d="M203.333,509.819
				c22.201,38.262,55.587,69.229,95.683,88.424">
				<animate begin="0s" attributeName="stroke-dashoffset" from="400" to="0" dur="3s" fill="freeze"/>
			</path>
			<line fill="none" stroke="#4DBD99" stroke-width="1.6606" stroke-miterlimit="10" style="stroke-dasharray:400,400;stroke-dashoffset:400" x1="354.934" y1="517.413" x2="299.017" y2="598.243">
				<animate begin="0s" attributeName="stroke-dashoffset" from="400" to="0" dur="4s" fill="freeze"/>
			</line>
			<path fill="none" stroke="#4DBD99" stroke-width="1.6606" stroke-miterlimit="10" style="stroke-dasharray:400,400;stroke-dashoffset:400" d="M271.77,398.101
				c0,53.849,34.815,99.565,83.164,115.87">
				<animate begin="1s" attributeName="stroke-dashoffset" from="400" to="0" dur="3s" fill="freeze"/>
			</path>
			<line fill="none" stroke="#4DBD99" stroke-width="1.6606" stroke-miterlimit="10" style="stroke-dasharray:400,400;stroke-dashoffset:400" x1="200.834" y1="398.101" x2="271.77" y2="398.101">
				<animate begin="1s" attributeName="stroke-dashoffset" from="400" to="0" dur="3s" fill="freeze"/>
			</line>
			<path fill="none" stroke="#4DBD99" stroke-width="1.6606" stroke-miterlimit="10" style="stroke-dasharray:400,400;stroke-dashoffset:400" d="M394.023,179.121
				c-38.226,0-74.178,9.734-105.511,26.862c-43.466,23.76-78.046,61.74-97.481,107.688c-11.147,26.357-17.31,55.335-17.31,85.752">
				<animate begin="1.5s" attributeName="stroke-dashoffset" from="400" to="0" dur="2s" fill="freeze"/>
			</path>
			<line fill="none" stroke="#4DBD99" stroke-width="1.6606" stroke-miterlimit="10" style="stroke-dasharray:400,400;stroke-dashoffset:400" x1="394.023" y1="56.985" x2="394.023" y2="179.121">
				<animate begin="1.5s" attributeName="stroke-dashoffset" from="400" to="0" dur="3s" fill="freeze"/>
			</line>
			<path fill="none" stroke="#4DBD99" stroke-width="1.7755" stroke-miterlimit="10" style="stroke-dasharray:400,400;stroke-dashoffset:400" d="M394.023,56.985
				c-67.77,0-130.926,19.762-184.017,53.839c-33.668,21.612-63.288,48.98-87.472,80.715">
				<animate begin="1.5s" attributeName="stroke-dashoffset" from="400" to="0" dur="3s" fill="freeze"/>
			</path>
		</g>
		<g id="circles">
			<circle fill="#4DBD99" cx="299.017" cy="597.052" r="13.615"/>
			<circle fill="#4DBD99" cx="271.217" cy="398.101" r="10.523"/>
		</g>
		<g id="elements">
			<g>
				<circle fill="#F2F6F7" cx="202.942" cy="509.819" r="43.737">
					<animate begin="0.2s" attributeName="fill" from="#F2F6F7" to="#fff" dur="0.1s" fill="freeze"/>
					<animate begin="0.3s" attributeName="fill" from="#fff" to="#4DBD99" dur="1s" fill="freeze"/>
				</circle>
				<path fill="#F2F6F7" d="M223.324,534.937l-12.454-21.571v-18.769c0.859-0.253,1.492-1.04,1.492-1.981
					c0-1.143-0.93-2.072-2.074-2.072h-14.692c-1.144,0-2.074,0.929-2.074,2.072c0,0.941,0.633,1.728,1.492,1.981v18.769
					l-12.453,21.571c-0.696,1.211-0.696,2.708,0.001,3.911c0.697,1.206,1.994,1.957,3.385,1.957h33.987
					c1.394,0,2.693-0.751,3.39-1.954C224.02,537.645,224.021,536.148,223.324,534.937z M194.457,492.617
					c0-0.628,0.512-1.138,1.14-1.138h14.692c0.628,0,1.139,0.51,1.139,1.138c0,0.631-0.511,1.143-1.139,1.143h-14.692
					C194.968,493.76,194.457,493.247,194.457,492.617z M222.516,538.381c-0.531,0.919-1.521,1.49-2.582,1.49h-33.987
					c-1.058,0-2.046-0.57-2.577-1.492c-0.529-0.912-0.529-2.055,0-2.975l12.516-21.679l0.063-0.108v-18.923h13.987v18.923
					l12.579,21.787C223.044,536.324,223.044,537.467,222.516,538.381z"/>
				<circle fill="#F2F6F7" cx="198.345" cy="480.645" r="1.848"/>
				<circle fill="#F2F6F7" cx="203.643" cy="472.719" r="1.466"/>
				<circle fill="#F2F6F7" cx="207.925" cy="479.552" r="2.556"/>
				<circle fill="#F2F6F7" cx="201.907" cy="488.11" r="1.159"/>
				<path fill="#F2F6F7" d="M214.511,523.822h-5.108c-0.329-0.465-0.868-0.77-1.48-0.77c-0.609,0-1.15,0.306-1.478,0.77h-3.189
					c-0.638-1.028-1.773-1.714-3.069-1.714c-1.294,0-2.431,0.686-3.071,1.714h-5.743l-7.015,12.152c-0.328,0.57-0.328,1.271,0,1.839
					c0.325,0.563,0.934,0.915,1.588,0.915h33.987c0.658,0,1.267-0.351,1.592-0.915c0.326-0.568,0.326-1.268,0-1.839L214.511,523.822z
					 M195.903,534.843c-1.143,0-2.068-0.927-2.068-2.068c0-1.143,0.925-2.067,2.068-2.067c1.138,0,2.065,0.924,2.065,2.067
					C197.967,533.917,197.041,534.843,195.903,534.843z M200.188,527.242c-0.839,0-1.523-0.679-1.523-1.519
					c0-0.84,0.684-1.521,1.523-1.521c0.84,0,1.522,0.681,1.522,1.521C201.71,526.564,201.028,527.242,200.188,527.242z
					 M207.923,524.203c0.369,0,0.668,0.296,0.668,0.664c0,0.366-0.3,0.664-0.668,0.664c-0.368,0-0.664-0.298-0.664-0.664
					C207.258,524.499,207.554,524.203,207.923,524.203z M206.156,533.426c-1.75,0-3.167-1.42-3.167-3.172
					c0-1.745,1.417-3.163,3.167-3.163c1.749,0,3.17,1.418,3.17,3.163C209.327,532.006,207.905,533.426,206.156,533.426z
					 M211.553,536.444c-0.507,0-0.918-0.412-0.918-0.915c0-0.51,0.411-0.919,0.918-0.919c0.506,0,0.917,0.409,0.917,0.919
					C212.47,536.032,212.059,536.444,211.553,536.444z"/>
			</g>
			<g>
				<path fill="#F2F6F7" d="M382.872,515.232c0-13.637-11.051-24.692-24.688-24.692c-13.638,0-24.689,11.055-24.689,24.692
					s11.051,24.692,24.689,24.692C371.821,539.924,382.872,528.869,382.872,515.232z">
					<animate begin="0.1s" attributeName="fill" from="#F2F6F7" to="#fff" dur="0.1s" fill="freeze"/>
					<animate begin="0.2s" attributeName="fill" from="#fff" to="#4DBD99" dur="1s" fill="freeze"/>
				</path>
				<path fill="#F2F6F7" d="M368.073,531.373l-13.259-5.919l10.721-25.008l-15.98,22.663l-11.536-5.148l30.821-22.767L368.073,531.373
					z M350.96,535.269l-1.948-8.559l7.392,2.816L350.96,535.269z"/>
			</g>
			<g>
				<circle fill="#F2F6F7" cx="173.721" cy="399.423" r="27.242">
					<animate begin="0.7s" attributeName="fill" from="#F2F6F7" to="#fff" dur="0.1s" fill="freeze"/>
					<animate begin="0.8s" attributeName="fill" from="#fff" to="#4DBD99" dur="1s" fill="freeze"/>
				</circle>
				<path fill="#F2F6F7" d="M187.567,404.976h0.021v-14.912v-5.427c0-0.359-0.166-0.697-0.45-0.922
					c-0.283-0.222-0.65-0.3-1.001-0.216l-17.279,4.201c-0.526,0.126-0.897,0.594-0.897,1.135v5.428v12.6
					c-0.256-0.049-0.523-0.086-0.813-0.086c-0.94,0-1.988,0.263-3.036,0.755c-2.346,1.109-4.621,3.47-4.213,5.662
					c0.255,1.35,1.444,2.188,3.11,2.188c0.94,0,1.989-0.261,3.033-0.752c2.276-1.073,4.477-3.32,4.24-5.456h0.022v-13.989
					l14.94-3.631v11.11c-0.258-0.048-0.526-0.081-0.812-0.081c-0.94,0-1.989,0.259-3.037,0.752c-2.347,1.106-4.624,3.467-4.215,5.66
					c0.252,1.353,1.444,2.189,3.109,2.189c0.941,0,1.989-0.26,3.036-0.753C185.601,409.359,187.801,407.111,187.567,404.976z"/>
			</g>
			<g>
				<circle fill="#F2F6F7" cx="394.023" cy="179.122" r="25.616">
					<animate begin="1.4s" attributeName="fill" from="#F2F6F7" to="#fff" dur="0.1s" fill="freeze"/>
					<animate begin="1.5s" attributeName="fill" from="#fff" to="#4DBD99" dur="1s" fill="freeze"/>
				</circle>
				<path fill="#F2F6F7" d="M394.783,178.004l16.395-7.08c-2.96-6.18-9.158-10.511-16.395-10.8V178.004z"/>
				<path fill="#F2F6F7" d="M393.263,179.351v-19.228c-10.145,0.401-18.246,8.749-18.246,18.994c0,10.498,8.507,19.005,19.006,19.005
					c3.683,0,7.124-1.052,10.042-2.872l0.011,0.011l0.566-0.383c0.005,0,0.011-0.004,0.02-0.011l0.107-0.073L393.263,179.351z"/>
				<path fill="#F2F6F7" d="M413.032,179.117c0-2.391-0.455-4.683-1.254-6.797l-16.594,7.156l10.795,14.404
					C410.278,190.399,413.032,185.083,413.032,179.117z"/>
			</g>
			<g>
				<circle fill="#F2F6F7" cx="394.023" cy="56.985" r="45.629">
					<animate begin="1.6s" attributeName="fill" from="#F2F6F7" to="#fff" dur="0.1s" fill="freeze"/>
					<animate begin="1.7s" attributeName="fill" from="#fff" to="#4DBD99" dur="1s" fill="freeze"/>
				</circle>
				<path fill="#F2F6F7" d="M419.6,73.283h-56.253v5.187H419.6V73.283z M417.111,76.5h-4.567v-1.247h4.567V76.5z"/>
				<path fill="#F2F6F7" d="M416.953,39.992h-50.961v31.705h50.961V39.992z M411.298,67.185h-39.648V44.503h39.648V67.185z"/>
			</g>
			<g>
				<path fill="#F2F6F7" d="M155.879,191.539c0-18.416-14.926-33.347-33.345-33.347c-18.418,0-33.343,14.931-33.343,33.347
					c0,18.417,14.926,33.345,33.343,33.345C140.953,224.885,155.879,209.956,155.879,191.539z">
					<animate begin="3.5s" attributeName="fill" from="#F2F6F7" to="#fff" dur="0.1s" fill="freeze"/>
					<animate begin="3.6s" attributeName="fill" from="#fff" to="#4DBD99" dur="1s" fill="freeze"/>
				</path>
				<path fill="#F2F6F7" d="M138.466,177.016h-31.862c-2.705,0-4.901,2.196-4.901,4.903v17.154c0,2.707,2.196,4.902,4.901,4.902h2.453
					v8.577c0,0.314,0.12,0.627,0.359,0.868c0.477,0.478,1.253,0.48,1.733,0l10.161-9.445h17.156c2.705,0,4.901-2.195,4.901-4.902
					V181.92C143.367,179.212,141.171,177.016,138.466,177.016 M110.28,184.369h19.607c0.677,0,1.225,0.549,1.225,1.226
					c0,0.676-0.548,1.226-1.225,1.226H110.28c-0.676,0-1.223-0.549-1.223-1.226C109.057,184.917,109.604,184.369,110.28,184.369
					 M120.086,196.622h-9.806c-0.676,0-1.223-0.548-1.223-1.223c0-0.68,0.548-1.225,1.223-1.225h9.806
					c0.675,0,1.223,0.545,1.223,1.225C121.309,196.075,120.761,196.622,120.086,196.622 M134.788,191.722H110.28
					c-0.676,0-1.223-0.548-1.223-1.227c0-0.677,0.548-1.224,1.223-1.224h24.508c0.68,0,1.226,0.547,1.226,1.224
					C136.014,191.174,135.468,191.722,134.788,191.722"/>
			</g>
		</g>	
	</g>

	<g id="idea_1_">
		<path fill="#8AC1DC" d="M415.511,399.016c-1.029,0-1.857-0.833-1.857-1.861c0-11.492-9.36-20.847-20.859-20.847
			c-1.031,0-1.86-0.829-1.86-1.858c0-1.031,0.829-1.861,1.86-1.861c13.551,0,24.582,11.02,24.582,24.566
			C417.377,398.183,416.54,399.016,415.511,399.016z"/>
		<polygon fill="#8AC1DC" points="399.887,445.812 397.076,445.348 402.621,411.796 405.434,412.259 399.887,445.812"/>
		<polygon fill="#8AC1DC" points="385.704,445.812 380.162,412.259 382.97,411.796 388.516,445.348 385.704,445.812"/>
		<path fill="#8AC1DC" d="M403.846,416.518c-1.167,0-1.678-1.134-2.045-1.967c-0.152-0.344-0.473-1.061-0.657-1.061
			c-0.179,0-0.495,0.717-0.65,1.061c-0.367,0.833-0.88,1.967-2.039,1.967c-1.172,0-1.67-1.134-2.04-1.967
			c-0.152-0.344-0.468-1.061-0.649-1.061c-0.188,0-0.503,0.717-0.653,1.061c-0.372,0.833-0.88,1.967-2.046,1.967
			c-1.158,0-1.664-1.134-2.043-1.967c-0.15-0.344-0.465-1.061-0.646-1.061c-0.183,0-0.503,0.717-0.661,1.061
			c-0.362,0.833-0.871,1.967-2.039,1.967c-1.16,0-1.666-1.134-2.034-1.967c-0.158-0.344-0.479-1.061-0.663-1.061
			c-0.184,0-0.502,0.717-0.653,1.061c-0.371,0.833-0.874,1.967-2.041,1.967v-1.515c0.179,0,0.502-0.721,0.649-1.065
			c0.376-0.832,0.883-1.966,2.045-1.966c1.167,0,1.675,1.135,2.044,1.966c0.158,0.344,0.474,1.065,0.653,1.065
			c0.184,0,0.503-0.721,0.661-1.065c0.365-0.827,0.871-1.966,2.039-1.966c1.165,0,1.667,1.14,2.04,1.966
			c0.15,0.344,0.474,1.065,0.65,1.065c0.184,0,0.503-0.721,0.661-1.065c0.368-0.827,0.863-1.966,2.039-1.966
			c1.157,0,1.668,1.14,2.028,1.966c0.163,0.344,0.48,1.065,0.661,1.065c0.182,0,0.501-0.721,0.655-1.065
			c0.363-0.832,0.866-1.966,2.034-1.966c1.171,0,1.672,1.14,2.04,1.966c0.158,0.344,0.472,1.065,0.662,1.065V416.518
			L403.846,416.518z"/>
			<path fill="#8AC1DC" d="M392.783,355.983c-1.025,0-1.864-0.833-1.864-1.857v-19.528c0-1.029,0.839-1.862,1.864-1.862
				c1.031,0,1.863,0.833,1.863,1.862v19.528C394.646,355.149,393.815,355.983,392.783,355.983z"/>
			<path fill="#8AC1DC" d="M415.087,361.951c-0.315,0-0.638-0.079-0.927-0.249c-0.888-0.51-1.2-1.653-0.681-2.54l9.761-16.916
				c0.514-0.89,1.647-1.196,2.538-0.68c0.899,0.517,1.203,1.652,0.681,2.542l-9.756,16.912
				C416.352,361.615,415.729,361.951,415.087,361.951z"/>
			<path fill="#8AC1DC" d="M431.426,378.275c-0.644,0-1.268-0.332-1.614-0.931c-0.511-0.889-0.213-2.03,0.682-2.538l16.908-9.77
				c0.888-0.508,2.028-0.206,2.546,0.685c0.512,0.892,0.203,2.031-0.681,2.543l-16.91,9.764
				C432.066,378.197,431.746,378.275,431.426,378.275z"/>
			<path fill="#8AC1DC" d="M457.559,400.579h-20.153c-1.019,0-1.86-0.833-1.86-1.86c0-1.025,0.841-1.862,1.86-1.862h20.153
				c1.025,0,1.855,0.837,1.855,1.862C459.413,399.746,458.584,400.579,457.559,400.579z"/>
			<path fill="#8AC1DC" d="M448.349,432.65c-0.316,0-0.641-0.083-0.929-0.253l-16.912-9.755c-0.894-0.516-1.2-1.654-0.682-2.546
				c0.509-0.889,1.653-1.196,2.539-0.68l16.921,9.761c0.883,0.508,1.191,1.654,0.676,2.547
				C449.614,432.319,448.988,432.65,448.349,432.65z"/>
			<path fill="#8AC1DC" d="M370.476,361.966c-0.641,0-1.265-0.337-1.609-0.932l-9.764-16.907c-0.51-0.897-0.207-2.033,0.682-2.547
				c0.888-0.512,2.028-0.208,2.547,0.682l9.756,16.911c0.514,0.892,0.211,2.032-0.675,2.543
				C371.111,361.888,370.797,361.966,370.476,361.966z"/>
			<path fill="#8AC1DC" d="M354.158,378.299c-0.319,0-0.64-0.078-0.931-0.248l-16.917-9.765c-0.882-0.511-1.191-1.651-0.681-2.539
				c0.514-0.887,1.656-1.196,2.547-0.68l16.917,9.763c0.883,0.512,1.191,1.651,0.681,2.542
				C355.426,377.97,354.795,378.299,354.158,378.299z"/>
			<path fill="#8AC1DC" d="M348.183,400.609h-19.519c-1.032,0-1.861-0.833-1.861-1.865c0-1.027,0.829-1.856,1.861-1.856h19.519
				c1.038,0,1.871,0.83,1.871,1.856C350.054,399.776,349.221,400.609,348.183,400.609z"/>
			<path fill="#8AC1DC" d="M337.255,432.675c-0.638,0-1.265-0.331-1.607-0.93c-0.519-0.892-0.215-2.028,0.674-2.543l16.918-9.766
				c0.889-0.513,2.028-0.208,2.543,0.681c0.513,0.892,0.206,2.031-0.679,2.544l-16.922,9.766
				C337.902,432.591,337.575,432.675,337.255,432.675z"/>
			<path fill="#8AC1DC" d="M409.3,446.378c0,0-0.008,0-0.014,0h-33.064c-1.711,0-3.105-1.392-3.105-3.105
				c0-0.135,0.015-0.278,0.031-0.406c0.188-2.229-0.012-9.009-2.284-12.034c-13.253-17.066-13.624-33.506-13.624-33.668
				c0-19.61,15.947-35.558,35.555-35.558c19.608,0,35.557,15.948,35.557,35.558c0,0.162-0.366,16.602-13.648,33.709
				c-2.361,3.123-2.457,9.919-2.344,11.87c0.031,0.176,0.043,0.351,0.043,0.53C412.403,444.985,411.018,446.378,409.3,446.378z
				M376.222,440.171c-1.724,0-2.886,1.324-3.064,2.637C373.381,441.317,374.667,440.171,376.222,440.171z M409.82,440.211
				c0.436,0.081,0.845,0.244,1.197,0.477C410.666,440.461,410.27,440.292,409.82,440.211z M379.379,440.171h26.784
				c0.052-1.403,0.171-2.577,0.171-2.607c0.448-4.512,1.616-8.035,3.437-10.464c11.938-15.36,12.376-29.797,12.376-29.938
				c0-16.184-13.161-29.35-29.352-29.35c-16.186,0-29.347,13.166-29.347,29.353c0,0.138,0.439,14.565,12.349,29.905
				c1.851,2.472,2.995,5.992,3.423,10.507C379.22,437.602,379.326,438.776,379.379,440.171z"/>
			<path fill="#8AC1DC" d="M408.243,453.022h-30.891c-1.715,0-3.105-1.39-3.105-3.104c0-1.714,1.39-3.103,3.105-3.103h30.891
				c1.715,0,3.104,1.389,3.104,3.103C411.346,451.632,409.958,453.022,408.243,453.022z"/>
			<path fill="#8AC1DC" d="M405.956,459.656h-26.317c-1.712,0-3.104-1.394-3.104-3.102c0-1.719,1.392-3.105,3.104-3.105h26.317
				c1.714,0,3.103,1.386,3.103,3.105C409.059,458.262,407.67,459.656,405.956,459.656z"/>
			<path fill="#8AC1DC" d="M402.089,466.111H383.5c-1.709,0-3.101-1.395-3.101-3.105c0-1.718,1.392-3.103,3.101-3.103h18.59
				c1.715,0,3.103,1.384,3.103,3.103C405.192,464.716,403.804,466.111,402.089,466.111z"/>
	</g>
<animate begin="5s" attributeName="opacity" from="1" to="0.3" dur="2s" fill="freeze"/></g>
</svg>
