<?xml version="1.0" encoding="utf-8"?>
<!-- Generator: Adobe Illustrator 17.0.0, SVG Export Plug-In . SVG Version: 6.00 Build 0)  -->
<!DOCTYPE svg PUBLIC "-//W3C//DTD SVG 1.1//EN" "http://www.w3.org/Graphics/SVG/1.1/DTD/svg11.dtd">
<svg version="1.1" xmlns="http://www.w3.org/2000/svg" xmlns:xlink="http://www.w3.org/1999/xlink" x="0px" y="0px" width="150px"
	 height="60px" viewBox="0 0 150 60" enable-background="new 0 0 150 60" xml:space="preserve">
<g id="Layer_2">
	<rect y="2" fill="#A5A5A5" width="150" height="58"/>
</g>
<g id="Layer_3">
	<g>
		<g>
			<line fill="none" stroke="#C1C1C1" stroke-width="0.2" stroke-miterlimit="10" x1="149.906" y1="3.647" x2="-0.094" y2="3.647"/>
			<line fill="none" stroke="#C1C1C1" stroke-width="0.2" stroke-miterlimit="10" x1="149.906" y1="6.617" x2="-0.094" y2="6.617"/>
			<line fill="none" stroke="#C1C1C1" stroke-width="0.2" stroke-miterlimit="10" x1="149.906" y1="9.586" x2="-0.094" y2="9.586"/>
			
				<line fill="none" stroke="#C1C1C1" stroke-width="0.2" stroke-miterlimit="10" x1="149.906" y1="12.555" x2="-0.094" y2="12.555"/>
			
				<line fill="none" stroke="#C1C1C1" stroke-width="0.2" stroke-miterlimit="10" x1="149.906" y1="15.525" x2="-0.094" y2="15.525"/>
			
				<line fill="none" stroke="#C1C1C1" stroke-width="0.2" stroke-miterlimit="10" x1="149.906" y1="18.494" x2="-0.094" y2="18.494"/>
			
				<line fill="none" stroke="#C1C1C1" stroke-width="0.2" stroke-miterlimit="10" x1="149.906" y1="21.464" x2="-0.094" y2="21.464"/>
			
				<line fill="none" stroke="#C1C1C1" stroke-width="0.2" stroke-miterlimit="10" x1="149.906" y1="24.433" x2="-0.094" y2="24.433"/>
			
				<line fill="none" stroke="#C1C1C1" stroke-width="0.2" stroke-miterlimit="10" x1="149.906" y1="27.403" x2="-0.094" y2="27.402"/>
			
				<line fill="none" stroke="#C1C1C1" stroke-width="0.2" stroke-miterlimit="10" x1="149.906" y1="30.372" x2="-0.094" y2="30.372"/>
			
				<line fill="none" stroke="#C1C1C1" stroke-width="0.2" stroke-miterlimit="10" x1="149.906" y1="33.341" x2="-0.094" y2="33.341"/>
			
				<line fill="none" stroke="#C1C1C1" stroke-width="0.2" stroke-miterlimit="10" x1="149.906" y1="36.311" x2="-0.094" y2="36.311"/>
			<line fill="none" stroke="#C1C1C1" stroke-width="0.2" stroke-miterlimit="10" x1="149.906" y1="39.28" x2="-0.094" y2="39.28"/>
			
				<line fill="none" stroke="#C1C1C1" stroke-width="0.2" stroke-miterlimit="10" x1="149.906" y1="42.249" x2="-0.094" y2="42.249"/>
			
				<line fill="none" stroke="#C1C1C1" stroke-width="0.2" stroke-miterlimit="10" x1="149.906" y1="45.219" x2="-0.094" y2="45.219"/>
			
				<line fill="none" stroke="#C1C1C1" stroke-width="0.2" stroke-miterlimit="10" x1="149.906" y1="48.188" x2="-0.094" y2="48.188"/>
			
				<line fill="none" stroke="#C1C1C1" stroke-width="0.2" stroke-miterlimit="10" x1="149.906" y1="51.158" x2="-0.094" y2="51.158"/>
			
				<line fill="none" stroke="#C1C1C1" stroke-width="0.2" stroke-miterlimit="10" x1="149.906" y1="54.127" x2="-0.094" y2="54.127"/>
			
				<line fill="none" stroke="#C1C1C1" stroke-width="0.2" stroke-miterlimit="10" x1="149.906" y1="57.097" x2="-0.094" y2="57.097"/>
		</g>
		<g>
			<line fill="none" stroke="#C1C1C1" stroke-width="0.2" stroke-miterlimit="10" x1="55.72" y1="60" x2="55.721" y2="2"/>
			<line fill="none" stroke="#C1C1C1" stroke-width="0.2" stroke-miterlimit="10" x1="52.751" y1="60" x2="52.751" y2="2"/>
			<line fill="none" stroke="#C1C1C1" stroke-width="0.2" stroke-miterlimit="10" x1="49.782" y1="60" x2="49.782" y2="2"/>
			<line fill="none" stroke="#C1C1C1" stroke-width="0.2" stroke-miterlimit="10" x1="46.812" y1="60" x2="46.812" y2="2"/>
			<line fill="none" stroke="#C1C1C1" stroke-width="0.2" stroke-miterlimit="10" x1="43.843" y1="60" x2="43.843" y2="2"/>
			<line fill="none" stroke="#C1C1C1" stroke-width="0.2" stroke-miterlimit="10" x1="40.873" y1="60" x2="40.874" y2="2"/>
			<line fill="none" stroke="#C1C1C1" stroke-width="0.2" stroke-miterlimit="10" x1="37.904" y1="60" x2="37.904" y2="2"/>
			<line fill="none" stroke="#C1C1C1" stroke-width="0.2" stroke-miterlimit="10" x1="34.935" y1="60" x2="34.935" y2="2"/>
			<line fill="none" stroke="#C1C1C1" stroke-width="0.2" stroke-miterlimit="10" x1="31.965" y1="60" x2="31.965" y2="2"/>
			<line fill="none" stroke="#C1C1C1" stroke-width="0.2" stroke-miterlimit="10" x1="28.996" y1="60" x2="28.996" y2="2"/>
			<line fill="none" stroke="#C1C1C1" stroke-width="0.2" stroke-miterlimit="10" x1="26.026" y1="60" x2="26.027" y2="2"/>
			<line fill="none" stroke="#C1C1C1" stroke-width="0.2" stroke-miterlimit="10" x1="23.057" y1="60" x2="23.057" y2="2"/>
			<line fill="none" stroke="#C1C1C1" stroke-width="0.2" stroke-miterlimit="10" x1="20.088" y1="60" x2="20.088" y2="2"/>
			<line fill="none" stroke="#C1C1C1" stroke-width="0.2" stroke-miterlimit="10" x1="17.118" y1="60" x2="17.118" y2="2"/>
			<line fill="none" stroke="#C1C1C1" stroke-width="0.2" stroke-miterlimit="10" x1="14.149" y1="60" x2="14.149" y2="2"/>
			<line fill="none" stroke="#C1C1C1" stroke-width="0.2" stroke-miterlimit="10" x1="11.179" y1="60" x2="11.179" y2="2"/>
			<line fill="none" stroke="#C1C1C1" stroke-width="0.2" stroke-miterlimit="10" x1="8.21" y1="60" x2="8.21" y2="2"/>
			<line fill="none" stroke="#C1C1C1" stroke-width="0.2" stroke-miterlimit="10" x1="5.241" y1="60" x2="5.241" y2="2"/>
			<line fill="none" stroke="#C1C1C1" stroke-width="0.2" stroke-miterlimit="10" x1="2.271" y1="60" x2="2.271" y2="2"/>
			<line fill="none" stroke="#C1C1C1" stroke-width="0.2" stroke-miterlimit="10" x1="112.084" y1="60" x2="112.084" y2="2"/>
			<line fill="none" stroke="#C1C1C1" stroke-width="0.2" stroke-miterlimit="10" x1="109.114" y1="60" x2="109.114" y2="2"/>
			<line fill="none" stroke="#C1C1C1" stroke-width="0.2" stroke-miterlimit="10" x1="106.145" y1="60" x2="106.145" y2="2"/>
			<line fill="none" stroke="#C1C1C1" stroke-width="0.2" stroke-miterlimit="10" x1="103.176" y1="60" x2="103.176" y2="2"/>
			<line fill="none" stroke="#C1C1C1" stroke-width="0.2" stroke-miterlimit="10" x1="100.206" y1="60" x2="100.206" y2="2"/>
			<line fill="none" stroke="#C1C1C1" stroke-width="0.2" stroke-miterlimit="10" x1="97.237" y1="60" x2="97.237" y2="2"/>
			<line fill="none" stroke="#C1C1C1" stroke-width="0.2" stroke-miterlimit="10" x1="94.267" y1="60" x2="94.267" y2="2"/>
			<line fill="none" stroke="#C1C1C1" stroke-width="0.2" stroke-miterlimit="10" x1="91.298" y1="60" x2="91.298" y2="2"/>
			<line fill="none" stroke="#C1C1C1" stroke-width="0.2" stroke-miterlimit="10" x1="88.329" y1="60" x2="88.329" y2="2"/>
			<line fill="none" stroke="#C1C1C1" stroke-width="0.2" stroke-miterlimit="10" x1="85.359" y1="60" x2="85.359" y2="2"/>
			<line fill="none" stroke="#C1C1C1" stroke-width="0.2" stroke-miterlimit="10" x1="82.39" y1="60" x2="82.39" y2="2"/>
			<line fill="none" stroke="#C1C1C1" stroke-width="0.2" stroke-miterlimit="10" x1="79.42" y1="60" x2="79.42" y2="2"/>
			<line fill="none" stroke="#C1C1C1" stroke-width="0.2" stroke-miterlimit="10" x1="76.451" y1="60" x2="76.451" y2="2"/>
			<line fill="none" stroke="#C1C1C1" stroke-width="0.2" stroke-miterlimit="10" x1="73.482" y1="60" x2="73.482" y2="2"/>
			<line fill="none" stroke="#C1C1C1" stroke-width="0.2" stroke-miterlimit="10" x1="70.512" y1="60" x2="70.512" y2="2"/>
			<line fill="none" stroke="#C1C1C1" stroke-width="0.2" stroke-miterlimit="10" x1="67.543" y1="60" x2="67.543" y2="2"/>
			<line fill="none" stroke="#C1C1C1" stroke-width="0.2" stroke-miterlimit="10" x1="64.573" y1="60" x2="64.573" y2="2"/>
			<line fill="none" stroke="#C1C1C1" stroke-width="0.2" stroke-miterlimit="10" x1="61.604" y1="60" x2="61.604" y2="2"/>
			<line fill="none" stroke="#C1C1C1" stroke-width="0.2" stroke-miterlimit="10" x1="58.635" y1="60" x2="58.635" y2="2"/>
			<line fill="none" stroke="#C1C1C1" stroke-width="0.2" stroke-miterlimit="10" x1="147.809" y1="60" x2="147.809" y2="2"/>
			<line fill="none" stroke="#C1C1C1" stroke-width="0.2" stroke-miterlimit="10" x1="144.839" y1="60" x2="144.84" y2="2"/>
			<line fill="none" stroke="#C1C1C1" stroke-width="0.2" stroke-miterlimit="10" x1="141.87" y1="60" x2="141.87" y2="2"/>
			<line fill="none" stroke="#C1C1C1" stroke-width="0.2" stroke-miterlimit="10" x1="138.901" y1="60" x2="138.901" y2="2"/>
			<line fill="none" stroke="#C1C1C1" stroke-width="0.2" stroke-miterlimit="10" x1="135.931" y1="60" x2="135.931" y2="2"/>
			<line fill="none" stroke="#C1C1C1" stroke-width="0.2" stroke-miterlimit="10" x1="132.962" y1="60" x2="132.962" y2="2"/>
			<line fill="none" stroke="#C1C1C1" stroke-width="0.2" stroke-miterlimit="10" x1="129.992" y1="60" x2="129.993" y2="2"/>
			<line fill="none" stroke="#C1C1C1" stroke-width="0.2" stroke-miterlimit="10" x1="127.023" y1="60" x2="127.023" y2="2"/>
			<line fill="none" stroke="#C1C1C1" stroke-width="0.2" stroke-miterlimit="10" x1="124.054" y1="60" x2="124.054" y2="2"/>
			<line fill="none" stroke="#C1C1C1" stroke-width="0.2" stroke-miterlimit="10" x1="121.084" y1="60" x2="121.084" y2="2"/>
			<line fill="none" stroke="#C1C1C1" stroke-width="0.2" stroke-miterlimit="10" x1="118.115" y1="60" x2="118.115" y2="2"/>
			<line fill="none" stroke="#C1C1C1" stroke-width="0.2" stroke-miterlimit="10" x1="115.145" y1="60" x2="115.145" y2="2"/>
		</g>
	</g>
</g>
<g id="Layer_1">
	<g>
		<polygon fill="#FFFFFF" points="146.157,6.128 144.437,4.064 142.716,2 146.157,2 149.599,2 147.878,4.064 		"/>
		<polygon fill="#FFFFFF" points="139.028,6.128 137.308,4.064 135.587,2 139.028,2 142.47,2 140.749,4.064 		"/>
		<polygon fill="#FFFFFF" points="131.899,6.128 130.178,4.064 128.458,2 131.899,2 135.341,2 133.62,4.064 		"/>
		<polygon fill="#FFFFFF" points="124.77,6.128 123.049,4.064 121.329,2 124.77,2 128.212,2 126.491,4.064 		"/>
		<polygon fill="#FFFFFF" points="117.641,6.128 115.92,4.064 114.199,2 117.641,2 121.083,2 119.362,4.064 		"/>
		<polygon fill="#FFFFFF" points="110.512,6.128 108.791,4.064 107.07,2 110.512,2 113.954,2 112.233,4.064 		"/>
		<polygon fill="#FFFFFF" points="103.383,6.128 101.662,4.064 99.941,2 103.383,2 106.824,2 105.104,4.064 		"/>
		<polygon fill="#FFFFFF" points="96.254,6.128 94.533,4.064 92.812,2 96.254,2 99.695,2 97.975,4.064 		"/>
		<polygon fill="#FFFFFF" points="89.125,6.128 87.404,4.064 85.683,2 89.125,2 92.566,2 90.845,4.064 		"/>
		<polygon fill="#FFFFFF" points="81.996,6.128 80.275,4.064 78.554,2 81.996,2 85.437,2 83.716,4.064 		"/>
		<polygon fill="#FFFFFF" points="74.867,6.128 73.146,4.064 71.425,2 74.867,2 78.308,2 76.587,4.064 		"/>
		<polygon fill="#FFFFFF" points="67.737,6.128 66.017,4.064 64.296,2 67.737,2 71.179,2 69.458,4.064 		"/>
		<polygon fill="#FFFFFF" points="60.608,6.128 58.888,4.064 57.167,2 60.608,2 64.05,2 62.329,4.064 		"/>
		<polygon fill="#FFFFFF" points="53.479,6.128 51.758,4.064 50.038,2 53.479,2 56.921,2 55.2,4.064 		"/>
		<polygon fill="#FFFFFF" points="46.35,6.128 44.629,4.064 42.909,2 46.35,2 49.792,2 48.071,4.064 		"/>
		<polygon fill="#FFFFFF" points="39.221,6.128 37.5,4.064 35.779,2 39.221,2 42.663,2 40.942,4.064 		"/>
		<polygon fill="#FFFFFF" points="32.092,6.128 30.371,4.064 28.65,2 32.092,2 35.534,2 33.813,4.064 		"/>
		<polygon fill="#FFFFFF" points="24.963,6.128 23.242,4.064 21.521,2 24.963,2 28.405,2 26.684,4.064 		"/>
		<polygon fill="#FFFFFF" points="17.834,6.128 16.113,4.064 14.392,2 17.834,2 21.275,2 19.555,4.064 		"/>
		<polygon fill="#FFFFFF" points="10.705,6.128 8.984,4.064 7.263,2 10.705,2 14.146,2 12.426,4.064 		"/>
		<polygon fill="#FFFFFF" points="3.576,6.128 1.855,4.064 0.134,2 3.576,2 7.017,2 5.296,4.064 		"/>
	</g>
	<g>
		<path fill="#D2D2D2" d="M34.382,14.079c-0.06-0.011-0.116,0.023-0.129,0.076c-0.391,0.084-1.453,0.326-1.481,0.485
			c-0.029,0.159,0.883,0.755,1.221,0.969c-0.006,0.054,0.035,0.105,0.095,0.116c0.057,0.01,0.11-0.021,0.127-0.069
			c0.01,0.002,0.02,0.007,0.03,0.009l5.58,1c0.233,0.042,0.455-0.113,0.497-0.346l0.113-0.632c0.042-0.232-0.113-0.455-0.346-0.497
			l-5.58-1c-0.01-0.002-0.021-0.001-0.031-0.002C34.478,14.137,34.44,14.089,34.382,14.079z"/>
		<path fill="#CECECE" d="M76.779,49.761c-0.038-0.048-0.102-0.06-0.147-0.03c-0.346-0.199-1.297-0.73-1.425-0.631
			c-0.128,0.099,0.151,1.152,0.258,1.537c-0.04,0.036-0.044,0.101-0.007,0.15c0.036,0.046,0.095,0.058,0.14,0.034
			c0.006,0.009,0.01,0.018,0.017,0.027l3.476,4.478c0.145,0.187,0.414,0.221,0.601,0.076l0.507-0.394
			c0.186-0.145,0.22-0.414,0.076-0.6l-3.476-4.478c-0.007-0.008-0.015-0.015-0.022-0.023C76.812,49.868,76.814,49.807,76.779,49.761
			z"/>
		<path fill="#D5D5D5" d="M31.918,56.834c-0.017,0.059,0.011,0.118,0.062,0.137c0.041,0.397,0.164,1.48,0.32,1.526
			c0.155,0.046,0.847-0.795,1.097-1.107c0.053,0.011,0.108-0.023,0.125-0.082c0.016-0.056-0.009-0.111-0.055-0.133
			c0.004-0.01,0.009-0.019,0.012-0.029l1.605-5.437c0.067-0.227-0.062-0.465-0.289-0.532l-0.616-0.182
			c-0.226-0.067-0.464,0.063-0.531,0.289l-1.606,5.437c-0.003,0.01-0.003,0.02-0.006,0.031
			C31.986,56.745,31.935,56.778,31.918,56.834z"/>
		<path fill="#FFFFFF" d="M8.565,50.39c-0.059,0.017-0.094,0.071-0.083,0.125c-0.315,0.246-1.165,0.927-1.121,1.083
			c0.044,0.155,1.124,0.293,1.521,0.339C8.901,51.988,8.96,52.017,9.018,52c0.056-0.016,0.09-0.066,0.084-0.118
			c0.01-0.002,0.021-0.003,0.031-0.005l5.457-1.537c0.227-0.064,0.36-0.3,0.296-0.528l-0.174-0.617
			c-0.064-0.227-0.3-0.36-0.528-0.296l-5.457,1.537c-0.01,0.003-0.019,0.008-0.029,0.012C8.676,50.4,8.621,50.375,8.565,50.39z"/>
		<path fill="#DADADA" d="M20.659,54.794l7.64-38.82L2.338,10.839L20.659,54.794z M19.56,39.602L9.784,17.792l13.559,2.681
			L19.56,39.602z"/>
		<g>
			<path fill="#D2D2D2" d="M81.17,30.743c-0.13-1.438,0.931-2.709,2.369-2.838l16.727-1.507c1.438-0.13,2.708,0.931,2.838,2.369
				l2.336,25.925c0.129,1.438-0.931,2.708-2.369,2.838l-16.726,1.508c-1.438,0.13-2.709-0.931-2.838-2.369L81.17,30.743z"/>
			<path fill="#949494" d="M88.929,56.277c-0.035-0.387,0.258-0.729,0.655-0.765l9.684-0.879c0.397-0.036,0.747,0.248,0.782,0.635
				l0,0c0.035,0.387-0.258,0.729-0.655,0.765l-9.684,0.879C89.315,56.948,88.964,56.663,88.929,56.277L88.929,56.277z"/>
			<path fill="#C9C9C9" d="M91.367,54.81c-0.044-0.481,0.311-0.906,0.792-0.95l4.281-0.389c0.481-0.044,0.906,0.311,0.95,0.792l0,0
				c0.044,0.481-0.311,0.906-0.792,0.95l-4.281,0.389C91.835,55.646,91.41,55.291,91.367,54.81L91.367,54.81z"/>
		</g>
		<g>
			<polygon fill="#818181" points="113.409,11.308 113.753,10.996 132.262,18.59 132.103,18.978 			"/>
			<polygon fill="#818181" points="113.101,12.426 113.131,11.986 131.825,19.656 131.666,20.043 			"/>
			
				<rect x="122.229" y="5.379" transform="matrix(-0.3797 0.9251 -0.9251 -0.3797 183.4913 -92.0771)" fill="#909090" width="0.776" height="20.206"/>
			<path fill="#E5E5E5" d="M113.418,11.287c0,0,0.304,0.343,0.214,0.462c-0.09,0.119-0.519,0.198-0.509,0.257
				c0.01,0.058,0.282,0.248,0.243,0.359c-0.039,0.111-0.209,0.084-0.209,0.084l-2.411-1.785l3.007,0.332
				C113.753,10.996,113.988,11.357,113.418,11.287z"/>
			<path fill="#909090" d="M111.836,10.784l-1.09-0.12l0.873,0.648C111.619,11.312,111.953,11.138,111.836,10.784z"/>
		</g>
		<g>
			<polygon fill="#818181" points="128.364,10.996 128.79,10.811 143.891,23.933 143.616,24.249 			"/>
			<polygon fill="#818181" points="127.714,11.957 127.883,11.55 143.136,24.803 142.861,25.119 			"/>
			
				<rect x="135.362" y="7.797" transform="matrix(-0.6561 0.7547 -0.7547 -0.6561 238.3208 -72.8074)" fill="#909090" width="0.776" height="20.206"/>
			<path fill="#E5E5E5" d="M128.379,10.98c0,0,0.178,0.422,0.055,0.506c-0.123,0.084-0.555,0.022-0.564,0.08
				c-0.009,0.058,0.188,0.325,0.115,0.418c-0.072,0.093-0.225,0.013-0.225,0.013l-1.712-2.463l2.742,1.278
				C128.79,10.811,128.897,11.228,128.379,10.98z"/>
			<path fill="#909090" d="M127.041,9.996l-0.994-0.463l0.619,0.893C126.667,10.427,127.039,10.369,127.041,9.996z"/>
		</g>
		<path fill="#FFFFFF" d="M59.075,45.996l0.477-3.516c0.194-1.43,1.511-2.433,2.942-2.239l0.185,0.025
			c1.431,0.194,2.433,1.511,2.239,2.942l-0.451,3.33"/>
		<path fill="#B2B2B2" d="M64.466,46.539l-0.502,3.7c-0.194,1.43-1.511,2.433-2.942,2.239l-0.185-0.025
			c-1.431-0.194-2.433-1.511-2.239-2.942l0.477-3.515"/>
		<path opacity="0.46" fill="#A3A3A3" d="M62.679,40.266l-0.185-0.025c-1.431-0.194-2.748,0.809-2.942,2.239l-0.477,3.516
			l-0.477,3.515c-0.194,1.43,0.808,2.748,2.239,2.942l0.185,0.025"/>
		<path fill="#FFFFFF" d="M100.057,17.352c0.293-1.414,1.677-2.322,3.091-2.029l16.444,3.412c1.414,0.293,2.322,1.677,2.029,3.091
			l-5.288,25.487c-0.293,1.414-1.677,2.322-3.091,2.029L96.798,45.93c-1.414-0.293-2.322-1.677-2.029-3.091L100.057,17.352z"/>
		<g opacity="0.5">
			
				<line fill="none" stroke="#444444" stroke-width="2" stroke-linecap="round" stroke-linejoin="round" stroke-miterlimit="10" x1="113.953" y1="45.135" x2="105.374" y2="43.356"/>
			
				<line fill="none" stroke="#444444" stroke-width="2" stroke-linecap="round" stroke-linejoin="round" stroke-miterlimit="10" x1="114.115" y1="42.267" x2="98.812" y2="39.092"/>
			
				<line fill="none" stroke="#444444" stroke-width="2" stroke-linecap="round" stroke-linejoin="round" stroke-miterlimit="10" x1="114.5" y1="40.412" x2="99.197" y2="37.237"/>
			
				<line fill="none" stroke="#444444" stroke-width="2" stroke-linecap="round" stroke-linejoin="round" stroke-miterlimit="10" x1="114.885" y1="38.557" x2="99.582" y2="35.382"/>
			
				<line fill="none" stroke="#444444" stroke-width="2" stroke-linecap="round" stroke-linejoin="round" stroke-miterlimit="10" x1="115.269" y1="36.702" x2="99.966" y2="33.527"/>
			
				<line fill="none" stroke="#444444" stroke-width="2" stroke-linecap="round" stroke-linejoin="round" stroke-miterlimit="10" x1="115.654" y1="34.847" x2="100.351" y2="31.672"/>
			
				<line fill="none" stroke="#444444" stroke-width="2" stroke-linecap="round" stroke-linejoin="round" stroke-miterlimit="10" x1="116.039" y1="32.992" x2="100.736" y2="29.817"/>
			
				<line fill="none" stroke="#444444" stroke-width="2" stroke-linecap="round" stroke-linejoin="round" stroke-miterlimit="10" x1="116.424" y1="31.137" x2="101.121" y2="27.962"/>
			
				<line fill="none" stroke="#444444" stroke-width="2" stroke-linecap="round" stroke-linejoin="round" stroke-miterlimit="10" x1="116.809" y1="29.282" x2="101.506" y2="26.108"/>
			
				<line fill="none" stroke="#444444" stroke-width="2" stroke-linecap="round" stroke-linejoin="round" stroke-miterlimit="10" x1="117.194" y1="27.427" x2="101.891" y2="24.253"/>
			
				<line fill="none" stroke="#444444" stroke-width="2" stroke-linecap="round" stroke-linejoin="round" stroke-miterlimit="10" x1="117.578" y1="25.573" x2="102.275" y2="22.398"/>
			
				<line fill="none" stroke="#444444" stroke-width="2" stroke-linecap="round" stroke-linejoin="round" stroke-miterlimit="10" x1="117.963" y1="23.718" x2="102.66" y2="20.543"/>
		</g>
		<rect x="32.685" y="23.363" fill="#FFFFFF" width="20.155" height="27.758"/>
		<g>
			
				<rect x="41.659" y="4.094" transform="matrix(-0.6731 -0.7395 0.7395 -0.6731 56.0833 74.2225)" fill="#DADADA" width="5.573" height="41.245"/>
			
				<line fill="none" stroke="#AAAAAA" stroke-width="2.1823" stroke-miterlimit="10" x1="32.536" y1="39.274" x2="29.596" y2="36.027"/>
			
				<line fill="none" stroke="#AAAAAA" stroke-width="2.1823" stroke-miterlimit="10" x1="33.746" y1="38.178" x2="30.805" y2="34.931"/>
			
				<line fill="none" stroke="#AAAAAA" stroke-width="2.1823" stroke-miterlimit="10" x1="34.955" y1="37.083" x2="32.015" y2="33.836"/>
			
				<line fill="none" stroke="#AAAAAA" stroke-width="2.1823" stroke-miterlimit="10" x1="36.165" y1="35.988" x2="33.225" y2="32.741"/>
			
				<line fill="none" stroke="#AAAAAA" stroke-width="2.1823" stroke-miterlimit="10" x1="37.375" y1="34.892" x2="34.434" y2="31.645"/>
			
				<line fill="none" stroke="#AAAAAA" stroke-width="2.1823" stroke-miterlimit="10" x1="38.584" y1="33.797" x2="35.644" y2="30.55"/>
			
				<line fill="none" stroke="#AAAAAA" stroke-width="2.1823" stroke-miterlimit="10" x1="39.794" y1="32.702" x2="36.853" y2="29.454"/>
			
				<line fill="none" stroke="#AAAAAA" stroke-width="2.1823" stroke-miterlimit="10" x1="41.003" y1="31.606" x2="38.063" y2="28.359"/>
			
				<line fill="none" stroke="#AAAAAA" stroke-width="2.1823" stroke-miterlimit="10" x1="42.213" y1="30.511" x2="39.273" y2="27.264"/>
			
				<line fill="none" stroke="#AAAAAA" stroke-width="2.1823" stroke-miterlimit="10" x1="43.423" y1="29.415" x2="40.483" y2="26.168"/>
			
				<line fill="none" stroke="#AAAAAA" stroke-width="2.1823" stroke-miterlimit="10" x1="44.633" y1="28.32" x2="41.692" y2="25.073"/>
			
				<line fill="none" stroke="#AAAAAA" stroke-width="2.1823" stroke-miterlimit="10" x1="45.842" y1="27.225" x2="42.902" y2="23.977"/>
			
				<line fill="none" stroke="#AAAAAA" stroke-width="2.1823" stroke-miterlimit="10" x1="47.052" y1="26.129" x2="44.111" y2="22.882"/>
			
				<line fill="none" stroke="#AAAAAA" stroke-width="2.1823" stroke-miterlimit="10" x1="48.262" y1="25.034" x2="45.321" y2="21.787"/>
			
				<line fill="none" stroke="#AAAAAA" stroke-width="2.1823" stroke-miterlimit="10" x1="49.471" y1="23.938" x2="46.531" y2="20.691"/>
			
				<line fill="none" stroke="#AAAAAA" stroke-width="2.1823" stroke-miterlimit="10" x1="50.681" y1="22.843" x2="47.741" y2="19.596"/>
			
				<line fill="none" stroke="#AAAAAA" stroke-width="2.1823" stroke-miterlimit="10" x1="51.891" y1="21.747" x2="48.95" y2="18.5"/>
			
				<line fill="none" stroke="#AAAAAA" stroke-width="2.1823" stroke-miterlimit="10" x1="53.1" y1="20.652" x2="50.16" y2="17.405"/>
			
				<line fill="none" stroke="#AAAAAA" stroke-width="2.1823" stroke-miterlimit="10" x1="54.31" y1="19.557" x2="51.37" y2="16.31"/>
			
				<line fill="none" stroke="#AAAAAA" stroke-width="2.1823" stroke-miterlimit="10" x1="55.519" y1="18.462" x2="52.579" y2="15.214"/>
			
				<line fill="none" stroke="#AAAAAA" stroke-width="2.1823" stroke-miterlimit="10" x1="56.729" y1="17.366" x2="53.789" y2="14.119"/>
			
				<line fill="none" stroke="#AAAAAA" stroke-width="2.1823" stroke-miterlimit="10" x1="57.939" y1="16.271" x2="54.998" y2="13.024"/>
			
				<line fill="none" stroke="#AAAAAA" stroke-width="2.1823" stroke-miterlimit="10" x1="59.148" y1="15.175" x2="56.208" y2="11.928"/>
			
				<line fill="none" stroke="#AAAAAA" stroke-width="2.1823" stroke-miterlimit="10" x1="60.358" y1="14.08" x2="57.418" y2="10.833"/>
		</g>
		<path fill="none" stroke="#ACACAC" stroke-width="3" stroke-linecap="round" stroke-linejoin="round" stroke-miterlimit="10" d="
			M46.673,28.435c1.847-0.725,3.834,2.979,2.063,4.294c-2.461,1.828-4.636-1.95-2.25-1.357c0.933,0.232,1.616,1.39,1.494,2.291
			c-0.158,1.169-0.978,1.246-2.058,1.489c-1.57,0.352-5.38-0.415-5.191,2.213c1.251,0.644,2.741,0.507,3.656,1.563
			c1.011,1.167,0.823,2.899-0.28,3.745c-1.275,0.977-2.706,0.105-4.164,0.504c-1.272,0.348-2.171,1.631-3.351,2.064"/>
		<path fill="#ACACAC" d="M36.116,47.194c0.03-0.053,0.016-0.117-0.029-0.147c0.049-0.397,0.168-1.481,0.026-1.561
			c-0.141-0.079-1.004,0.589-1.317,0.837c-0.05-0.023-0.111-0.001-0.141,0.052c-0.028,0.051-0.016,0.111,0.024,0.143
			c-0.006,0.009-0.013,0.017-0.018,0.026l-2.774,4.953c-0.116,0.206-0.042,0.468,0.164,0.583l0.561,0.314
			c0.206,0.116,0.468,0.042,0.583-0.164l2.774-4.953c0.005-0.009,0.008-0.019,0.012-0.029C36.03,47.266,36.087,47.245,36.116,47.194
			z"/>
		<path fill="#B1B1B1" d="M41.692,51.444c0.054-0.029,0.076-0.091,0.053-0.14c0.252-0.311,0.93-1.165,0.852-1.307
			c-0.077-0.142-1.163-0.036-1.561,0.008c-0.03-0.046-0.093-0.06-0.147-0.031c-0.051,0.028-0.073,0.085-0.056,0.133
			c-0.009,0.004-0.02,0.007-0.029,0.012l-4.984,2.717c-0.208,0.113-0.284,0.374-0.171,0.581l0.308,0.564
			c0.113,0.208,0.374,0.284,0.581,0.171l4.984-2.717c0.009-0.005,0.017-0.012,0.026-0.018C41.581,51.46,41.641,51.472,41.692,51.444
			z"/>
		<path fill="#C6C6C6" d="M49.302,51.176c-0.041,0.045-0.042,0.11-0.005,0.15c-0.137,0.376-0.499,1.405-0.379,1.514
			c0.119,0.109,1.111-0.346,1.473-0.517c0.043,0.034,0.108,0.027,0.149-0.019c0.039-0.043,0.041-0.104,0.009-0.144
			c0.007-0.007,0.016-0.013,0.024-0.021l3.826-4.194c0.159-0.175,0.147-0.446-0.028-0.605l-0.475-0.433
			c-0.175-0.16-0.446-0.147-0.605,0.028l-3.826,4.194c-0.007,0.008-0.012,0.017-0.019,0.025
			C49.402,51.125,49.342,51.133,49.302,51.176z"/>
		<path fill="#C6C6C6" d="M65.328,34.301c-0.003,0.061,0.039,0.112,0.093,0.118c0.137,0.376,0.523,1.396,0.685,1.403
			c0.162,0.006,0.628-0.98,0.794-1.344c0.055-0.002,0.1-0.049,0.102-0.11c0.002-0.058-0.036-0.106-0.086-0.116
			c0.001-0.01,0.004-0.02,0.005-0.031l0.226-5.672c0.009-0.236-0.175-0.436-0.411-0.445l-0.642-0.026
			c-0.237-0.01-0.436,0.175-0.445,0.411l-0.226,5.672c-0.001,0.011,0.001,0.021,0.002,0.031
			C65.372,34.198,65.33,34.243,65.328,34.301z"/>
		<path fill="#DADADA" d="M63.203,34.301c-0.003,0.061,0.039,0.112,0.093,0.118c0.137,0.376,0.523,1.396,0.685,1.403
			c0.162,0.006,0.628-0.98,0.794-1.344c0.055-0.002,0.1-0.049,0.102-0.11c0.002-0.058-0.036-0.106-0.086-0.116
			c0.001-0.01,0.004-0.02,0.005-0.031l0.226-5.672c0.009-0.236-0.175-0.436-0.411-0.445l-0.642-0.026
			c-0.236-0.01-0.436,0.175-0.445,0.411l-0.226,5.672c-0.001,0.011,0.001,0.021,0.002,0.031
			C63.247,34.198,63.206,34.243,63.203,34.301z"/>
		<path fill="#FFFFFF" d="M61.079,34.301c-0.003,0.061,0.039,0.112,0.093,0.118c0.137,0.376,0.523,1.396,0.685,1.403
			c0.162,0.006,0.628-0.98,0.794-1.344c0.055-0.002,0.1-0.049,0.102-0.11c0.002-0.058-0.036-0.106-0.086-0.116
			c0.001-0.01,0.004-0.02,0.005-0.031l0.226-5.672c0.009-0.236-0.175-0.436-0.411-0.445l-0.642-0.026
			c-0.236-0.01-0.436,0.175-0.445,0.411l-0.226,5.672c-0.001,0.011,0.001,0.021,0.002,0.031
			C61.122,34.198,61.081,34.243,61.079,34.301z"/>
		<path fill="#ACACAC" d="M58.954,34.301c-0.003,0.061,0.039,0.112,0.093,0.118c0.137,0.376,0.523,1.396,0.685,1.403
			c0.162,0.006,0.628-0.98,0.794-1.344c0.055-0.002,0.1-0.049,0.102-0.11c0.002-0.058-0.036-0.106-0.086-0.116
			c0.001-0.01,0.004-0.02,0.005-0.031l0.226-5.672c0.009-0.236-0.175-0.436-0.411-0.445l-0.642-0.026
			c-0.236-0.01-0.436,0.175-0.445,0.411l-0.226,5.672c-0.001,0.011,0.001,0.021,0.002,0.031
			C58.998,34.198,58.957,34.243,58.954,34.301z"/>
		<path fill="#B1B1B1" d="M56.829,34.301c-0.003,0.061,0.039,0.112,0.093,0.118c0.137,0.376,0.523,1.396,0.685,1.403
			c0.162,0.006,0.628-0.98,0.794-1.344c0.055-0.002,0.1-0.049,0.102-0.11c0.002-0.058-0.036-0.106-0.086-0.116
			c0.001-0.01,0.004-0.02,0.005-0.031l0.226-5.672c0.009-0.236-0.175-0.436-0.411-0.445l-0.642-0.026
			c-0.236-0.01-0.436,0.175-0.445,0.411l-0.226,5.672c-0.001,0.011,0.001,0.021,0.002,0.031
			C56.873,34.198,56.832,34.243,56.829,34.301z"/>
		<path fill="#E3E3E3" d="M55.641,23.623c0-0.412,0.334-0.747,0.747-0.747h11.379c0.412,0,0.747,0.334,0.747,0.747v8.13
			c0,0.412-0.334,0.747-0.747,0.747H56.388c-0.412,0-0.747-0.334-0.747-0.747V23.623z"/>
		<rect x="55.633" y="25.748" fill="#FFFFFF" width="12.889" height="4.31"/>
		<rect x="126.8" y="28.808" fill="#DADADA" width="13.444" height="11.577"/>
		
			<line fill="none" stroke="#B2B2B2" stroke-width="1.5" stroke-linecap="round" stroke-linejoin="round" stroke-miterlimit="10" x1="140.057" y1="38.518" x2="126.987" y2="38.518"/>
		<rect x="126.8" y="44.742" fill="#C6C6C6" width="13.444" height="11.577"/>
		
			<line fill="none" stroke="#A4A4A4" stroke-width="1.5" stroke-miterlimit="10" x1="140.057" y1="54.451" x2="126.987" y2="54.451"/>
		<g>
			<path fill="#FFFFFF" d="M77.302,17.89c0.31-0.158,0.742,0.069,0.967,0.508l1.989,3.89c0.224,0.439,0.155,0.923-0.154,1.081
				l-2.339,1.196c-0.31,0.158-0.742-0.069-0.967-0.508l-1.989-3.89c-0.224-0.439-0.155-0.923,0.154-1.081L77.302,17.89z"/>
			<path fill="#ACACAC" d="M90.123,11.015c0.367-0.188,0.817-0.042,1.005,0.325l2.38,4.655c0.188,0.367,0.042,0.817-0.325,1.005
				l-13.881,7.097c-0.367,0.188-0.817,0.042-1.005-0.325l-2.38-4.655c-0.188-0.367-0.042-0.817,0.325-1.005L90.123,11.015z"/>
			<path fill="#9B9B9B" d="M81.015,15.286c0.367-0.188,0.817-0.042,1.005,0.325l2.693,5.268c0.188,0.367,0.042,0.817-0.325,1.005
				l-5.348,2.735c-0.367,0.188-0.817,0.042-1.005-0.325l-2.693-5.268c-0.188-0.367-0.042-0.817,0.325-1.005L81.015,15.286z"/>
			<line fill="none" stroke="#B2B2B2" stroke-miterlimit="10" x1="84.388" y1="21.884" x2="81.015" y2="15.286"/>
			<line fill="none" stroke="#B2B2B2" stroke-miterlimit="10" x1="83.906" y1="22.13" x2="80.532" y2="15.533"/>
		</g>
	</g>
	<g>
	</g>
	<g>
	</g>
	<g>
	</g>
	<g>
	</g>
	<g>
	</g>
	<g>
	</g>
	<g>
	</g>
	<g>
	</g>
	<g>
	</g>
	<g>
	</g>
	<g>
	</g>
	<g>
	</g>
	<g>
	</g>
	<g>
	</g>
	<g>
	</g>
</g>
</svg>
