<?xml version="1.0" encoding="utf-8"?>
<!-- Generator: Adobe Illustrator 17.0.0, SVG Export Plug-In . SVG Version: 6.00 Build 0)  -->
<!DOCTYPE svg PUBLIC "-//W3C//DTD SVG 1.1//EN" "http://www.w3.org/Graphics/SVG/1.1/DTD/svg11.dtd">
<svg version="1.1" xmlns="http://www.w3.org/2000/svg" xmlns:xlink="http://www.w3.org/1999/xlink" x="0px" y="0px" width="40px"
	 height="10px" viewBox="0 0 40 10" enable-background="new 0 0 40 10" xml:space="preserve">
<g id="Layer_1">
	<path fill="none" stroke="#B75252" stroke-miterlimit="5" d="M39.5,5.259c0,4.241,0,4.241-4.343,4.241H5.043
		C0.5,9.5,0.5,9.5,0.5,5.259V4.767C0.5,0.5,0.5,0.5,5.043,0.5h30.114c4.343,0,4.343,0,4.343,4.267V5.259z"/>
</g>
<g id="Layer_2">
	<g>
		<path fill="#B75252" d="M5.162,3.567H2.876v0.917h2.098v0.75H2.876v1.111h2.391v0.776H1.995V2.802h3.167V3.567z"/>
		<path fill="#B75252" d="M5.782,2.802h0.946l1.714,3.011V2.802h0.841v4.319H8.38L6.623,4.057v3.064H5.782V2.802z"/>
		<path fill="#B75252" d="M10.368,3.253c0.348-0.355,0.79-0.533,1.327-0.533c0.719,0,1.245,0.238,1.577,0.715
			c0.183,0.268,0.282,0.536,0.295,0.806h-0.902c-0.058-0.207-0.131-0.363-0.221-0.469c-0.161-0.188-0.399-0.281-0.714-0.281
			c-0.322,0-0.575,0.132-0.761,0.397S10.69,4.527,10.69,5.011s0.098,0.847,0.294,1.088s0.444,0.362,0.746,0.362
			c0.31,0,0.546-0.104,0.708-0.311c0.09-0.111,0.165-0.279,0.224-0.501h0.896c-0.077,0.471-0.275,0.854-0.593,1.149
			s-0.725,0.442-1.222,0.442c-0.614,0-1.098-0.199-1.449-0.598c-0.352-0.4-0.527-0.95-0.527-1.647
			C9.768,4.243,9.968,3.662,10.368,3.253z"/>
		<path fill="#B75252" d="M17.308,3.567h-2.285v0.917h2.098v0.75h-2.098v1.111h2.391v0.776h-3.272V2.802h3.167V3.567z"/>
		<path fill="#B75252" d="M20.71,2.914c0.159,0.068,0.294,0.169,0.404,0.302c0.091,0.109,0.163,0.23,0.217,0.363
			s0.08,0.284,0.08,0.454c0,0.205-0.052,0.407-0.155,0.605s-0.274,0.338-0.513,0.42c0.199,0.08,0.34,0.194,0.424,0.341
			c0.082,0.147,0.124,0.373,0.124,0.676v0.29c0,0.197,0.008,0.331,0.023,0.401c0.024,0.111,0.08,0.193,0.167,0.246v0.108h-0.996
			c-0.027-0.096-0.047-0.173-0.059-0.231c-0.023-0.121-0.036-0.245-0.038-0.372l-0.006-0.401c-0.004-0.276-0.052-0.459-0.143-0.551
			c-0.092-0.092-0.263-0.138-0.515-0.138h-0.881v1.694h-0.882V2.802h2.065C20.323,2.808,20.551,2.845,20.71,2.914z M18.845,3.552
			v1.16h0.971c0.193,0,0.338-0.023,0.435-0.07c0.171-0.082,0.256-0.244,0.256-0.486c0-0.262-0.083-0.438-0.248-0.527
			c-0.093-0.051-0.231-0.076-0.417-0.076H18.845z"/>
		<path fill="#B75252" d="M24.869,2.914c0.159,0.068,0.294,0.169,0.404,0.302c0.091,0.109,0.163,0.23,0.217,0.363
			s0.08,0.284,0.08,0.454c0,0.205-0.052,0.407-0.155,0.605s-0.274,0.338-0.513,0.42c0.199,0.08,0.34,0.194,0.424,0.341
			c0.082,0.147,0.124,0.373,0.124,0.676v0.29c0,0.197,0.008,0.331,0.023,0.401c0.024,0.111,0.08,0.193,0.167,0.246v0.108h-0.996
			c-0.027-0.096-0.047-0.173-0.059-0.231c-0.023-0.121-0.036-0.245-0.038-0.372l-0.006-0.401c-0.004-0.276-0.052-0.459-0.143-0.551
			c-0.092-0.092-0.263-0.138-0.515-0.138h-0.881v1.694h-0.882V2.802h2.065C24.482,2.808,24.71,2.845,24.869,2.914z M23.004,3.552
			v1.16h0.971c0.193,0,0.338-0.023,0.435-0.07c0.171-0.082,0.256-0.244,0.256-0.486c0-0.262-0.083-0.438-0.248-0.527
			C24.324,3.578,24.186,3.552,24,3.552H23.004z"/>
		<path fill="#B75252" d="M27.494,2.802h1.021l1.527,4.319h-0.979L28.78,6.233h-1.591l-0.293,0.888h-0.943L27.494,2.802z
			 M27.436,5.489h1.105L27.996,3.79L27.436,5.489z"/>
		<path fill="#B75252" d="M32.949,2.896c0.303,0.1,0.548,0.282,0.736,0.548c0.15,0.215,0.253,0.447,0.308,0.697
			s0.082,0.488,0.082,0.715c0,0.574-0.115,1.061-0.346,1.459c-0.313,0.537-0.796,0.806-1.448,0.806h-1.862V2.802h1.862
			C32.549,2.806,32.771,2.837,32.949,2.896z M31.295,3.552v2.819h0.833c0.427,0,0.725-0.21,0.893-0.63
			c0.092-0.23,0.138-0.505,0.138-0.823c0-0.439-0.069-0.777-0.207-1.012s-0.412-0.353-0.823-0.353H31.295z"/>
		<path fill="#B75252" d="M35.812,2.802h1.021l1.527,4.319h-0.979l-0.284-0.888h-1.591l-0.293,0.888h-0.943L35.812,2.802z
			 M35.754,5.489h1.105L36.314,3.79L35.754,5.489z"/>
	</g>
	<g>
	</g>
	<g>
	</g>
	<g>
	</g>
	<g>
	</g>
	<g>
	</g>
	<g>
	</g>
	<g>
	</g>
	<g>
	</g>
	<g>
	</g>
	<g>
	</g>
	<g>
	</g>
	<g>
	</g>
	<g>
	</g>
	<g>
	</g>
	<g>
	</g>
</g>
</svg>
