<?xml version="1.0" encoding="utf-8"?>
<!-- Generator: Adobe Illustrator 17.0.0, SVG Export Plug-In . SVG Version: 6.00 Build 0)  -->
<!DOCTYPE svg PUBLIC "-//W3C//DTD SVG 1.1//EN" "http://www.w3.org/Graphics/SVG/1.1/DTD/svg11.dtd">
<svg version="1.1" id="Layer_1" xmlns="http://www.w3.org/2000/svg" xmlns:xlink="http://www.w3.org/1999/xlink" x="0px" y="0px"
	 width="450px" height="450px" viewBox="0 0 450 450" enable-background="new 0 0 450 450" xml:space="preserve">
<path fill="#D9DCD0" d="M383.154,185.731c0,85.136-69.018,154.157-154.157,154.157c-85.138,0-154.157-69.021-154.157-154.157
	c0-85.14,69.02-154.158,154.157-154.158C314.137,31.573,383.154,100.591,383.154,185.731z"/>
<path fill="#152C34" d="M204.317,264.514v-0.049c0,0.021,0,0.039,0,0.058v0.019c0,1.104,1.033,1.776,5.72,1.776
	c9.072,0,18.895,0,22.49,0c0.91,0,1.42,0,1.42,0c3.596,0,13.422,0,22.491,0c4.685,0,6.325,0,6.339-1.804h-0.437l0,0H204.317z"/>
<path fill="#152C34" d="M256.754,258.257c-4.182-4.263-4.34-13.584-4.34-13.584h-18.781h-1.42h-18.783c0,0-0.158,9.322-4.34,13.584
	c-4.184,4.259-10.733,8.06,0.631,8.06c9.071,0,18.895,0,22.491,0c0.908,0,1.42,0,1.42,0c3.595,0,13.419,0,22.49,0
	C267.487,266.318,260.936,262.517,256.754,258.257z"/>
<path fill="#152C34" d="M209.457,265.858c3.914-0.067,7.83-0.097,11.745-0.122l11.745-0.037l11.746,0.037l5.871,0.042l5.875,0.079
	l-5.875,0.078l-5.871,0.042l-11.746,0.039l-11.745-0.039C217.287,265.953,213.371,265.923,209.457,265.858z"/>
<path fill="#414F5A" d="M135.775,238.712c0,3.137,3.969,5.961,7.108,5.961h88.067h2.997h88.067c3.139,0,6.76-2.824,6.76-5.961
	v-10.273h-193V238.712z"/>
<path fill="#152C34" d="M322.015,113h-88.067h-2.997h-88.067c-3.139,0-7.108,2.942-7.108,6.081v109.359h193V119.081
	C328.775,115.942,325.154,113,322.015,113z M319.757,219.421H144.794v-97.402h174.963V219.421z"/>
<path fill="#152C34" d="M135.775,238.08c0,3.139,3.969,6.593,7.108,6.593h88.067h2.997h88.067c3.139,0,6.76-3.454,6.76-6.593v-9.64
	h-193V238.08z"/>
<rect x="145.123" y="121.064" fill="#FEFDFD" width="174.304" height="99.192"/>
<rect x="154.353" y="128.436" fill="#2CBCA3" width="161.1" height="7.805"/>
<rect x="226.628" y="156.082" fill="#2CBCA3" width="88.825" height="2.861"/>
<path fill="#2C8DBC" d="M177.174,143.325c-9.98,0-18.122,5.246-18.122,11.675c0,4.877,4.684,9.068,11.299,10.812
	c1.087,2.995,2.847,5.609,5.493,8.596c-1.153-2.434-1.759-5.258-1.895-7.921c1.048,0.122,2.123,0.188,3.225,0.188
	c9.981,0,18.124-5.244,18.124-11.675C195.298,148.571,187.155,143.325,177.174,143.325z"/>
<rect x="226.628" y="158.942" fill="#1E6283" width="88.825" height="33.568"/>
<rect x="159.224" y="179.738" fill="#2CBCA3" width="36.075" height="5.411"/>
<rect x="159.224" y="190.561" fill="#D9DCD0" width="36.075" height="5.411"/>
<rect x="159.224" y="201.383" fill="#1E6283" width="36.075" height="3.607"/>
<rect x="225.962" y="203.187" fill="#D9DCD0" width="90.187" height="9.019"/>
<circle fill="#9D9AB2" cx="111.212" cy="338.788" r="109.212"/>
<path fill="#FFFFFF" d="M165.205,378.777c-13.784,0-25.474-9.878-27.794-23.486c-2.616-15.343,7.737-29.953,23.08-32.57
	c1.579-0.269,3.187-0.406,4.776-0.406c13.784,0,25.474,9.877,27.794,23.485c2.616,15.343-7.737,29.954-23.08,32.571
	C168.402,378.64,166.795,378.777,165.205,378.777z"/>
<circle fill="#D9DCD0" cx="165.236" cy="350.546" r="26.034"/>
<path fill="#414F59" d="M165.227,360.916c-5.064,0-9.359-3.628-10.212-8.627c-0.961-5.636,2.842-11.003,8.478-11.964
	c0.579-0.099,1.169-0.149,1.753-0.149c5.064,0,9.359,3.628,10.212,8.626c0.961,5.637-2.842,11.004-8.478,11.965
	C166.4,360.866,165.811,360.916,165.227,360.916z"/>
<circle fill="#2C8DBC" cx="165.237" cy="350.546" r="7.81"/>
<circle fill="#414F59" cx="165.236" cy="350.546" r="4.687"/>
<path fill="#FFFFFF" d="M146.274,389.546c-0.047,5.641-4.656,10.174-10.295,10.127l-65.604-0.549
	c-5.639-0.047-10.173-4.657-10.126-10.297l0.851-101.68c0.048-5.639,4.658-10.173,10.297-10.126l65.603,0.549
	c5.638,0.047,10.173,4.658,10.126,10.297L146.274,389.546z"/>
<path fill="#1E6283" d="M125.894,287.31c-0.012,1.517-1.283,2.736-2.84,2.724l-37.985-0.292c-1.557-0.012-2.809-1.251-2.797-2.768
	l0,0c0.011-1.517,1.283-2.736,2.84-2.725l37.985,0.293C124.653,284.554,125.905,285.793,125.894,287.31L125.894,287.31z"/>
<path fill="#43515B" d="M115.857,292.075c-0.015,1.887-1.556,3.404-3.442,3.39l-16.792-0.129c-1.886-0.015-3.404-1.556-3.39-3.442
	l0,0c0.015-1.886,1.556-3.404,3.442-3.389l16.792,0.13C114.354,288.649,115.871,290.189,115.857,292.075L115.857,292.075z"/>
<g>
	<polygon fill="#2C8DBC" points="88.943,338.347 85.138,330.27 81.333,338.347 	"/>
</g>
<g>
	<polygon fill="#D9DCD0" points="99.839,338.347 93.154,322.831 86.469,338.347 	"/>
</g>
<g>
	<polygon fill="#42505A" points="113.508,338.347 104.775,311.46 96.043,338.347 	"/>
</g>
<g>
	<polygon fill="#2CBCA3" points="126.831,338.347 118.172,316.951 109.513,338.347 	"/>
</g>
<g>
	<g>
		<g>
			<path fill="#2C8DBC" d="M103.232,352.805c2.621,0,4.754,2.133,4.754,4.754c0,2.62-2.133,4.753-4.754,4.753
				c-2.622,0-4.754-2.133-4.754-4.753C98.478,354.937,100.61,352.805,103.232,352.805 M103.232,349.069
				c-4.688,0-8.489,3.801-8.489,8.49c0,4.688,3.801,8.489,8.489,8.489c4.689,0,8.489-3.801,8.489-8.489
				C111.72,352.87,107.92,349.069,103.232,349.069L103.232,349.069z"/>
		</g>
	</g>
</g>
<path fill="#126F93" d="M98.478,357.559c0-2.513,1.962-4.572,4.433-4.738v-3.744c-4.54,0.169-8.168,3.9-8.168,8.482
	c0,4.58,3.628,8.312,8.168,8.48v-3.743C100.439,362.129,98.478,360.071,98.478,357.559z"/>
<path fill="#73E5CF" d="M128.257,353.257c2.622,0,4.755,2.133,4.755,4.754c0,2.622-2.133,4.754-4.755,4.754
	c-2.621,0-4.754-2.132-4.754-4.754C123.503,355.389,125.636,353.257,128.257,353.257 M128.257,349.522
	c-4.688,0-8.489,3.801-8.489,8.489c0,4.689,3.801,8.489,8.489,8.489c4.689,0,8.489-3.801,8.489-8.489
	C136.746,353.322,132.946,349.522,128.257,349.522L128.257,349.522z"/>
<g>
	<path fill="#2CBCA3" d="M123.578,358.823h-3.77c0.406,4.282,3.993,7.636,8.372,7.675l-0.079-3.741
		C125.828,362.682,123.956,361.008,123.578,358.823z"/>
	<path fill="#2CBCA3" d="M128.257,353.257c2.622,0,4.755,2.133,4.755,4.754c0,0.277-0.029,0.548-0.075,0.812h3.77
		c0.026-0.267,0.04-0.538,0.04-0.812c0-4.688-3.801-8.489-8.489-8.489c-0.146,0-0.291,0.004-0.435,0.011l0.079,3.742
		C128.019,353.266,128.137,353.257,128.257,353.257z"/>
	<path fill="#2CBCA3" d="M123.503,358.011c0-2.501,1.943-4.552,4.398-4.736l-0.079-3.742c-4.486,0.226-8.054,3.936-8.054,8.478
		c0,0.274,0.015,0.545,0.04,0.812h3.77C123.533,358.558,123.503,358.288,123.503,358.011z"/>
</g>
<g>
	<path fill="#414F59" d="M78.856,353.249c2.622,0,4.755,2.133,4.755,4.755c0,2.621-2.133,4.754-4.755,4.754
		c-2.621,0-4.754-2.133-4.754-4.754C74.102,355.381,76.235,353.249,78.856,353.249 M78.856,349.514
		c-4.688,0-8.489,3.801-8.489,8.489c0,4.688,3.801,8.489,8.489,8.489c4.689,0,8.489-3.801,8.489-8.489
		C87.346,353.314,83.545,349.514,78.856,349.514L78.856,349.514z"/>
	<path fill="#1D2C39" d="M74.177,358.815h-3.77c0.409,4.304,4.028,7.671,8.436,7.677v-3.736
		C76.505,362.75,74.564,361.046,74.177,358.815z"/>
</g>
<rect x="70.392" y="374.753" fill="#2CBCA3" width="66.581" height="3.769"/>
<rect x="70.392" y="383.546" fill="#2C8DBC" width="66.581" height="3.769"/>
<path fill="#2CBCA3" d="M151.986,260.574l-0.521,75.892l50.761,0.395L151.986,260.574z M159.488,288.811l26.221,37.609
	l-26.512-0.206L159.488,288.811z"/>
<polygon fill="#2CBCA3" points="36.611,304.862 38.273,305.657 38.174,385.101 36.51,385.096 "/>
<polygon fill="#2CBCA3" points="32.038,305.41 33.7,304.858 33.601,385.095 31.938,385.093 "/>
<rect x="33.565" y="304.861" fill="#83EDD9" width="3.083" height="80.235"/>
<path fill="#F7F5F6" d="M36.698,304.863c0,0-0.805,1.63-1.375,1.481c-0.571-0.152-1.51-1.608-1.708-1.486
	c-0.199,0.124-0.488,1.41-0.954,1.432c-0.468,0.025-0.624-0.643-0.624-0.643l2.938-11.542l3.299,11.551
	C38.273,305.657,37.301,307.064,36.698,304.863z"/>
<path fill="#2CBCA3" d="M36.17,298.291l-1.196-4.185l-1.068,4.181C33.906,298.287,35.045,299.254,36.17,298.291z"/>
<polygon fill="#2C8DBC" points="49.657,309.27 51.215,310.015 51.123,384.538 49.563,384.534 "/>
<polygon fill="#2C8DBC" points="45.366,309.782 46.926,309.265 46.833,384.532 45.275,384.531 "/>
<rect x="46.799" y="309.268" fill="#D8F6FA" width="2.892" height="75.265"/>
<path fill="#D9D6DD" d="M49.738,309.27c0,0-0.753,1.529-1.289,1.389c-0.535-0.142-1.415-1.509-1.603-1.394
	c-0.186,0.116-0.457,1.321-0.895,1.343c-0.437,0.023-0.585-0.602-0.585-0.602l2.757-10.829l3.093,10.837
	C51.215,310.015,50.304,311.335,49.738,309.27z"/>
<path fill="#414F59" d="M49.243,303.104l-1.121-3.926l-1.003,3.924C47.119,303.102,48.187,304.008,49.243,303.104z"/>
<rect x="130.889" y="349.193" transform="matrix(0.4041 0.9147 -0.9147 0.4041 449.5741 113.1108)" fill="#2C8DBC" width="14.166" height="104.837"/>
<g>
	<line fill="#FFFFFF" x1="178.408" y1="376.106" x2="182.882" y2="386.303"/>
	<line fill="#FFFFFF" x1="174.61" y1="377.772" x2="179.083" y2="387.969"/>
	<line fill="#FFFFFF" x1="170.811" y1="379.439" x2="175.285" y2="389.636"/>
	<line fill="#FFFFFF" x1="167.012" y1="381.106" x2="171.486" y2="391.303"/>
	<line fill="#FFFFFF" x1="163.214" y1="382.772" x2="167.688" y2="392.969"/>
	<line fill="#FFFFFF" x1="159.415" y1="384.439" x2="163.89" y2="394.636"/>
	<line fill="#FFFFFF" x1="155.617" y1="386.106" x2="160.091" y2="396.303"/>
	<line fill="#FFFFFF" x1="151.82" y1="387.773" x2="156.292" y2="397.97"/>
	<line fill="#FFFFFF" x1="148.019" y1="389.439" x2="152.493" y2="399.636"/>
	<line fill="#FFFFFF" x1="144.221" y1="391.107" x2="148.695" y2="401.302"/>
	<line fill="#FFFFFF" x1="140.423" y1="392.773" x2="144.897" y2="402.969"/>
	<line fill="#FFFFFF" x1="136.624" y1="394.44" x2="141.099" y2="404.636"/>
	<line fill="#FFFFFF" x1="132.826" y1="396.107" x2="137.3" y2="406.302"/>
	<line fill="#FFFFFF" x1="129.027" y1="397.774" x2="133.502" y2="407.969"/>
	<line fill="#FFFFFF" x1="125.229" y1="399.44" x2="129.702" y2="409.636"/>
	<line fill="#FFFFFF" x1="121.43" y1="401.107" x2="125.904" y2="411.303"/>
	<line fill="#FFFFFF" x1="117.631" y1="402.773" x2="122.105" y2="412.969"/>
	<line fill="#FFFFFF" x1="113.833" y1="404.44" x2="118.308" y2="414.636"/>
	<line fill="#FFFFFF" x1="110.034" y1="406.107" x2="114.509" y2="416.302"/>
	<line fill="#FFFFFF" x1="106.236" y1="407.773" x2="110.71" y2="417.97"/>
	<line fill="#FFFFFF" x1="102.438" y1="409.44" x2="106.911" y2="419.636"/>
	<line fill="#FFFFFF" x1="98.64" y1="411.107" x2="103.113" y2="421.303"/>
	<line fill="#FFFFFF" x1="94.841" y1="412.773" x2="99.315" y2="422.969"/>
	<line fill="#FFFFFF" x1="91.043" y1="414.44" x2="95.517" y2="424.636"/>
</g>
<path fill="#414F59" d="M62.188,395.74l8.881,6.606c3.614,2.687,4.364,7.797,1.676,11.411l-0.348,0.467
	c-2.688,3.614-7.797,4.364-11.411,1.677l-8.414-6.259"/>
<path fill="#2CBCA3" d="M52.572,409.643l-9.348-6.953c-3.613-2.688-4.364-7.797-1.676-11.41l0.348-0.467
	c2.688-3.615,7.797-4.365,11.41-1.678l8.881,6.606"/>
<path opacity="0.46" fill="#2CBCA3" d="M72.397,414.224l0.348-0.467c2.688-3.614,1.938-8.724-1.676-11.411l-8.881-6.606
	l-8.881-6.606c-3.614-2.687-8.722-1.938-11.41,1.678l-0.348,0.467"/>
<path fill="#FFFFFF" d="M88.619,259.319c-0.313,0.006-0.561,0.229-0.577,0.509c-1.882,0.798-6.99,3.037-6.981,3.866
	c0.011,0.828,5.17,2.946,7.073,3.698c0.024,0.277,0.277,0.494,0.589,0.49c0.298-0.005,0.531-0.21,0.57-0.47
	c0.053,0.004,0.106,0.015,0.161,0.015l29.022-0.354c1.21-0.014,2.179-1.005,2.165-2.218l-0.04-3.287
	c-0.015-1.207-1.009-2.176-2.217-2.162l-29.024,0.353c-0.055,0.001-0.106,0.013-0.16,0.017
	C89.156,259.517,88.917,259.319,88.619,259.319z"/>
<path id="Path" fill="#1E6283" d="M351,58.921c0,13.182-10.61,23.869-23.692,23.869h-73.297c-13.08,0-23.687-10.687-23.687-23.869
	c0-11.905,8.647-21.765,19.963-23.572c-0.142-0.836-0.222-1.695-0.222-2.581c0-8.35,6.722-15.121,15.013-15.121
	c3.697,0,7.086,1.349,9.701,3.59C279.44,10.655,285.412,1,302.174,1c20.328,0,29.966,15.797,29.966,32.467
	c0,0.696-0.031,1.384-0.08,2.071C342.869,37.754,351,47.383,351,58.921z"/>
<path fill="#2C8DBC" d="M272.342,36.283c0-4.487,3.641-8.128,8.132-8.128c4.491,0,8.131,3.641,8.131,8.128
	c0,4.489-3.641,8.131-8.131,8.131C275.983,44.414,272.342,40.772,272.342,36.283z M284.382,54.648
	c-0.718-1.152-1.142-2.511-1.142-3.968c0-2.197,0.95-4.17,2.455-5.549c-0.578-0.1-1.167-0.163-1.776-0.163h-6.895
	c-5.741,0-10.408,4.671-10.408,10.408v8.44l0.02,0.129l0.582,0.182c4.716,1.476,8.897,2.099,12.468,2.245v-3.849
	C279.686,59.123,281.586,56.165,284.382,54.648z M302.929,44.414c4.487,0,8.128-3.643,8.128-8.131c0-4.487-3.641-8.128-8.128-8.128
	c-4.491,0-8.131,3.641-8.131,8.128C294.797,40.772,298.438,44.414,302.929,44.414z M306.374,44.967h-6.895
	c-1.135,0-2.226,0.187-3.246,0.526c1.284,1.351,2.078,3.174,2.078,5.186c0,1.457-0.421,2.816-1.142,3.972
	c2.796,1.513,4.696,4.476,4.696,7.87v3.836c0.672,0.031,1.33,0.053,1.959,0.053c7.648,0,12.083-2.18,12.358-2.319l0.543-0.275h0.059
	v-8.44C316.786,49.638,312.114,44.967,306.374,44.967z M285.736,50.955c0,2.784,2.256,5.044,5.04,5.044
	c2.786,0,5.044-2.26,5.044-5.044c0-2.786-2.258-5.04-5.044-5.04C287.992,45.914,285.736,48.169,285.736,50.955z M292.918,56.343
	h-4.282c-3.558,0-6.454,2.896-6.454,6.457v5.236l0.01,0.08l0.363,0.112c3.396,1.06,6.348,1.417,8.778,1.417
	c4.745,0,7.495-1.354,7.665-1.439l0.338-0.173l0.036,0.003V62.8C299.374,59.239,296.475,56.343,292.918,56.343z"/>
<path id="Path_1_" fill="#FEFDFD" d="M97.995,188.746c0,9.259-7.45,16.764-16.638,16.764H29.874
	c-9.188,0-16.635-7.505-16.635-16.764c0-8.361,6.074-15.289,14.021-16.556c-0.101-0.588-0.156-1.191-0.156-1.813
	c0-5.866,4.72-10.619,10.544-10.619c2.597,0,4.977,0.944,6.813,2.521c3.273-7.433,7.47-14.215,19.243-14.215
	c14.277,0,21.045,11.093,21.045,22.801c0,0.491-0.021,0.976-0.053,1.455C92.285,173.879,97.995,180.641,97.995,188.746z"/>
<g>
	<path fill="#2C8DBC" d="M73.311,184.801h-1.209c-0.327,0-0.709-0.295-0.834-0.645c-0.115-0.327-0.25-0.649-0.402-0.963
		c-0.16-0.334-0.101-0.81,0.131-1.041l0.861-0.862c0.603-0.602,0.603-1.582,0-2.187l-1.398-1.397
		c-0.292-0.292-0.68-0.452-1.093-0.452c-0.413,0-0.801,0.16-1.094,0.452l-0.861,0.86c-0.138,0.138-0.368,0.221-0.616,0.221
		c-0.154,0-0.302-0.03-0.425-0.091c-0.314-0.151-0.637-0.288-0.963-0.402c-0.35-0.126-0.647-0.506-0.647-0.833v-1.21
		c0-0.853-0.694-1.546-1.546-1.546h-1.976c-0.853,0-1.546,0.693-1.546,1.546v1.21c0,0.327-0.296,0.707-0.646,0.833
		c-0.326,0.114-0.65,0.25-0.962,0.402c-0.122,0.058-0.272,0.09-0.425,0.09c-0.247,0-0.479-0.083-0.617-0.221l-0.859-0.859
		c-0.292-0.292-0.68-0.452-1.094-0.452c-0.413,0-0.802,0.16-1.093,0.452l-1.399,1.398c-0.292,0.291-0.453,0.68-0.454,1.093
		c0,0.414,0.161,0.802,0.454,1.093l0.861,0.862c0.231,0.233,0.29,0.709,0.129,1.041c-0.15,0.314-0.286,0.636-0.402,0.963
		c-0.124,0.349-0.506,0.645-0.832,0.645h-1.209c-0.853,0-1.547,0.695-1.547,1.546v1.976c0,0.855,0.694,1.549,1.547,1.549h1.209
		c0.327,0,0.708,0.295,0.833,0.646c0.115,0.324,0.25,0.646,0.402,0.96c0.161,0.334,0.102,0.81-0.13,1.041l-0.861,0.862
		c-0.603,0.602-0.603,1.584,0,2.187l1.399,1.399c0.292,0.292,0.68,0.454,1.094,0.454c0.413,0,0.802-0.161,1.094-0.454l0.86-0.86
		c0.139-0.14,0.37-0.221,0.618-0.221c0.154,0,0.301,0.03,0.424,0.09c0.313,0.153,0.636,0.287,0.962,0.402
		c0.35,0.124,0.646,0.506,0.646,0.835v1.208c0,0.852,0.693,1.545,1.547,1.545h1.976c0.853,0,1.547-0.693,1.547-1.545v-1.208
		c0-0.328,0.296-0.71,0.646-0.835c0.325-0.116,0.649-0.25,0.962-0.401c0.121-0.058,0.272-0.091,0.424-0.091
		c0.247,0,0.479,0.081,0.617,0.221l0.861,0.86c0.292,0.292,0.68,0.454,1.094,0.454c0.414,0,0.802-0.161,1.094-0.454l1.397-1.399
		c0.603-0.602,0.603-1.585,0-2.187l-0.86-0.86c-0.232-0.233-0.291-0.709-0.13-1.043c0.152-0.312,0.287-0.636,0.402-0.96
		c0.124-0.351,0.505-0.646,0.832-0.646h1.209c0.854,0,1.547-0.695,1.547-1.548v-1.977C74.858,185.495,74.164,184.801,73.311,184.801
		z M66.76,187.336c0,2.501-2.034,4.532-4.533,4.532c-2.499,0-4.533-2.032-4.533-4.532c0-2.498,2.034-4.532,4.533-4.532
		C64.726,182.803,66.76,184.838,66.76,187.336z"/>
	<path fill="#2C8DBC" d="M52.855,174.879c0.029-0.083,0.127-0.154,0.173-0.154h0.605c0.569,0,1.031-0.461,1.031-1.03v-0.987
		c0-0.569-0.463-1.031-1.031-1.031h-0.605c-0.046,0-0.144-0.07-0.173-0.153c-0.061-0.171-0.132-0.342-0.212-0.506
		c-0.038-0.077-0.018-0.194,0.015-0.225l0.43-0.431c0.402-0.402,0.402-1.057,0-1.458l-0.698-0.699
		c-0.195-0.194-0.454-0.302-0.73-0.302c-0.275,0-0.534,0.108-0.729,0.304l-0.43,0.429c-0.014,0.013-0.06,0.034-0.125,0.034
		c-0.038,0-0.074-0.007-0.101-0.02c-0.165-0.08-0.335-0.15-0.506-0.211c-0.083-0.03-0.152-0.127-0.152-0.174v-0.605
		c0-0.569-0.462-1.031-1.031-1.031h-0.989c-0.568,0-1.031,0.462-1.031,1.031v0.605c0,0.047-0.069,0.144-0.152,0.174
		c-0.172,0.061-0.342,0.131-0.507,0.211c-0.026,0.013-0.062,0.02-0.1,0.02c-0.066,0-0.113-0.021-0.125-0.034l-0.43-0.429
		c-0.195-0.195-0.454-0.304-0.73-0.304c-0.275,0-0.534,0.108-0.729,0.304l-0.698,0.698c-0.402,0.401-0.402,1.057,0,1.459l0.43,0.429
		c0.032,0.031,0.053,0.148,0.015,0.225c-0.08,0.166-0.151,0.335-0.212,0.506c-0.029,0.083-0.128,0.153-0.173,0.153h-0.606
		c-0.569,0-1.031,0.462-1.031,1.031v0.987c0,0.569,0.462,1.031,1.031,1.031h0.606c0.046,0,0.144,0.07,0.173,0.153
		c0.061,0.171,0.133,0.341,0.213,0.506c0.037,0.076,0.017,0.194-0.015,0.225l-0.43,0.431c-0.195,0.194-0.302,0.452-0.302,0.729
		c0,0.275,0.108,0.535,0.302,0.729l0.698,0.699c0.195,0.194,0.454,0.303,0.729,0.303c0.275,0,0.535-0.109,0.73-0.303l0.43-0.431
		c0.013-0.013,0.059-0.036,0.125-0.036c0.038,0,0.074,0.007,0.101,0.02c0.165,0.08,0.336,0.151,0.506,0.213
		c0.083,0.03,0.152,0.127,0.152,0.174v0.605c0,0.569,0.463,1.031,1.031,1.031h0.989c0.569,0,1.031-0.462,1.031-1.031v-0.605
		c0-0.047,0.069-0.144,0.151-0.174c0.172-0.06,0.342-0.133,0.507-0.213c0.026-0.011,0.063-0.019,0.101-0.019
		c0.066,0,0.111,0.021,0.125,0.034l0.431,0.431c0.195,0.194,0.453,0.303,0.728,0.303c0.276,0,0.535-0.109,0.73-0.303l0.698-0.699
		c0.402-0.402,0.402-1.056,0-1.458l-0.43-0.431c-0.033-0.031-0.053-0.15-0.015-0.225C52.723,175.22,52.794,175.05,52.855,174.879z
		 M50.099,173.201c0,1.107-0.901,2.009-2.008,2.009c-1.108,0-2.009-0.902-2.009-2.009c0-1.108,0.9-2.009,2.009-2.009
		C49.198,171.192,50.099,172.092,50.099,173.201z"/>
</g>
<path fill="#FFFFFF" d="M441.318,237.303c0,1.458-1.182,2.639-2.639,2.639h-75.801c-1.458,0-2.639-1.182-2.639-2.639V136.555
	c0-1.458,1.182-2.639,2.639-2.639h75.801c1.458,0,2.639,1.182,2.639,2.639V237.303z"/>
<rect x="366.476" y="140.152" fill="#2C8DBC" width="66.527" height="95.632"/>
<path fill="#D9DCD0" d="M405.539,138.073c0,0,0.221-7.833-5.936-7.833c-6.158,0-5.717,7.833-5.717,7.833h-10.779v8.316h33.263
	v-8.316H405.539z M399.603,131.749c3.602-0.012,3.47,4.915,3.447,5.569l-6.801-0.026
	C396.056,131.41,399.603,131.749,399.603,131.749z"/>
<g>
	<g>
		<rect x="387.265" y="160.942" fill="#2CBCA3" width="37.421" height="2.079"/>
	</g>
	<g>
		<rect x="387.265" y="177.574" fill="#2CBCA3" width="37.421" height="2.079"/>
	</g>
	<g>
		<rect x="387.265" y="192.126" fill="#2CBCA3" width="37.421" height="2.079"/>
	</g>
	<g>
		<rect x="387.265" y="208.758" fill="#2CBCA3" width="37.421" height="2.079"/>
	</g>
</g>
<g>
	<path fill="#1E6283" d="M381.225,158.112l-3.918,3.289l-1.318-1.567c-0.363-0.432-1.009-0.489-1.442-0.126
		c-0.434,0.363-0.489,1.009-0.126,1.441l1.975,2.353c0.363,0.433,1.009,0.489,1.441,0.124l4.702-3.947
		c0.435-0.363,0.489-1.007,0.126-1.442C382.303,157.803,381.66,157.749,381.225,158.112z"/>
	<path fill="#1E6283" d="M381.225,174.825l-3.918,3.289l-1.318-1.567c-0.363-0.432-1.009-0.489-1.442-0.126
		c-0.434,0.365-0.489,1.009-0.126,1.442l1.975,2.353c0.363,0.432,1.009,0.489,1.441,0.126l4.702-3.949
		c0.435-0.365,0.489-1.009,0.126-1.441C382.303,174.516,381.66,174.459,381.225,174.825z"/>
	<path fill="#1E6283" d="M381.225,190.218l-3.918,3.289l-1.318-1.567c-0.363-0.433-1.009-0.489-1.442-0.126
		c-0.434,0.365-0.489,1.011-0.126,1.442l1.975,2.353c0.363,0.432,1.009,0.489,1.441,0.126l4.702-3.949
		c0.435-0.363,0.489-1.007,0.126-1.441C382.303,189.909,381.66,189.854,381.225,190.218z"/>
	<path fill="#1E6283" d="M381.138,205.81l-3.918,3.289l-1.318-1.567c-0.363-0.433-1.009-0.487-1.442-0.126
		c-0.434,0.365-0.491,1.011-0.126,1.442l1.973,2.353c0.363,0.432,1.009,0.489,1.443,0.126l4.702-3.949
		c0.435-0.363,0.489-1.007,0.126-1.441C382.216,205.502,381.57,205.447,381.138,205.81z"/>
</g>
<rect x="84.558" y="32.94" fill="#FEFDFD" width="47.065" height="63.845"/>
<path fill="#152C34" d="M138.024,29.373c0-1.719-1.392-3.111-3.11-3.111H81.748c-1.719,0-3.111,1.392-3.111,3.111v70.851
	c0,1.719,1.392,3.111,3.111,3.111h53.166c1.718,0,3.11-1.392,3.11-3.111V29.373z M131.912,96.785H84.532V33.03h47.379V96.785z"/>
<g>
	<path fill="#2CBCA3" d="M107.665,47.804c-4.874,0-8.829,3.947-8.829,8.827c0,2.97,1.477,5.585,3.73,7.183h10.198
		c2.248-1.597,3.727-4.213,3.727-7.183C116.492,51.754,112.539,47.804,107.665,47.804z M107.661,62.33
		c-0.514,0-0.922-1.534-0.922-3.425c0-1.891,0.409-3.426,0.922-3.426c0.514,0,0.932,1.533,0.932,3.426
		C108.595,60.796,108.178,62.33,107.661,62.33z"/>
	<path fill="#2CBCA3" d="M102.595,71.095h2.389c0.316,0.748,1.368,1.312,2.679,1.312c1.311,0,2.363-0.565,2.678-1.312h2.395V64.85
		h-10.141V71.095z M103.703,66.173h7.923v1.119h-7.923V66.173z M103.703,68.412h7.923v1.122h-7.923V68.412z"/>
	<path fill="#2CBCA3" d="M106.545,40.197h2.243v5.268h-2.243V40.197z M94.972,46.356l1.584-1.585l3.727,3.722l-1.58,1.587
		L94.972,46.356z M115.044,48.495l3.727-3.726l1.585,1.585l-3.729,3.727L115.044,48.495z"/>
</g>
<rect x="88.701" y="82.887" fill="#D9DCD0" width="38.778" height="1.888"/>
<rect x="88.701" y="84.098" fill="#1E6283" width="38.778" height="9.381"/>
<path id="MobileMe_13_" fill="#2CBCA3" d="M355.349,337.606c0,12.701-10.221,22.996-22.823,22.996h-70.62
	c-12.603,0-22.82-10.294-22.82-22.996c0-11.469,8.333-20.971,19.233-22.708c-0.137-0.805-0.214-1.633-0.214-2.485
	c0-8.048,6.474-14.57,14.463-14.57c3.564,0,6.828,1.299,9.347,3.458c4.49-10.194,10.246-19.498,26.395-19.498
	c19.585,0,28.867,15.218,28.867,31.278c0,0.671-0.029,1.336-0.074,1.996C347.513,317.213,355.349,326.489,355.349,337.606z"/>
<g>
	<g>
		<path fill="#2C8DBC" d="M322.753,319.683h-12.685v16.366c0,2.382-1.938,4.321-4.321,4.321h-19.529v5.479
			c0,1.363,1.105,2.469,2.469,2.469h19.185l8.019,6.696c1.046,0.873,1.609,0.515,1.257-0.802l-1.567-5.854
			c-0.003-0.015-0.01-0.027-0.016-0.04h7.188c1.362,0,2.467-1.105,2.467-2.469V322.15
			C325.22,320.788,324.115,319.683,322.753,319.683z"/>
		<path fill="#2C8DBC" d="M271.682,338.516h3.774c-0.004,0.013-0.011,0.026-0.015,0.04l-1.566,5.854
			c-0.223,0.831-0.08,1.279,0.315,1.279c0.233,0,0.553-0.155,0.941-0.478l8.018-6.696h3.07h19.528c1.365,0,2.47-1.105,2.47-2.469
			v-16.364v-7.333c0-1.362-1.105-2.469-2.47-2.469h-34.064c-1.363,0-2.469,1.107-2.469,2.469v23.697
			C269.214,337.41,270.318,338.516,271.682,338.516z"/>
	</g>
</g>
</svg>
